<svg width="360" height="264" viewBox="0 0 360 264" fill="none" xmlns="http://www.w3.org/2000/svg">
<path d="M8.75979 73.9298C9.19291 64.5317 16.1175 56.7061 25.393 55.1323L327.838 3.81708C339.755 1.79517 350.728 10.7246 351.17 22.8036L359.241 243.268C359.656 254.593 350.587 264 339.254 264H20.943C9.53582 264 0.439013 254.474 0.964177 243.079L8.75979 73.9298Z" fill="url(#paint0_linear_1687_640)"/>
<path d="M97.6146 178.24C95.9186 178.24 94.5026 177.912 93.3666 177.256C92.2466 176.584 91.4706 175.608 91.0386 174.328L94.8306 172.696C94.9106 173.272 95.0546 173.736 95.2626 174.088C95.4866 174.424 95.7826 174.672 96.1506 174.832C96.5186 174.976 96.9506 175.048 97.4466 175.048C97.8946 175.048 98.2706 174.976 98.5746 174.832C98.8946 174.672 99.1426 174.448 99.3186 174.16C99.4946 173.872 99.5826 173.528 99.5826 173.128C99.5826 172.712 99.4946 172.376 99.3186 172.12C99.1586 171.864 98.9186 171.68 98.5986 171.568C98.2946 171.456 97.9186 171.4 97.4706 171.4C97.2626 171.4 97.0706 171.408 96.8946 171.424C96.7186 171.424 96.5186 171.44 96.2946 171.472V168.784C96.4226 168.8 96.5506 168.816 96.6786 168.832C96.8066 168.832 96.9586 168.832 97.1346 168.832C97.8866 168.832 98.4226 168.68 98.7426 168.376C99.0786 168.056 99.2466 167.56 99.2466 166.888C99.2466 166.312 99.0786 165.872 98.7426 165.568C98.4226 165.264 97.9666 165.112 97.3746 165.112C96.7506 165.112 96.2386 165.28 95.8386 165.616C95.4386 165.936 95.1826 166.488 95.0706 167.272L91.4466 166.024C91.6226 165.144 91.9986 164.4 92.5746 163.792C93.1506 163.184 93.8706 162.72 94.7346 162.4C95.6146 162.08 96.5826 161.92 97.6386 161.92C98.8546 161.92 99.8786 162.096 100.711 162.448C101.543 162.8 102.175 163.304 102.607 163.96C103.039 164.616 103.255 165.384 103.255 166.264C103.255 166.952 103.143 167.528 102.919 167.992C102.711 168.456 102.439 168.832 102.103 169.12C101.783 169.408 101.455 169.624 101.119 169.768C100.783 169.896 100.503 169.976 100.279 170.008V170.08C100.567 170.08 100.895 170.136 101.263 170.248C101.631 170.36 101.991 170.544 102.343 170.8C102.695 171.04 102.983 171.376 103.207 171.808C103.447 172.24 103.567 172.776 103.567 173.416C103.567 174.408 103.303 175.264 102.775 175.984C102.263 176.704 101.559 177.264 100.663 177.664C99.7666 178.048 98.7506 178.24 97.6146 178.24ZM126.135 162.16V165.352H120.975V178H116.847V165.352H111.663V162.16H126.135ZM132.793 170.392C132.793 169.832 132.633 169.392 132.313 169.072C132.009 168.736 131.593 168.568 131.065 168.568C130.537 168.568 130.081 168.704 129.697 168.976C129.329 169.232 129.073 169.696 128.929 170.368L125.473 169.552C125.697 168.4 126.289 167.48 127.249 166.792C128.209 166.104 129.561 165.76 131.305 165.76C132.473 165.76 133.465 165.936 134.281 166.288C135.113 166.624 135.745 167.136 136.177 167.824C136.625 168.496 136.849 169.328 136.849 170.32V174.712C136.849 175.336 137.129 175.648 137.689 175.648C137.977 175.648 138.209 175.616 138.385 175.552L138.145 177.88C137.665 178.104 137.081 178.216 136.393 178.216C135.769 178.216 135.217 178.12 134.737 177.928C134.257 177.72 133.881 177.416 133.609 177.016C133.337 176.6 133.201 176.08 133.201 175.456V175.312L133.657 175.144C133.657 175.832 133.449 176.408 133.033 176.872C132.633 177.336 132.105 177.68 131.449 177.904C130.809 178.128 130.137 178.24 129.433 178.24C128.617 178.24 127.905 178.112 127.297 177.856C126.689 177.6 126.217 177.232 125.881 176.752C125.561 176.256 125.401 175.648 125.401 174.928C125.401 174.064 125.657 173.352 126.169 172.792C126.697 172.216 127.521 171.816 128.641 171.592L133.177 170.656L133.153 172.816L130.849 173.296C130.369 173.392 130.009 173.536 129.769 173.728C129.545 173.904 129.433 174.176 129.433 174.544C129.433 174.896 129.561 175.16 129.817 175.336C130.073 175.512 130.377 175.6 130.729 175.6C131.001 175.6 131.257 175.56 131.497 175.48C131.753 175.4 131.977 175.28 132.169 175.12C132.361 174.944 132.513 174.728 132.625 174.472C132.737 174.216 132.793 173.912 132.793 173.56V170.392ZM139.995 183.04V166H143.667L143.883 170.344L143.403 169.84C143.515 169.04 143.763 168.336 144.147 167.728C144.531 167.12 145.027 166.64 145.635 166.288C146.243 165.936 146.939 165.76 147.723 165.76C148.715 165.76 149.579 166.008 150.315 166.504C151.051 166.984 151.619 167.688 152.019 168.616C152.435 169.528 152.643 170.64 152.643 171.952C152.643 173.264 152.435 174.392 152.019 175.336C151.603 176.28 151.019 177 150.267 177.496C149.531 177.992 148.667 178.24 147.675 178.24C146.587 178.24 145.707 177.92 145.035 177.28C144.363 176.624 143.915 175.8 143.691 174.808L144.075 174.232V183.04H139.995ZM146.283 175.24C146.987 175.24 147.539 174.984 147.939 174.472C148.339 173.944 148.539 173.12 148.539 172C148.539 170.88 148.339 170.064 147.939 169.552C147.555 169.024 147.011 168.76 146.307 168.76C145.859 168.76 145.467 168.888 145.131 169.144C144.795 169.384 144.531 169.744 144.339 170.224C144.163 170.704 144.075 171.296 144.075 172C144.075 172.672 144.155 173.256 144.315 173.752C144.491 174.232 144.747 174.6 145.083 174.856C145.419 175.112 145.819 175.24 146.283 175.24ZM160.082 178.24C158.882 178.24 157.762 178.048 156.722 177.664C155.698 177.264 154.85 176.696 154.178 175.96L156.098 173.704C156.498 174.216 157.026 174.648 157.682 175C158.354 175.336 159.098 175.504 159.914 175.504C160.41 175.504 160.818 175.432 161.138 175.288C161.458 175.144 161.618 174.92 161.618 174.616C161.618 174.392 161.538 174.216 161.378 174.088C161.218 173.944 160.898 173.824 160.418 173.728L158.738 173.392C157.234 173.088 156.162 172.64 155.522 172.048C154.898 171.44 154.586 170.648 154.586 169.672C154.586 169.016 154.786 168.392 155.186 167.8C155.586 167.192 156.202 166.704 157.034 166.336C157.866 165.952 158.93 165.76 160.226 165.76C161.442 165.76 162.514 165.936 163.442 166.288C164.37 166.64 165.106 167.152 165.65 167.824L163.706 170.032C163.322 169.552 162.826 169.176 162.218 168.904C161.61 168.632 161.002 168.496 160.394 168.496C160.01 168.496 159.682 168.536 159.41 168.616C159.154 168.68 158.962 168.776 158.834 168.904C158.706 169.032 158.642 169.192 158.642 169.384C158.642 169.592 158.738 169.776 158.93 169.936C159.138 170.08 159.514 170.208 160.058 170.32L162.242 170.752C163.474 170.976 164.362 171.384 164.906 171.976C165.45 172.568 165.722 173.28 165.722 174.112C165.722 174.896 165.514 175.6 165.098 176.224C164.682 176.848 164.058 177.344 163.226 177.712C162.394 178.064 161.346 178.24 160.082 178.24ZM174.994 178V162.16H182.698C184.65 162.176 186.09 162.552 187.018 163.288C187.946 164.008 188.41 165.056 188.41 166.432C188.41 167.328 188.146 168.104 187.618 168.76C187.09 169.4 186.282 169.808 185.194 169.984V170.008C186.41 170.168 187.314 170.592 187.906 171.28C188.514 171.952 188.818 172.768 188.818 173.728C188.818 175.088 188.338 176.144 187.378 176.896C186.418 177.632 184.978 178 183.058 178H174.994ZM178.978 175.096H182.362C183.114 175.096 183.674 174.944 184.042 174.64C184.41 174.336 184.594 173.896 184.594 173.32C184.594 172.76 184.41 172.336 184.042 172.048C183.674 171.744 183.114 171.592 182.362 171.592H178.978V175.096ZM178.978 168.64H181.978C183.45 168.64 184.186 168.064 184.186 166.912C184.186 165.76 183.45 165.184 181.978 165.184H178.978V168.64ZM196.824 165.76C198.088 165.76 199.192 166.008 200.136 166.504C201.096 166.984 201.84 167.696 202.368 168.64C202.912 169.568 203.184 170.688 203.184 172C203.184 173.312 202.912 174.44 202.368 175.384C201.84 176.312 201.096 177.024 200.136 177.52C199.192 178 198.088 178.24 196.824 178.24C195.592 178.24 194.496 178 193.536 177.52C192.576 177.024 191.824 176.312 191.28 175.384C190.752 174.44 190.488 173.312 190.488 172C190.488 170.688 190.752 169.568 191.28 168.64C191.824 167.696 192.576 166.984 193.536 166.504C194.496 166.008 195.592 165.76 196.824 165.76ZM196.824 168.664C196.36 168.664 195.96 168.776 195.624 169C195.288 169.224 195.032 169.584 194.856 170.08C194.68 170.576 194.592 171.216 194.592 172C194.592 172.784 194.68 173.424 194.856 173.92C195.032 174.4 195.288 174.76 195.624 175C195.96 175.224 196.36 175.336 196.824 175.336C197.304 175.336 197.712 175.224 198.048 175C198.384 174.76 198.64 174.4 198.816 173.92C198.992 173.424 199.08 172.784 199.08 172C199.08 171.216 198.992 170.576 198.816 170.08C198.64 169.584 198.384 169.224 198.048 169C197.712 168.776 197.304 168.664 196.824 168.664ZM211.192 165.76C212.456 165.76 213.56 166.008 214.504 166.504C215.464 166.984 216.208 167.696 216.736 168.64C217.28 169.568 217.552 170.688 217.552 172C217.552 173.312 217.28 174.44 216.736 175.384C216.208 176.312 215.464 177.024 214.504 177.52C213.56 178 212.456 178.24 211.192 178.24C209.96 178.24 208.864 178 207.904 177.52C206.944 177.024 206.192 176.312 205.648 175.384C205.12 174.44 204.856 173.312 204.856 172C204.856 170.688 205.12 169.568 205.648 168.64C206.192 167.696 206.944 166.984 207.904 166.504C208.864 166.008 209.96 165.76 211.192 165.76ZM211.192 168.664C210.728 168.664 210.328 168.776 209.992 169C209.656 169.224 209.4 169.584 209.224 170.08C209.048 170.576 208.96 171.216 208.96 172C208.96 172.784 209.048 173.424 209.224 173.92C209.4 174.4 209.656 174.76 209.992 175C210.328 175.224 210.728 175.336 211.192 175.336C211.672 175.336 212.08 175.224 212.416 175C212.752 174.76 213.008 174.4 213.184 173.92C213.36 173.424 213.448 172.784 213.448 172C213.448 171.216 213.36 170.576 213.184 170.08C213.008 169.584 212.752 169.224 212.416 169C212.08 168.776 211.672 168.664 211.192 168.664ZM233.023 166L227.263 172.144L226.495 172.36L223.063 176.2L223.039 172.024L228.487 166H233.023ZM223.927 160.912V178H219.847V160.912H223.927ZM227.887 169.6L233.287 178H228.775L225.223 172L227.887 169.6ZM236.817 164.608C235.985 164.608 235.377 164.456 234.993 164.152C234.625 163.832 234.441 163.336 234.441 162.664C234.441 161.976 234.625 161.48 234.993 161.176C235.377 160.856 235.985 160.696 236.817 160.696C237.633 160.696 238.233 160.856 238.617 161.176C239.001 161.48 239.193 161.976 239.193 162.664C239.193 163.336 239.001 163.832 238.617 164.152C238.233 164.456 237.633 164.608 236.817 164.608ZM238.857 166V178H234.777V166H238.857ZM241.761 178V166H245.409L245.625 170.128L245.169 169.672C245.329 168.808 245.609 168.088 246.009 167.512C246.425 166.936 246.937 166.504 247.545 166.216C248.169 165.912 248.865 165.76 249.633 165.76C250.465 165.76 251.185 165.92 251.793 166.24C252.417 166.56 252.905 167.032 253.257 167.656C253.609 168.28 253.785 169.064 253.785 170.008V178H249.705V171.088C249.705 170.256 249.545 169.68 249.225 169.36C248.905 169.04 248.497 168.88 248.001 168.88C247.617 168.88 247.257 168.976 246.921 169.168C246.585 169.344 246.321 169.632 246.129 170.032C245.937 170.432 245.841 170.968 245.841 171.64V178H241.761ZM268.26 162.784L268.596 165.52C268.5 165.488 268.404 165.472 268.308 165.472C268.212 165.456 268.116 165.448 268.02 165.448C267.316 165.448 266.788 165.624 266.436 165.976C266.1 166.312 265.932 166.736 265.932 167.248L264.492 166.72C264.492 166.064 264.612 165.432 264.852 164.824C265.092 164.216 265.46 163.72 265.956 163.336C266.468 162.952 267.108 162.76 267.876 162.76C267.924 162.76 267.98 162.76 268.044 162.76C268.124 162.76 268.196 162.768 268.26 162.784ZM264.132 175.336C265.524 175.336 266.588 175.632 267.324 176.224C268.076 176.8 268.452 177.632 268.452 178.72C268.452 179.712 268.18 180.536 267.636 181.192C267.092 181.848 266.324 182.336 265.332 182.656C264.356 182.992 263.196 183.16 261.852 183.16C259.676 183.16 258.108 182.888 257.148 182.344C256.188 181.8 255.708 181.064 255.708 180.136C255.708 179.464 255.98 178.92 256.524 178.504C257.068 178.088 257.972 177.864 259.236 177.832L259.14 178.216C258.164 178.088 257.436 177.8 256.956 177.352C256.476 176.904 256.236 176.296 256.236 175.528C256.236 174.76 256.54 174.136 257.148 173.656C257.756 173.176 258.564 172.912 259.572 172.864L261.06 173.56H260.676C260.052 173.592 259.612 173.696 259.356 173.872C259.1 174.048 258.972 174.264 258.972 174.52C258.972 174.792 259.084 175 259.308 175.144C259.532 175.272 259.868 175.336 260.316 175.336H264.132ZM261.876 180.52C262.644 180.52 263.276 180.464 263.772 180.352C264.284 180.256 264.668 180.112 264.924 179.92C265.18 179.744 265.308 179.536 265.308 179.296C265.308 179.056 265.22 178.864 265.044 178.72C264.868 178.592 264.548 178.528 264.084 178.528H259.788C259.484 178.528 259.236 178.608 259.044 178.768C258.868 178.928 258.78 179.128 258.78 179.368C258.78 179.736 259.052 180.016 259.596 180.208C260.14 180.416 260.9 180.52 261.876 180.52ZM262.02 165.76C263.236 165.76 264.276 165.92 265.14 166.24C266.004 166.56 266.66 167.024 267.108 167.632C267.572 168.224 267.804 168.96 267.804 169.84C267.804 170.704 267.572 171.44 267.108 172.048C266.66 172.656 266.004 173.12 265.14 173.44C264.276 173.744 263.236 173.896 262.02 173.896C260.116 173.896 258.668 173.544 257.676 172.84C256.7 172.136 256.212 171.136 256.212 169.84C256.212 168.96 256.436 168.224 256.884 167.632C257.348 167.024 258.012 166.56 258.876 166.24C259.74 165.92 260.788 165.76 262.02 165.76ZM262.02 168.088C261.492 168.088 261.06 168.24 260.724 168.544C260.404 168.848 260.244 169.28 260.244 169.84C260.244 170.384 260.404 170.808 260.724 171.112C261.06 171.416 261.492 171.568 262.02 171.568C262.532 171.568 262.956 171.416 263.292 171.112C263.628 170.808 263.796 170.384 263.796 169.84C263.796 169.28 263.628 168.848 263.292 168.544C262.956 168.24 262.532 168.088 262.02 168.088ZM59.7791 186.06L60.8991 187.18C60.0591 187.94 59.3858 188.747 58.8791 189.6C58.3725 190.453 58.0058 191.36 57.7791 192.32C57.5525 193.267 57.4391 194.307 57.4391 195.44C57.4391 196.547 57.5525 197.587 57.7791 198.56C58.0058 199.52 58.3725 200.42 58.8791 201.26C59.3858 202.1 60.0591 202.907 60.8991 203.68L59.7791 204.8C58.3258 203.627 57.2258 202.26 56.4791 200.7C55.7458 199.127 55.3791 197.373 55.3791 195.44C55.3791 193.493 55.7458 191.733 56.4791 190.16C57.2258 188.587 58.3258 187.22 59.7791 186.06ZM67.3565 187.6C68.5432 187.6 69.5698 187.827 70.4365 188.28C71.3032 188.72 72.0365 189.373 72.6365 190.24L71.1965 191.62C70.6898 190.847 70.1165 190.293 69.4765 189.96C68.8498 189.613 68.1032 189.44 67.2365 189.44C66.5965 189.44 66.0698 189.527 65.6565 189.7C65.2432 189.873 64.9365 190.107 64.7365 190.4C64.5498 190.68 64.4565 191 64.4565 191.36C64.4565 191.773 64.5965 192.133 64.8765 192.44C65.1698 192.747 65.7098 192.987 66.4965 193.16L69.1765 193.76C70.4565 194.04 71.3632 194.467 71.8965 195.04C72.4298 195.613 72.6965 196.34 72.6965 197.22C72.6965 198.033 72.4765 198.74 72.0365 199.34C71.5965 199.94 70.9832 200.4 70.1965 200.72C69.4232 201.04 68.5098 201.2 67.4565 201.2C66.5232 201.2 65.6832 201.08 64.9365 200.84C64.1898 200.6 63.5365 200.273 62.9765 199.86C62.4165 199.447 61.9565 198.973 61.5965 198.44L63.0765 196.96C63.3565 197.427 63.7098 197.847 64.1365 198.22C64.5632 198.58 65.0565 198.86 65.6165 199.06C66.1898 199.26 66.8232 199.36 67.5165 199.36C68.1298 199.36 68.6565 199.287 69.0965 199.14C69.5498 198.993 69.8898 198.78 70.1165 198.5C70.3565 198.207 70.4765 197.86 70.4765 197.46C70.4765 197.073 70.3432 196.733 70.0765 196.44C69.8232 196.147 69.3432 195.92 68.6365 195.76L65.7365 195.1C64.9365 194.927 64.2765 194.68 63.7565 194.36C63.2365 194.04 62.8498 193.653 62.5965 193.2C62.3432 192.733 62.2165 192.213 62.2165 191.64C62.2165 190.893 62.4165 190.22 62.8165 189.62C63.2298 189.007 63.8232 188.52 64.5965 188.16C65.3698 187.787 66.2898 187.6 67.3565 187.6ZM81.0123 194.58C81.0123 193.913 80.8256 193.4 80.4523 193.04C80.0923 192.667 79.5923 192.48 78.9523 192.48C78.3523 192.48 77.8389 192.62 77.4123 192.9C76.9856 193.18 76.6723 193.633 76.4723 194.26L74.6723 193.5C74.9256 192.687 75.4189 192.033 76.1523 191.54C76.8989 191.047 77.8589 190.8 79.0323 190.8C79.8323 190.8 80.5389 190.933 81.1523 191.2C81.7656 191.453 82.2456 191.84 82.5923 192.36C82.9523 192.88 83.1323 193.547 83.1323 194.36V198.82C83.1323 199.313 83.3789 199.56 83.8723 199.56C84.1123 199.56 84.3456 199.527 84.5723 199.46L84.4523 200.94C84.1456 201.087 83.7589 201.16 83.2923 201.16C82.8656 201.16 82.4789 201.087 82.1323 200.94C81.7989 200.78 81.5323 200.547 81.3323 200.24C81.1456 199.92 81.0523 199.527 81.0523 199.06V198.92L81.4923 198.9C81.3723 199.42 81.1256 199.853 80.7523 200.2C80.3789 200.533 79.9456 200.787 79.4523 200.96C78.9589 201.12 78.4589 201.2 77.9523 201.2C77.3256 201.2 76.7589 201.1 76.2523 200.9C75.7589 200.7 75.3656 200.4 75.0723 200C74.7923 199.587 74.6523 199.08 74.6523 198.48C74.6523 197.733 74.8923 197.12 75.3723 196.64C75.8656 196.16 76.5589 195.833 77.4523 195.66L81.3323 194.9L81.3123 196.4L78.4923 196.98C77.9323 197.087 77.5123 197.24 77.2323 197.44C76.9523 197.64 76.8123 197.933 76.8123 198.32C76.8123 198.693 76.9523 198.993 77.2323 199.22C77.5256 199.433 77.9123 199.54 78.3923 199.54C78.7256 199.54 79.0456 199.5 79.3523 199.42C79.6723 199.34 79.9589 199.213 80.2123 199.04C80.4656 198.853 80.6589 198.62 80.7923 198.34C80.9389 198.047 81.0123 197.7 81.0123 197.3V194.58ZM92.867 191H95.107L91.127 201H88.787L84.787 191H87.127L89.967 199.14L92.867 191ZM98.0115 189.32C97.5448 189.32 97.1848 189.207 96.9315 188.98C96.6915 188.74 96.5715 188.407 96.5715 187.98C96.5715 187.553 96.6915 187.227 96.9315 187C97.1848 186.773 97.5448 186.66 98.0115 186.66C98.4648 186.66 98.8115 186.773 99.0515 187C99.3048 187.227 99.4315 187.553 99.4315 187.98C99.4315 188.407 99.3048 188.74 99.0515 188.98C98.8115 189.207 98.4648 189.32 98.0115 189.32ZM99.0715 191V201H96.9315V191H99.0715ZM102.42 201V191H104.32L104.46 193.6L104.18 193.32C104.366 192.747 104.633 192.273 104.98 191.9C105.34 191.513 105.76 191.233 106.24 191.06C106.733 190.887 107.253 190.8 107.8 190.8C108.506 190.8 109.14 190.94 109.7 191.22C110.273 191.487 110.726 191.893 111.06 192.44C111.393 192.987 111.56 193.68 111.56 194.52V201H109.42V195.18C109.42 194.193 109.213 193.513 108.8 193.14C108.4 192.753 107.893 192.56 107.28 192.56C106.84 192.56 106.413 192.667 106 192.88C105.586 193.08 105.24 193.407 104.96 193.86C104.693 194.313 104.56 194.92 104.56 195.68V201H102.42ZM123.603 188.9L123.943 190.58C123.903 190.58 123.863 190.58 123.823 190.58C123.783 190.567 123.743 190.56 123.703 190.56C123.063 190.56 122.576 190.7 122.243 190.98C121.909 191.247 121.743 191.64 121.743 192.16L120.703 191.68C120.703 191.147 120.816 190.673 121.043 190.26C121.269 189.833 121.589 189.5 122.003 189.26C122.429 189.02 122.909 188.9 123.443 188.9C123.469 188.9 123.496 188.9 123.523 188.9C123.549 188.9 123.576 188.9 123.603 188.9ZM120.443 199.44C121.456 199.44 122.243 199.667 122.803 200.12C123.363 200.56 123.643 201.173 123.643 201.96C123.643 202.653 123.423 203.247 122.983 203.74C122.543 204.247 121.943 204.633 121.183 204.9C120.436 205.167 119.576 205.3 118.603 205.3C116.963 205.3 115.749 205.047 114.963 204.54C114.176 204.033 113.783 203.4 113.783 202.64C113.783 202.107 113.969 201.64 114.343 201.24C114.729 200.84 115.376 200.613 116.283 200.56L116.163 200.88C115.603 200.76 115.149 200.547 114.803 200.24C114.469 199.92 114.303 199.473 114.303 198.9C114.303 198.327 114.523 197.84 114.963 197.44C115.403 197.04 116.023 196.807 116.823 196.74L117.943 197.28H117.703C117.089 197.333 116.656 197.473 116.403 197.7C116.149 197.927 116.023 198.18 116.023 198.46C116.023 198.793 116.143 199.04 116.383 199.2C116.636 199.36 116.989 199.44 117.443 199.44H120.443ZM118.603 203.7C119.336 203.7 119.936 203.627 120.403 203.48C120.883 203.347 121.236 203.167 121.463 202.94C121.703 202.727 121.823 202.487 121.823 202.22C121.823 201.913 121.696 201.667 121.443 201.48C121.203 201.293 120.763 201.2 120.123 201.2H116.903C116.529 201.2 116.216 201.293 115.963 201.48C115.709 201.68 115.583 201.947 115.583 202.28C115.583 202.72 115.849 203.067 116.383 203.32C116.916 203.573 117.656 203.7 118.603 203.7ZM118.523 190.8C119.403 190.8 120.163 190.94 120.803 191.22C121.456 191.5 121.956 191.893 122.303 192.4C122.663 192.907 122.843 193.5 122.843 194.18C122.843 194.86 122.663 195.453 122.303 195.96C121.956 196.467 121.456 196.86 120.803 197.14C120.163 197.42 119.403 197.56 118.523 197.56C117.136 197.56 116.069 197.253 115.323 196.64C114.589 196.013 114.223 195.193 114.223 194.18C114.223 193.5 114.403 192.907 114.763 192.4C115.123 191.893 115.623 191.5 116.263 191.22C116.916 190.94 117.669 190.8 118.523 190.8ZM118.523 192.3C117.909 192.3 117.396 192.473 116.983 192.82C116.583 193.153 116.383 193.607 116.383 194.18C116.383 194.753 116.583 195.213 116.983 195.56C117.396 195.907 117.909 196.08 118.523 196.08C119.149 196.08 119.663 195.907 120.063 195.56C120.476 195.213 120.683 194.753 120.683 194.18C120.683 193.607 120.476 193.153 120.063 192.82C119.663 192.473 119.149 192.3 118.523 192.3ZM141.739 187.8V189.64H137.219V201H135.079V189.64H130.559V187.8H141.739ZM144.789 189.32C144.322 189.32 143.962 189.207 143.709 188.98C143.469 188.74 143.349 188.407 143.349 187.98C143.349 187.553 143.469 187.227 143.709 187C143.962 186.773 144.322 186.66 144.789 186.66C145.242 186.66 145.589 186.773 145.829 187C146.082 187.227 146.209 187.553 146.209 187.98C146.209 188.407 146.082 188.74 145.829 188.98C145.589 189.207 145.242 189.32 144.789 189.32ZM145.849 191V201H143.709V191H145.849ZM149.197 201V191H151.097L151.197 192.68C151.544 192.04 152.004 191.567 152.577 191.26C153.164 190.953 153.784 190.8 154.437 190.8C155.157 190.8 155.817 190.967 156.417 191.3C157.03 191.62 157.49 192.107 157.797 192.76C158.01 192.32 158.304 191.953 158.677 191.66C159.05 191.367 159.464 191.153 159.917 191.02C160.37 190.873 160.817 190.8 161.257 190.8C161.897 190.8 162.497 190.933 163.057 191.2C163.617 191.467 164.07 191.873 164.417 192.42C164.764 192.967 164.937 193.667 164.937 194.52V201H162.797V194.86C162.797 194.047 162.604 193.46 162.217 193.1C161.83 192.74 161.337 192.56 160.737 192.56C160.27 192.56 159.837 192.673 159.437 192.9C159.05 193.127 158.737 193.467 158.497 193.92C158.257 194.36 158.137 194.907 158.137 195.56V201H155.997V194.86C155.997 194.047 155.804 193.46 155.417 193.1C155.03 192.74 154.537 192.56 153.937 192.56C153.537 192.56 153.137 192.667 152.737 192.88C152.337 193.093 152.004 193.427 151.737 193.88C151.47 194.333 151.337 194.933 151.337 195.68V201H149.197ZM172.581 201.2C171.581 201.2 170.701 200.993 169.941 200.58C169.181 200.167 168.588 199.573 168.161 198.8C167.748 198.013 167.541 197.08 167.541 196C167.541 194.92 167.748 193.993 168.161 193.22C168.588 192.433 169.175 191.833 169.921 191.42C170.668 191.007 171.515 190.8 172.461 190.8C173.435 190.8 174.261 191 174.941 191.4C175.621 191.8 176.141 192.347 176.501 193.04C176.861 193.733 177.041 194.52 177.041 195.4C177.041 195.64 177.035 195.867 177.021 196.08C177.008 196.293 176.988 196.48 176.961 196.64H168.921V195H176.021L174.961 195.32C174.961 194.413 174.735 193.72 174.281 193.24C173.828 192.747 173.208 192.5 172.421 192.5C171.848 192.5 171.348 192.633 170.921 192.9C170.495 193.167 170.168 193.567 169.941 194.1C169.715 194.62 169.601 195.26 169.601 196.02C169.601 196.767 169.721 197.4 169.961 197.92C170.201 198.44 170.541 198.833 170.981 199.1C171.421 199.367 171.941 199.5 172.541 199.5C173.208 199.5 173.748 199.373 174.161 199.12C174.575 198.867 174.901 198.513 175.141 198.06L176.841 198.86C176.601 199.34 176.275 199.76 175.861 200.12C175.461 200.467 174.981 200.733 174.421 200.92C173.861 201.107 173.248 201.2 172.581 201.2ZM186.548 201V187.8H196.108V189.64H188.688V193.44H194.488V195.24H188.688V199.16H196.388V201H186.548ZM205.015 191H207.255L203.275 201H200.935L196.935 191H199.275L202.115 199.14L205.015 191ZM213.421 201.2C212.421 201.2 211.541 200.993 210.781 200.58C210.021 200.167 209.428 199.573 209.001 198.8C208.588 198.013 208.381 197.08 208.381 196C208.381 194.92 208.588 193.993 209.001 193.22C209.428 192.433 210.015 191.833 210.761 191.42C211.508 191.007 212.355 190.8 213.301 190.8C214.275 190.8 215.101 191 215.781 191.4C216.461 191.8 216.981 192.347 217.341 193.04C217.701 193.733 217.881 194.52 217.881 195.4C217.881 195.64 217.875 195.867 217.861 196.08C217.848 196.293 217.828 196.48 217.801 196.64H209.761V195H216.861L215.801 195.32C215.801 194.413 215.575 193.72 215.121 193.24C214.668 192.747 214.048 192.5 213.261 192.5C212.688 192.5 212.188 192.633 211.761 192.9C211.335 193.167 211.008 193.567 210.781 194.1C210.555 194.62 210.441 195.26 210.441 196.02C210.441 196.767 210.561 197.4 210.801 197.92C211.041 198.44 211.381 198.833 211.821 199.1C212.261 199.367 212.781 199.5 213.381 199.5C214.048 199.5 214.588 199.373 215.001 199.12C215.415 198.867 215.741 198.513 215.981 198.06L217.681 198.86C217.441 199.34 217.115 199.76 216.701 200.12C216.301 200.467 215.821 200.733 215.261 200.92C214.701 201.107 214.088 201.2 213.421 201.2ZM220.584 201V191H222.404L222.604 192.8C222.87 192.147 223.264 191.653 223.784 191.32C224.317 190.973 224.97 190.8 225.744 190.8C225.944 190.8 226.144 190.82 226.344 190.86C226.544 190.887 226.71 190.933 226.844 191L226.544 192.88C226.397 192.827 226.23 192.787 226.044 192.76C225.87 192.72 225.63 192.7 225.324 192.7C224.91 192.7 224.504 192.813 224.104 193.04C223.704 193.253 223.37 193.58 223.104 194.02C222.85 194.46 222.724 195.02 222.724 195.7V201H220.584ZM237.645 191L233.265 202.18C232.972 202.953 232.652 203.567 232.305 204.02C231.972 204.473 231.585 204.8 231.145 205C230.705 205.2 230.192 205.3 229.605 205.3C229.125 205.3 228.678 205.233 228.265 205.1C227.865 204.98 227.512 204.813 227.205 204.6L227.725 202.94C227.978 203.153 228.245 203.313 228.525 203.42C228.818 203.527 229.132 203.58 229.465 203.58C229.825 203.58 230.145 203.48 230.425 203.28C230.718 203.093 230.978 202.713 231.205 202.14L231.645 201.06L230.585 198.58L227.465 191H229.865L232.085 197.28L232.665 199.16L233.325 197.1L235.425 191H237.645ZM252.191 191H254.511L251.151 201H248.811L246.291 193.58L243.911 201H241.571L238.231 191H240.531L242.811 198.9L245.291 191H247.431L249.911 198.9L252.191 191ZM256.58 201V186.5H258.72V192.6C259.053 191.973 259.5 191.52 260.06 191.24C260.633 190.947 261.267 190.8 261.96 190.8C262.667 190.8 263.3 190.94 263.86 191.22C264.433 191.487 264.887 191.893 265.22 192.44C265.553 192.987 265.72 193.68 265.72 194.52V201H263.58V195.2C263.58 194.213 263.373 193.527 262.96 193.14C262.56 192.753 262.053 192.56 261.44 192.56C261.013 192.56 260.587 192.667 260.16 192.88C259.747 193.08 259.4 193.413 259.12 193.88C258.853 194.333 258.72 194.947 258.72 195.72V201H256.58ZM273.363 201.2C272.363 201.2 271.483 200.993 270.723 200.58C269.963 200.167 269.369 199.573 268.943 198.8C268.529 198.013 268.323 197.08 268.323 196C268.323 194.92 268.529 193.993 268.943 193.22C269.369 192.433 269.956 191.833 270.703 191.42C271.449 191.007 272.296 190.8 273.243 190.8C274.216 190.8 275.043 191 275.723 191.4C276.403 191.8 276.923 192.347 277.283 193.04C277.643 193.733 277.823 194.52 277.823 195.4C277.823 195.64 277.816 195.867 277.803 196.08C277.789 196.293 277.769 196.48 277.743 196.64H269.703V195H276.803L275.743 195.32C275.743 194.413 275.516 193.72 275.063 193.24C274.609 192.747 273.989 192.5 273.203 192.5C272.629 192.5 272.129 192.633 271.703 192.9C271.276 193.167 270.949 193.567 270.723 194.1C270.496 194.62 270.383 195.26 270.383 196.02C270.383 196.767 270.503 197.4 270.743 197.92C270.983 198.44 271.323 198.833 271.763 199.1C272.203 199.367 272.723 199.5 273.323 199.5C273.989 199.5 274.529 199.373 274.943 199.12C275.356 198.867 275.683 198.513 275.923 198.06L277.623 198.86C277.383 199.34 277.056 199.76 276.643 200.12C276.243 200.467 275.763 200.733 275.203 200.92C274.643 201.107 274.029 201.2 273.363 201.2ZM280.525 201V191H282.345L282.545 192.8C282.812 192.147 283.205 191.653 283.725 191.32C284.259 190.973 284.912 190.8 285.685 190.8C285.885 190.8 286.085 190.82 286.285 190.86C286.485 190.887 286.652 190.933 286.785 191L286.485 192.88C286.339 192.827 286.172 192.787 285.985 192.76C285.812 192.72 285.572 192.7 285.265 192.7C284.852 192.7 284.445 192.813 284.045 193.04C283.645 193.253 283.312 193.58 283.045 194.02C282.792 194.46 282.665 195.02 282.665 195.7V201H280.525ZM292.953 201.2C291.953 201.2 291.073 200.993 290.313 200.58C289.553 200.167 288.959 199.573 288.533 198.8C288.119 198.013 287.913 197.08 287.913 196C287.913 194.92 288.119 193.993 288.533 193.22C288.959 192.433 289.546 191.833 290.293 191.42C291.039 191.007 291.886 190.8 292.833 190.8C293.806 190.8 294.633 191 295.313 191.4C295.993 191.8 296.513 192.347 296.873 193.04C297.233 193.733 297.413 194.52 297.413 195.4C297.413 195.64 297.406 195.867 297.393 196.08C297.379 196.293 297.359 196.48 297.333 196.64H289.293V195H296.393L295.333 195.32C295.333 194.413 295.106 193.72 294.653 193.24C294.199 192.747 293.579 192.5 292.793 192.5C292.219 192.5 291.719 192.633 291.293 192.9C290.866 193.167 290.539 193.567 290.313 194.1C290.086 194.62 289.973 195.26 289.973 196.02C289.973 196.767 290.093 197.4 290.333 197.92C290.573 198.44 290.913 198.833 291.353 199.1C291.793 199.367 292.313 199.5 292.913 199.5C293.579 199.5 294.119 199.373 294.533 199.12C294.946 198.867 295.273 198.513 295.513 198.06L297.213 198.86C296.973 199.34 296.646 199.76 296.233 200.12C295.833 200.467 295.353 200.733 294.793 200.92C294.233 201.107 293.619 201.2 292.953 201.2ZM299.215 204.8L298.095 203.68C298.948 202.907 299.621 202.1 300.115 201.26C300.621 200.42 300.988 199.52 301.215 198.56C301.441 197.587 301.555 196.547 301.555 195.44C301.555 194.307 301.441 193.267 301.215 192.32C300.988 191.36 300.621 190.453 300.115 189.6C299.621 188.747 298.948 187.94 298.095 187.18L299.215 186.06C300.668 187.22 301.761 188.587 302.495 190.16C303.241 191.733 303.615 193.493 303.615 195.44C303.615 197.373 303.241 199.127 302.495 200.7C301.761 202.26 300.668 203.627 299.215 204.8Z" fill="white"/>
<path d="M161.6 93.4C161.601 90.1105 162.271 86.8555 163.572 83.834C164.873 80.8125 166.775 78.0878 169.165 75.8265C171.554 73.5652 174.379 71.8147 177.467 70.6819C180.555 69.5491 183.842 69.0579 187.127 69.2382C190.411 69.4185 193.625 70.2665 196.57 71.7305C199.516 73.1945 202.133 75.2437 204.26 77.7529C206.387 80.2622 207.98 83.1787 208.942 86.3244C209.904 89.4702 210.215 92.779 209.855 96.0488C211.36 96.6824 212.728 97.5228 213.943 98.526C214.748 94.0882 214.492 89.5228 213.196 85.2027C211.9 80.8826 209.601 76.9303 206.486 73.6684C203.371 70.4065 199.529 67.9275 195.273 66.4339C191.017 64.9403 186.469 64.4744 181.998 65.0743C177.528 65.6741 173.263 67.3227 169.552 69.8854C165.84 72.4481 162.788 75.8523 160.643 79.82C158.498 83.7876 157.322 88.2063 157.211 92.7152C157.1 97.2242 158.056 101.695 160.003 105.764C161.125 104.673 162.335 103.775 163.607 103.058C162.28 100.011 161.597 96.7232 161.6 93.4ZM205.6 93.4C205.6 93.8928 205.583 94.3856 205.548 94.8696L201.183 94.1084C201.291 91.7329 200.847 89.3647 199.887 87.1893C198.927 85.0139 197.476 83.0904 195.648 81.5696C193.82 80.0488 191.665 78.9719 189.351 78.4234C187.037 77.8749 184.628 77.8697 182.311 78.4082C179.995 78.9466 177.835 80.0141 176.001 81.527C174.166 83.0399 172.707 84.9571 171.737 87.1283C170.768 89.2996 170.314 91.6659 170.412 94.0418C170.51 96.4177 171.156 98.7386 172.301 100.823C170.746 100.833 169.198 101.031 167.69 101.412C166.499 98.717 165.924 95.7897 166.008 92.844C166.092 89.8983 166.833 87.0086 168.176 84.3855C169.519 81.7624 171.431 79.4722 173.771 77.6819C176.112 75.8916 178.823 74.6464 181.706 74.037C184.589 73.4276 187.572 73.4695 190.437 74.1596C193.302 74.8497 195.977 76.1706 198.266 78.0259C200.556 79.8812 202.402 82.2242 203.671 84.884C204.94 87.5437 205.599 90.4531 205.6 93.4ZM179.2 89C179.2 87.2496 179.896 85.5708 181.133 84.3331C182.371 83.0953 184.05 82.4 185.8 82.4C187.551 82.4 189.229 83.0953 190.467 84.3331C191.705 85.5708 192.4 87.2496 192.4 89V98.152L205.323 100.414C206.91 100.692 208.416 101.315 209.735 102.239C211.055 103.164 212.155 104.367 212.958 105.763C213.761 107.159 214.248 108.715 214.384 110.32C214.52 111.925 214.302 113.541 213.745 115.052L209.42 126.8C208.754 128.611 207.623 130.214 206.142 131.45C204.661 132.686 202.881 133.51 200.98 133.84L194.306 134.998C189.796 135.781 185.699 132.987 183.592 129.586C180.78 125.071 174.963 118.85 163.558 117.587C163.246 117.552 162.946 117.451 162.676 117.291C162.406 117.13 162.174 116.914 161.995 116.657C161.816 116.399 161.694 116.106 161.637 115.798C161.58 115.489 161.59 115.172 161.666 114.868C162.313 112.272 163.55 110.274 165.266 108.884C166.96 107.498 168.975 106.829 170.986 106.613C173.731 106.314 176.631 106.833 179.2 107.704V89Z" fill="white"/>
<defs>
<linearGradient id="paint0_linear_1687_640" x1="36" y1="52.8" x2="375.514" y2="123.532" gradientUnits="userSpaceOnUse">
<stop stop-color="#C56AFF"/>
<stop offset="1" stop-color="#832FB8"/>
</linearGradient>
</defs>
</svg>
