<svg width="360" height="264" viewBox="0 0 360 264" fill="none" xmlns="http://www.w3.org/2000/svg">
<path d="M8.75978 73.9298C9.19291 64.5317 16.1175 56.7061 25.393 55.1323L327.838 3.81708C339.755 1.79517 350.728 10.7246 351.17 22.8036L359.241 243.268C359.656 254.593 350.587 264 339.254 264H20.943C9.53582 264 0.439013 254.474 0.964177 243.079L8.75978 73.9298Z" fill="url(#paint0_linear_1383_589)"/>
<path d="M96.71 161.464C96.406 162.568 95.918 163.48 95.246 164.2C94.574 164.904 93.774 165.424 92.846 165.76C91.918 166.08 90.894 166.24 89.774 166.24C88.174 166.24 86.79 165.92 85.622 165.28C84.454 164.624 83.558 163.688 82.934 162.472C82.31 161.256 81.998 159.792 81.998 158.08C81.998 156.368 82.31 154.904 82.934 153.688C83.558 152.472 84.454 151.544 85.622 150.904C86.79 150.248 88.166 149.92 89.75 149.92C90.854 149.92 91.87 150.08 92.798 150.4C93.726 150.704 94.51 151.176 95.15 151.816C95.79 152.456 96.246 153.28 96.518 154.288L92.894 155.752C92.67 154.76 92.302 154.08 91.79 153.712C91.294 153.344 90.662 153.16 89.894 153.16C89.142 153.16 88.486 153.344 87.926 153.712C87.382 154.08 86.958 154.632 86.654 155.368C86.366 156.088 86.222 156.992 86.222 158.08C86.222 159.152 86.358 160.056 86.63 160.792C86.902 161.528 87.31 162.08 87.854 162.448C88.414 162.816 89.102 163 89.918 163C90.686 163 91.334 162.792 91.862 162.376C92.406 161.944 92.774 161.288 92.966 160.408L96.71 161.464ZM105.414 158.392C105.414 157.832 105.254 157.392 104.934 157.072C104.63 156.736 104.214 156.568 103.686 156.568C103.158 156.568 102.702 156.704 102.318 156.976C101.95 157.232 101.694 157.696 101.55 158.368L98.0939 157.552C98.3179 156.4 98.9099 155.48 99.8699 154.792C100.83 154.104 102.182 153.76 103.926 153.76C105.094 153.76 106.086 153.936 106.902 154.288C107.734 154.624 108.366 155.136 108.798 155.824C109.246 156.496 109.47 157.328 109.47 158.32V162.712C109.47 163.336 109.75 163.648 110.31 163.648C110.598 163.648 110.83 163.616 111.006 163.552L110.766 165.88C110.286 166.104 109.702 166.216 109.014 166.216C108.39 166.216 107.838 166.12 107.358 165.928C106.878 165.72 106.502 165.416 106.23 165.016C105.958 164.6 105.822 164.08 105.822 163.456V163.312L106.278 163.144C106.278 163.832 106.07 164.408 105.654 164.872C105.254 165.336 104.726 165.68 104.07 165.904C103.43 166.128 102.758 166.24 102.054 166.24C101.238 166.24 100.526 166.112 99.9179 165.856C99.3099 165.6 98.8379 165.232 98.5019 164.752C98.1819 164.256 98.0219 163.648 98.0219 162.928C98.0219 162.064 98.2779 161.352 98.7899 160.792C99.3179 160.216 100.142 159.816 101.262 159.592L105.798 158.656L105.774 160.816L103.47 161.296C102.99 161.392 102.63 161.536 102.39 161.728C102.166 161.904 102.054 162.176 102.054 162.544C102.054 162.896 102.182 163.16 102.438 163.336C102.694 163.512 102.998 163.6 103.35 163.6C103.622 163.6 103.878 163.56 104.118 163.48C104.374 163.4 104.598 163.28 104.79 163.12C104.982 162.944 105.134 162.728 105.246 162.472C105.358 162.216 105.414 161.912 105.414 161.56V158.392ZM112.616 166V154H116.264L116.48 158.128L116.024 157.672C116.184 156.808 116.464 156.088 116.864 155.512C117.28 154.936 117.792 154.504 118.4 154.216C119.024 153.912 119.72 153.76 120.488 153.76C121.32 153.76 122.04 153.92 122.648 154.24C123.272 154.56 123.76 155.032 124.112 155.656C124.464 156.28 124.64 157.064 124.64 158.008V166H120.56V159.088C120.56 158.256 120.4 157.68 120.08 157.36C119.76 157.04 119.352 156.88 118.856 156.88C118.472 156.88 118.112 156.976 117.776 157.168C117.44 157.344 117.176 157.632 116.984 158.032C116.792 158.432 116.696 158.968 116.696 159.64V166H112.616ZM133.187 153.76C134.403 153.76 135.411 153.936 136.211 154.288C137.027 154.624 137.659 155.08 138.107 155.656C138.571 156.216 138.859 156.824 138.971 157.48L135.203 158.728C135.091 158.04 134.883 157.528 134.579 157.192C134.291 156.84 133.867 156.664 133.307 156.664C132.795 156.664 132.363 156.784 132.011 157.024C131.675 157.248 131.419 157.616 131.243 158.128C131.067 158.624 130.979 159.264 130.979 160.048C130.979 160.832 131.075 161.472 131.267 161.968C131.459 162.448 131.731 162.8 132.083 163.024C132.435 163.232 132.851 163.336 133.331 163.336C133.731 163.336 134.059 163.264 134.315 163.12C134.587 162.96 134.811 162.736 134.987 162.448C135.163 162.16 135.275 161.808 135.323 161.392L138.995 162.568C138.883 163.272 138.579 163.904 138.083 164.464C137.603 165.008 136.963 165.44 136.163 165.76C135.363 166.08 134.427 166.24 133.355 166.24C132.043 166.24 130.899 166 129.923 165.52C128.947 165.024 128.195 164.312 127.667 163.384C127.139 162.44 126.875 161.312 126.875 160C126.875 158.688 127.139 157.568 127.667 156.64C128.195 155.696 128.931 154.984 129.875 154.504C130.835 154.008 131.939 153.76 133.187 153.76ZM146.972 166.24C145.644 166.24 144.492 165.992 143.516 165.496C142.556 165 141.812 164.288 141.284 163.36C140.756 162.432 140.492 161.312 140.492 160C140.492 158.688 140.756 157.568 141.284 156.64C141.812 155.712 142.548 155 143.492 154.504C144.452 154.008 145.548 153.76 146.78 153.76C148.044 153.76 149.116 154.008 149.996 154.504C150.892 154.984 151.572 155.656 152.036 156.52C152.5 157.368 152.732 158.344 152.732 159.448C152.732 159.736 152.724 160.024 152.708 160.312C152.692 160.6 152.668 160.84 152.636 161.032H143.132V158.848H150.836L148.892 159.592C148.892 158.632 148.716 157.896 148.364 157.384C148.028 156.872 147.5 156.616 146.78 156.616C146.268 156.616 145.828 156.736 145.46 156.976C145.108 157.216 144.836 157.592 144.644 158.104C144.468 158.616 144.38 159.272 144.38 160.072C144.38 160.856 144.484 161.496 144.692 161.992C144.9 162.472 145.196 162.824 145.58 163.048C145.964 163.256 146.428 163.36 146.972 163.36C147.58 163.36 148.06 163.24 148.412 163C148.78 162.76 149.052 162.424 149.228 161.992L152.492 163.072C152.268 163.76 151.876 164.344 151.316 164.824C150.772 165.288 150.116 165.64 149.348 165.88C148.596 166.12 147.804 166.24 146.972 166.24ZM159.047 148.912V161.92C159.047 162.448 159.135 162.824 159.311 163.048C159.487 163.272 159.783 163.384 160.199 163.384C160.439 163.384 160.639 163.368 160.799 163.336C160.959 163.304 161.151 163.256 161.375 163.192L161.111 165.64C160.823 165.816 160.447 165.96 159.983 166.072C159.519 166.184 159.063 166.24 158.615 166.24C157.335 166.24 156.407 165.944 155.831 165.352C155.255 164.76 154.967 163.792 154.967 162.448V148.912H159.047ZM166.898 148.912V161.92C166.898 162.448 166.986 162.824 167.162 163.048C167.338 163.272 167.634 163.384 168.05 163.384C168.29 163.384 168.49 163.368 168.65 163.336C168.81 163.304 169.002 163.256 169.226 163.192L168.962 165.64C168.674 165.816 168.298 165.96 167.834 166.072C167.37 166.184 166.914 166.24 166.466 166.24C165.186 166.24 164.258 165.944 163.682 165.352C163.106 164.76 162.818 163.792 162.818 162.448V148.912H166.898ZM177.601 158.392C177.601 157.832 177.441 157.392 177.121 157.072C176.817 156.736 176.401 156.568 175.873 156.568C175.345 156.568 174.889 156.704 174.505 156.976C174.137 157.232 173.881 157.696 173.737 158.368L170.281 157.552C170.505 156.4 171.097 155.48 172.057 154.792C173.017 154.104 174.369 153.76 176.113 153.76C177.281 153.76 178.273 153.936 179.089 154.288C179.921 154.624 180.553 155.136 180.985 155.824C181.433 156.496 181.657 157.328 181.657 158.32V162.712C181.657 163.336 181.937 163.648 182.497 163.648C182.785 163.648 183.017 163.616 183.193 163.552L182.953 165.88C182.473 166.104 181.889 166.216 181.201 166.216C180.577 166.216 180.025 166.12 179.545 165.928C179.065 165.72 178.689 165.416 178.417 165.016C178.145 164.6 178.009 164.08 178.009 163.456V163.312L178.465 163.144C178.465 163.832 178.257 164.408 177.841 164.872C177.441 165.336 176.913 165.68 176.257 165.904C175.617 166.128 174.945 166.24 174.241 166.24C173.425 166.24 172.713 166.112 172.105 165.856C171.497 165.6 171.025 165.232 170.689 164.752C170.369 164.256 170.209 163.648 170.209 162.928C170.209 162.064 170.465 161.352 170.977 160.792C171.505 160.216 172.329 159.816 173.449 159.592L177.985 158.656L177.961 160.816L175.657 161.296C175.177 161.392 174.817 161.536 174.577 161.728C174.353 161.904 174.241 162.176 174.241 162.544C174.241 162.896 174.369 163.16 174.625 163.336C174.881 163.512 175.185 163.6 175.537 163.6C175.809 163.6 176.065 163.56 176.305 163.48C176.561 163.4 176.785 163.28 176.977 163.12C177.169 162.944 177.321 162.728 177.433 162.472C177.545 162.216 177.601 161.912 177.601 161.56V158.392ZM189.351 150.184V161.728C189.351 162.304 189.487 162.72 189.759 162.976C190.047 163.216 190.439 163.336 190.935 163.336C191.319 163.336 191.647 163.296 191.919 163.216C192.207 163.12 192.463 162.984 192.687 162.808L193.119 165.328C192.719 165.616 192.215 165.84 191.607 166C190.999 166.16 190.375 166.24 189.735 166.24C188.823 166.24 188.031 166.112 187.359 165.856C186.703 165.6 186.191 165.192 185.823 164.632C185.471 164.072 185.287 163.328 185.271 162.4V151.312L189.351 150.184ZM192.927 154V156.904H183.207V154H192.927ZM196.852 152.608C196.02 152.608 195.412 152.456 195.028 152.152C194.66 151.832 194.476 151.336 194.476 150.664C194.476 149.976 194.66 149.48 195.028 149.176C195.412 148.856 196.02 148.696 196.852 148.696C197.668 148.696 198.268 148.856 198.652 149.176C199.036 149.48 199.228 149.976 199.228 150.664C199.228 151.336 199.036 151.832 198.652 152.152C198.268 152.456 197.668 152.608 196.852 152.608ZM198.892 154V166H194.812V154H198.892ZM207.508 153.76C208.772 153.76 209.876 154.008 210.82 154.504C211.78 154.984 212.524 155.696 213.052 156.64C213.596 157.568 213.868 158.688 213.868 160C213.868 161.312 213.596 162.44 213.052 163.384C212.524 164.312 211.78 165.024 210.82 165.52C209.876 166 208.772 166.24 207.508 166.24C206.276 166.24 205.18 166 204.22 165.52C203.26 165.024 202.508 164.312 201.964 163.384C201.436 162.44 201.172 161.312 201.172 160C201.172 158.688 201.436 157.568 201.964 156.64C202.508 155.696 203.26 154.984 204.22 154.504C205.18 154.008 206.276 153.76 207.508 153.76ZM207.508 156.664C207.044 156.664 206.644 156.776 206.308 157C205.972 157.224 205.716 157.584 205.54 158.08C205.364 158.576 205.276 159.216 205.276 160C205.276 160.784 205.364 161.424 205.54 161.92C205.716 162.4 205.972 162.76 206.308 163C206.644 163.224 207.044 163.336 207.508 163.336C207.988 163.336 208.396 163.224 208.732 163C209.068 162.76 209.324 162.4 209.5 161.92C209.676 161.424 209.764 160.784 209.764 160C209.764 159.216 209.676 158.576 209.5 158.08C209.324 157.584 209.068 157.224 208.732 157C208.396 156.776 207.988 156.664 207.508 156.664ZM216.163 166V154H219.811L220.027 158.128L219.571 157.672C219.731 156.808 220.011 156.088 220.411 155.512C220.827 154.936 221.339 154.504 221.947 154.216C222.571 153.912 223.267 153.76 224.035 153.76C224.867 153.76 225.587 153.92 226.195 154.24C226.819 154.56 227.307 155.032 227.659 155.656C228.011 156.28 228.187 157.064 228.187 158.008V166H224.107V159.088C224.107 158.256 223.947 157.68 223.627 157.36C223.307 157.04 222.899 156.88 222.403 156.88C222.019 156.88 221.659 156.976 221.323 157.168C220.987 157.344 220.723 157.632 220.531 158.032C220.339 158.432 220.243 158.968 220.243 159.64V166H216.163ZM252.062 166H247.814L246.71 162.424H241.286L240.158 166H236.006L241.574 150.16H246.518L252.062 166ZM242.054 159.616H245.942L243.998 153.208L242.054 159.616ZM253.616 166V154H257.264L257.48 158.128L257.024 157.672C257.184 156.808 257.464 156.088 257.864 155.512C258.28 154.936 258.792 154.504 259.4 154.216C260.024 153.912 260.72 153.76 261.488 153.76C262.32 153.76 263.04 153.92 263.648 154.24C264.272 154.56 264.76 155.032 265.112 155.656C265.464 156.28 265.64 157.064 265.64 158.008V166H261.56V159.088C261.56 158.256 261.4 157.68 261.08 157.36C260.76 157.04 260.352 156.88 259.856 156.88C259.472 156.88 259.112 156.976 258.776 157.168C258.44 157.344 258.176 157.632 257.984 158.032C257.792 158.432 257.696 158.968 257.696 159.64V166H253.616ZM272.915 166.24C271.923 166.24 271.051 166 270.299 165.52C269.563 165.024 268.987 164.312 268.571 163.384C268.171 162.456 267.971 161.344 267.971 160.048C267.971 158.704 268.179 157.568 268.595 156.64C269.027 155.712 269.619 155 270.371 154.504C271.139 154.008 272.019 153.76 273.011 153.76C274.099 153.76 274.971 154.096 275.627 154.768C276.299 155.424 276.731 156.264 276.923 157.288L276.539 157.792V148.912H280.619V166H276.971L276.707 161.92L277.187 162.28C277.091 163.08 276.843 163.776 276.443 164.368C276.059 164.96 275.563 165.424 274.955 165.76C274.363 166.08 273.683 166.24 272.915 166.24ZM274.331 163.24C274.795 163.24 275.187 163.12 275.507 162.88C275.843 162.624 276.099 162.248 276.275 161.752C276.451 161.256 276.539 160.648 276.539 159.928C276.539 159.256 276.451 158.688 276.275 158.224C276.115 157.744 275.867 157.384 275.531 157.144C275.211 156.888 274.819 156.76 274.355 156.76C273.651 156.76 273.091 157.024 272.675 157.552C272.275 158.064 272.075 158.88 272.075 160C272.075 161.12 272.275 161.944 272.675 162.472C273.075 162.984 273.627 163.24 274.331 163.24ZM54.4878 178.16C56.3758 178.16 57.8398 178.608 58.8798 179.504C59.9358 180.384 60.4638 181.56 60.4638 183.032C60.4638 184.648 59.9438 185.88 58.9038 186.728C57.8638 187.576 56.3998 188 54.5118 188L54.1278 188.216H50.9838V194H46.9278V178.16H54.4878ZM53.9118 185.288C54.7118 185.288 55.3118 185.128 55.7118 184.808C56.1118 184.488 56.3118 183.976 56.3118 183.272C56.3118 182.584 56.1118 182.08 55.7118 181.76C55.3118 181.44 54.7118 181.28 53.9118 181.28H50.9838V185.288H53.9118ZM56.3358 186.152L61.3998 194H56.8398L52.7838 187.064L56.3358 186.152ZM68.8786 194.24C67.5506 194.24 66.3986 193.992 65.4226 193.496C64.4626 193 63.7186 192.288 63.1906 191.36C62.6626 190.432 62.3986 189.312 62.3986 188C62.3986 186.688 62.6626 185.568 63.1906 184.64C63.7186 183.712 64.4546 183 65.3986 182.504C66.3586 182.008 67.4546 181.76 68.6866 181.76C69.9506 181.76 71.0226 182.008 71.9026 182.504C72.7986 182.984 73.4786 183.656 73.9426 184.52C74.4066 185.368 74.6386 186.344 74.6386 187.448C74.6386 187.736 74.6306 188.024 74.6146 188.312C74.5986 188.6 74.5746 188.84 74.5426 189.032H65.0386V186.848H72.7426L70.7986 187.592C70.7986 186.632 70.6226 185.896 70.2706 185.384C69.9346 184.872 69.4066 184.616 68.6866 184.616C68.1746 184.616 67.7346 184.736 67.3666 184.976C67.0146 185.216 66.7426 185.592 66.5506 186.104C66.3746 186.616 66.2866 187.272 66.2866 188.072C66.2866 188.856 66.3906 189.496 66.5986 189.992C66.8066 190.472 67.1026 190.824 67.4866 191.048C67.8706 191.256 68.3346 191.36 68.8786 191.36C69.4866 191.36 69.9666 191.24 70.3186 191C70.6866 190.76 70.9586 190.424 71.1346 189.992L74.3986 191.072C74.1746 191.76 73.7826 192.344 73.2226 192.824C72.6786 193.288 72.0226 193.64 71.2546 193.88C70.5026 194.12 69.7106 194.24 68.8786 194.24ZM81.961 194.24C80.761 194.24 79.641 194.048 78.601 193.664C77.577 193.264 76.729 192.696 76.057 191.96L77.977 189.704C78.377 190.216 78.905 190.648 79.561 191C80.233 191.336 80.977 191.504 81.793 191.504C82.289 191.504 82.697 191.432 83.017 191.288C83.337 191.144 83.497 190.92 83.497 190.616C83.497 190.392 83.417 190.216 83.257 190.088C83.097 189.944 82.777 189.824 82.297 189.728L80.617 189.392C79.113 189.088 78.041 188.64 77.401 188.048C76.777 187.44 76.465 186.648 76.465 185.672C76.465 185.016 76.665 184.392 77.065 183.8C77.465 183.192 78.081 182.704 78.913 182.336C79.745 181.952 80.809 181.76 82.105 181.76C83.321 181.76 84.393 181.936 85.321 182.288C86.249 182.64 86.985 183.152 87.529 183.824L85.585 186.032C85.201 185.552 84.705 185.176 84.097 184.904C83.489 184.632 82.881 184.496 82.273 184.496C81.889 184.496 81.561 184.536 81.289 184.616C81.033 184.68 80.841 184.776 80.713 184.904C80.585 185.032 80.521 185.192 80.521 185.384C80.521 185.592 80.617 185.776 80.809 185.936C81.017 186.08 81.393 186.208 81.937 186.32L84.121 186.752C85.353 186.976 86.241 187.384 86.785 187.976C87.329 188.568 87.601 189.28 87.601 190.112C87.601 190.896 87.393 191.6 86.977 192.224C86.561 192.848 85.937 193.344 85.105 193.712C84.273 194.064 83.225 194.24 81.961 194.24ZM95.3356 181.76C96.5516 181.76 97.5596 181.936 98.3596 182.288C99.1756 182.624 99.8076 183.08 100.256 183.656C100.72 184.216 101.008 184.824 101.12 185.48L97.3516 186.728C97.2396 186.04 97.0316 185.528 96.7276 185.192C96.4396 184.84 96.0156 184.664 95.4556 184.664C94.9436 184.664 94.5116 184.784 94.1596 185.024C93.8236 185.248 93.5676 185.616 93.3916 186.128C93.2156 186.624 93.1276 187.264 93.1276 188.048C93.1276 188.832 93.2236 189.472 93.4156 189.968C93.6076 190.448 93.8796 190.8 94.2316 191.024C94.5836 191.232 94.9996 191.336 95.4796 191.336C95.8796 191.336 96.2076 191.264 96.4636 191.12C96.7356 190.96 96.9596 190.736 97.1356 190.448C97.3116 190.16 97.4236 189.808 97.4716 189.392L101.144 190.568C101.032 191.272 100.728 191.904 100.232 192.464C99.7516 193.008 99.1116 193.44 98.3116 193.76C97.5116 194.08 96.5756 194.24 95.5036 194.24C94.1916 194.24 93.0476 194 92.0716 193.52C91.0956 193.024 90.3436 192.312 89.8156 191.384C89.2876 190.44 89.0236 189.312 89.0236 188C89.0236 186.688 89.2876 185.568 89.8156 184.64C90.3436 183.696 91.0796 182.984 92.0236 182.504C92.9836 182.008 94.0876 181.76 95.3356 181.76ZM103.265 194V176.912H107.345V184.184C107.697 183.384 108.201 182.784 108.857 182.384C109.513 181.968 110.273 181.76 111.137 181.76C111.969 181.76 112.689 181.92 113.297 182.24C113.921 182.56 114.409 183.032 114.761 183.656C115.113 184.28 115.289 185.064 115.289 186.008V194H111.209V187.136C111.209 186.272 111.049 185.68 110.729 185.36C110.425 185.024 110.017 184.856 109.505 184.856C109.121 184.856 108.761 184.952 108.425 185.144C108.089 185.336 107.825 185.64 107.633 186.056C107.441 186.472 107.345 187.016 107.345 187.688V194H103.265ZM124.004 194.24C122.676 194.24 121.524 193.992 120.548 193.496C119.588 193 118.844 192.288 118.316 191.36C117.788 190.432 117.524 189.312 117.524 188C117.524 186.688 117.788 185.568 118.316 184.64C118.844 183.712 119.58 183 120.524 182.504C121.484 182.008 122.58 181.76 123.812 181.76C125.076 181.76 126.148 182.008 127.028 182.504C127.924 182.984 128.604 183.656 129.068 184.52C129.532 185.368 129.764 186.344 129.764 187.448C129.764 187.736 129.756 188.024 129.74 188.312C129.724 188.6 129.7 188.84 129.668 189.032H120.164V186.848H127.868L125.924 187.592C125.924 186.632 125.748 185.896 125.396 185.384C125.06 184.872 124.532 184.616 123.812 184.616C123.3 184.616 122.86 184.736 122.492 184.976C122.14 185.216 121.868 185.592 121.676 186.104C121.5 186.616 121.412 187.272 121.412 188.072C121.412 188.856 121.516 189.496 121.724 189.992C121.932 190.472 122.228 190.824 122.612 191.048C122.996 191.256 123.46 191.36 124.004 191.36C124.612 191.36 125.092 191.24 125.444 191C125.812 190.76 126.084 190.424 126.26 189.992L129.524 191.072C129.3 191.76 128.908 192.344 128.348 192.824C127.804 193.288 127.148 193.64 126.38 193.88C125.628 194.12 124.836 194.24 124.004 194.24ZM136.462 194.24C135.47 194.24 134.598 194 133.846 193.52C133.11 193.024 132.534 192.312 132.118 191.384C131.718 190.456 131.518 189.344 131.518 188.048C131.518 186.704 131.726 185.568 132.142 184.64C132.574 183.712 133.166 183 133.918 182.504C134.686 182.008 135.566 181.76 136.558 181.76C137.646 181.76 138.518 182.096 139.174 182.768C139.846 183.424 140.278 184.264 140.47 185.288L140.086 185.792V176.912H144.166V194H140.518L140.254 189.92L140.734 190.28C140.638 191.08 140.39 191.776 139.99 192.368C139.606 192.96 139.11 193.424 138.502 193.76C137.91 194.08 137.23 194.24 136.462 194.24ZM137.878 191.24C138.342 191.24 138.734 191.12 139.054 190.88C139.39 190.624 139.646 190.248 139.822 189.752C139.998 189.256 140.086 188.648 140.086 187.928C140.086 187.256 139.998 186.688 139.822 186.224C139.662 185.744 139.414 185.384 139.078 185.144C138.758 184.888 138.366 184.76 137.902 184.76C137.198 184.76 136.638 185.024 136.222 185.552C135.822 186.064 135.622 186.88 135.622 188C135.622 189.12 135.822 189.944 136.222 190.472C136.622 190.984 137.174 191.24 137.878 191.24ZM151.149 194.24C150.333 194.24 149.613 194.104 148.989 193.832C148.381 193.544 147.901 193.088 147.549 192.464C147.197 191.84 147.021 191.024 147.021 190.016V182H151.101V189.056C151.101 189.824 151.253 190.36 151.557 190.664C151.861 190.968 152.293 191.12 152.853 191.12C153.141 191.12 153.413 191.072 153.669 190.976C153.925 190.864 154.149 190.704 154.341 190.496C154.533 190.272 154.677 189.992 154.773 189.656C154.885 189.304 154.941 188.896 154.941 188.432V182H159.021V194H155.373L155.253 191.744C154.869 192.592 154.333 193.224 153.645 193.64C152.957 194.04 152.125 194.24 151.149 194.24ZM165.984 176.912V189.92C165.984 190.448 166.072 190.824 166.248 191.048C166.424 191.272 166.72 191.384 167.136 191.384C167.376 191.384 167.576 191.368 167.736 191.336C167.896 191.304 168.088 191.256 168.312 191.192L168.048 193.64C167.76 193.816 167.384 193.96 166.92 194.072C166.456 194.184 166 194.24 165.552 194.24C164.272 194.24 163.344 193.944 162.768 193.352C162.192 192.76 161.904 191.792 161.904 190.448V176.912H165.984ZM171.844 180.608C171.012 180.608 170.404 180.456 170.02 180.152C169.652 179.832 169.468 179.336 169.468 178.664C169.468 177.976 169.652 177.48 170.02 177.176C170.404 176.856 171.012 176.696 171.844 176.696C172.66 176.696 173.26 176.856 173.644 177.176C174.028 177.48 174.22 177.976 174.22 178.664C174.22 179.336 174.028 179.832 173.644 180.152C173.26 180.456 172.66 180.608 171.844 180.608ZM173.884 182V194H169.804V182H173.884ZM176.788 194V182H180.436L180.652 186.128L180.196 185.672C180.356 184.808 180.636 184.088 181.036 183.512C181.452 182.936 181.964 182.504 182.572 182.216C183.196 181.912 183.892 181.76 184.66 181.76C185.492 181.76 186.212 181.92 186.82 182.24C187.444 182.56 187.932 183.032 188.284 183.656C188.636 184.28 188.812 185.064 188.812 186.008V194H184.732V187.088C184.732 186.256 184.572 185.68 184.252 185.36C183.932 185.04 183.524 184.88 183.028 184.88C182.644 184.88 182.284 184.976 181.948 185.168C181.612 185.344 181.348 185.632 181.156 186.032C180.964 186.432 180.868 186.968 180.868 187.64V194H176.788ZM203.287 178.784L203.623 181.52C203.527 181.488 203.431 181.472 203.335 181.472C203.239 181.456 203.143 181.448 203.047 181.448C202.343 181.448 201.815 181.624 201.463 181.976C201.127 182.312 200.959 182.736 200.959 183.248L199.519 182.72C199.519 182.064 199.639 181.432 199.879 180.824C200.119 180.216 200.487 179.72 200.983 179.336C201.495 178.952 202.135 178.76 202.903 178.76C202.951 178.76 203.007 178.76 203.071 178.76C203.151 178.76 203.223 178.768 203.287 178.784ZM199.159 191.336C200.551 191.336 201.615 191.632 202.351 192.224C203.103 192.8 203.479 193.632 203.479 194.72C203.479 195.712 203.207 196.536 202.663 197.192C202.119 197.848 201.351 198.336 200.359 198.656C199.383 198.992 198.223 199.16 196.879 199.16C194.703 199.16 193.135 198.888 192.175 198.344C191.215 197.8 190.735 197.064 190.735 196.136C190.735 195.464 191.007 194.92 191.551 194.504C192.095 194.088 192.999 193.864 194.263 193.832L194.167 194.216C193.191 194.088 192.463 193.8 191.983 193.352C191.503 192.904 191.263 192.296 191.263 191.528C191.263 190.76 191.567 190.136 192.175 189.656C192.783 189.176 193.591 188.912 194.599 188.864L196.087 189.56H195.703C195.079 189.592 194.639 189.696 194.383 189.872C194.127 190.048 193.999 190.264 193.999 190.52C193.999 190.792 194.111 191 194.335 191.144C194.559 191.272 194.895 191.336 195.343 191.336H199.159ZM196.903 196.52C197.671 196.52 198.303 196.464 198.799 196.352C199.311 196.256 199.695 196.112 199.951 195.92C200.207 195.744 200.335 195.536 200.335 195.296C200.335 195.056 200.247 194.864 200.071 194.72C199.895 194.592 199.575 194.528 199.111 194.528H194.815C194.511 194.528 194.263 194.608 194.071 194.768C193.895 194.928 193.807 195.128 193.807 195.368C193.807 195.736 194.079 196.016 194.623 196.208C195.167 196.416 195.927 196.52 196.903 196.52ZM197.047 181.76C198.263 181.76 199.303 181.92 200.167 182.24C201.031 182.56 201.687 183.024 202.135 183.632C202.599 184.224 202.831 184.96 202.831 185.84C202.831 186.704 202.599 187.44 202.135 188.048C201.687 188.656 201.031 189.12 200.167 189.44C199.303 189.744 198.263 189.896 197.047 189.896C195.143 189.896 193.695 189.544 192.703 188.84C191.727 188.136 191.239 187.136 191.239 185.84C191.239 184.96 191.463 184.224 191.911 183.632C192.375 183.024 193.039 182.56 193.903 182.24C194.767 181.92 195.815 181.76 197.047 181.76ZM197.047 184.088C196.519 184.088 196.087 184.24 195.751 184.544C195.431 184.848 195.271 185.28 195.271 185.84C195.271 186.384 195.431 186.808 195.751 187.112C196.087 187.416 196.519 187.568 197.047 187.568C197.559 187.568 197.983 187.416 198.319 187.112C198.655 186.808 198.823 186.384 198.823 185.84C198.823 185.28 198.655 184.848 198.319 184.544C197.983 184.24 197.559 184.088 197.047 184.088ZM226.117 194H221.869L220.765 190.424H215.341L214.213 194H210.061L215.629 178.16H220.573L226.117 194ZM216.109 187.616H219.997L218.053 181.208L216.109 187.616ZM234.276 182H238.5L234.18 194H229.308L224.988 182H229.284L231.756 191.144L234.276 182ZM246.367 186.392C246.367 185.832 246.207 185.392 245.887 185.072C245.583 184.736 245.167 184.568 244.639 184.568C244.111 184.568 243.655 184.704 243.271 184.976C242.903 185.232 242.647 185.696 242.503 186.368L239.047 185.552C239.271 184.4 239.863 183.48 240.823 182.792C241.783 182.104 243.135 181.76 244.879 181.76C246.047 181.76 247.039 181.936 247.855 182.288C248.687 182.624 249.319 183.136 249.751 183.824C250.199 184.496 250.423 185.328 250.423 186.32V190.712C250.423 191.336 250.703 191.648 251.263 191.648C251.551 191.648 251.783 191.616 251.959 191.552L251.719 193.88C251.239 194.104 250.655 194.216 249.967 194.216C249.343 194.216 248.791 194.12 248.311 193.928C247.831 193.72 247.455 193.416 247.183 193.016C246.911 192.6 246.775 192.08 246.775 191.456V191.312L247.231 191.144C247.231 191.832 247.023 192.408 246.607 192.872C246.207 193.336 245.679 193.68 245.023 193.904C244.383 194.128 243.711 194.24 243.007 194.24C242.191 194.24 241.479 194.112 240.871 193.856C240.263 193.6 239.791 193.232 239.455 192.752C239.135 192.256 238.975 191.648 238.975 190.928C238.975 190.064 239.231 189.352 239.743 188.792C240.271 188.216 241.095 187.816 242.215 187.592L246.751 186.656L246.727 188.816L244.423 189.296C243.943 189.392 243.583 189.536 243.343 189.728C243.119 189.904 243.007 190.176 243.007 190.544C243.007 190.896 243.135 191.16 243.391 191.336C243.647 191.512 243.951 191.6 244.303 191.6C244.575 191.6 244.831 191.56 245.071 191.48C245.327 191.4 245.551 191.28 245.743 191.12C245.935 190.944 246.087 190.728 246.199 190.472C246.311 190.216 246.367 189.912 246.367 189.56V186.392ZM255.609 180.608C254.777 180.608 254.169 180.456 253.785 180.152C253.417 179.832 253.233 179.336 253.233 178.664C253.233 177.976 253.417 177.48 253.785 177.176C254.169 176.856 254.777 176.696 255.609 176.696C256.425 176.696 257.025 176.856 257.409 177.176C257.793 177.48 257.985 177.976 257.985 178.664C257.985 179.336 257.793 179.832 257.409 180.152C257.025 180.456 256.425 180.608 255.609 180.608ZM257.649 182V194H253.569V182H257.649ZM264.586 176.912V189.92C264.586 190.448 264.674 190.824 264.85 191.048C265.026 191.272 265.322 191.384 265.738 191.384C265.978 191.384 266.178 191.368 266.338 191.336C266.498 191.304 266.69 191.256 266.914 191.192L266.65 193.64C266.362 193.816 265.986 193.96 265.522 194.072C265.058 194.184 264.602 194.24 264.154 194.24C262.874 194.24 261.946 193.944 261.37 193.352C260.794 192.76 260.506 191.792 260.506 190.448V176.912H264.586ZM275.289 186.392C275.289 185.832 275.129 185.392 274.809 185.072C274.505 184.736 274.089 184.568 273.561 184.568C273.033 184.568 272.577 184.704 272.193 184.976C271.825 185.232 271.569 185.696 271.425 186.368L267.969 185.552C268.193 184.4 268.785 183.48 269.745 182.792C270.705 182.104 272.057 181.76 273.801 181.76C274.969 181.76 275.961 181.936 276.777 182.288C277.609 182.624 278.241 183.136 278.673 183.824C279.121 184.496 279.345 185.328 279.345 186.32V190.712C279.345 191.336 279.625 191.648 280.185 191.648C280.473 191.648 280.705 191.616 280.881 191.552L280.641 193.88C280.161 194.104 279.577 194.216 278.889 194.216C278.265 194.216 277.713 194.12 277.233 193.928C276.753 193.72 276.377 193.416 276.105 193.016C275.833 192.6 275.697 192.08 275.697 191.456V191.312L276.153 191.144C276.153 191.832 275.945 192.408 275.529 192.872C275.129 193.336 274.601 193.68 273.945 193.904C273.305 194.128 272.633 194.24 271.929 194.24C271.113 194.24 270.401 194.112 269.793 193.856C269.185 193.6 268.713 193.232 268.377 192.752C268.057 192.256 267.897 191.648 267.897 190.928C267.897 190.064 268.153 189.352 268.665 188.792C269.193 188.216 270.017 187.816 271.137 187.592L275.673 186.656L275.649 188.816L273.345 189.296C272.865 189.392 272.505 189.536 272.265 189.728C272.041 189.904 271.929 190.176 271.929 190.544C271.929 190.896 272.057 191.16 272.313 191.336C272.569 191.512 272.873 191.6 273.225 191.6C273.497 191.6 273.753 191.56 273.993 191.48C274.249 191.4 274.473 191.28 274.665 191.12C274.857 190.944 275.009 190.728 275.121 190.472C275.233 190.216 275.289 189.912 275.289 189.56V186.392ZM290.195 194.24C289.411 194.24 288.715 194.064 288.107 193.712C287.515 193.36 287.027 192.88 286.643 192.272C286.259 191.648 286.011 190.944 285.899 190.16L286.283 189.656L286.067 194H282.491V176.912H286.571V185.768L286.187 185.192C286.411 184.2 286.867 183.384 287.555 182.744C288.243 182.088 289.171 181.76 290.339 181.76C291.267 181.76 292.091 182.008 292.811 182.504C293.547 183 294.115 183.72 294.515 184.664C294.931 185.592 295.139 186.72 295.139 188.048C295.139 189.344 294.931 190.456 294.515 191.384C294.099 192.312 293.523 193.024 292.787 193.52C292.051 194 291.187 194.24 290.195 194.24ZM288.779 191.24C289.483 191.24 290.035 190.984 290.435 190.472C290.835 189.944 291.035 189.12 291.035 188C291.035 186.88 290.835 186.064 290.435 185.552C290.035 185.024 289.483 184.76 288.779 184.76C288.315 184.76 287.915 184.896 287.579 185.168C287.259 185.424 287.011 185.792 286.835 186.272C286.659 186.752 286.571 187.336 286.571 188.024C286.571 188.712 286.659 189.296 286.835 189.776C287.011 190.256 287.267 190.624 287.603 190.88C287.939 191.12 288.331 191.24 288.779 191.24ZM301.57 176.912V189.92C301.57 190.448 301.658 190.824 301.834 191.048C302.01 191.272 302.306 191.384 302.722 191.384C302.962 191.384 303.162 191.368 303.322 191.336C303.482 191.304 303.674 191.256 303.898 191.192L303.634 193.64C303.346 193.816 302.97 193.96 302.506 194.072C302.042 194.184 301.586 194.24 301.138 194.24C299.858 194.24 298.93 193.944 298.354 193.352C297.778 192.76 297.49 191.792 297.49 190.448V176.912H301.57ZM311.246 194.24C309.918 194.24 308.766 193.992 307.79 193.496C306.83 193 306.086 192.288 305.558 191.36C305.03 190.432 304.766 189.312 304.766 188C304.766 186.688 305.03 185.568 305.558 184.64C306.086 183.712 306.822 183 307.766 182.504C308.726 182.008 309.822 181.76 311.054 181.76C312.318 181.76 313.39 182.008 314.27 182.504C315.166 182.984 315.846 183.656 316.31 184.52C316.774 185.368 317.006 186.344 317.006 187.448C317.006 187.736 316.998 188.024 316.982 188.312C316.966 188.6 316.942 188.84 316.91 189.032H307.406V186.848H315.11L313.166 187.592C313.166 186.632 312.99 185.896 312.638 185.384C312.302 184.872 311.774 184.616 311.054 184.616C310.542 184.616 310.102 184.736 309.734 184.976C309.382 185.216 309.11 185.592 308.918 186.104C308.742 186.616 308.654 187.272 308.654 188.072C308.654 188.856 308.758 189.496 308.966 189.992C309.174 190.472 309.47 190.824 309.854 191.048C310.238 191.256 310.702 191.36 311.246 191.36C311.854 191.36 312.334 191.24 312.686 191C313.054 190.76 313.326 190.424 313.502 189.992L316.766 191.072C316.542 191.76 316.15 192.344 315.59 192.824C315.046 193.288 314.39 193.64 313.622 193.88C312.87 194.12 312.078 194.24 311.246 194.24ZM148.597 222H144.349L143.245 218.424H137.821L136.693 222H132.541L138.109 206.16H143.053L148.597 222ZM138.589 215.616H142.477L140.533 209.208L138.589 215.616ZM150.152 222V210H153.8L154.016 214.128L153.56 213.672C153.72 212.808 154 212.088 154.4 211.512C154.816 210.936 155.328 210.504 155.936 210.216C156.56 209.912 157.256 209.76 158.024 209.76C158.856 209.76 159.576 209.92 160.184 210.24C160.808 210.56 161.296 211.032 161.648 211.656C162 212.28 162.176 213.064 162.176 214.008V222H158.096V215.088C158.096 214.256 157.936 213.68 157.616 213.36C157.296 213.04 156.888 212.88 156.392 212.88C156.008 212.88 155.648 212.976 155.312 213.168C154.976 213.344 154.712 213.632 154.52 214.032C154.328 214.432 154.232 214.968 154.232 215.64V222H150.152ZM176.614 210L172.246 222C171.798 223.264 171.31 224.272 170.782 225.024C170.254 225.776 169.63 226.32 168.91 226.656C168.19 226.992 167.326 227.16 166.318 227.16C165.646 227.16 165.03 227.088 164.47 226.944C163.91 226.8 163.422 226.6 163.006 226.344L163.822 223.584C164.11 223.792 164.414 223.936 164.734 224.016C165.054 224.112 165.462 224.16 165.958 224.16C166.422 224.16 166.798 224.08 167.086 223.92C167.39 223.76 167.63 223.456 167.806 223.008L168.118 222.264L166.726 219L163.126 210H167.614L169.462 216.84L170.038 219.384L170.71 216.744L172.558 210H176.614ZM183.082 206.184V217.728C183.082 218.304 183.218 218.72 183.49 218.976C183.778 219.216 184.17 219.336 184.666 219.336C185.05 219.336 185.378 219.296 185.65 219.216C185.938 219.12 186.194 218.984 186.418 218.808L186.85 221.328C186.45 221.616 185.946 221.84 185.338 222C184.73 222.16 184.106 222.24 183.466 222.24C182.554 222.24 181.762 222.112 181.09 221.856C180.434 221.6 179.922 221.192 179.554 220.632C179.202 220.072 179.018 219.328 179.002 218.4V207.312L183.082 206.184ZM186.658 210V212.904H176.938V210H186.658ZM190.582 208.608C189.75 208.608 189.142 208.456 188.758 208.152C188.39 207.832 188.206 207.336 188.206 206.664C188.206 205.976 188.39 205.48 188.758 205.176C189.142 204.856 189.75 204.696 190.582 204.696C191.398 204.696 191.998 204.856 192.382 205.176C192.766 205.48 192.958 205.976 192.958 206.664C192.958 207.336 192.766 207.832 192.382 208.152C191.998 208.456 191.398 208.608 190.582 208.608ZM192.622 210V222H188.542V210H192.622ZM195.527 222V210H199.175L199.295 212.328C199.679 211.48 200.215 210.84 200.903 210.408C201.607 209.976 202.415 209.76 203.327 209.76C204.223 209.76 204.999 209.96 205.655 210.36C206.311 210.76 206.799 211.352 207.119 212.136C207.375 211.608 207.703 211.168 208.103 210.816C208.519 210.464 208.991 210.2 209.519 210.024C210.047 209.848 210.591 209.76 211.151 209.76C211.951 209.76 212.655 209.92 213.263 210.24C213.871 210.544 214.351 211.016 214.703 211.656C215.071 212.28 215.255 213.064 215.255 214.008V222H211.175V214.944C211.175 214.176 211.023 213.64 210.719 213.336C210.431 213.032 210.039 212.88 209.543 212.88C209.143 212.88 208.775 212.984 208.439 213.192C208.119 213.384 207.871 213.68 207.695 214.08C207.519 214.48 207.431 214.984 207.431 215.592V222H203.351V214.944C203.351 214.176 203.199 213.64 202.895 213.336C202.591 213.032 202.199 212.88 201.719 212.88C201.351 212.88 200.999 212.976 200.663 213.168C200.343 213.36 200.087 213.664 199.895 214.08C199.703 214.48 199.607 215.008 199.607 215.664V222H195.527ZM223.976 222.24C222.648 222.24 221.496 221.992 220.52 221.496C219.56 221 218.816 220.288 218.288 219.36C217.76 218.432 217.496 217.312 217.496 216C217.496 214.688 217.76 213.568 218.288 212.64C218.816 211.712 219.552 211 220.496 210.504C221.456 210.008 222.552 209.76 223.784 209.76C225.048 209.76 226.12 210.008 227 210.504C227.896 210.984 228.576 211.656 229.04 212.52C229.504 213.368 229.736 214.344 229.736 215.448C229.736 215.736 229.728 216.024 229.712 216.312C229.696 216.6 229.672 216.84 229.64 217.032H220.136V214.848H227.84L225.896 215.592C225.896 214.632 225.72 213.896 225.368 213.384C225.032 212.872 224.504 212.616 223.784 212.616C223.272 212.616 222.832 212.736 222.464 212.976C222.112 213.216 221.84 213.592 221.648 214.104C221.472 214.616 221.384 215.272 221.384 216.072C221.384 216.856 221.488 217.496 221.696 217.992C221.904 218.472 222.2 218.824 222.584 219.048C222.968 219.256 223.432 219.36 223.976 219.36C224.584 219.36 225.064 219.24 225.416 219C225.784 218.76 226.056 218.424 226.232 217.992L229.496 219.072C229.272 219.76 228.88 220.344 228.32 220.824C227.776 221.288 227.12 221.64 226.352 221.88C225.6 222.12 224.808 222.24 223.976 222.24Z" fill="white"/>
<path d="M144.228 110.051V78.7726H196.595V92.4179C198.367 92.2405 200.051 92.2405 201.823 92.4179V70.2659C201.823 65.924 198.279 62.4682 194.025 62.4682H188.355V58.3037C188.355 57.0632 187.291 56 186.051 56H180.292C179.051 56 177.988 57.0631 177.988 58.3037V62.4682H162.835V58.3037C162.835 57.0632 161.772 56 160.531 56H154.772C153.532 56 152.469 57.0631 152.469 58.3037V62.4682H146.798C142.456 62.4682 139 66.0122 139 70.2659V110.051C139 114.393 142.544 117.849 146.798 117.849H172.494C172.582 116.077 172.76 114.393 173.203 112.621L146.886 112.62C145.469 112.709 144.229 111.557 144.229 110.051L144.228 110.051Z" fill="white"/>
<path d="M181.709 85.2406C180.734 85.2406 179.937 86.0379 179.937 87.0126V91.7088C179.937 92.6836 180.734 93.4808 181.709 93.4808H188.266C189.24 93.4808 190.038 92.6835 190.038 91.7088V87.0126C190.038 86.0379 189.24 85.2406 188.266 85.2406H181.709Z" fill="white"/>
<path d="M173.736 85.2406H167.179C166.205 85.2406 165.407 86.0379 165.407 87.0126V91.7088C165.407 92.6836 166.205 93.4808 167.179 93.4808H173.736C174.711 93.4808 175.508 92.6835 175.508 91.7088V87.0126C175.42 86.0379 174.711 85.2406 173.736 85.2406Z" fill="white"/>
<path d="M173.736 98.0893H167.179C166.205 98.0893 165.407 98.8866 165.407 99.8613V104.558C165.407 105.532 166.205 106.33 167.179 106.33H173.736C174.711 106.33 175.508 105.532 175.508 104.558L175.509 99.8613C175.42 98.8866 174.711 98.0893 173.736 98.0893H173.736Z" fill="white"/>
<path d="M160.893 86.9243C160.893 85.9496 160.096 85.1523 159.121 85.1523H152.564C151.589 85.1523 150.792 85.9497 150.792 86.9243V91.6206C150.792 92.5953 151.589 93.3926 152.564 93.3926H159.121C160.096 93.3926 160.893 92.5953 160.893 91.6206V86.9243Z" fill="white"/>
<path d="M159.208 98.0893H152.651C151.676 98.0893 150.879 98.8866 150.879 99.8613V104.558C150.879 105.532 151.676 106.33 152.651 106.33H159.208C160.183 106.33 160.98 105.532 160.98 104.558L160.981 99.8613C160.892 98.8866 160.183 98.0893 159.208 98.0893H159.208Z" fill="white"/>
<path d="M198.902 107.127C197.484 107.127 196.333 108.279 196.333 109.696V118.823C196.333 119.886 196.954 120.772 197.928 121.215L203.421 123.608C203.775 123.785 204.13 123.785 204.484 123.785C205.459 123.785 206.434 123.165 206.877 122.191C207.408 120.862 206.877 119.355 205.548 118.735L201.649 117.051V109.608C201.56 108.278 200.32 107.127 198.902 107.127L198.902 107.127Z" fill="white"/>
<path d="M208.036 112.089L219.2 114.393C219.732 114.481 220.175 114.393 220.529 113.95C220.883 113.595 220.972 113.063 220.883 112.621L218.58 101.456C218.491 100.925 217.959 100.481 217.605 100.304C217.073 100.127 216.453 100.304 216.099 100.658L213.529 103.228C209.542 99.5061 204.491 97.4684 198.998 97.4684C193.327 97.4684 187.922 99.6836 183.934 103.671C175.605 112 175.605 125.468 183.934 133.798C187.922 137.785 193.327 140 198.998 140C204.669 140 210.074 137.785 214.061 133.798C217.251 130.608 219.289 126.709 219.998 122.278C220.263 120.86 219.289 119.532 217.871 119.266C216.453 119 215.124 119.975 214.858 121.393C214.327 124.671 212.732 127.684 210.34 130.076C204.048 136.367 193.858 136.367 187.567 130.076C181.276 123.785 181.276 113.595 187.567 107.304C193.681 101.19 203.428 101.012 209.808 106.772L207.239 109.341C206.884 109.696 206.707 110.316 206.884 110.848C207.062 111.558 207.505 112.001 208.037 112.089L208.036 112.089Z" fill="white"/>
<defs>
<linearGradient id="paint0_linear_1383_589" x1="36" y1="52.8" x2="375.514" y2="123.532" gradientUnits="userSpaceOnUse">
<stop stop-color="#C56AFF"/>
<stop offset="1" stop-color="#832FB8"/>
</linearGradient>
</defs>
</svg>
