<svg width="360" height="264" viewBox="0 0 360 264" fill="none" xmlns="http://www.w3.org/2000/svg">
<path d="M8.75979 73.9298C9.19291 64.5317 16.1175 56.7061 25.393 55.1323L327.838 3.81708C339.755 1.79517 350.728 10.7246 351.17 22.8036L359.241 243.268C359.656 254.593 350.587 264 339.254 264H20.943C9.53582 264 0.439013 254.474 0.964177 243.079L8.75979 73.9298Z" fill="url(#paint0_linear_1383_587)"/>
<path d="M76.3718 162.16V178H71.7878L66.8678 169.432L65.6678 167.08H65.6438L65.7398 170.008V178H62.0918V162.16H66.6758L71.5958 170.728L72.7958 173.08H72.8198L72.7238 170.152V162.16H76.3718ZM85.2346 165.76C86.4986 165.76 87.6026 166.008 88.5466 166.504C89.5066 166.984 90.2506 167.696 90.7786 168.64C91.3226 169.568 91.5946 170.688 91.5946 172C91.5946 173.312 91.3226 174.44 90.7786 175.384C90.2506 176.312 89.5066 177.024 88.5466 177.52C87.6026 178 86.4986 178.24 85.2346 178.24C84.0026 178.24 82.9066 178 81.9466 177.52C80.9866 177.024 80.2346 176.312 79.6906 175.384C79.1626 174.44 78.8986 173.312 78.8986 172C78.8986 170.688 79.1626 169.568 79.6906 168.64C80.2346 167.696 80.9866 166.984 81.9466 166.504C82.9066 166.008 84.0026 165.76 85.2346 165.76ZM85.2346 168.664C84.7706 168.664 84.3706 168.776 84.0346 169C83.6986 169.224 83.4426 169.584 83.2666 170.08C83.0906 170.576 83.0026 171.216 83.0026 172C83.0026 172.784 83.0906 173.424 83.2666 173.92C83.4426 174.4 83.6986 174.76 84.0346 175C84.3706 175.224 84.7706 175.336 85.2346 175.336C85.7146 175.336 86.1226 175.224 86.4586 175C86.7946 174.76 87.0506 174.4 87.2266 173.92C87.4026 173.424 87.4906 172.784 87.4906 172C87.4906 171.216 87.4026 170.576 87.2266 170.08C87.0506 169.584 86.7946 169.224 86.4586 169C86.1226 168.776 85.7146 168.664 85.2346 168.664ZM103.648 178L99.0877 162.16H103.48L106.168 174.664L109 162.16H112.744L115.648 174.64L118.288 162.16H122.536L117.952 178H113.464L111.592 170.32L110.872 166.456H110.824L110.128 170.32L108.28 178H103.648ZM129.976 170.392C129.976 169.832 129.816 169.392 129.496 169.072C129.192 168.736 128.776 168.568 128.248 168.568C127.72 168.568 127.264 168.704 126.88 168.976C126.512 169.232 126.256 169.696 126.112 170.368L122.656 169.552C122.88 168.4 123.472 167.48 124.432 166.792C125.392 166.104 126.744 165.76 128.488 165.76C129.656 165.76 130.648 165.936 131.464 166.288C132.296 166.624 132.928 167.136 133.36 167.824C133.808 168.496 134.032 169.328 134.032 170.32V174.712C134.032 175.336 134.312 175.648 134.872 175.648C135.16 175.648 135.392 175.616 135.568 175.552L135.328 177.88C134.848 178.104 134.264 178.216 133.576 178.216C132.952 178.216 132.4 178.12 131.92 177.928C131.44 177.72 131.064 177.416 130.792 177.016C130.52 176.6 130.384 176.08 130.384 175.456V175.312L130.84 175.144C130.84 175.832 130.632 176.408 130.216 176.872C129.816 177.336 129.288 177.68 128.632 177.904C127.992 178.128 127.32 178.24 126.616 178.24C125.8 178.24 125.088 178.112 124.48 177.856C123.872 177.6 123.4 177.232 123.064 176.752C122.744 176.256 122.584 175.648 122.584 174.928C122.584 174.064 122.84 173.352 123.352 172.792C123.88 172.216 124.704 171.816 125.824 171.592L130.36 170.656L130.336 172.816L128.032 173.296C127.552 173.392 127.192 173.536 126.952 173.728C126.728 173.904 126.616 174.176 126.616 174.544C126.616 174.896 126.744 175.16 127 175.336C127.256 175.512 127.56 175.6 127.912 175.6C128.184 175.6 128.44 175.56 128.68 175.48C128.936 175.4 129.16 175.28 129.352 175.12C129.544 174.944 129.696 174.728 129.808 174.472C129.92 174.216 129.976 173.912 129.976 173.56V170.392ZM139.219 164.608C138.387 164.608 137.779 164.456 137.395 164.152C137.027 163.832 136.843 163.336 136.843 162.664C136.843 161.976 137.027 161.48 137.395 161.176C137.779 160.856 138.387 160.696 139.219 160.696C140.035 160.696 140.635 160.856 141.019 161.176C141.403 161.48 141.595 161.976 141.595 162.664C141.595 163.336 141.403 163.832 141.019 164.152C140.635 164.456 140.035 164.608 139.219 164.608ZM141.259 166V178H137.179V166H141.259ZM149.179 162.184V173.728C149.179 174.304 149.315 174.72 149.587 174.976C149.875 175.216 150.267 175.336 150.763 175.336C151.147 175.336 151.475 175.296 151.747 175.216C152.035 175.12 152.291 174.984 152.515 174.808L152.947 177.328C152.547 177.616 152.043 177.84 151.435 178C150.827 178.16 150.203 178.24 149.563 178.24C148.651 178.24 147.859 178.112 147.187 177.856C146.531 177.6 146.019 177.192 145.651 176.632C145.299 176.072 145.115 175.328 145.099 174.4V163.312L149.179 162.184ZM152.755 166V168.904H143.035V166H152.755ZM156.68 164.608C155.848 164.608 155.24 164.456 154.856 164.152C154.488 163.832 154.304 163.336 154.304 162.664C154.304 161.976 154.488 161.48 154.856 161.176C155.24 160.856 155.848 160.696 156.68 160.696C157.496 160.696 158.096 160.856 158.48 161.176C158.864 161.48 159.056 161.976 159.056 162.664C159.056 163.336 158.864 163.832 158.48 164.152C158.096 164.456 157.496 164.608 156.68 164.608ZM158.72 166V178H154.64V166H158.72ZM161.624 178V166H165.272L165.488 170.128L165.032 169.672C165.192 168.808 165.472 168.088 165.872 167.512C166.288 166.936 166.8 166.504 167.408 166.216C168.032 165.912 168.728 165.76 169.496 165.76C170.328 165.76 171.048 165.92 171.656 166.24C172.28 166.56 172.768 167.032 173.12 167.656C173.472 168.28 173.648 169.064 173.648 170.008V178H169.568V171.088C169.568 170.256 169.408 169.68 169.088 169.36C168.768 169.04 168.36 168.88 167.864 168.88C167.48 168.88 167.12 168.976 166.784 169.168C166.448 169.344 166.184 169.632 165.992 170.032C165.8 170.432 165.704 170.968 165.704 171.64V178H161.624ZM188.123 162.784L188.459 165.52C188.363 165.488 188.267 165.472 188.171 165.472C188.075 165.456 187.979 165.448 187.883 165.448C187.179 165.448 186.651 165.624 186.299 165.976C185.963 166.312 185.795 166.736 185.795 167.248L184.355 166.72C184.355 166.064 184.475 165.432 184.715 164.824C184.955 164.216 185.323 163.72 185.819 163.336C186.331 162.952 186.971 162.76 187.739 162.76C187.787 162.76 187.843 162.76 187.907 162.76C187.987 162.76 188.059 162.768 188.123 162.784ZM183.995 175.336C185.387 175.336 186.451 175.632 187.187 176.224C187.939 176.8 188.315 177.632 188.315 178.72C188.315 179.712 188.043 180.536 187.499 181.192C186.955 181.848 186.187 182.336 185.195 182.656C184.219 182.992 183.059 183.16 181.715 183.16C179.539 183.16 177.971 182.888 177.011 182.344C176.051 181.8 175.571 181.064 175.571 180.136C175.571 179.464 175.843 178.92 176.387 178.504C176.931 178.088 177.835 177.864 179.099 177.832L179.003 178.216C178.027 178.088 177.299 177.8 176.819 177.352C176.339 176.904 176.099 176.296 176.099 175.528C176.099 174.76 176.403 174.136 177.011 173.656C177.619 173.176 178.427 172.912 179.435 172.864L180.923 173.56H180.539C179.915 173.592 179.475 173.696 179.219 173.872C178.963 174.048 178.835 174.264 178.835 174.52C178.835 174.792 178.947 175 179.171 175.144C179.395 175.272 179.731 175.336 180.179 175.336H183.995ZM181.739 180.52C182.507 180.52 183.139 180.464 183.635 180.352C184.147 180.256 184.531 180.112 184.787 179.92C185.043 179.744 185.171 179.536 185.171 179.296C185.171 179.056 185.083 178.864 184.907 178.72C184.731 178.592 184.411 178.528 183.947 178.528H179.651C179.347 178.528 179.099 178.608 178.907 178.768C178.731 178.928 178.643 179.128 178.643 179.368C178.643 179.736 178.915 180.016 179.459 180.208C180.003 180.416 180.763 180.52 181.739 180.52ZM181.883 165.76C183.099 165.76 184.139 165.92 185.003 166.24C185.867 166.56 186.523 167.024 186.971 167.632C187.435 168.224 187.667 168.96 187.667 169.84C187.667 170.704 187.435 171.44 186.971 172.048C186.523 172.656 185.867 173.12 185.003 173.44C184.139 173.744 183.099 173.896 181.883 173.896C179.979 173.896 178.531 173.544 177.539 172.84C176.563 172.136 176.075 171.136 176.075 169.84C176.075 168.96 176.299 168.224 176.747 167.632C177.211 167.024 177.875 166.56 178.739 166.24C179.603 165.92 180.651 165.76 181.883 165.76ZM181.883 168.088C181.355 168.088 180.923 168.24 180.587 168.544C180.267 168.848 180.107 169.28 180.107 169.84C180.107 170.384 180.267 170.808 180.587 171.112C180.923 171.416 181.355 171.568 181.883 171.568C182.395 171.568 182.819 171.416 183.155 171.112C183.491 170.808 183.659 170.384 183.659 169.84C183.659 169.28 183.491 168.848 183.155 168.544C182.819 168.24 182.395 168.088 181.883 168.088ZM191.881 173.872C192.473 173.872 192.961 174.008 193.345 174.28C193.729 174.552 194.009 174.912 194.185 175.36C194.377 175.792 194.473 176.28 194.473 176.824C194.473 177.544 194.313 178.232 193.993 178.888C193.689 179.56 193.281 180.144 192.769 180.64C192.273 181.152 191.729 181.536 191.137 181.792L189.481 180.568C189.929 180.392 190.337 180.168 190.705 179.896C191.089 179.624 191.417 179.328 191.689 179.008C191.977 178.688 192.193 178.36 192.337 178.024L192.217 177.952C192.137 178.016 192.033 178.064 191.905 178.096C191.777 178.128 191.609 178.144 191.401 178.144C191.113 178.144 190.817 178.072 190.513 177.928C190.225 177.784 189.977 177.568 189.769 177.28C189.577 176.992 189.481 176.624 189.481 176.176C189.481 175.664 189.593 175.24 189.817 174.904C190.041 174.568 190.337 174.312 190.705 174.136C191.073 173.96 191.465 173.872 191.881 173.872ZM218.333 162.16V178H213.749L208.829 169.432L207.629 167.08H207.605L207.701 170.008V178H204.053V162.16H208.637L213.557 170.728L214.757 173.08H214.781L214.685 170.152V162.16H218.333ZM227.196 165.76C228.46 165.76 229.564 166.008 230.508 166.504C231.468 166.984 232.212 167.696 232.74 168.64C233.284 169.568 233.556 170.688 233.556 172C233.556 173.312 233.284 174.44 232.74 175.384C232.212 176.312 231.468 177.024 230.508 177.52C229.564 178 228.46 178.24 227.196 178.24C225.964 178.24 224.868 178 223.908 177.52C222.948 177.024 222.196 176.312 221.652 175.384C221.124 174.44 220.86 173.312 220.86 172C220.86 170.688 221.124 169.568 221.652 168.64C222.196 167.696 222.948 166.984 223.908 166.504C224.868 166.008 225.964 165.76 227.196 165.76ZM227.196 168.664C226.732 168.664 226.332 168.776 225.996 169C225.66 169.224 225.404 169.584 225.228 170.08C225.052 170.576 224.964 171.216 224.964 172C224.964 172.784 225.052 173.424 225.228 173.92C225.404 174.4 225.66 174.76 225.996 175C226.332 175.224 226.732 175.336 227.196 175.336C227.676 175.336 228.084 175.224 228.42 175C228.756 174.76 229.012 174.4 229.188 173.92C229.364 173.424 229.452 172.784 229.452 172C229.452 171.216 229.364 170.576 229.188 170.08C229.012 169.584 228.756 169.224 228.42 169C228.084 168.776 227.676 168.664 227.196 168.664ZM255.904 162.16V165.352H250.744V178H246.616V165.352H241.432V162.16H255.904ZM259.688 164.608C258.856 164.608 258.248 164.456 257.864 164.152C257.496 163.832 257.312 163.336 257.312 162.664C257.312 161.976 257.496 161.48 257.864 161.176C258.248 160.856 258.856 160.696 259.688 160.696C260.504 160.696 261.104 160.856 261.488 161.176C261.872 161.48 262.064 161.976 262.064 162.664C262.064 163.336 261.872 163.832 261.488 164.152C261.104 164.456 260.504 164.608 259.688 164.608ZM261.728 166V178H257.648V166H261.728ZM264.632 178V166H268.28L268.4 168.328C268.784 167.48 269.32 166.84 270.008 166.408C270.712 165.976 271.52 165.76 272.432 165.76C273.328 165.76 274.104 165.96 274.76 166.36C275.416 166.76 275.904 167.352 276.224 168.136C276.48 167.608 276.808 167.168 277.208 166.816C277.624 166.464 278.096 166.2 278.624 166.024C279.152 165.848 279.696 165.76 280.256 165.76C281.056 165.76 281.76 165.92 282.368 166.24C282.976 166.544 283.456 167.016 283.808 167.656C284.176 168.28 284.36 169.064 284.36 170.008V178H280.28V170.944C280.28 170.176 280.128 169.64 279.824 169.336C279.536 169.032 279.144 168.88 278.648 168.88C278.248 168.88 277.88 168.984 277.544 169.192C277.224 169.384 276.976 169.68 276.8 170.08C276.624 170.48 276.536 170.984 276.536 171.592V178H272.456V170.944C272.456 170.176 272.304 169.64 272 169.336C271.696 169.032 271.304 168.88 270.824 168.88C270.456 168.88 270.104 168.976 269.768 169.168C269.448 169.36 269.192 169.664 269 170.08C268.808 170.48 268.712 171.008 268.712 171.664V178H264.632ZM293.082 178.24C291.754 178.24 290.602 177.992 289.626 177.496C288.666 177 287.922 176.288 287.394 175.36C286.866 174.432 286.602 173.312 286.602 172C286.602 170.688 286.866 169.568 287.394 168.64C287.922 167.712 288.658 167 289.602 166.504C290.562 166.008 291.658 165.76 292.89 165.76C294.154 165.76 295.226 166.008 296.106 166.504C297.002 166.984 297.682 167.656 298.146 168.52C298.61 169.368 298.842 170.344 298.842 171.448C298.842 171.736 298.834 172.024 298.818 172.312C298.802 172.6 298.778 172.84 298.746 173.032H289.242V170.848H296.946L295.002 171.592C295.002 170.632 294.826 169.896 294.474 169.384C294.138 168.872 293.61 168.616 292.89 168.616C292.378 168.616 291.938 168.736 291.57 168.976C291.218 169.216 290.946 169.592 290.754 170.104C290.578 170.616 290.49 171.272 290.49 172.072C290.49 172.856 290.594 173.496 290.802 173.992C291.01 174.472 291.306 174.824 291.69 175.048C292.074 175.256 292.538 175.36 293.082 175.36C293.69 175.36 294.17 175.24 294.522 175C294.89 174.76 295.162 174.424 295.338 173.992L298.602 175.072C298.378 175.76 297.986 176.344 297.426 176.824C296.882 177.288 296.226 177.64 295.458 177.88C294.706 178.12 293.914 178.24 293.082 178.24ZM147.78 206L143.22 190.16H147.612L150.3 202.664L153.132 190.16H156.876L159.78 202.64L162.42 190.16H166.668L162.084 206H157.596L155.724 198.32L155.004 194.456H154.956L154.26 198.32L152.412 206H147.78ZM174.109 198.392C174.109 197.832 173.949 197.392 173.629 197.072C173.325 196.736 172.909 196.568 172.381 196.568C171.853 196.568 171.397 196.704 171.013 196.976C170.645 197.232 170.389 197.696 170.245 198.368L166.789 197.552C167.013 196.4 167.605 195.48 168.565 194.792C169.525 194.104 170.877 193.76 172.621 193.76C173.789 193.76 174.781 193.936 175.597 194.288C176.429 194.624 177.061 195.136 177.493 195.824C177.941 196.496 178.165 197.328 178.165 198.32V202.712C178.165 203.336 178.445 203.648 179.005 203.648C179.293 203.648 179.525 203.616 179.701 203.552L179.461 205.88C178.981 206.104 178.397 206.216 177.709 206.216C177.085 206.216 176.533 206.12 176.053 205.928C175.573 205.72 175.197 205.416 174.925 205.016C174.653 204.6 174.517 204.08 174.517 203.456V203.312L174.973 203.144C174.973 203.832 174.765 204.408 174.349 204.872C173.949 205.336 173.421 205.68 172.765 205.904C172.125 206.128 171.453 206.24 170.749 206.24C169.933 206.24 169.221 206.112 168.613 205.856C168.005 205.6 167.533 205.232 167.197 204.752C166.877 204.256 166.717 203.648 166.717 202.928C166.717 202.064 166.973 201.352 167.485 200.792C168.013 200.216 168.837 199.816 169.957 199.592L174.493 198.656L174.469 200.816L172.165 201.296C171.685 201.392 171.325 201.536 171.085 201.728C170.861 201.904 170.749 202.176 170.749 202.544C170.749 202.896 170.877 203.16 171.133 203.336C171.389 203.512 171.693 203.6 172.045 203.6C172.317 203.6 172.573 203.56 172.813 203.48C173.069 203.4 173.293 203.28 173.485 203.12C173.677 202.944 173.829 202.728 173.941 202.472C174.053 202.216 174.109 201.912 174.109 201.56V198.392ZM186.352 206.24C185.152 206.24 184.032 206.048 182.992 205.664C181.968 205.264 181.12 204.696 180.448 203.96L182.368 201.704C182.768 202.216 183.296 202.648 183.952 203C184.624 203.336 185.368 203.504 186.184 203.504C186.68 203.504 187.088 203.432 187.408 203.288C187.728 203.144 187.888 202.92 187.888 202.616C187.888 202.392 187.808 202.216 187.648 202.088C187.488 201.944 187.168 201.824 186.688 201.728L185.008 201.392C183.504 201.088 182.432 200.64 181.792 200.048C181.168 199.44 180.856 198.648 180.856 197.672C180.856 197.016 181.056 196.392 181.456 195.8C181.856 195.192 182.472 194.704 183.304 194.336C184.136 193.952 185.2 193.76 186.496 193.76C187.712 193.76 188.784 193.936 189.712 194.288C190.64 194.64 191.376 195.152 191.92 195.824L189.976 198.032C189.592 197.552 189.096 197.176 188.488 196.904C187.88 196.632 187.272 196.496 186.664 196.496C186.28 196.496 185.952 196.536 185.68 196.616C185.424 196.68 185.232 196.776 185.104 196.904C184.976 197.032 184.912 197.192 184.912 197.384C184.912 197.592 185.008 197.776 185.2 197.936C185.408 198.08 185.784 198.208 186.328 198.32L188.512 198.752C189.744 198.976 190.632 199.384 191.176 199.976C191.72 200.568 191.992 201.28 191.992 202.112C191.992 202.896 191.784 203.6 191.368 204.224C190.952 204.848 190.328 205.344 189.496 205.712C188.664 206.064 187.616 206.24 186.352 206.24ZM199.125 190.184V201.728C199.125 202.304 199.261 202.72 199.533 202.976C199.821 203.216 200.213 203.336 200.709 203.336C201.093 203.336 201.421 203.296 201.693 203.216C201.981 203.12 202.237 202.984 202.461 202.808L202.893 205.328C202.493 205.616 201.989 205.84 201.381 206C200.773 206.16 200.149 206.24 199.509 206.24C198.597 206.24 197.805 206.112 197.133 205.856C196.477 205.6 195.965 205.192 195.597 204.632C195.245 204.072 195.061 203.328 195.045 202.4V191.312L199.125 190.184ZM202.701 194V196.904H192.981V194H202.701ZM210.441 206.24C209.113 206.24 207.961 205.992 206.985 205.496C206.025 205 205.281 204.288 204.753 203.36C204.225 202.432 203.961 201.312 203.961 200C203.961 198.688 204.225 197.568 204.753 196.64C205.281 195.712 206.017 195 206.961 194.504C207.921 194.008 209.017 193.76 210.249 193.76C211.513 193.76 212.585 194.008 213.465 194.504C214.361 194.984 215.041 195.656 215.505 196.52C215.969 197.368 216.201 198.344 216.201 199.448C216.201 199.736 216.193 200.024 216.177 200.312C216.161 200.6 216.137 200.84 216.105 201.032H206.601V198.848H214.305L212.361 199.592C212.361 198.632 212.185 197.896 211.833 197.384C211.497 196.872 210.969 196.616 210.249 196.616C209.737 196.616 209.297 196.736 208.929 196.976C208.577 197.216 208.305 197.592 208.113 198.104C207.937 198.616 207.849 199.272 207.849 200.072C207.849 200.856 207.953 201.496 208.161 201.992C208.369 202.472 208.665 202.824 209.049 203.048C209.433 203.256 209.897 203.36 210.441 203.36C211.049 203.36 211.529 203.24 211.881 203C212.249 202.76 212.521 202.424 212.697 201.992L215.961 203.072C215.737 203.76 215.345 204.344 214.785 204.824C214.241 205.288 213.585 205.64 212.817 205.88C212.065 206.12 211.273 206.24 210.441 206.24Z" fill="white"/>
<path d="M183.751 73.7344V72.25C183.751 71.5625 183.188 71 182.501 71H177.501C176.813 71 176.251 71.5625 176.251 72.25V73.7344C178.735 73.4219 181.267 73.4219 183.751 73.7344Z" fill="white"/>
<path d="M182.501 103.5C182.501 104.881 181.382 106 180.001 106C178.62 106 177.501 104.881 177.501 103.5C177.501 102.119 178.62 101 180.001 101C181.382 101 182.501 102.119 182.501 103.5Z" fill="white"/>
<path d="M184.048 100.579L190.751 85.5943C190.813 85.438 190.751 85.2662 190.595 85.2037C190.47 85.1412 190.313 85.188 190.235 85.2974L180.548 98.5318C181.954 98.6881 183.22 99.4224 184.048 100.579L184.048 100.579Z" fill="white"/>
<path d="M204.406 86.0786L206.094 84.3911C206.578 83.9068 206.578 83.1099 206.094 82.6256L203.391 79.9069C202.906 79.4225 202.109 79.4225 201.625 79.9069L200.203 81.3287C201.75 82.7662 203.172 84.3443 204.406 86.0787L204.406 86.0786Z" fill="white"/>
<path d="M213.469 120.031C212.516 119.36 211.282 119.219 210.204 119.641L182.954 129.969C180.985 130.719 178.782 130.422 177.079 129.203L170.922 124.75H163.751V122.25H180.625C182.344 122.25 183.75 120.844 183.75 119.125C183.75 117.406 182.344 116 180.625 116H166.859C165.203 116 163.609 116.656 162.437 117.828L160.578 119.688C158.937 121.328 156.719 122.25 154.391 122.25H145V137.25H161.421L172.843 140.469C176.593 141.532 180.593 141.203 184.125 139.563L212.953 126.157C214.203 125.578 215 124.328 215 122.938C215.016 121.782 214.438 120.688 213.469 120.032L213.469 120.031Z" fill="white"/>
<path d="M165.172 103.703L175.328 105.297C174.891 104.156 174.875 102.875 175.312 101.734L165.172 103.297C165.063 103.312 164.984 103.422 165 103.531C165.016 103.625 165.094 103.687 165.172 103.703L165.172 103.703Z" fill="white"/>
<path d="M152.532 104.75C152.751 109.859 154.407 114.813 157.313 119.031C157.876 118.734 158.376 118.359 158.829 117.922L160.688 116.063C162.329 114.422 164.547 113.5 166.875 113.5H180.626C183.735 113.5 186.251 116.016 186.251 119.125C186.251 122.234 183.735 124.75 180.626 124.75H175.204L178.547 127.156C179.563 127.891 180.891 128.062 182.063 127.625L198.594 121.359L195.063 117.828L196.829 116.063L201.157 120.391L201.922 120.094C205.297 115.672 207.235 110.313 207.469 104.75H201.251V102.25H207.469C207.204 96.437 205.094 90.8432 201.454 86.3124L197.141 90.6249L195.376 88.8594L199.813 84.4219C194.922 79.3594 188.282 76.3438 181.25 76.0314V82.2501H178.75V76.0314C171.719 76.3439 165.078 79.3595 160.203 84.4377L164.937 89.1721L163.172 90.9377L158.547 86.3127C154.891 90.844 152.781 96.4377 152.531 102.25H158.75V104.75L152.532 104.75ZM164.797 100.828L177.172 98.9219L188.219 83.8119C189.125 82.5619 190.891 82.2963 192.126 83.2025C193.188 83.9838 193.563 85.4056 193.032 86.6088L184.579 105.515C183.688 107.546 181.547 108.749 179.344 108.452C179.266 108.436 179.188 108.436 179.11 108.421L164.797 106.171C163.313 105.936 162.313 104.561 162.531 103.077C162.719 101.921 163.625 100.999 164.797 100.827L164.797 100.828Z" fill="white"/>
<defs>
<linearGradient id="paint0_linear_1383_587" x1="36" y1="52.8" x2="375.514" y2="123.532" gradientUnits="userSpaceOnUse">
<stop stop-color="#C56AFF"/>
<stop offset="1" stop-color="#832FB8"/>
</linearGradient>
</defs>
</svg>
