<svg width="368" height="272" viewBox="0 0 368 272" fill="none" xmlns="http://www.w3.org/2000/svg">
<g filter="url(#filter0_d_1383_588)">
<path d="M12.7598 73.9298C13.1929 64.5317 20.1175 56.7061 29.393 55.1323L331.838 3.81708C343.755 1.79517 354.728 10.7246 355.17 22.8036L363.241 243.268C363.656 254.593 354.587 264 343.254 264H24.943C13.5358 264 4.43901 254.474 4.96418 243.079L12.7598 73.9298Z" fill="url(#paint0_linear_1383_588)"/>
<path d="M29.4767 55.6253L331.922 4.31003C343.541 2.33868 354.24 11.0448 354.671 22.8219L362.741 243.287C363.146 254.329 354.304 263.5 343.254 263.5H24.943C13.821 263.5 4.95161 254.212 5.46365 243.102L13.2593 73.9528C13.6816 64.7897 20.4331 57.1597 29.4767 55.6253Z" stroke="black"/>
</g>
<path d="M101.615 178.24C99.9186 178.24 98.5026 177.912 97.3666 177.256C96.2466 176.584 95.4706 175.608 95.0386 174.328L98.8306 172.696C98.9106 173.272 99.0546 173.736 99.2626 174.088C99.4866 174.424 99.7826 174.672 100.151 174.832C100.519 174.976 100.951 175.048 101.447 175.048C101.895 175.048 102.271 174.976 102.575 174.832C102.895 174.672 103.143 174.448 103.319 174.16C103.495 173.872 103.583 173.528 103.583 173.128C103.583 172.712 103.495 172.376 103.319 172.12C103.159 171.864 102.919 171.68 102.599 171.568C102.295 171.456 101.919 171.4 101.471 171.4C101.263 171.4 101.071 171.408 100.895 171.424C100.719 171.424 100.519 171.44 100.295 171.472V168.784C100.423 168.8 100.551 168.816 100.679 168.832C100.807 168.832 100.959 168.832 101.135 168.832C101.887 168.832 102.423 168.68 102.743 168.376C103.079 168.056 103.247 167.56 103.247 166.888C103.247 166.312 103.079 165.872 102.743 165.568C102.423 165.264 101.967 165.112 101.375 165.112C100.751 165.112 100.239 165.28 99.8386 165.616C99.4386 165.936 99.1826 166.488 99.0706 167.272L95.4466 166.024C95.6226 165.144 95.9986 164.4 96.5746 163.792C97.1506 163.184 97.8706 162.72 98.7346 162.4C99.6146 162.08 100.583 161.92 101.639 161.92C102.855 161.92 103.879 162.096 104.711 162.448C105.543 162.8 106.175 163.304 106.607 163.96C107.039 164.616 107.255 165.384 107.255 166.264C107.255 166.952 107.143 167.528 106.919 167.992C106.711 168.456 106.439 168.832 106.103 169.12C105.783 169.408 105.455 169.624 105.119 169.768C104.783 169.896 104.503 169.976 104.279 170.008V170.08C104.567 170.08 104.895 170.136 105.263 170.248C105.631 170.36 105.991 170.544 106.343 170.8C106.695 171.04 106.983 171.376 107.207 171.808C107.447 172.24 107.567 172.776 107.567 173.416C107.567 174.408 107.303 175.264 106.775 175.984C106.263 176.704 105.559 177.264 104.663 177.664C103.767 178.048 102.751 178.24 101.615 178.24ZM130.135 162.16V165.352H124.975V178H120.847V165.352H115.663V162.16H130.135ZM136.793 170.392C136.793 169.832 136.633 169.392 136.313 169.072C136.009 168.736 135.593 168.568 135.065 168.568C134.537 168.568 134.081 168.704 133.697 168.976C133.329 169.232 133.073 169.696 132.929 170.368L129.473 169.552C129.697 168.4 130.289 167.48 131.249 166.792C132.209 166.104 133.561 165.76 135.305 165.76C136.473 165.76 137.465 165.936 138.281 166.288C139.113 166.624 139.745 167.136 140.177 167.824C140.625 168.496 140.849 169.328 140.849 170.32V174.712C140.849 175.336 141.129 175.648 141.689 175.648C141.977 175.648 142.209 175.616 142.385 175.552L142.145 177.88C141.665 178.104 141.081 178.216 140.393 178.216C139.769 178.216 139.217 178.12 138.737 177.928C138.257 177.72 137.881 177.416 137.609 177.016C137.337 176.6 137.201 176.08 137.201 175.456V175.312L137.657 175.144C137.657 175.832 137.449 176.408 137.033 176.872C136.633 177.336 136.105 177.68 135.449 177.904C134.809 178.128 134.137 178.24 133.433 178.24C132.617 178.24 131.905 178.112 131.297 177.856C130.689 177.6 130.217 177.232 129.881 176.752C129.561 176.256 129.401 175.648 129.401 174.928C129.401 174.064 129.657 173.352 130.169 172.792C130.697 172.216 131.521 171.816 132.641 171.592L137.177 170.656L137.153 172.816L134.849 173.296C134.369 173.392 134.009 173.536 133.769 173.728C133.545 173.904 133.433 174.176 133.433 174.544C133.433 174.896 133.561 175.16 133.817 175.336C134.073 175.512 134.377 175.6 134.729 175.6C135.001 175.6 135.257 175.56 135.497 175.48C135.753 175.4 135.977 175.28 136.169 175.12C136.361 174.944 136.513 174.728 136.625 174.472C136.737 174.216 136.793 173.912 136.793 173.56V170.392ZM143.995 183.04V166H147.667L147.883 170.344L147.403 169.84C147.515 169.04 147.763 168.336 148.147 167.728C148.531 167.12 149.027 166.64 149.635 166.288C150.243 165.936 150.939 165.76 151.723 165.76C152.715 165.76 153.579 166.008 154.315 166.504C155.051 166.984 155.619 167.688 156.019 168.616C156.435 169.528 156.643 170.64 156.643 171.952C156.643 173.264 156.435 174.392 156.019 175.336C155.603 176.28 155.019 177 154.267 177.496C153.531 177.992 152.667 178.24 151.675 178.24C150.587 178.24 149.707 177.92 149.035 177.28C148.363 176.624 147.915 175.8 147.691 174.808L148.075 174.232V183.04H143.995ZM150.283 175.24C150.987 175.24 151.539 174.984 151.939 174.472C152.339 173.944 152.539 173.12 152.539 172C152.539 170.88 152.339 170.064 151.939 169.552C151.555 169.024 151.011 168.76 150.307 168.76C149.859 168.76 149.467 168.888 149.131 169.144C148.795 169.384 148.531 169.744 148.339 170.224C148.163 170.704 148.075 171.296 148.075 172C148.075 172.672 148.155 173.256 148.315 173.752C148.491 174.232 148.747 174.6 149.083 174.856C149.419 175.112 149.819 175.24 150.283 175.24ZM164.082 178.24C162.882 178.24 161.762 178.048 160.722 177.664C159.698 177.264 158.85 176.696 158.178 175.96L160.098 173.704C160.498 174.216 161.026 174.648 161.682 175C162.354 175.336 163.098 175.504 163.914 175.504C164.41 175.504 164.818 175.432 165.138 175.288C165.458 175.144 165.618 174.92 165.618 174.616C165.618 174.392 165.538 174.216 165.378 174.088C165.218 173.944 164.898 173.824 164.418 173.728L162.738 173.392C161.234 173.088 160.162 172.64 159.522 172.048C158.898 171.44 158.586 170.648 158.586 169.672C158.586 169.016 158.786 168.392 159.186 167.8C159.586 167.192 160.202 166.704 161.034 166.336C161.866 165.952 162.93 165.76 164.226 165.76C165.442 165.76 166.514 165.936 167.442 166.288C168.37 166.64 169.106 167.152 169.65 167.824L167.706 170.032C167.322 169.552 166.826 169.176 166.218 168.904C165.61 168.632 165.002 168.496 164.394 168.496C164.01 168.496 163.682 168.536 163.41 168.616C163.154 168.68 162.962 168.776 162.834 168.904C162.706 169.032 162.642 169.192 162.642 169.384C162.642 169.592 162.738 169.776 162.93 169.936C163.138 170.08 163.514 170.208 164.058 170.32L166.242 170.752C167.474 170.976 168.362 171.384 168.906 171.976C169.45 172.568 169.722 173.28 169.722 174.112C169.722 174.896 169.514 175.6 169.098 176.224C168.682 176.848 168.058 177.344 167.226 177.712C166.394 178.064 165.346 178.24 164.082 178.24ZM178.994 178V162.16H186.698C188.65 162.176 190.09 162.552 191.018 163.288C191.946 164.008 192.41 165.056 192.41 166.432C192.41 167.328 192.146 168.104 191.618 168.76C191.09 169.4 190.282 169.808 189.194 169.984V170.008C190.41 170.168 191.314 170.592 191.906 171.28C192.514 171.952 192.818 172.768 192.818 173.728C192.818 175.088 192.338 176.144 191.378 176.896C190.418 177.632 188.978 178 187.058 178H178.994ZM182.978 175.096H186.362C187.114 175.096 187.674 174.944 188.042 174.64C188.41 174.336 188.594 173.896 188.594 173.32C188.594 172.76 188.41 172.336 188.042 172.048C187.674 171.744 187.114 171.592 186.362 171.592H182.978V175.096ZM182.978 168.64H185.978C187.45 168.64 188.186 168.064 188.186 166.912C188.186 165.76 187.45 165.184 185.978 165.184H182.978V168.64ZM200.824 165.76C202.088 165.76 203.192 166.008 204.136 166.504C205.096 166.984 205.84 167.696 206.368 168.64C206.912 169.568 207.184 170.688 207.184 172C207.184 173.312 206.912 174.44 206.368 175.384C205.84 176.312 205.096 177.024 204.136 177.52C203.192 178 202.088 178.24 200.824 178.24C199.592 178.24 198.496 178 197.536 177.52C196.576 177.024 195.824 176.312 195.28 175.384C194.752 174.44 194.488 173.312 194.488 172C194.488 170.688 194.752 169.568 195.28 168.64C195.824 167.696 196.576 166.984 197.536 166.504C198.496 166.008 199.592 165.76 200.824 165.76ZM200.824 168.664C200.36 168.664 199.96 168.776 199.624 169C199.288 169.224 199.032 169.584 198.856 170.08C198.68 170.576 198.592 171.216 198.592 172C198.592 172.784 198.68 173.424 198.856 173.92C199.032 174.4 199.288 174.76 199.624 175C199.96 175.224 200.36 175.336 200.824 175.336C201.304 175.336 201.712 175.224 202.048 175C202.384 174.76 202.64 174.4 202.816 173.92C202.992 173.424 203.08 172.784 203.08 172C203.08 171.216 202.992 170.576 202.816 170.08C202.64 169.584 202.384 169.224 202.048 169C201.712 168.776 201.304 168.664 200.824 168.664ZM215.192 165.76C216.456 165.76 217.56 166.008 218.504 166.504C219.464 166.984 220.208 167.696 220.736 168.64C221.28 169.568 221.552 170.688 221.552 172C221.552 173.312 221.28 174.44 220.736 175.384C220.208 176.312 219.464 177.024 218.504 177.52C217.56 178 216.456 178.24 215.192 178.24C213.96 178.24 212.864 178 211.904 177.52C210.944 177.024 210.192 176.312 209.648 175.384C209.12 174.44 208.856 173.312 208.856 172C208.856 170.688 209.12 169.568 209.648 168.64C210.192 167.696 210.944 166.984 211.904 166.504C212.864 166.008 213.96 165.76 215.192 165.76ZM215.192 168.664C214.728 168.664 214.328 168.776 213.992 169C213.656 169.224 213.4 169.584 213.224 170.08C213.048 170.576 212.96 171.216 212.96 172C212.96 172.784 213.048 173.424 213.224 173.92C213.4 174.4 213.656 174.76 213.992 175C214.328 175.224 214.728 175.336 215.192 175.336C215.672 175.336 216.08 175.224 216.416 175C216.752 174.76 217.008 174.4 217.184 173.92C217.36 173.424 217.448 172.784 217.448 172C217.448 171.216 217.36 170.576 217.184 170.08C217.008 169.584 216.752 169.224 216.416 169C216.08 168.776 215.672 168.664 215.192 168.664ZM237.023 166L231.263 172.144L230.495 172.36L227.063 176.2L227.039 172.024L232.487 166H237.023ZM227.927 160.912V178H223.847V160.912H227.927ZM231.887 169.6L237.287 178H232.775L229.223 172L231.887 169.6ZM240.817 164.608C239.985 164.608 239.377 164.456 238.993 164.152C238.625 163.832 238.441 163.336 238.441 162.664C238.441 161.976 238.625 161.48 238.993 161.176C239.377 160.856 239.985 160.696 240.817 160.696C241.633 160.696 242.233 160.856 242.617 161.176C243.001 161.48 243.193 161.976 243.193 162.664C243.193 163.336 243.001 163.832 242.617 164.152C242.233 164.456 241.633 164.608 240.817 164.608ZM242.857 166V178H238.777V166H242.857ZM245.761 178V166H249.409L249.625 170.128L249.169 169.672C249.329 168.808 249.609 168.088 250.009 167.512C250.425 166.936 250.937 166.504 251.545 166.216C252.169 165.912 252.865 165.76 253.633 165.76C254.465 165.76 255.185 165.92 255.793 166.24C256.417 166.56 256.905 167.032 257.257 167.656C257.609 168.28 257.785 169.064 257.785 170.008V178H253.705V171.088C253.705 170.256 253.545 169.68 253.225 169.36C252.905 169.04 252.497 168.88 252.001 168.88C251.617 168.88 251.257 168.976 250.921 169.168C250.585 169.344 250.321 169.632 250.129 170.032C249.937 170.432 249.841 170.968 249.841 171.64V178H245.761ZM272.26 162.784L272.596 165.52C272.5 165.488 272.404 165.472 272.308 165.472C272.212 165.456 272.116 165.448 272.02 165.448C271.316 165.448 270.788 165.624 270.436 165.976C270.1 166.312 269.932 166.736 269.932 167.248L268.492 166.72C268.492 166.064 268.612 165.432 268.852 164.824C269.092 164.216 269.46 163.72 269.956 163.336C270.468 162.952 271.108 162.76 271.876 162.76C271.924 162.76 271.98 162.76 272.044 162.76C272.124 162.76 272.196 162.768 272.26 162.784ZM268.132 175.336C269.524 175.336 270.588 175.632 271.324 176.224C272.076 176.8 272.452 177.632 272.452 178.72C272.452 179.712 272.18 180.536 271.636 181.192C271.092 181.848 270.324 182.336 269.332 182.656C268.356 182.992 267.196 183.16 265.852 183.16C263.676 183.16 262.108 182.888 261.148 182.344C260.188 181.8 259.708 181.064 259.708 180.136C259.708 179.464 259.98 178.92 260.524 178.504C261.068 178.088 261.972 177.864 263.236 177.832L263.14 178.216C262.164 178.088 261.436 177.8 260.956 177.352C260.476 176.904 260.236 176.296 260.236 175.528C260.236 174.76 260.54 174.136 261.148 173.656C261.756 173.176 262.564 172.912 263.572 172.864L265.06 173.56H264.676C264.052 173.592 263.612 173.696 263.356 173.872C263.1 174.048 262.972 174.264 262.972 174.52C262.972 174.792 263.084 175 263.308 175.144C263.532 175.272 263.868 175.336 264.316 175.336H268.132ZM265.876 180.52C266.644 180.52 267.276 180.464 267.772 180.352C268.284 180.256 268.668 180.112 268.924 179.92C269.18 179.744 269.308 179.536 269.308 179.296C269.308 179.056 269.22 178.864 269.044 178.72C268.868 178.592 268.548 178.528 268.084 178.528H263.788C263.484 178.528 263.236 178.608 263.044 178.768C262.868 178.928 262.78 179.128 262.78 179.368C262.78 179.736 263.052 180.016 263.596 180.208C264.14 180.416 264.9 180.52 265.876 180.52ZM266.02 165.76C267.236 165.76 268.276 165.92 269.14 166.24C270.004 166.56 270.66 167.024 271.108 167.632C271.572 168.224 271.804 168.96 271.804 169.84C271.804 170.704 271.572 171.44 271.108 172.048C270.66 172.656 270.004 173.12 269.14 173.44C268.276 173.744 267.236 173.896 266.02 173.896C264.116 173.896 262.668 173.544 261.676 172.84C260.7 172.136 260.212 171.136 260.212 169.84C260.212 168.96 260.436 168.224 260.884 167.632C261.348 167.024 262.012 166.56 262.876 166.24C263.74 165.92 264.788 165.76 266.02 165.76ZM266.02 168.088C265.492 168.088 265.06 168.24 264.724 168.544C264.404 168.848 264.244 169.28 264.244 169.84C264.244 170.384 264.404 170.808 264.724 171.112C265.06 171.416 265.492 171.568 266.02 171.568C266.532 171.568 266.956 171.416 267.292 171.112C267.628 170.808 267.796 170.384 267.796 169.84C267.796 169.28 267.628 168.848 267.292 168.544C266.956 168.24 266.532 168.088 266.02 168.088ZM63.7791 186.06L64.8991 187.18C64.0591 187.94 63.3858 188.747 62.8791 189.6C62.3725 190.453 62.0058 191.36 61.7791 192.32C61.5525 193.267 61.4391 194.307 61.4391 195.44C61.4391 196.547 61.5525 197.587 61.7791 198.56C62.0058 199.52 62.3725 200.42 62.8791 201.26C63.3858 202.1 64.0591 202.907 64.8991 203.68L63.7791 204.8C62.3258 203.627 61.2258 202.26 60.4791 200.7C59.7458 199.127 59.3791 197.373 59.3791 195.44C59.3791 193.493 59.7458 191.733 60.4791 190.16C61.2258 188.587 62.3258 187.22 63.7791 186.06ZM71.3565 187.6C72.5432 187.6 73.5698 187.827 74.4365 188.28C75.3032 188.72 76.0365 189.373 76.6365 190.24L75.1965 191.62C74.6898 190.847 74.1165 190.293 73.4765 189.96C72.8498 189.613 72.1032 189.44 71.2365 189.44C70.5965 189.44 70.0698 189.527 69.6565 189.7C69.2432 189.873 68.9365 190.107 68.7365 190.4C68.5498 190.68 68.4565 191 68.4565 191.36C68.4565 191.773 68.5965 192.133 68.8765 192.44C69.1698 192.747 69.7098 192.987 70.4965 193.16L73.1765 193.76C74.4565 194.04 75.3632 194.467 75.8965 195.04C76.4298 195.613 76.6965 196.34 76.6965 197.22C76.6965 198.033 76.4765 198.74 76.0365 199.34C75.5965 199.94 74.9832 200.4 74.1965 200.72C73.4232 201.04 72.5098 201.2 71.4565 201.2C70.5232 201.2 69.6832 201.08 68.9365 200.84C68.1898 200.6 67.5365 200.273 66.9765 199.86C66.4165 199.447 65.9565 198.973 65.5965 198.44L67.0765 196.96C67.3565 197.427 67.7098 197.847 68.1365 198.22C68.5632 198.58 69.0565 198.86 69.6165 199.06C70.1898 199.26 70.8232 199.36 71.5165 199.36C72.1298 199.36 72.6565 199.287 73.0965 199.14C73.5498 198.993 73.8898 198.78 74.1165 198.5C74.3565 198.207 74.4765 197.86 74.4765 197.46C74.4765 197.073 74.3432 196.733 74.0765 196.44C73.8232 196.147 73.3432 195.92 72.6365 195.76L69.7365 195.1C68.9365 194.927 68.2765 194.68 67.7565 194.36C67.2365 194.04 66.8498 193.653 66.5965 193.2C66.3432 192.733 66.2165 192.213 66.2165 191.64C66.2165 190.893 66.4165 190.22 66.8165 189.62C67.2298 189.007 67.8232 188.52 68.5965 188.16C69.3698 187.787 70.2898 187.6 71.3565 187.6ZM85.0123 194.58C85.0123 193.913 84.8256 193.4 84.4523 193.04C84.0923 192.667 83.5923 192.48 82.9523 192.48C82.3523 192.48 81.8389 192.62 81.4123 192.9C80.9856 193.18 80.6723 193.633 80.4723 194.26L78.6723 193.5C78.9256 192.687 79.4189 192.033 80.1523 191.54C80.8989 191.047 81.8589 190.8 83.0323 190.8C83.8323 190.8 84.5389 190.933 85.1523 191.2C85.7656 191.453 86.2456 191.84 86.5923 192.36C86.9523 192.88 87.1323 193.547 87.1323 194.36V198.82C87.1323 199.313 87.3789 199.56 87.8723 199.56C88.1123 199.56 88.3456 199.527 88.5723 199.46L88.4523 200.94C88.1456 201.087 87.7589 201.16 87.2923 201.16C86.8656 201.16 86.4789 201.087 86.1323 200.94C85.7989 200.78 85.5323 200.547 85.3323 200.24C85.1456 199.92 85.0523 199.527 85.0523 199.06V198.92L85.4923 198.9C85.3723 199.42 85.1256 199.853 84.7523 200.2C84.3789 200.533 83.9456 200.787 83.4523 200.96C82.9589 201.12 82.4589 201.2 81.9523 201.2C81.3256 201.2 80.7589 201.1 80.2523 200.9C79.7589 200.7 79.3656 200.4 79.0723 200C78.7923 199.587 78.6523 199.08 78.6523 198.48C78.6523 197.733 78.8923 197.12 79.3723 196.64C79.8656 196.16 80.5589 195.833 81.4523 195.66L85.3323 194.9L85.3123 196.4L82.4923 196.98C81.9323 197.087 81.5123 197.24 81.2323 197.44C80.9523 197.64 80.8123 197.933 80.8123 198.32C80.8123 198.693 80.9523 198.993 81.2323 199.22C81.5256 199.433 81.9123 199.54 82.3923 199.54C82.7256 199.54 83.0456 199.5 83.3523 199.42C83.6723 199.34 83.9589 199.213 84.2123 199.04C84.4656 198.853 84.6589 198.62 84.7923 198.34C84.9389 198.047 85.0123 197.7 85.0123 197.3V194.58ZM96.867 191H99.107L95.127 201H92.787L88.787 191H91.127L93.967 199.14L96.867 191ZM102.011 189.32C101.545 189.32 101.185 189.207 100.931 188.98C100.691 188.74 100.571 188.407 100.571 187.98C100.571 187.553 100.691 187.227 100.931 187C101.185 186.773 101.545 186.66 102.011 186.66C102.465 186.66 102.811 186.773 103.051 187C103.305 187.227 103.431 187.553 103.431 187.98C103.431 188.407 103.305 188.74 103.051 188.98C102.811 189.207 102.465 189.32 102.011 189.32ZM103.071 191V201H100.931V191H103.071ZM106.42 201V191H108.32L108.46 193.6L108.18 193.32C108.366 192.747 108.633 192.273 108.98 191.9C109.34 191.513 109.76 191.233 110.24 191.06C110.733 190.887 111.253 190.8 111.8 190.8C112.506 190.8 113.14 190.94 113.7 191.22C114.273 191.487 114.726 191.893 115.06 192.44C115.393 192.987 115.56 193.68 115.56 194.52V201H113.42V195.18C113.42 194.193 113.213 193.513 112.8 193.14C112.4 192.753 111.893 192.56 111.28 192.56C110.84 192.56 110.413 192.667 110 192.88C109.586 193.08 109.24 193.407 108.96 193.86C108.693 194.313 108.56 194.92 108.56 195.68V201H106.42ZM127.603 188.9L127.943 190.58C127.903 190.58 127.863 190.58 127.823 190.58C127.783 190.567 127.743 190.56 127.703 190.56C127.063 190.56 126.576 190.7 126.243 190.98C125.909 191.247 125.743 191.64 125.743 192.16L124.703 191.68C124.703 191.147 124.816 190.673 125.043 190.26C125.269 189.833 125.589 189.5 126.003 189.26C126.429 189.02 126.909 188.9 127.443 188.9C127.469 188.9 127.496 188.9 127.523 188.9C127.549 188.9 127.576 188.9 127.603 188.9ZM124.443 199.44C125.456 199.44 126.243 199.667 126.803 200.12C127.363 200.56 127.643 201.173 127.643 201.96C127.643 202.653 127.423 203.247 126.983 203.74C126.543 204.247 125.943 204.633 125.183 204.9C124.436 205.167 123.576 205.3 122.603 205.3C120.963 205.3 119.749 205.047 118.963 204.54C118.176 204.033 117.783 203.4 117.783 202.64C117.783 202.107 117.969 201.64 118.343 201.24C118.729 200.84 119.376 200.613 120.283 200.56L120.163 200.88C119.603 200.76 119.149 200.547 118.803 200.24C118.469 199.92 118.303 199.473 118.303 198.9C118.303 198.327 118.523 197.84 118.963 197.44C119.403 197.04 120.023 196.807 120.823 196.74L121.943 197.28H121.703C121.089 197.333 120.656 197.473 120.403 197.7C120.149 197.927 120.023 198.18 120.023 198.46C120.023 198.793 120.143 199.04 120.383 199.2C120.636 199.36 120.989 199.44 121.443 199.44H124.443ZM122.603 203.7C123.336 203.7 123.936 203.627 124.403 203.48C124.883 203.347 125.236 203.167 125.463 202.94C125.703 202.727 125.823 202.487 125.823 202.22C125.823 201.913 125.696 201.667 125.443 201.48C125.203 201.293 124.763 201.2 124.123 201.2H120.903C120.529 201.2 120.216 201.293 119.963 201.48C119.709 201.68 119.583 201.947 119.583 202.28C119.583 202.72 119.849 203.067 120.383 203.32C120.916 203.573 121.656 203.7 122.603 203.7ZM122.523 190.8C123.403 190.8 124.163 190.94 124.803 191.22C125.456 191.5 125.956 191.893 126.303 192.4C126.663 192.907 126.843 193.5 126.843 194.18C126.843 194.86 126.663 195.453 126.303 195.96C125.956 196.467 125.456 196.86 124.803 197.14C124.163 197.42 123.403 197.56 122.523 197.56C121.136 197.56 120.069 197.253 119.323 196.64C118.589 196.013 118.223 195.193 118.223 194.18C118.223 193.5 118.403 192.907 118.763 192.4C119.123 191.893 119.623 191.5 120.263 191.22C120.916 190.94 121.669 190.8 122.523 190.8ZM122.523 192.3C121.909 192.3 121.396 192.473 120.983 192.82C120.583 193.153 120.383 193.607 120.383 194.18C120.383 194.753 120.583 195.213 120.983 195.56C121.396 195.907 121.909 196.08 122.523 196.08C123.149 196.08 123.663 195.907 124.063 195.56C124.476 195.213 124.683 194.753 124.683 194.18C124.683 193.607 124.476 193.153 124.063 192.82C123.663 192.473 123.149 192.3 122.523 192.3ZM145.739 187.8V189.64H141.219V201H139.079V189.64H134.559V187.8H145.739ZM148.789 189.32C148.322 189.32 147.962 189.207 147.709 188.98C147.469 188.74 147.349 188.407 147.349 187.98C147.349 187.553 147.469 187.227 147.709 187C147.962 186.773 148.322 186.66 148.789 186.66C149.242 186.66 149.589 186.773 149.829 187C150.082 187.227 150.209 187.553 150.209 187.98C150.209 188.407 150.082 188.74 149.829 188.98C149.589 189.207 149.242 189.32 148.789 189.32ZM149.849 191V201H147.709V191H149.849ZM153.197 201V191H155.097L155.197 192.68C155.544 192.04 156.004 191.567 156.577 191.26C157.164 190.953 157.784 190.8 158.437 190.8C159.157 190.8 159.817 190.967 160.417 191.3C161.03 191.62 161.49 192.107 161.797 192.76C162.01 192.32 162.304 191.953 162.677 191.66C163.05 191.367 163.464 191.153 163.917 191.02C164.37 190.873 164.817 190.8 165.257 190.8C165.897 190.8 166.497 190.933 167.057 191.2C167.617 191.467 168.07 191.873 168.417 192.42C168.764 192.967 168.937 193.667 168.937 194.52V201H166.797V194.86C166.797 194.047 166.604 193.46 166.217 193.1C165.83 192.74 165.337 192.56 164.737 192.56C164.27 192.56 163.837 192.673 163.437 192.9C163.05 193.127 162.737 193.467 162.497 193.92C162.257 194.36 162.137 194.907 162.137 195.56V201H159.997V194.86C159.997 194.047 159.804 193.46 159.417 193.1C159.03 192.74 158.537 192.56 157.937 192.56C157.537 192.56 157.137 192.667 156.737 192.88C156.337 193.093 156.004 193.427 155.737 193.88C155.47 194.333 155.337 194.933 155.337 195.68V201H153.197ZM176.581 201.2C175.581 201.2 174.701 200.993 173.941 200.58C173.181 200.167 172.588 199.573 172.161 198.8C171.748 198.013 171.541 197.08 171.541 196C171.541 194.92 171.748 193.993 172.161 193.22C172.588 192.433 173.175 191.833 173.921 191.42C174.668 191.007 175.515 190.8 176.461 190.8C177.435 190.8 178.261 191 178.941 191.4C179.621 191.8 180.141 192.347 180.501 193.04C180.861 193.733 181.041 194.52 181.041 195.4C181.041 195.64 181.035 195.867 181.021 196.08C181.008 196.293 180.988 196.48 180.961 196.64H172.921V195H180.021L178.961 195.32C178.961 194.413 178.735 193.72 178.281 193.24C177.828 192.747 177.208 192.5 176.421 192.5C175.848 192.5 175.348 192.633 174.921 192.9C174.495 193.167 174.168 193.567 173.941 194.1C173.715 194.62 173.601 195.26 173.601 196.02C173.601 196.767 173.721 197.4 173.961 197.92C174.201 198.44 174.541 198.833 174.981 199.1C175.421 199.367 175.941 199.5 176.541 199.5C177.208 199.5 177.748 199.373 178.161 199.12C178.575 198.867 178.901 198.513 179.141 198.06L180.841 198.86C180.601 199.34 180.275 199.76 179.861 200.12C179.461 200.467 178.981 200.733 178.421 200.92C177.861 201.107 177.248 201.2 176.581 201.2ZM190.548 201V187.8H200.108V189.64H192.688V193.44H198.488V195.24H192.688V199.16H200.388V201H190.548ZM209.015 191H211.255L207.275 201H204.935L200.935 191H203.275L206.115 199.14L209.015 191ZM217.421 201.2C216.421 201.2 215.541 200.993 214.781 200.58C214.021 200.167 213.428 199.573 213.001 198.8C212.588 198.013 212.381 197.08 212.381 196C212.381 194.92 212.588 193.993 213.001 193.22C213.428 192.433 214.015 191.833 214.761 191.42C215.508 191.007 216.355 190.8 217.301 190.8C218.275 190.8 219.101 191 219.781 191.4C220.461 191.8 220.981 192.347 221.341 193.04C221.701 193.733 221.881 194.52 221.881 195.4C221.881 195.64 221.875 195.867 221.861 196.08C221.848 196.293 221.828 196.48 221.801 196.64H213.761V195H220.861L219.801 195.32C219.801 194.413 219.575 193.72 219.121 193.24C218.668 192.747 218.048 192.5 217.261 192.5C216.688 192.5 216.188 192.633 215.761 192.9C215.335 193.167 215.008 193.567 214.781 194.1C214.555 194.62 214.441 195.26 214.441 196.02C214.441 196.767 214.561 197.4 214.801 197.92C215.041 198.44 215.381 198.833 215.821 199.1C216.261 199.367 216.781 199.5 217.381 199.5C218.048 199.5 218.588 199.373 219.001 199.12C219.415 198.867 219.741 198.513 219.981 198.06L221.681 198.86C221.441 199.34 221.115 199.76 220.701 200.12C220.301 200.467 219.821 200.733 219.261 200.92C218.701 201.107 218.088 201.2 217.421 201.2ZM224.584 201V191H226.404L226.604 192.8C226.87 192.147 227.264 191.653 227.784 191.32C228.317 190.973 228.97 190.8 229.744 190.8C229.944 190.8 230.144 190.82 230.344 190.86C230.544 190.887 230.71 190.933 230.844 191L230.544 192.88C230.397 192.827 230.23 192.787 230.044 192.76C229.87 192.72 229.63 192.7 229.324 192.7C228.91 192.7 228.504 192.813 228.104 193.04C227.704 193.253 227.37 193.58 227.104 194.02C226.85 194.46 226.724 195.02 226.724 195.7V201H224.584ZM241.645 191L237.265 202.18C236.972 202.953 236.652 203.567 236.305 204.02C235.972 204.473 235.585 204.8 235.145 205C234.705 205.2 234.192 205.3 233.605 205.3C233.125 205.3 232.678 205.233 232.265 205.1C231.865 204.98 231.512 204.813 231.205 204.6L231.725 202.94C231.978 203.153 232.245 203.313 232.525 203.42C232.818 203.527 233.132 203.58 233.465 203.58C233.825 203.58 234.145 203.48 234.425 203.28C234.718 203.093 234.978 202.713 235.205 202.14L235.645 201.06L234.585 198.58L231.465 191H233.865L236.085 197.28L236.665 199.16L237.325 197.1L239.425 191H241.645ZM256.191 191H258.511L255.151 201H252.811L250.291 193.58L247.911 201H245.571L242.231 191H244.531L246.811 198.9L249.291 191H251.431L253.911 198.9L256.191 191ZM260.58 201V186.5H262.72V192.6C263.053 191.973 263.5 191.52 264.06 191.24C264.633 190.947 265.267 190.8 265.96 190.8C266.667 190.8 267.3 190.94 267.86 191.22C268.433 191.487 268.887 191.893 269.22 192.44C269.553 192.987 269.72 193.68 269.72 194.52V201H267.58V195.2C267.58 194.213 267.373 193.527 266.96 193.14C266.56 192.753 266.053 192.56 265.44 192.56C265.013 192.56 264.587 192.667 264.16 192.88C263.747 193.08 263.4 193.413 263.12 193.88C262.853 194.333 262.72 194.947 262.72 195.72V201H260.58ZM277.363 201.2C276.363 201.2 275.483 200.993 274.723 200.58C273.963 200.167 273.369 199.573 272.943 198.8C272.529 198.013 272.323 197.08 272.323 196C272.323 194.92 272.529 193.993 272.943 193.22C273.369 192.433 273.956 191.833 274.703 191.42C275.449 191.007 276.296 190.8 277.243 190.8C278.216 190.8 279.043 191 279.723 191.4C280.403 191.8 280.923 192.347 281.283 193.04C281.643 193.733 281.823 194.52 281.823 195.4C281.823 195.64 281.816 195.867 281.803 196.08C281.789 196.293 281.769 196.48 281.743 196.64H273.703V195H280.803L279.743 195.32C279.743 194.413 279.516 193.72 279.063 193.24C278.609 192.747 277.989 192.5 277.203 192.5C276.629 192.5 276.129 192.633 275.703 192.9C275.276 193.167 274.949 193.567 274.723 194.1C274.496 194.62 274.383 195.26 274.383 196.02C274.383 196.767 274.503 197.4 274.743 197.92C274.983 198.44 275.323 198.833 275.763 199.1C276.203 199.367 276.723 199.5 277.323 199.5C277.989 199.5 278.529 199.373 278.943 199.12C279.356 198.867 279.683 198.513 279.923 198.06L281.623 198.86C281.383 199.34 281.056 199.76 280.643 200.12C280.243 200.467 279.763 200.733 279.203 200.92C278.643 201.107 278.029 201.2 277.363 201.2ZM284.525 201V191H286.345L286.545 192.8C286.812 192.147 287.205 191.653 287.725 191.32C288.259 190.973 288.912 190.8 289.685 190.8C289.885 190.8 290.085 190.82 290.285 190.86C290.485 190.887 290.652 190.933 290.785 191L290.485 192.88C290.339 192.827 290.172 192.787 289.985 192.76C289.812 192.72 289.572 192.7 289.265 192.7C288.852 192.7 288.445 192.813 288.045 193.04C287.645 193.253 287.312 193.58 287.045 194.02C286.792 194.46 286.665 195.02 286.665 195.7V201H284.525ZM296.953 201.2C295.953 201.2 295.073 200.993 294.313 200.58C293.553 200.167 292.959 199.573 292.533 198.8C292.119 198.013 291.913 197.08 291.913 196C291.913 194.92 292.119 193.993 292.533 193.22C292.959 192.433 293.546 191.833 294.293 191.42C295.039 191.007 295.886 190.8 296.833 190.8C297.806 190.8 298.633 191 299.313 191.4C299.993 191.8 300.513 192.347 300.873 193.04C301.233 193.733 301.413 194.52 301.413 195.4C301.413 195.64 301.406 195.867 301.393 196.08C301.379 196.293 301.359 196.48 301.333 196.64H293.293V195H300.393L299.333 195.32C299.333 194.413 299.106 193.72 298.653 193.24C298.199 192.747 297.579 192.5 296.793 192.5C296.219 192.5 295.719 192.633 295.293 192.9C294.866 193.167 294.539 193.567 294.313 194.1C294.086 194.62 293.973 195.26 293.973 196.02C293.973 196.767 294.093 197.4 294.333 197.92C294.573 198.44 294.913 198.833 295.353 199.1C295.793 199.367 296.313 199.5 296.913 199.5C297.579 199.5 298.119 199.373 298.533 199.12C298.946 198.867 299.273 198.513 299.513 198.06L301.213 198.86C300.973 199.34 300.646 199.76 300.233 200.12C299.833 200.467 299.353 200.733 298.793 200.92C298.233 201.107 297.619 201.2 296.953 201.2ZM303.215 204.8L302.095 203.68C302.948 202.907 303.621 202.1 304.115 201.26C304.621 200.42 304.988 199.52 305.215 198.56C305.441 197.587 305.555 196.547 305.555 195.44C305.555 194.307 305.441 193.267 305.215 192.32C304.988 191.36 304.621 190.453 304.115 189.6C303.621 188.747 302.948 187.94 302.095 187.18L303.215 186.06C304.668 187.22 305.761 188.587 306.495 190.16C307.241 191.733 307.615 193.493 307.615 195.44C307.615 197.373 307.241 199.127 306.495 200.7C305.761 202.26 304.668 203.627 303.215 204.8Z" fill="white"/>
<path d="M165.6 93.4C165.601 90.1105 166.271 86.8555 167.572 83.834C168.873 80.8125 170.775 78.0878 173.165 75.8265C175.554 73.5652 178.379 71.8147 181.467 70.6819C184.555 69.5491 187.842 69.0579 191.127 69.2382C194.411 69.4185 197.625 70.2665 200.57 71.7305C203.516 73.1945 206.133 75.2437 208.26 77.7529C210.387 80.2622 211.98 83.1787 212.942 86.3244C213.904 89.4702 214.215 92.779 213.855 96.0488C215.36 96.6824 216.728 97.5228 217.943 98.526C218.748 94.0882 218.492 89.5228 217.196 85.2027C215.9 80.8826 213.601 76.9303 210.486 73.6684C207.371 70.4065 203.529 67.9275 199.273 66.4339C195.017 64.9403 190.469 64.4744 185.998 65.0743C181.528 65.6741 177.263 67.3227 173.552 69.8854C169.84 72.4481 166.788 75.8523 164.643 79.82C162.498 83.7876 161.322 88.2063 161.211 92.7152C161.1 97.2242 162.056 101.695 164.003 105.764C165.125 104.673 166.335 103.775 167.607 103.058C166.28 100.011 165.597 96.7232 165.6 93.4V93.4ZM209.6 93.4C209.6 93.8928 209.583 94.3856 209.548 94.8696L205.183 94.1084C205.291 91.7329 204.847 89.3647 203.887 87.1893C202.927 85.0139 201.476 83.0904 199.648 81.5696C197.82 80.0488 195.665 78.9719 193.351 78.4234C191.037 77.8749 188.628 77.8697 186.311 78.4082C183.995 78.9466 181.835 80.0141 180.001 81.527C178.166 83.0399 176.707 84.9571 175.737 87.1283C174.768 89.2996 174.314 91.6659 174.412 94.0418C174.51 96.4177 175.156 98.7386 176.301 100.823C174.746 100.833 173.198 101.031 171.69 101.412C170.499 98.717 169.924 95.7897 170.008 92.844C170.092 89.8983 170.833 87.0086 172.176 84.3855C173.519 81.7624 175.431 79.4722 177.771 77.6819C180.112 75.8916 182.823 74.6464 185.706 74.037C188.589 73.4276 191.572 73.4695 194.437 74.1596C197.302 74.8497 199.977 76.1706 202.266 78.0259C204.556 79.8812 206.402 82.2242 207.671 84.884C208.94 87.5437 209.599 90.4531 209.6 93.4V93.4ZM183.2 89C183.2 87.2496 183.896 85.5708 185.133 84.3331C186.371 83.0953 188.05 82.4 189.8 82.4C191.551 82.4 193.229 83.0953 194.467 84.3331C195.705 85.5708 196.4 87.2496 196.4 89V98.152L209.323 100.414C210.91 100.692 212.416 101.315 213.735 102.239C215.055 103.164 216.155 104.367 216.958 105.763C217.761 107.159 218.248 108.715 218.384 110.32C218.52 111.925 218.302 113.541 217.745 115.052L213.42 126.8C212.754 128.611 211.623 130.214 210.142 131.45C208.661 132.686 206.881 133.51 204.98 133.84L198.306 134.998C193.796 135.781 189.699 132.987 187.592 129.586C184.78 125.071 178.963 118.85 167.558 117.587C167.246 117.552 166.946 117.451 166.676 117.291C166.406 117.13 166.174 116.914 165.995 116.657C165.816 116.399 165.694 116.106 165.637 115.798C165.58 115.489 165.59 115.172 165.666 114.868C166.313 112.272 167.55 110.274 169.266 108.884C170.96 107.498 172.975 106.829 174.986 106.613C177.731 106.314 180.631 106.833 183.2 107.704V89V89Z" fill="white"/>
<defs>
<filter id="filter0_d_1383_588" x="0.942383" y="3.53064" width="366.312" height="268.469" filterUnits="userSpaceOnUse" color-interpolation-filters="sRGB">
<feFlood flood-opacity="0" result="BackgroundImageFix"/>
<feColorMatrix in="SourceAlpha" type="matrix" values="0 0 0 0 0 0 0 0 0 0 0 0 0 0 0 0 0 0 127 0" result="hardAlpha"/>
<feOffset dy="4"/>
<feGaussianBlur stdDeviation="2"/>
<feComposite in2="hardAlpha" operator="out"/>
<feColorMatrix type="matrix" values="0 0 0 0 0 0 0 0 0 0 0 0 0 0 0 0 0 0 0.25 0"/>
<feBlend mode="normal" in2="BackgroundImageFix" result="effect1_dropShadow_1383_588"/>
<feBlend mode="normal" in="SourceGraphic" in2="effect1_dropShadow_1383_588" result="shape"/>
</filter>
<linearGradient id="paint0_linear_1383_588" x1="40" y1="52.8" x2="379.514" y2="123.532" gradientUnits="userSpaceOnUse">
<stop stop-color="#C56AFF"/>
<stop offset="1" stop-color="#832FB8"/>
</linearGradient>
</defs>
</svg>
