<svg width="360" height="264" viewBox="0 0 360 264" fill="none" xmlns="http://www.w3.org/2000/svg">
<path d="M8.75979 73.9298C9.19292 64.5317 16.1175 56.7061 25.393 55.1323L327.838 3.81708C339.755 1.79517 350.728 10.7246 351.17 22.8036L359.241 243.268C359.656 254.593 350.587 264 339.254 264H20.943C9.53582 264 0.439013 254.474 0.964177 243.079L8.75979 73.9298Z" fill="url(#paint0_linear_1383_587)"/>
<path d="M42.2884 178.24C40.8804 178.24 39.6244 177.928 38.5204 177.304C37.4324 176.68 36.5844 175.76 35.9764 174.544C35.3684 173.328 35.0644 171.848 35.0644 170.104C35.0644 168.392 35.3844 166.928 36.0244 165.712C36.6644 164.496 37.5764 163.56 38.7604 162.904C39.9604 162.248 41.3684 161.92 42.9844 161.92C44.7764 161.92 46.2244 162.248 47.3284 162.904C48.4324 163.544 49.2884 164.568 49.8964 165.976L46.0804 167.488C45.8724 166.672 45.5044 166.08 44.9764 165.712C44.4484 165.344 43.7924 165.16 43.0084 165.16C42.2244 165.16 41.5524 165.352 40.9924 165.736C40.4324 166.104 40.0084 166.656 39.7204 167.392C39.4324 168.112 39.2884 169.008 39.2884 170.08C39.2884 171.2 39.4324 172.136 39.7204 172.888C40.0244 173.64 40.4644 174.2 41.0404 174.568C41.6324 174.92 42.3604 175.096 43.2244 175.096C43.6884 175.096 44.1124 175.04 44.4964 174.928C44.8804 174.816 45.2164 174.656 45.5044 174.448C45.7924 174.224 46.0164 173.952 46.1764 173.632C46.3364 173.296 46.4164 172.904 46.4164 172.456V172.216H42.7924V169.456H49.9204V178H47.1124L46.8004 174.28L47.4724 174.856C47.1364 175.944 46.5284 176.784 45.6484 177.376C44.7844 177.952 43.6644 178.24 42.2884 178.24ZM56.8481 178.24C56.0321 178.24 55.3121 178.104 54.6881 177.832C54.0801 177.544 53.6001 177.088 53.2481 176.464C52.8961 175.84 52.7201 175.024 52.7201 174.016V166H56.8001V173.056C56.8001 173.824 56.9521 174.36 57.2561 174.664C57.5601 174.968 57.9921 175.12 58.5521 175.12C58.8401 175.12 59.1121 175.072 59.3681 174.976C59.6241 174.864 59.8481 174.704 60.0401 174.496C60.2321 174.272 60.3761 173.992 60.4721 173.656C60.5841 173.304 60.6401 172.896 60.6401 172.432V166H64.7201V178H61.0721L60.9521 175.744C60.5681 176.592 60.0321 177.224 59.3441 177.64C58.6561 178.04 57.8241 178.24 56.8481 178.24ZM74.3475 170.392C74.3475 169.832 74.1875 169.392 73.8675 169.072C73.5635 168.736 73.1475 168.568 72.6195 168.568C72.0915 168.568 71.6355 168.704 71.2515 168.976C70.8835 169.232 70.6275 169.696 70.4835 170.368L67.0275 169.552C67.2515 168.4 67.8435 167.48 68.8035 166.792C69.7635 166.104 71.1155 165.76 72.8595 165.76C74.0275 165.76 75.0195 165.936 75.8355 166.288C76.6675 166.624 77.2995 167.136 77.7315 167.824C78.1795 168.496 78.4035 169.328 78.4035 170.32V174.712C78.4035 175.336 78.6835 175.648 79.2435 175.648C79.5315 175.648 79.7635 175.616 79.9395 175.552L79.6995 177.88C79.2195 178.104 78.6355 178.216 77.9475 178.216C77.3235 178.216 76.7715 178.12 76.2915 177.928C75.8115 177.72 75.4355 177.416 75.1635 177.016C74.8915 176.6 74.7555 176.08 74.7555 175.456V175.312L75.2115 175.144C75.2115 175.832 75.0035 176.408 74.5875 176.872C74.1875 177.336 73.6595 177.68 73.0035 177.904C72.3635 178.128 71.6915 178.24 70.9875 178.24C70.1715 178.24 69.4595 178.112 68.8515 177.856C68.2435 177.6 67.7715 177.232 67.4355 176.752C67.1155 176.256 66.9555 175.648 66.9555 174.928C66.9555 174.064 67.2115 173.352 67.7235 172.792C68.2515 172.216 69.0755 171.816 70.1955 171.592L74.7315 170.656L74.7075 172.816L72.4035 173.296C71.9235 173.392 71.5635 173.536 71.3235 173.728C71.0995 173.904 70.9875 174.176 70.9875 174.544C70.9875 174.896 71.1155 175.16 71.3715 175.336C71.6275 175.512 71.9315 175.6 72.2835 175.6C72.5555 175.6 72.8115 175.56 73.0515 175.48C73.3075 175.4 73.5315 175.28 73.7235 175.12C73.9155 174.944 74.0675 174.728 74.1795 174.472C74.2915 174.216 74.3475 173.912 74.3475 173.56V170.392ZM81.5499 178V166H85.1499L85.3179 168.592C85.6219 167.696 86.0699 167 86.6619 166.504C87.2699 166.008 88.0379 165.76 88.9659 165.76C89.2699 165.76 89.5259 165.784 89.7339 165.832C89.9579 165.88 90.1339 165.944 90.2619 166.024L89.8539 169.384C89.6939 169.32 89.4859 169.272 89.2299 169.24C88.9899 169.192 88.6939 169.168 88.3419 169.168C87.8619 169.168 87.4139 169.272 86.9979 169.48C86.5819 169.688 86.2459 170 85.9899 170.416C85.7499 170.816 85.6299 171.328 85.6299 171.952V178H81.5499ZM98.4413 170.392C98.4413 169.832 98.2813 169.392 97.9613 169.072C97.6573 168.736 97.2413 168.568 96.7133 168.568C96.1853 168.568 95.7293 168.704 95.3453 168.976C94.9773 169.232 94.7213 169.696 94.5773 170.368L91.1213 169.552C91.3453 168.4 91.9373 167.48 92.8973 166.792C93.8573 166.104 95.2093 165.76 96.9533 165.76C98.1213 165.76 99.1133 165.936 99.9293 166.288C100.761 166.624 101.393 167.136 101.825 167.824C102.273 168.496 102.497 169.328 102.497 170.32V174.712C102.497 175.336 102.777 175.648 103.337 175.648C103.625 175.648 103.857 175.616 104.033 175.552L103.793 177.88C103.313 178.104 102.729 178.216 102.041 178.216C101.417 178.216 100.865 178.12 100.385 177.928C99.9053 177.72 99.5293 177.416 99.2573 177.016C98.9853 176.6 98.8493 176.08 98.8493 175.456V175.312L99.3053 175.144C99.3053 175.832 99.0973 176.408 98.6813 176.872C98.2813 177.336 97.7533 177.68 97.0973 177.904C96.4573 178.128 95.7853 178.24 95.0813 178.24C94.2653 178.24 93.5533 178.112 92.9453 177.856C92.3373 177.6 91.8653 177.232 91.5293 176.752C91.2093 176.256 91.0493 175.648 91.0493 174.928C91.0493 174.064 91.3053 173.352 91.8173 172.792C92.3453 172.216 93.1693 171.816 94.2893 171.592L98.8253 170.656L98.8013 172.816L96.4973 173.296C96.0173 173.392 95.6573 173.536 95.4173 173.728C95.1933 173.904 95.0813 174.176 95.0813 174.544C95.0813 174.896 95.2093 175.16 95.4653 175.336C95.7213 175.512 96.0253 175.6 96.3773 175.6C96.6493 175.6 96.9053 175.56 97.1453 175.48C97.4013 175.4 97.6253 175.28 97.8173 175.12C98.0093 174.944 98.1613 174.728 98.2733 174.472C98.3853 174.216 98.4413 173.912 98.4413 173.56V170.392ZM105.644 178V166H109.292L109.508 170.128L109.052 169.672C109.212 168.808 109.492 168.088 109.892 167.512C110.308 166.936 110.82 166.504 111.428 166.216C112.052 165.912 112.748 165.76 113.516 165.76C114.348 165.76 115.068 165.92 115.676 166.24C116.3 166.56 116.788 167.032 117.14 167.656C117.492 168.28 117.668 169.064 117.668 170.008V178H113.588V171.088C113.588 170.256 113.428 169.68 113.108 169.36C112.788 169.04 112.38 168.88 111.884 168.88C111.5 168.88 111.14 168.976 110.804 169.168C110.468 169.344 110.204 169.632 110.012 170.032C109.82 170.432 109.724 170.968 109.724 171.64V178H105.644ZM125.472 162.184V173.728C125.472 174.304 125.608 174.72 125.88 174.976C126.168 175.216 126.56 175.336 127.056 175.336C127.44 175.336 127.768 175.296 128.04 175.216C128.328 175.12 128.584 174.984 128.808 174.808L129.24 177.328C128.84 177.616 128.336 177.84 127.728 178C127.12 178.16 126.496 178.24 125.856 178.24C124.944 178.24 124.152 178.112 123.48 177.856C122.824 177.6 122.312 177.192 121.944 176.632C121.592 176.072 121.408 175.328 121.392 174.4V163.312L125.472 162.184ZM129.048 166V168.904H119.328V166H129.048ZM136.789 178.24C135.461 178.24 134.309 177.992 133.333 177.496C132.373 177 131.629 176.288 131.101 175.36C130.573 174.432 130.309 173.312 130.309 172C130.309 170.688 130.573 169.568 131.101 168.64C131.629 167.712 132.365 167 133.309 166.504C134.269 166.008 135.365 165.76 136.597 165.76C137.861 165.76 138.933 166.008 139.813 166.504C140.709 166.984 141.389 167.656 141.853 168.52C142.317 169.368 142.549 170.344 142.549 171.448C142.549 171.736 142.541 172.024 142.525 172.312C142.509 172.6 142.485 172.84 142.453 173.032H132.949V170.848H140.653L138.709 171.592C138.709 170.632 138.533 169.896 138.181 169.384C137.845 168.872 137.317 168.616 136.597 168.616C136.085 168.616 135.645 168.736 135.277 168.976C134.925 169.216 134.653 169.592 134.461 170.104C134.285 170.616 134.197 171.272 134.197 172.072C134.197 172.856 134.301 173.496 134.509 173.992C134.717 174.472 135.013 174.824 135.397 175.048C135.781 175.256 136.245 175.36 136.789 175.36C137.397 175.36 137.877 175.24 138.229 175C138.597 174.76 138.869 174.424 139.045 173.992L142.309 175.072C142.085 175.76 141.693 176.344 141.133 176.824C140.589 177.288 139.933 177.64 139.165 177.88C138.413 178.12 137.621 178.24 136.789 178.24ZM150.687 178.24C149.359 178.24 148.207 177.992 147.231 177.496C146.271 177 145.527 176.288 144.999 175.36C144.471 174.432 144.207 173.312 144.207 172C144.207 170.688 144.471 169.568 144.999 168.64C145.527 167.712 146.263 167 147.207 166.504C148.167 166.008 149.263 165.76 150.495 165.76C151.759 165.76 152.831 166.008 153.711 166.504C154.607 166.984 155.287 167.656 155.751 168.52C156.215 169.368 156.447 170.344 156.447 171.448C156.447 171.736 156.439 172.024 156.423 172.312C156.407 172.6 156.383 172.84 156.351 173.032H146.847V170.848H154.551L152.607 171.592C152.607 170.632 152.431 169.896 152.079 169.384C151.743 168.872 151.215 168.616 150.495 168.616C149.983 168.616 149.543 168.736 149.175 168.976C148.823 169.216 148.551 169.592 148.359 170.104C148.183 170.616 148.095 171.272 148.095 172.072C148.095 172.856 148.199 173.496 148.407 173.992C148.615 174.472 148.911 174.824 149.295 175.048C149.679 175.256 150.143 175.36 150.687 175.36C151.295 175.36 151.775 175.24 152.127 175C152.495 174.76 152.767 174.424 152.943 173.992L156.207 175.072C155.983 175.76 155.591 176.344 155.031 176.824C154.487 177.288 153.831 177.64 153.063 177.88C152.311 178.12 151.519 178.24 150.687 178.24ZM163.146 178.24C162.154 178.24 161.282 178 160.53 177.52C159.794 177.024 159.218 176.312 158.802 175.384C158.402 174.456 158.202 173.344 158.202 172.048C158.202 170.704 158.41 169.568 158.826 168.64C159.258 167.712 159.85 167 160.602 166.504C161.37 166.008 162.25 165.76 163.242 165.76C164.33 165.76 165.202 166.096 165.858 166.768C166.53 167.424 166.962 168.264 167.154 169.288L166.77 169.792V160.912H170.85V178H167.202L166.938 173.92L167.418 174.28C167.322 175.08 167.074 175.776 166.674 176.368C166.29 176.96 165.794 177.424 165.186 177.76C164.594 178.08 163.914 178.24 163.146 178.24ZM164.562 175.24C165.026 175.24 165.418 175.12 165.738 174.88C166.074 174.624 166.33 174.248 166.506 173.752C166.682 173.256 166.77 172.648 166.77 171.928C166.77 171.256 166.682 170.688 166.506 170.224C166.346 169.744 166.098 169.384 165.762 169.144C165.442 168.888 165.05 168.76 164.586 168.76C163.882 168.76 163.322 169.024 162.906 169.552C162.506 170.064 162.306 170.88 162.306 172C162.306 173.12 162.506 173.944 162.906 174.472C163.306 174.984 163.858 175.24 164.562 175.24ZM195.212 162.16V178H190.628L185.708 169.432L184.508 167.08H184.484L184.58 170.008V178H180.932V162.16H185.516L190.436 170.728L191.636 173.08H191.66L191.564 170.152V162.16H195.212ZM205.825 161.92C207.425 161.92 208.801 162.248 209.953 162.904C211.121 163.544 212.017 164.472 212.641 165.688C213.265 166.904 213.577 168.368 213.577 170.08C213.577 171.792 213.265 173.256 212.641 174.472C212.017 175.688 211.121 176.624 209.953 177.28C208.801 177.92 207.425 178.24 205.825 178.24C204.225 178.24 202.841 177.92 201.673 177.28C200.505 176.624 199.609 175.688 198.985 174.472C198.361 173.256 198.049 171.792 198.049 170.08C198.049 168.368 198.361 166.904 198.985 165.688C199.609 164.472 200.505 163.544 201.673 162.904C202.841 162.248 204.225 161.92 205.825 161.92ZM205.825 165.16C205.057 165.16 204.409 165.344 203.881 165.712C203.353 166.08 202.953 166.632 202.681 167.368C202.409 168.088 202.273 168.992 202.273 170.08C202.273 171.152 202.409 172.056 202.681 172.792C202.953 173.528 203.353 174.08 203.881 174.448C204.409 174.816 205.057 175 205.825 175C206.593 175 207.233 174.816 207.745 174.448C208.273 174.08 208.673 173.528 208.945 172.792C209.217 172.056 209.353 171.152 209.353 170.08C209.353 168.992 209.217 168.088 208.945 167.368C208.673 166.632 208.273 166.08 207.745 165.712C207.233 165.344 206.593 165.16 205.825 165.16ZM225.886 178L221.326 162.16H225.718L228.406 174.664L231.238 162.16H234.982L237.886 174.64L240.526 162.16H244.774L240.19 178H235.702L233.83 170.32L233.11 166.456H233.062L232.366 170.32L230.518 178H225.886ZM259.832 178H255.584L254.48 174.424H249.056L247.928 178H243.776L249.344 162.16H254.288L259.832 178ZM249.824 171.616H253.712L251.768 165.208L249.824 171.616ZM265.802 162.16V178H261.674V162.16H265.802ZM282.635 162.16V165.352H277.475V178H273.347V165.352H268.163V162.16H282.635ZM289.122 162.16V178H284.994V162.16H289.122ZM306.915 162.16V178H302.331L297.411 169.432L296.211 167.08H296.187L296.283 170.008V178H292.635V162.16H297.219L302.139 170.728L303.339 173.08H303.363L303.267 170.152V162.16H306.915ZM316.976 178.24C315.568 178.24 314.312 177.928 313.208 177.304C312.12 176.68 311.272 175.76 310.664 174.544C310.056 173.328 309.752 171.848 309.752 170.104C309.752 168.392 310.072 166.928 310.712 165.712C311.352 164.496 312.264 163.56 313.448 162.904C314.648 162.248 316.056 161.92 317.672 161.92C319.464 161.92 320.912 162.248 322.016 162.904C323.12 163.544 323.976 164.568 324.584 165.976L320.768 167.488C320.56 166.672 320.192 166.08 319.664 165.712C319.136 165.344 318.48 165.16 317.696 165.16C316.912 165.16 316.24 165.352 315.68 165.736C315.12 166.104 314.696 166.656 314.408 167.392C314.12 168.112 313.976 169.008 313.976 170.08C313.976 171.2 314.12 172.136 314.408 172.888C314.712 173.64 315.152 174.2 315.728 174.568C316.32 174.92 317.048 175.096 317.912 175.096C318.376 175.096 318.8 175.04 319.184 174.928C319.568 174.816 319.904 174.656 320.192 174.448C320.48 174.224 320.704 173.952 320.864 173.632C321.024 173.296 321.104 172.904 321.104 172.456V172.216H317.48V169.456H324.608V178H321.8L321.488 174.28L322.16 174.856C321.824 175.944 321.216 176.784 320.336 177.376C319.472 177.952 318.352 178.24 316.976 178.24ZM80.127 206V190.16H92.463V193.352H84.255V196.568H90.783V199.568H84.255V202.808H92.775V206H80.127ZM99.0116 188.912V201.92C99.0116 202.448 99.0996 202.824 99.2756 203.048C99.4516 203.272 99.7476 203.384 100.164 203.384C100.404 203.384 100.604 203.368 100.764 203.336C100.924 203.304 101.116 203.256 101.34 203.192L101.076 205.64C100.788 205.816 100.412 205.96 99.9476 206.072C99.4836 206.184 99.0276 206.24 98.5796 206.24C97.2996 206.24 96.3716 205.944 95.7956 205.352C95.2196 204.76 94.9316 203.792 94.9316 202.448V188.912H99.0116ZM107.871 206.24C106.671 206.24 105.551 206.048 104.511 205.664C103.487 205.264 102.639 204.696 101.967 203.96L103.887 201.704C104.287 202.216 104.815 202.648 105.471 203C106.143 203.336 106.887 203.504 107.703 203.504C108.199 203.504 108.607 203.432 108.927 203.288C109.247 203.144 109.407 202.92 109.407 202.616C109.407 202.392 109.327 202.216 109.167 202.088C109.007 201.944 108.687 201.824 108.207 201.728L106.527 201.392C105.023 201.088 103.951 200.64 103.311 200.048C102.687 199.44 102.375 198.648 102.375 197.672C102.375 197.016 102.575 196.392 102.975 195.8C103.375 195.192 103.991 194.704 104.823 194.336C105.655 193.952 106.719 193.76 108.015 193.76C109.231 193.76 110.303 193.936 111.231 194.288C112.159 194.64 112.895 195.152 113.439 195.824L111.495 198.032C111.111 197.552 110.615 197.176 110.007 196.904C109.399 196.632 108.791 196.496 108.183 196.496C107.799 196.496 107.471 196.536 107.199 196.616C106.943 196.68 106.751 196.776 106.623 196.904C106.495 197.032 106.431 197.192 106.431 197.384C106.431 197.592 106.527 197.776 106.719 197.936C106.927 198.08 107.303 198.208 107.847 198.32L110.031 198.752C111.263 198.976 112.151 199.384 112.695 199.976C113.239 200.568 113.511 201.28 113.511 202.112C113.511 202.896 113.303 203.6 112.887 204.224C112.471 204.848 111.847 205.344 111.015 205.712C110.183 206.064 109.135 206.24 107.871 206.24ZM121.414 206.24C120.086 206.24 118.934 205.992 117.958 205.496C116.998 205 116.254 204.288 115.726 203.36C115.198 202.432 114.934 201.312 114.934 200C114.934 198.688 115.198 197.568 115.726 196.64C116.254 195.712 116.99 195 117.934 194.504C118.894 194.008 119.99 193.76 121.222 193.76C122.486 193.76 123.558 194.008 124.438 194.504C125.334 194.984 126.014 195.656 126.478 196.52C126.942 197.368 127.174 198.344 127.174 199.448C127.174 199.736 127.166 200.024 127.15 200.312C127.134 200.6 127.11 200.84 127.078 201.032H117.574V198.848H125.278L123.334 199.592C123.334 198.632 123.158 197.896 122.806 197.384C122.47 196.872 121.942 196.616 121.222 196.616C120.71 196.616 120.27 196.736 119.902 196.976C119.55 197.216 119.278 197.592 119.086 198.104C118.91 198.616 118.822 199.272 118.822 200.072C118.822 200.856 118.926 201.496 119.134 201.992C119.342 202.472 119.638 202.824 120.022 203.048C120.406 203.256 120.87 203.36 121.414 203.36C122.022 203.36 122.502 203.24 122.854 203C123.222 202.76 123.494 202.424 123.67 201.992L126.934 203.072C126.71 203.76 126.318 204.344 125.758 204.824C125.214 205.288 124.558 205.64 123.79 205.88C123.038 206.12 122.246 206.24 121.414 206.24ZM148.923 193.352H140.739V196.712H147.267V199.904H140.739V206H136.611V190.16H148.923V193.352ZM150.62 206V194H154.22L154.388 196.592C154.692 195.696 155.14 195 155.732 194.504C156.34 194.008 157.108 193.76 158.036 193.76C158.34 193.76 158.596 193.784 158.804 193.832C159.028 193.88 159.204 193.944 159.332 194.024L158.924 197.384C158.764 197.32 158.556 197.272 158.3 197.24C158.06 197.192 157.764 197.168 157.412 197.168C156.932 197.168 156.484 197.272 156.068 197.48C155.652 197.688 155.316 198 155.06 198.416C154.82 198.816 154.7 199.328 154.7 199.952V206H150.62ZM166.648 206.24C165.32 206.24 164.168 205.992 163.192 205.496C162.232 205 161.488 204.288 160.96 203.36C160.432 202.432 160.168 201.312 160.168 200C160.168 198.688 160.432 197.568 160.96 196.64C161.488 195.712 162.224 195 163.168 194.504C164.128 194.008 165.224 193.76 166.456 193.76C167.72 193.76 168.792 194.008 169.672 194.504C170.568 194.984 171.248 195.656 171.712 196.52C172.176 197.368 172.408 198.344 172.408 199.448C172.408 199.736 172.4 200.024 172.384 200.312C172.368 200.6 172.344 200.84 172.312 201.032H162.808V198.848H170.512L168.568 199.592C168.568 198.632 168.392 197.896 168.04 197.384C167.704 196.872 167.176 196.616 166.456 196.616C165.944 196.616 165.504 196.736 165.136 196.976C164.784 197.216 164.512 197.592 164.32 198.104C164.144 198.616 164.056 199.272 164.056 200.072C164.056 200.856 164.16 201.496 164.368 201.992C164.576 202.472 164.872 202.824 165.256 203.048C165.64 203.256 166.104 203.36 166.648 203.36C167.256 203.36 167.736 203.24 168.088 203C168.456 202.76 168.728 202.424 168.904 201.992L172.168 203.072C171.944 203.76 171.552 204.344 170.992 204.824C170.448 205.288 169.792 205.64 169.024 205.88C168.272 206.12 167.48 206.24 166.648 206.24ZM180.547 206.24C179.219 206.24 178.067 205.992 177.091 205.496C176.131 205 175.387 204.288 174.859 203.36C174.331 202.432 174.067 201.312 174.067 200C174.067 198.688 174.331 197.568 174.859 196.64C175.387 195.712 176.123 195 177.067 194.504C178.027 194.008 179.123 193.76 180.355 193.76C181.619 193.76 182.691 194.008 183.571 194.504C184.467 194.984 185.147 195.656 185.611 196.52C186.075 197.368 186.307 198.344 186.307 199.448C186.307 199.736 186.299 200.024 186.283 200.312C186.267 200.6 186.243 200.84 186.211 201.032H176.707V198.848H184.411L182.467 199.592C182.467 198.632 182.291 197.896 181.939 197.384C181.603 196.872 181.075 196.616 180.355 196.616C179.843 196.616 179.403 196.736 179.035 196.976C178.683 197.216 178.411 197.592 178.219 198.104C178.043 198.616 177.955 199.272 177.955 200.072C177.955 200.856 178.059 201.496 178.267 201.992C178.475 202.472 178.771 202.824 179.155 203.048C179.539 203.256 180.003 203.36 180.547 203.36C181.155 203.36 181.635 203.24 181.987 203C182.355 202.76 182.627 202.424 182.803 201.992L186.067 203.072C185.843 203.76 185.451 204.344 184.891 204.824C184.347 205.288 183.691 205.64 182.923 205.88C182.171 206.12 181.379 206.24 180.547 206.24ZM201.936 189.92C203.408 189.92 204.704 190.152 205.824 190.616C206.96 191.064 207.944 191.728 208.776 192.608L206.784 195.272C206.096 194.552 205.352 194.016 204.552 193.664C203.768 193.296 202.872 193.112 201.864 193.112C201.272 193.112 200.792 193.176 200.424 193.304C200.056 193.432 199.792 193.608 199.632 193.832C199.472 194.056 199.392 194.312 199.392 194.6C199.392 194.936 199.544 195.224 199.848 195.464C200.168 195.688 200.68 195.88 201.384 196.04L204.048 196.64C205.632 197.008 206.792 197.544 207.528 198.248C208.264 198.952 208.632 199.888 208.632 201.056C208.632 202.176 208.344 203.128 207.768 203.912C207.192 204.68 206.4 205.264 205.392 205.664C204.384 206.048 203.232 206.24 201.936 206.24C200.88 206.24 199.872 206.128 198.912 205.904C197.952 205.664 197.088 205.328 196.32 204.896C195.552 204.464 194.904 203.968 194.376 203.408L196.368 200.648C196.768 201.112 197.256 201.528 197.832 201.896C198.424 202.248 199.064 202.528 199.752 202.736C200.456 202.944 201.168 203.048 201.888 203.048C202.448 203.048 202.912 202.992 203.28 202.88C203.664 202.768 203.944 202.6 204.12 202.376C204.296 202.152 204.384 201.888 204.384 201.584C204.384 201.248 204.264 200.968 204.024 200.744C203.784 200.504 203.328 200.304 202.656 200.144L199.728 199.496C198.832 199.288 198.032 199.016 197.328 198.68C196.64 198.328 196.096 197.864 195.696 197.288C195.296 196.696 195.096 195.96 195.096 195.08C195.096 194.088 195.368 193.208 195.912 192.44C196.456 191.656 197.24 191.04 198.264 190.592C199.288 190.144 200.512 189.92 201.936 189.92ZM216.781 206.24C215.453 206.24 214.301 205.992 213.325 205.496C212.365 205 211.621 204.288 211.093 203.36C210.565 202.432 210.301 201.312 210.301 200C210.301 198.688 210.565 197.568 211.093 196.64C211.621 195.712 212.357 195 213.301 194.504C214.261 194.008 215.357 193.76 216.589 193.76C217.853 193.76 218.925 194.008 219.805 194.504C220.701 194.984 221.381 195.656 221.845 196.52C222.309 197.368 222.541 198.344 222.541 199.448C222.541 199.736 222.533 200.024 222.517 200.312C222.501 200.6 222.477 200.84 222.445 201.032H212.941V198.848H220.645L218.701 199.592C218.701 198.632 218.525 197.896 218.173 197.384C217.837 196.872 217.309 196.616 216.589 196.616C216.077 196.616 215.637 196.736 215.269 196.976C214.917 197.216 214.645 197.592 214.453 198.104C214.277 198.616 214.189 199.272 214.189 200.072C214.189 200.856 214.293 201.496 214.501 201.992C214.709 202.472 215.005 202.824 215.389 203.048C215.773 203.256 216.237 203.36 216.781 203.36C217.389 203.36 217.869 203.24 218.221 203C218.589 202.76 218.861 202.424 219.037 201.992L222.301 203.072C222.077 203.76 221.685 204.344 221.125 204.824C220.581 205.288 219.925 205.64 219.157 205.88C218.405 206.12 217.613 206.24 216.781 206.24ZM224.823 206V194H228.423L228.591 196.592C228.895 195.696 229.343 195 229.935 194.504C230.543 194.008 231.311 193.76 232.239 193.76C232.543 193.76 232.799 193.784 233.007 193.832C233.231 193.88 233.407 193.944 233.535 194.024L233.127 197.384C232.967 197.32 232.759 197.272 232.503 197.24C232.263 197.192 231.967 197.168 231.615 197.168C231.135 197.168 230.687 197.272 230.271 197.48C229.855 197.688 229.519 198 229.263 198.416C229.023 198.816 228.903 199.328 228.903 199.952V206H224.823ZM242.936 194H247.16L242.84 206H237.968L233.648 194H237.944L240.416 203.144L242.936 194ZM250.629 192.608C249.797 192.608 249.189 192.456 248.805 192.152C248.437 191.832 248.253 191.336 248.253 190.664C248.253 189.976 248.437 189.48 248.805 189.176C249.189 188.856 249.797 188.696 250.629 188.696C251.445 188.696 252.045 188.856 252.429 189.176C252.813 189.48 253.005 189.976 253.005 190.664C253.005 191.336 252.813 191.832 252.429 192.152C252.045 192.456 251.445 192.608 250.629 192.608ZM252.669 194V206H248.589V194H252.669ZM261.261 193.76C262.477 193.76 263.485 193.936 264.285 194.288C265.101 194.624 265.733 195.08 266.181 195.656C266.645 196.216 266.933 196.824 267.045 197.48L263.277 198.728C263.165 198.04 262.957 197.528 262.653 197.192C262.365 196.84 261.941 196.664 261.381 196.664C260.869 196.664 260.437 196.784 260.085 197.024C259.749 197.248 259.493 197.616 259.317 198.128C259.141 198.624 259.053 199.264 259.053 200.048C259.053 200.832 259.149 201.472 259.341 201.968C259.533 202.448 259.805 202.8 260.157 203.024C260.509 203.232 260.925 203.336 261.405 203.336C261.805 203.336 262.133 203.264 262.389 203.12C262.661 202.96 262.885 202.736 263.061 202.448C263.237 202.16 263.349 201.808 263.397 201.392L267.069 202.568C266.957 203.272 266.653 203.904 266.157 204.464C265.677 205.008 265.037 205.44 264.237 205.76C263.437 206.08 262.501 206.24 261.429 206.24C260.117 206.24 258.973 206 257.997 205.52C257.021 205.024 256.269 204.312 255.741 203.384C255.213 202.44 254.949 201.312 254.949 200C254.949 198.688 255.213 197.568 255.741 196.64C256.269 195.696 257.005 194.984 257.949 194.504C258.909 194.008 260.013 193.76 261.261 193.76ZM275.047 206.24C273.719 206.24 272.567 205.992 271.591 205.496C270.631 205 269.887 204.288 269.359 203.36C268.831 202.432 268.567 201.312 268.567 200C268.567 198.688 268.831 197.568 269.359 196.64C269.887 195.712 270.623 195 271.567 194.504C272.527 194.008 273.623 193.76 274.855 193.76C276.119 193.76 277.191 194.008 278.071 194.504C278.967 194.984 279.647 195.656 280.111 196.52C280.575 197.368 280.807 198.344 280.807 199.448C280.807 199.736 280.799 200.024 280.783 200.312C280.767 200.6 280.743 200.84 280.711 201.032H271.207V198.848H278.911L276.967 199.592C276.967 198.632 276.791 197.896 276.439 197.384C276.103 196.872 275.575 196.616 274.855 196.616C274.343 196.616 273.903 196.736 273.535 196.976C273.183 197.216 272.911 197.592 272.719 198.104C272.543 198.616 272.455 199.272 272.455 200.072C272.455 200.856 272.559 201.496 272.767 201.992C272.975 202.472 273.271 202.824 273.655 203.048C274.039 203.256 274.503 203.36 275.047 203.36C275.655 203.36 276.135 203.24 276.487 203C276.855 202.76 277.127 202.424 277.303 201.992L280.567 203.072C280.343 203.76 279.951 204.344 279.391 204.824C278.847 205.288 278.191 205.64 277.423 205.88C276.671 206.12 275.879 206.24 275.047 206.24ZM161.155 220.8V234H158.615L153.515 225.68L152.235 223.34H152.215L152.295 225.48V234H150.335V220.8H152.855L157.935 229.1L159.235 231.48H159.255L159.175 229.32V220.8H161.155ZM168.965 223.8C169.938 223.8 170.798 224.007 171.545 224.42C172.292 224.833 172.872 225.433 173.285 226.22C173.712 226.993 173.925 227.92 173.925 229C173.925 230.08 173.712 231.013 173.285 231.8C172.872 232.573 172.292 233.167 171.545 233.58C170.798 233.993 169.938 234.2 168.965 234.2C167.992 234.2 167.132 233.993 166.385 233.58C165.638 233.167 165.052 232.573 164.625 231.8C164.198 231.013 163.985 230.08 163.985 229C163.985 227.92 164.198 226.993 164.625 226.22C165.052 225.433 165.638 224.833 166.385 224.42C167.132 224.007 167.992 223.8 168.965 223.8ZM168.965 225.48C168.365 225.48 167.852 225.62 167.425 225.9C167.012 226.167 166.692 226.56 166.465 227.08C166.238 227.6 166.125 228.24 166.125 229C166.125 229.747 166.238 230.387 166.465 230.92C166.692 231.44 167.012 231.84 167.425 232.12C167.852 232.387 168.365 232.52 168.965 232.52C169.565 232.52 170.072 232.387 170.485 232.12C170.898 231.84 171.218 231.44 171.445 230.92C171.672 230.387 171.785 229.747 171.785 229C171.785 228.24 171.672 227.6 171.445 227.08C171.218 226.56 170.898 226.167 170.485 225.9C170.072 225.62 169.565 225.48 168.965 225.48ZM192.753 220.8V222.64H188.233V234H186.093V222.64H181.573V220.8H192.753ZM197.383 234.2C196.489 234.2 195.716 234.053 195.063 233.76C194.423 233.453 193.923 233.033 193.563 232.5C193.216 231.967 193.043 231.34 193.043 230.62C193.043 230.207 193.096 229.813 193.203 229.44C193.323 229.053 193.509 228.687 193.763 228.34C194.029 227.98 194.389 227.653 194.843 227.36C195.296 227.053 195.863 226.787 196.543 226.56L197.323 226.22C197.856 225.913 198.283 225.633 198.603 225.38C198.936 225.127 199.176 224.86 199.323 224.58C199.483 224.3 199.563 223.973 199.563 223.6C199.563 223.16 199.429 222.82 199.163 222.58C198.896 222.34 198.543 222.22 198.103 222.22C197.583 222.22 197.189 222.367 196.923 222.66C196.669 222.94 196.543 223.28 196.543 223.68C196.543 223.92 196.576 224.153 196.643 224.38C196.723 224.607 196.869 224.887 197.083 225.22C197.309 225.553 197.636 225.993 198.063 226.54C198.489 227.073 199.069 227.78 199.803 228.66C200.523 229.527 201.123 230.233 201.603 230.78C202.096 231.313 202.516 231.72 202.863 232C203.209 232.267 203.529 232.447 203.823 232.54C204.129 232.62 204.469 232.653 204.843 232.64L204.483 234.2C204.056 234.2 203.656 234.153 203.283 234.06C202.923 233.98 202.529 233.793 202.103 233.5C201.689 233.207 201.196 232.767 200.623 232.18C200.063 231.593 199.369 230.813 198.543 229.84C197.769 228.933 197.123 228.173 196.603 227.56C196.096 226.933 195.696 226.407 195.403 225.98C195.123 225.54 194.923 225.147 194.803 224.8C194.683 224.44 194.623 224.06 194.623 223.66C194.623 223.167 194.749 222.687 195.003 222.22C195.256 221.74 195.636 221.353 196.143 221.06C196.663 220.753 197.336 220.6 198.163 220.6C198.829 220.6 199.396 220.72 199.863 220.96C200.329 221.2 200.689 221.533 200.943 221.96C201.196 222.373 201.323 222.853 201.323 223.4C201.323 223.907 201.229 224.38 201.043 224.82C200.856 225.26 200.523 225.68 200.043 226.08C199.576 226.48 198.909 226.873 198.043 227.26L197.383 227.54C196.769 227.847 196.289 228.14 195.943 228.42C195.596 228.7 195.349 229 195.203 229.32C195.056 229.627 194.983 230 194.983 230.44C194.983 230.893 195.096 231.287 195.323 231.62C195.563 231.94 195.883 232.187 196.283 232.36C196.683 232.533 197.129 232.62 197.623 232.62C198.329 232.62 198.929 232.5 199.423 232.26C199.916 232.007 200.376 231.66 200.803 231.22L201.083 230.92C201.403 230.413 201.649 229.84 201.823 229.2C202.009 228.56 202.069 227.833 202.003 227.02L203.663 227.12C203.689 227.973 203.576 228.8 203.323 229.6C203.083 230.4 202.709 231.12 202.203 231.76L201.803 232.2C201.323 232.813 200.716 233.3 199.983 233.66C199.249 234.02 198.383 234.2 197.383 234.2ZM217.72 230.5C217.454 231.3 217.054 231.98 216.52 232.54C215.987 233.087 215.36 233.5 214.64 233.78C213.92 234.06 213.127 234.2 212.26 234.2C210.994 234.2 209.894 233.927 208.96 233.38C208.027 232.833 207.307 232.053 206.8 231.04C206.294 230.027 206.04 228.813 206.04 227.4C206.04 225.987 206.294 224.773 206.8 223.76C207.307 222.747 208.027 221.967 208.96 221.42C209.894 220.873 210.987 220.6 212.24 220.6C213.107 220.6 213.887 220.72 214.58 220.96C215.287 221.2 215.887 221.56 216.38 222.04C216.874 222.52 217.254 223.12 217.52 223.84L215.5 224.74C215.234 223.953 214.847 223.38 214.34 223.02C213.834 222.647 213.174 222.46 212.36 222.46C211.547 222.46 210.834 222.653 210.22 223.04C209.607 223.427 209.127 223.987 208.78 224.72C208.447 225.453 208.28 226.347 208.28 227.4C208.28 228.44 208.44 229.333 208.76 230.08C209.08 230.813 209.54 231.373 210.14 231.76C210.74 232.147 211.46 232.34 212.3 232.34C213.114 232.34 213.814 232.133 214.4 231.72C215 231.293 215.427 230.66 215.68 229.82L217.72 230.5Z" fill="white"/>
<path d="M183.751 73.7344V72.25C183.751 71.5625 183.188 71 182.501 71H177.501C176.813 71 176.251 71.5625 176.251 72.25V73.7344C178.735 73.4219 181.267 73.4219 183.751 73.7344Z" fill="white"/>
<path d="M182.501 103.5C182.501 104.881 181.382 106 180.001 106C178.62 106 177.501 104.881 177.501 103.5C177.501 102.119 178.62 101 180.001 101C181.382 101 182.501 102.119 182.501 103.5Z" fill="white"/>
<path d="M184.048 100.579L190.751 85.5943C190.813 85.438 190.751 85.2662 190.595 85.2037C190.47 85.1412 190.313 85.188 190.235 85.2974L180.548 98.5318C181.954 98.6881 183.22 99.4224 184.048 100.579L184.048 100.579Z" fill="white"/>
<path d="M204.406 86.0786L206.094 84.3911C206.578 83.9068 206.578 83.1099 206.094 82.6256L203.391 79.9069C202.906 79.4225 202.109 79.4225 201.625 79.9069L200.203 81.3287C201.75 82.7662 203.172 84.3443 204.406 86.0787L204.406 86.0786Z" fill="white"/>
<path d="M213.469 120.031C212.516 119.36 211.282 119.219 210.204 119.641L182.954 129.969C180.985 130.719 178.782 130.422 177.079 129.203L170.922 124.75H163.751V122.25H180.625C182.344 122.25 183.75 120.844 183.75 119.125C183.75 117.406 182.344 116 180.625 116H166.859C165.203 116 163.609 116.656 162.437 117.828L160.578 119.688C158.937 121.328 156.719 122.25 154.391 122.25H145V137.25H161.421L172.843 140.469C176.593 141.532 180.593 141.203 184.125 139.563L212.953 126.157C214.203 125.578 215 124.328 215 122.938C215.016 121.782 214.438 120.688 213.469 120.032L213.469 120.031Z" fill="white"/>
<path d="M165.172 103.703L175.328 105.297C174.891 104.156 174.875 102.875 175.312 101.734L165.172 103.297C165.063 103.312 164.984 103.422 165 103.531C165.016 103.625 165.094 103.687 165.172 103.703L165.172 103.703Z" fill="white"/>
<path d="M152.532 104.75C152.751 109.859 154.407 114.813 157.313 119.031C157.876 118.734 158.376 118.359 158.829 117.922L160.688 116.063C162.329 114.422 164.547 113.5 166.875 113.5H180.626C183.735 113.5 186.251 116.016 186.251 119.125C186.251 122.234 183.735 124.75 180.626 124.75H175.204L178.547 127.156C179.563 127.891 180.891 128.062 182.063 127.625L198.594 121.359L195.063 117.828L196.829 116.063L201.157 120.391L201.922 120.094C205.297 115.672 207.235 110.313 207.469 104.75H201.251V102.25H207.469C207.204 96.437 205.094 90.8432 201.454 86.3124L197.141 90.6249L195.376 88.8594L199.813 84.4219C194.922 79.3594 188.282 76.3438 181.25 76.0314V82.2501H178.75V76.0314C171.719 76.3439 165.078 79.3595 160.203 84.4377L164.937 89.1721L163.172 90.9377L158.547 86.3127C154.891 90.844 152.781 96.4377 152.531 102.25H158.75V104.75L152.532 104.75ZM164.797 100.828L177.172 98.9219L188.219 83.8119C189.125 82.5619 190.891 82.2963 192.126 83.2025C193.188 83.9838 193.563 85.4056 193.032 86.6088L184.579 105.515C183.688 107.546 181.547 108.749 179.344 108.452C179.266 108.436 179.188 108.436 179.11 108.421L164.797 106.171C163.313 105.936 162.313 104.561 162.531 103.077C162.719 101.921 163.625 100.999 164.797 100.827L164.797 100.828Z" fill="white"/>
<defs>
<linearGradient id="paint0_linear_1383_587" x1="36" y1="52.8" x2="375.514" y2="123.532" gradientUnits="userSpaceOnUse">
<stop stop-color="#C56AFF"/>
<stop offset="1" stop-color="#832FB8"/>
</linearGradient>
</defs>
</svg>
