<svg width="88" height="88" viewBox="0 0 88 88" fill="none" xmlns="http://www.w3.org/2000/svg">
<path d="M17.6003 37.4C17.6005 34.1105 18.2714 30.8555 19.572 27.834C20.8726 24.8125 22.7755 22.0878 25.1645 19.8265C27.5536 17.5652 30.3785 15.8147 33.4669 14.6819C36.5552 13.5491 39.8421 13.0579 43.1267 13.2382C46.4113 13.4185 49.6246 14.2665 52.5704 15.7305C55.5162 17.1945 58.1326 19.2437 60.2598 21.7529C62.387 24.2622 63.9803 27.1787 64.9423 30.3244C65.9043 33.4702 66.2149 36.779 65.8551 40.0488C67.3599 40.6824 68.7283 41.5228 69.9427 42.526C70.7479 38.0882 70.4921 33.5228 69.1962 29.2027C67.9003 24.8826 65.601 20.9303 62.4861 17.6684C59.3712 14.4065 55.529 11.9275 51.2732 10.4339C47.0174 8.94031 42.4687 8.47441 37.9985 9.07426C33.5283 9.6741 29.2633 11.3227 25.5518 13.8854C21.8403 16.4481 18.7876 19.8523 16.6428 23.82C14.498 27.7876 13.322 32.2063 13.2108 36.7152C13.0997 41.2242 14.0565 45.6954 16.0031 49.764C17.1251 48.6728 18.3351 47.7752 19.6067 47.058C18.2797 44.0112 17.5967 40.7232 17.6003 37.4ZM61.6003 37.4C61.6003 37.8928 61.5827 38.3856 61.5475 38.8696L57.1827 38.1084C57.2908 35.7329 56.8474 33.3647 55.8871 31.1893C54.9269 29.0139 53.4759 27.0904 51.6479 25.5696C49.8199 24.0488 47.6646 22.9719 45.3508 22.4234C43.037 21.8749 40.6276 21.8697 38.3114 22.4082C35.9953 22.9466 33.8353 24.0141 32.0007 25.527C30.1662 27.0399 28.7069 28.9571 27.7372 31.1283C26.7675 33.2996 26.3138 35.6659 26.4117 38.0418C26.5095 40.4177 27.1562 42.7386 28.3011 44.8228C26.7459 44.8331 25.1976 45.031 23.6899 45.4124C22.4987 42.717 21.9243 39.7897 22.0084 36.844C22.0925 33.8983 22.833 31.0086 24.176 28.3855C25.519 25.7624 27.4306 23.4722 29.7713 21.6819C32.112 19.8916 34.8228 18.6464 37.706 18.037C40.5892 17.4276 43.572 17.4695 46.437 18.1596C49.3019 18.8497 51.9767 20.1706 54.2662 22.0259C56.5557 23.8812 58.4022 26.2242 59.671 28.884C60.9398 31.5437 61.599 34.4531 61.6003 37.4ZM35.2003 33C35.2003 31.2496 35.8957 29.5708 37.1334 28.3331C38.3711 27.0953 40.0499 26.4 41.8003 26.4C43.5507 26.4 45.2295 27.0953 46.4672 28.3331C47.705 29.5708 48.4003 31.2496 48.4003 33V42.152L61.3231 44.4136C62.9098 44.6918 64.4161 45.3151 65.7354 46.2395C67.0547 47.1638 68.1549 48.3667 68.9582 49.763C69.7615 51.1594 70.2483 52.7151 70.3842 54.3203C70.5201 55.9254 70.3018 57.5409 69.7447 59.0524L65.4195 70.8004C64.7536 72.6108 63.6233 74.2142 62.1421 75.4499C60.6609 76.6855 58.8807 77.5099 56.9803 77.8404L50.3055 78.9976C45.7955 79.7808 41.6991 76.9868 39.5915 73.5856C36.7799 69.0712 30.9631 62.8496 19.5583 61.5868C19.2465 61.5522 18.9456 61.4513 18.676 61.2909C18.4064 61.1305 18.1742 60.9143 17.995 60.6567C17.8158 60.3992 17.6938 60.1063 17.6371 59.7977C17.5804 59.4891 17.5903 59.172 17.6663 58.8676C18.3131 56.2716 19.5495 54.274 21.2655 52.8836C22.9595 51.4976 24.9747 50.8288 26.9855 50.6132C29.7311 50.314 32.6307 50.8332 35.2003 51.7044V33Z" fill="white"/>
</svg>
