<svg width="82" height="84" viewBox="0 0 82 84" fill="none" xmlns="http://www.w3.org/2000/svg">
<path d="M5.22804 54.0513V22.7726H57.5954V36.4179C59.3674 36.2405 61.0512 36.2405 62.8232 36.4179V14.2659C62.8232 9.92395 59.2791 6.46823 55.0255 6.46823H49.3546V2.30365C49.3546 1.06317 48.2915 0 47.0509 0H41.2917C40.0512 0 38.988 1.06311 38.988 2.30365V6.46823H23.8351V2.30365C23.8351 1.06317 22.772 0 21.5315 0H15.7722C14.5318 0 13.4686 1.06311 13.4686 2.30365V6.46823H7.79767C3.45572 6.46823 0 10.0122 0 14.2659V54.051C0 58.3929 3.54401 61.8486 7.79767 61.8486H33.494C33.5824 60.0766 33.7598 58.3929 34.203 56.6209L7.88636 56.6203C6.4691 56.7087 5.22859 55.5572 5.22859 54.051L5.22804 54.0513Z" fill="white"/>
<path d="M42.7085 29.2406C41.7338 29.2406 40.9365 30.0379 40.9365 31.0126V35.7088C40.9365 36.6836 41.7339 37.4808 42.7085 37.4808H49.2657C50.2404 37.4808 51.0377 36.6835 51.0377 35.7088V31.0126C51.0377 30.0379 50.2404 29.2406 49.2657 29.2406H42.7085Z" fill="white"/>
<path d="M34.7364 29.2406H28.1792C27.2045 29.2406 26.4072 30.0379 26.4072 31.0126V35.7088C26.4072 36.6836 27.2046 37.4808 28.1792 37.4808H34.7364C35.7111 37.4808 36.5084 36.6835 36.5084 35.7088V31.0126C36.42 30.0379 35.7111 29.2406 34.7364 29.2406Z" fill="white"/>
<path d="M34.7364 42.0893H28.1792C27.2045 42.0893 26.4072 42.8866 26.4072 43.8613V48.5575C26.4072 49.5322 27.2046 50.3295 28.1792 50.3295H34.7364C35.7111 50.3295 36.5084 49.5322 36.5084 48.5575L36.509 43.8613C36.42 42.8866 35.7111 42.0893 34.7364 42.0893H34.7364Z" fill="white"/>
<path d="M21.8932 30.9243C21.8932 29.9496 21.0958 29.1523 20.1212 29.1523H13.564C12.5893 29.1523 11.792 29.9497 11.792 30.9243V35.6206C11.792 36.5953 12.5893 37.3926 13.564 37.3926H20.1212C21.0959 37.3926 21.8932 36.5953 21.8932 35.6206V30.9243Z" fill="white"/>
<path d="M20.2081 42.0893H13.6509C12.6762 42.0893 11.8789 42.8866 11.8789 43.8613V48.5575C11.8789 49.5322 12.6762 50.3295 13.6509 50.3295H20.2081C21.1828 50.3295 21.9801 49.5322 21.9801 48.5575L21.9807 43.8613C21.8917 42.8866 21.1827 42.0893 20.2081 42.0893H20.2081Z" fill="white"/>
<path d="M59.9023 51.1269C58.4845 51.1269 57.333 52.279 57.333 53.6962V62.8229C57.333 63.886 57.9536 64.7722 58.9276 65.2154L64.4212 67.608C64.7753 67.7854 65.1301 67.7854 65.4843 67.7854C66.459 67.7854 67.4337 67.1648 67.8769 66.1908C68.4084 64.8619 67.8769 63.355 66.548 62.7351L62.6491 61.0513V53.6084C62.5601 52.2783 61.3196 51.1268 59.9024 51.1268L59.9023 51.1269Z" fill="white"/>
<path d="M69.0359 56.0891L80.2003 58.3927C80.7319 58.4811 81.1751 58.3927 81.5292 57.9495C81.8834 57.5954 81.9724 57.0632 81.8834 56.6207L79.5797 45.4562C79.4913 44.9247 78.9592 44.4815 78.605 44.3041C78.0735 44.1267 77.4529 44.3041 77.0987 44.6583L74.5294 47.2276C70.5422 43.5061 65.4912 41.4684 59.9977 41.4684C54.3268 41.4684 48.9217 43.6836 44.9345 47.6708C36.6052 56.0001 36.6052 69.4684 44.9345 77.7976C48.9217 81.7848 54.3268 84 59.9977 84C65.6686 84 71.0737 81.7848 75.0609 77.7976C78.2508 74.6077 80.2886 70.7087 80.9977 66.2783C81.2634 64.8605 80.2887 63.5316 78.8709 63.2658C77.453 63 76.1242 63.9748 75.8584 65.3926C75.3268 68.6709 73.7316 71.6841 71.3395 74.076C65.048 80.3675 54.8584 80.3675 48.5673 74.076C42.2758 67.7845 42.2758 57.5949 48.5673 51.3037C54.6814 45.1896 64.4281 45.0122 70.8079 50.7722L68.2386 53.3415C67.8844 53.6957 67.707 54.3162 67.8844 54.8477C68.0618 55.5579 68.505 56.0011 69.0365 56.0895L69.0359 56.0891Z" fill="white"/>
</svg>
