<svg width="100" height="100" viewBox="0 0 100 100" fill="none" xmlns="http://www.w3.org/2000/svg">
<path d="M53.751 17.7344V16.25C53.751 15.5625 53.1885 15 52.501 15H47.501C46.8135 15 46.251 15.5625 46.251 16.25V17.7344C48.7354 17.4219 51.2665 17.4219 53.751 17.7344Z" fill="white"/>
<path d="M52.501 47.5001C52.501 48.8806 51.3816 50.0001 50.001 50.0001C48.6204 50.0001 47.501 48.8806 47.501 47.5001C47.501 46.1195 48.6204 45.0001 50.001 45.0001C51.3816 45.0001 52.501 46.1195 52.501 47.5001Z" fill="white"/>
<path d="M54.0478 44.5786L60.7509 29.5943C60.8134 29.438 60.7509 29.2662 60.5947 29.2037C60.4697 29.1412 60.3134 29.188 60.2353 29.2974L50.5479 42.5318C51.9541 42.6881 53.2197 43.4224 54.0479 44.5787L54.0478 44.5786Z" fill="white"/>
<path d="M74.4063 30.0786L76.0937 28.3911C76.5781 27.9068 76.5781 27.1099 76.0937 26.6256L73.3906 23.9069C72.9062 23.4225 72.1093 23.4225 71.625 23.9069L70.2031 25.3287C71.75 26.7662 73.1718 28.3443 74.4063 30.0787L74.4063 30.0786Z" fill="white"/>
<path d="M83.4693 64.0314C82.5162 63.3596 81.2819 63.2189 80.2038 63.6408L52.9537 73.969C50.985 74.719 48.7819 74.4221 47.0787 73.2033L40.9224 68.7502H33.7506V66.2502H50.6249C52.3436 66.2502 53.7499 64.8439 53.7499 63.1252C53.7499 61.4064 52.3436 60.0002 50.6249 60.0002H36.8593C35.203 60.0002 33.6093 60.6564 32.4374 61.8283L30.578 63.6878C28.9374 65.3283 26.7186 66.2503 24.3906 66.2503H15V81.2503H31.4214L42.8433 84.4691C46.5933 85.5316 50.5933 85.2034 54.1246 83.5628L82.9532 70.1565C84.2032 69.5784 85.0001 68.3284 85.0001 66.9378C85.0157 65.7815 84.4376 64.6878 83.4688 64.0315L83.4693 64.0314Z" fill="white"/>
<path d="M35.1718 47.7029L45.3281 49.2966C44.8906 48.156 44.875 46.8747 45.3125 45.734L35.1719 47.2966C35.0625 47.3122 34.9844 47.4216 35 47.531C35.0157 47.6247 35.0938 47.6872 35.1719 47.7028L35.1718 47.7029Z" fill="white"/>
<path d="M22.5318 48.75C22.7505 53.8595 24.4068 58.8126 27.3131 63.0313C27.8756 62.7344 28.3756 62.3594 28.8286 61.9219L30.6881 60.0625C32.3286 58.4219 34.5475 57.4999 36.8755 57.4999H50.6255C53.7349 57.4999 56.2505 60.0155 56.2505 63.1249C56.2505 66.2344 53.7349 68.7499 50.6255 68.7499H45.2036L48.5474 71.1562C49.563 71.8906 50.8911 72.0625 52.0629 71.625L68.5944 65.3594L65.0631 61.8281L66.8287 60.0625L71.1568 64.3907L71.9224 64.0938C75.2974 59.672 77.235 54.3125 77.4693 48.7495H71.2506V46.2495H77.4693C77.2037 40.437 75.0943 34.8432 71.4537 30.3124L67.1411 34.6249L65.3756 32.8594L69.813 28.4219C64.9224 23.3594 58.2817 20.3438 51.2501 20.0314V26.2501H48.7501V20.0314C41.7188 20.3439 35.0783 23.3595 30.203 28.4377L34.9374 33.1721L33.1718 34.9377L28.5468 30.3127C24.8905 34.844 22.7813 40.4377 22.5312 46.2498H28.75V48.7498L22.5318 48.75ZM34.7973 44.8282L47.1724 42.9219L58.2192 27.8119C59.1255 26.5619 60.8911 26.2963 62.1255 27.2025C63.188 27.9838 63.5629 29.4056 63.0318 30.6088L54.5786 49.5145C53.688 51.5458 51.5473 52.7489 49.3442 52.4519C49.2661 52.4363 49.1879 52.4363 49.1098 52.4207L34.7969 50.1707C33.3125 49.9363 32.3125 48.5613 32.5314 47.077C32.7189 45.9207 33.6251 44.9988 34.7969 44.827L34.7973 44.8282Z" fill="white"/>
</svg>
