<svg width="149" height="42" viewBox="0 0 149 42" fill="none" xmlns="http://www.w3.org/2000/svg">
<path d="M2.56837 10.3234C2.81444 7.28858 5.29467 4.9192 8.33761 4.81206L139.352 0.198883C142.524 0.0871723 145.235 2.46607 145.536 5.62631L148.374 35.4311C148.71 38.9537 145.94 42 142.401 42H6.50618C3.00128 42 0.24255 39.0085 0.525802 35.5151L2.56837 10.3234Z" fill="url(#paint0_linear_1398_586)"/>
<path d="M34.02 23.36C33.7667 24.2133 33.3667 24.9267 32.82 25.5C32.2733 26.0733 31.6267 26.5 30.88 26.78C30.1333 27.06 29.3133 27.2 28.42 27.2C27.1133 27.2 25.98 26.9267 25.02 26.38C24.0733 25.8333 23.34 25.0533 22.82 24.04C22.3133 23.0267 22.06 21.8133 22.06 20.4C22.06 18.9867 22.3133 17.7733 22.82 16.76C23.34 15.7467 24.0733 14.9667 25.02 14.42C25.98 13.8733 27.1 13.6 28.38 13.6C29.2867 13.6 30.1067 13.7267 30.84 13.98C31.5733 14.22 32.1933 14.5933 32.7 15.1C33.22 15.6067 33.6 16.2467 33.84 17.02L31.34 18.08C31.1133 17.28 30.7667 16.7133 30.3 16.38C29.8333 16.0333 29.2333 15.86 28.5 15.86C27.78 15.86 27.1467 16.0333 26.6 16.38C26.0667 16.7267 25.6533 17.24 25.36 17.92C25.0667 18.5867 24.92 19.4133 24.92 20.4C24.92 21.3733 25.0533 22.2 25.32 22.88C25.6 23.56 26.0067 24.0733 26.54 24.42C27.0733 24.7667 27.7267 24.94 28.5 24.94C29.22 24.94 29.84 24.7467 30.36 24.36C30.8933 23.9733 31.2667 23.3867 31.48 22.6L34.02 23.36ZM40.6523 16.8C41.6657 16.8 42.5523 17.0067 43.3123 17.42C44.0857 17.8333 44.6857 18.4267 45.1123 19.2C45.5523 19.9733 45.7723 20.9067 45.7723 22C45.7723 23.08 45.5523 24.0133 45.1123 24.8C44.6857 25.5733 44.0857 26.1667 43.3123 26.58C42.5523 26.9933 41.6657 27.2 40.6523 27.2C39.6523 27.2 38.7657 26.9933 37.9923 26.58C37.219 26.1667 36.6123 25.5733 36.1723 24.8C35.7457 24.0133 35.5323 23.08 35.5323 22C35.5323 20.9067 35.7457 19.9733 36.1723 19.2C36.6123 18.4267 37.219 17.8333 37.9923 17.42C38.7657 17.0067 39.6523 16.8 40.6523 16.8ZM40.6523 18.84C40.1457 18.84 39.7123 18.96 39.3523 19.2C39.0057 19.4267 38.739 19.7733 38.5523 20.24C38.3657 20.7067 38.2723 21.2933 38.2723 22C38.2723 22.7067 38.3657 23.2933 38.5523 23.76C38.739 24.2267 39.0057 24.58 39.3523 24.82C39.7123 25.0467 40.1457 25.16 40.6523 25.16C41.1457 25.16 41.5657 25.0467 41.9123 24.82C42.2723 24.58 42.5457 24.2267 42.7323 23.76C42.919 23.2933 43.0123 22.7067 43.0123 22C43.0123 21.2933 42.919 20.7067 42.7323 20.24C42.5457 19.7733 42.2723 19.4267 41.9123 19.2C41.5657 18.96 41.1457 18.84 40.6523 18.84ZM48.065 27V17H50.525L50.685 20L50.345 19.68C50.505 19.0267 50.7583 18.4867 51.105 18.06C51.4517 17.6333 51.8717 17.32 52.365 17.12C52.8717 16.9067 53.425 16.8 54.025 16.8C54.7183 16.8 55.3317 16.9333 55.865 17.2C56.4117 17.4667 56.8383 17.8733 57.145 18.42C57.465 18.9533 57.625 19.6267 57.625 20.44V27H54.885V21.22C54.885 20.3667 54.7183 19.78 54.385 19.46C54.0517 19.1267 53.6183 18.96 53.085 18.96C52.7117 18.96 52.345 19.0533 51.985 19.24C51.6383 19.4133 51.3517 19.7 51.125 20.1C50.9117 20.5 50.805 21.0333 50.805 21.7V27H48.065ZM63.9097 13.94V23.74C63.9097 24.22 64.0297 24.5733 64.2697 24.8C64.523 25.0133 64.863 25.12 65.2897 25.12C65.623 25.12 65.9164 25.0733 66.1697 24.98C66.423 24.8733 66.6497 24.7333 66.8497 24.56L67.2897 26.38C66.9697 26.6333 66.5697 26.8333 66.0897 26.98C65.6097 27.1267 65.103 27.2 64.5697 27.2C63.903 27.2 63.3097 27.1 62.7897 26.9C62.283 26.7 61.883 26.38 61.5897 25.94C61.3097 25.5 61.1697 24.9133 61.1697 24.18V14.7L63.9097 13.94ZM67.1097 17V19.04H59.3297V17H67.1097ZM74.7611 20.62C74.7611 20.0467 74.5944 19.6 74.2611 19.28C73.9411 18.96 73.5144 18.8 72.9811 18.8C72.4878 18.8 72.0544 18.9267 71.6811 19.18C71.3078 19.4333 71.0344 19.8533 70.8611 20.44L68.5211 19.72C68.7478 18.84 69.2411 18.1333 70.0011 17.6C70.7744 17.0667 71.8078 16.8 73.1011 16.8C73.9811 16.8 74.7478 16.94 75.4011 17.22C76.0544 17.4867 76.5611 17.8933 76.9211 18.44C77.2944 18.9867 77.4811 19.6733 77.4811 20.5V24.56C77.4811 25.0667 77.7211 25.32 78.2011 25.32C78.4278 25.32 78.6411 25.2867 78.8411 25.22L78.6811 26.92C78.3344 27.0933 77.9011 27.18 77.3811 27.18C76.9144 27.18 76.4944 27.1 76.1211 26.94C75.7478 26.78 75.4544 26.54 75.2411 26.22C75.0278 25.8867 74.9211 25.4733 74.9211 24.98V24.9L75.4011 24.82C75.3211 25.3267 75.1011 25.76 74.7411 26.12C74.3811 26.4667 73.9411 26.7333 73.4211 26.92C72.9144 27.1067 72.3878 27.2 71.8411 27.2C71.1611 27.2 70.5744 27.1 70.0811 26.9C69.5878 26.6867 69.2078 26.38 68.9411 25.98C68.6744 25.58 68.5411 25.0867 68.5411 24.5C68.5411 23.7533 68.7811 23.1467 69.2611 22.68C69.7411 22.2 70.4278 21.8733 71.3211 21.7L75.0811 20.94L75.0611 22.64L72.6611 23.12C72.2078 23.2133 71.8611 23.34 71.6211 23.5C71.3944 23.6467 71.2811 23.8933 71.2811 24.24C71.2811 24.5733 71.4011 24.8267 71.6411 25C71.8944 25.1733 72.1944 25.26 72.5411 25.26C72.8211 25.26 73.0944 25.2267 73.3611 25.16C73.6278 25.0933 73.8678 24.9867 74.0811 24.84C74.2944 24.6933 74.4611 24.4933 74.5811 24.24C74.7011 23.9867 74.7611 23.68 74.7611 23.32V20.62ZM85.0464 16.8C85.9397 16.8 86.6931 16.9333 87.3064 17.2C87.9331 17.4533 88.4331 17.8067 88.8064 18.26C89.1931 18.7 89.4664 19.1933 89.6264 19.74L87.0664 20.66C86.9331 20.06 86.7064 19.6067 86.3864 19.3C86.0664 18.9933 85.6331 18.84 85.0864 18.84C84.5797 18.84 84.1464 18.96 83.7864 19.2C83.4264 19.4267 83.1531 19.78 82.9664 20.26C82.7797 20.7267 82.6864 21.3133 82.6864 22.02C82.6864 22.7267 82.7797 23.3133 82.9664 23.78C83.1664 24.2467 83.4464 24.5933 83.8064 24.82C84.1797 25.0467 84.6131 25.16 85.1064 25.16C85.5064 25.16 85.8464 25.0933 86.1264 24.96C86.4064 24.8133 86.6331 24.6067 86.8064 24.34C86.9931 24.0733 87.1197 23.7533 87.1864 23.38L89.6664 24.18C89.5197 24.78 89.2464 25.3067 88.8464 25.76C88.4464 26.2133 87.9331 26.5667 87.3064 26.82C86.6797 27.0733 85.9531 27.2 85.1264 27.2C84.0997 27.2 83.1931 26.9933 82.4064 26.58C81.6197 26.1667 81.0131 25.5733 80.5864 24.8C80.1597 24.0267 79.9464 23.0933 79.9464 22C79.9464 20.9067 80.1597 19.9733 80.5864 19.2C81.0131 18.4267 81.6131 17.8333 82.3864 17.42C83.1597 17.0067 84.0464 16.8 85.0464 16.8ZM95.3355 13.94V23.74C95.3355 24.22 95.4555 24.5733 95.6955 24.8C95.9488 25.0133 96.2888 25.12 96.7155 25.12C97.0488 25.12 97.3421 25.0733 97.5955 24.98C97.8488 24.8733 98.0755 24.7333 98.2755 24.56L98.7155 26.38C98.3955 26.6333 97.9955 26.8333 97.5155 26.98C97.0355 27.1267 96.5288 27.2 95.9955 27.2C95.3288 27.2 94.7355 27.1 94.2155 26.9C93.7088 26.7 93.3088 26.38 93.0155 25.94C92.7355 25.5 92.5955 24.9133 92.5955 24.18V14.7L95.3355 13.94ZM98.5355 17V19.04H90.7555V17H98.5355ZM109.983 27.2C109.316 27.2 108.716 27.08 108.183 26.84C107.649 26.6 107.223 26.22 106.903 25.7C106.596 25.1667 106.443 24.48 106.443 23.64V17H109.183V22.98C109.183 23.7533 109.343 24.2933 109.663 24.6C109.983 24.8933 110.443 25.04 111.043 25.04C111.323 25.04 111.596 24.9933 111.863 24.9C112.129 24.7933 112.363 24.6333 112.563 24.42C112.776 24.2067 112.943 23.9333 113.063 23.6C113.183 23.2533 113.243 22.8467 113.243 22.38V17H115.983V27H113.543L113.443 25.26C113.109 25.9267 112.649 26.42 112.063 26.74C111.489 27.0467 110.796 27.2 109.983 27.2ZM122.866 27.2C121.852 27.2 120.926 27.02 120.086 26.66C119.259 26.3 118.586 25.7933 118.066 25.14L119.646 23.54C119.966 24.02 120.392 24.4133 120.926 24.72C121.459 25.0267 122.092 25.18 122.826 25.18C123.346 25.18 123.759 25.1067 124.066 24.96C124.386 24.8 124.546 24.5533 124.546 24.22C124.546 24.0067 124.472 23.8267 124.326 23.68C124.179 23.52 123.886 23.3933 123.446 23.3L121.686 22.94C120.526 22.7 119.699 22.34 119.206 21.86C118.726 21.3667 118.486 20.7333 118.486 19.96C118.486 19.4133 118.646 18.9 118.966 18.42C119.299 17.94 119.792 17.5533 120.446 17.26C121.099 16.9533 121.912 16.8 122.886 16.8C123.886 16.8 124.752 16.96 125.486 17.28C126.232 17.5867 126.819 18.0467 127.246 18.66L125.606 20.26C125.312 19.7933 124.926 19.44 124.446 19.2C123.979 18.9467 123.486 18.82 122.966 18.82C122.592 18.82 122.272 18.86 122.006 18.94C121.739 19.02 121.539 19.1333 121.406 19.28C121.272 19.4133 121.206 19.5867 121.206 19.8C121.206 20.0133 121.299 20.2 121.486 20.36C121.672 20.5067 122.012 20.6333 122.506 20.74L124.546 21.16C125.532 21.36 126.239 21.7 126.666 22.18C127.092 22.6467 127.306 23.2133 127.306 23.88C127.306 24.52 127.132 25.0933 126.786 25.6C126.452 26.0933 125.952 26.4867 125.286 26.78C124.632 27.06 123.826 27.2 122.866 27.2Z" fill="white"/>
<defs>
<linearGradient id="paint0_linear_1398_586" x1="14.9" y1="8.4" x2="128.229" y2="69.8238" gradientUnits="userSpaceOnUse">
<stop stop-color="#C56AFF"/>
<stop offset="1" stop-color="#832FB8"/>
</linearGradient>
</defs>
</svg>
