<svg width="48" height="48" viewBox="0 0 48 48" fill="none" xmlns="http://www.w3.org/2000/svg">
<g clip-path="url(#clip0_1216_6344)">
<path d="M23.2022 0.0055845C23.0229 0.029126 22.8371 0.0153837 22.6567 0.0277359C22.2706 0.0541647 21.8847 0.0833869 21.4993 0.121921C20.1705 0.254767 18.8477 0.512693 17.5614 0.870329C12.1427 2.37692 7.38116 5.80215 4.1914 10.4301C1.34621 14.5581 -0.218976 19.7236 0.000901023 24.745C0.100194 27.0124 0.470011 29.2432 1.16238 31.4101C1.88285 33.665 2.9652 35.8167 4.32038 37.756C5.83472 39.9231 7.70943 41.8368 9.84517 43.3948C12.2732 45.166 15.0283 46.4659 17.9339 47.2299C20.9414 48.0206 24.1016 48.2015 27.18 47.7967C32.1754 47.1397 36.9355 44.8561 40.5769 41.3741C45.0842 37.0642 47.8474 30.9774 48.0002 24.7316C48.1523 18.514 45.9241 12.4427 41.7453 7.82256C40.5061 6.45239 39.0907 5.23894 37.5702 4.19096C35.5011 2.76485 33.2026 1.69612 30.7986 0.97484C29.0521 0.450835 27.252 0.162897 25.4372 0.038662C24.9408 0.00467831 24.4455 -6.05062e-05 23.9472 -6.05062e-05C23.7037 -6.05062e-05 23.4435 -0.0261126 23.2022 0.0055845Z" fill="#C56AFF"/>
<path d="M19.4239 0.425781L19.4372 0.439085L19.4239 0.425781ZM28.5636 0.425781L28.5769 0.439085L28.5636 0.425781ZM15.1135 1.68964L15.1268 1.70294L15.1135 1.68964ZM32.874 1.68964L32.8873 1.70294L32.874 1.68964ZM15.0469 1.71625L15.0602 1.72955L15.0469 1.71625ZM32.9405 1.71625L32.9538 1.72955L32.9405 1.71625ZM12.9316 2.68742L12.9449 2.70073L12.9316 2.68742Z" fill="#C56AFF"/>
<path d="M24.9042 15.0067C24.9045 14.6247 24.9811 14.2281 25.0277 13.8493C25.0591 13.5948 25.1042 13.3335 25.1165 13.0776C25.1268 12.8684 25.1679 12.6612 25.1848 12.4524C25.1909 12.375 25.2113 12.2897 25.1893 12.2129C25.1151 11.9543 24.7887 12.0903 24.7117 12.2661C24.6292 12.4545 24.6453 12.7155 24.621 12.918C24.5612 13.4166 24.4858 13.9203 24.4516 14.4213C24.4415 14.5679 24.4156 14.7141 24.4009 14.8603C24.3947 14.9223 24.4007 15.0031 24.3697 15.0591C24.3413 15.1105 24.2912 15.1124 24.239 15.1131C24.2284 14.8884 24.2795 14.6576 24.3033 14.4346C24.3569 13.934 24.4261 13.4328 24.4664 12.9313C24.4831 12.7214 24.6351 12.2939 24.3588 12.2011C24.0666 12.103 24.0034 12.4921 23.9785 12.6785C23.8967 13.2949 23.8847 13.9301 23.7707 14.5411C23.7383 14.7156 23.7395 14.8972 23.7146 15.0732C23.7062 15.1323 23.6908 15.2398 23.6024 15.2186C23.5386 15.2033 23.5647 15.1042 23.5701 15.0599C23.5913 14.8872 23.6035 14.7133 23.627 14.5411C23.703 13.986 23.7569 13.4225 23.811 12.8648C23.8286 12.6837 23.9096 12.3998 23.6803 12.3213C23.4227 12.2331 23.3277 12.5812 23.31 12.7583C23.2462 13.3968 23.1871 14.038 23.1026 14.6741C23.0803 14.8418 23.0741 15.0117 23.0529 15.1796C23.0458 15.2352 23.0233 15.3308 22.95 15.3308C22.8798 15.3308 22.9058 15.2205 22.9096 15.1796C22.9257 15.0063 22.9508 14.8344 22.9631 14.6608C23.0011 14.1171 23.0707 13.5646 23.1425 13.0244C23.1654 12.8522 23.2407 12.5446 23.0417 12.4493C22.7711 12.3197 22.6631 12.6958 22.637 12.8781C22.5468 13.5079 22.5166 14.1483 22.4409 14.7805C22.4208 14.9487 22.4125 15.1183 22.3881 15.2861C22.3804 15.3389 22.3637 15.4247 22.2973 15.4335C22.2325 15.442 22.2421 15.3374 22.2457 15.2994C22.2604 15.1446 22.2706 14.9878 22.2911 14.8337C22.3601 14.3141 22.401 13.7741 22.4302 13.2506C22.4385 13.1009 22.5473 12.8312 22.3632 12.7457C22.176 12.6587 22.0905 13.0515 22.0575 13.1575C21.8751 13.7447 21.6235 14.2988 21.2756 14.8071C20.8129 15.4834 20.1501 16.0239 19.3831 16.3176C18.7222 16.5707 17.992 16.6739 17.3078 16.849C14.7791 17.496 12.2439 18.1168 9.7113 18.75C8.72722 18.9961 7.7331 19.2197 6.75787 19.4976C6.53037 19.5626 6.28777 19.5946 6.06607 19.6775C5.98983 19.7061 5.88565 19.7831 5.89674 19.8759C5.91988 20.069 6.18288 20.0013 6.30554 19.984C6.7393 19.9231 7.17922 19.866 7.60931 19.7827C8.14488 19.6791 8.69289 19.6212 9.23237 19.5377C10.2208 19.3843 11.209 19.224 12.1991 19.0812C12.5626 19.0288 12.9251 18.9554 13.29 18.9157C13.3603 18.9081 13.5875 18.8278 13.6335 18.8956C13.6995 18.993 13.6241 19.2433 13.6226 19.357C13.6172 19.8187 13.554 20.279 13.5427 20.7406C13.5396 20.8647 13.5179 20.989 13.5162 21.1131C13.5154 21.1718 13.5195 21.2383 13.4615 21.2726C13.3367 21.3463 13.1002 21.3352 12.9574 21.3562C12.5671 21.4136 12.1766 21.4707 11.7867 21.5311C10.1664 21.7824 8.40781 21.9795 7.25391 23.2949C6.3328 24.345 6.12836 26.0218 6.70876 27.2861C6.96593 27.8463 7.38494 28.3226 7.84878 28.7229C8.12249 28.9591 8.40755 29.1728 8.71352 29.3657C8.81989 29.4328 8.95987 29.5525 9.08603 29.5715C9.21098 29.5903 9.32663 29.4775 9.43193 29.4246C9.69392 29.2933 9.9696 29.1234 10.2568 29.0555C9.6504 29.6601 9.23154 30.4324 9.35591 31.3171C9.38778 31.5439 9.46959 31.7442 9.55166 31.9557C9.32978 31.799 9.24171 31.5413 9.11243 31.3171C8.84395 30.8516 8.53959 30.391 7.99512 30.2205C7.14469 29.9541 6.24269 30.4033 5.82332 31.1708C5.52135 31.7234 5.51259 32.5379 5.82491 33.0865C6.02335 33.4351 6.2896 33.7055 6.65144 33.8813C6.78348 33.9454 6.93764 33.9552 7.06385 34.032C7.64648 34.3866 8.25333 34.7246 8.87317 35.0114C9.16867 35.1482 9.48317 35.2319 9.77782 35.3656C10.1735 35.5453 10.5362 35.8089 10.8687 36.0857C11.6146 36.7063 12.2463 37.4584 12.8054 38.2484C12.9417 38.4409 13.0672 38.6402 13.2015 38.8337C13.2514 38.9056 13.3254 38.9883 13.4231 38.9664C13.5807 38.9309 13.592 38.7763 13.5815 38.6475C13.5581 38.3568 13.4571 38.0734 13.3754 37.796C13.1266 36.9495 12.6592 36.1631 12.0891 35.4945C11.9199 35.2961 11.7319 35.1089 11.5339 34.9393C11.4349 34.8544 11.271 34.7615 11.2146 34.643C11.7664 34.6385 12.3109 34.4994 12.8377 34.3373C14.3926 33.8593 15.8167 32.9044 16.4107 31.3304C16.6382 30.728 16.7519 30.0317 16.7079 29.3881C16.696 29.2159 16.6714 29.0378 16.6337 28.8692C16.6245 28.8278 16.5737 28.7246 16.6229 28.6944C16.6801 28.6593 16.8154 28.6963 16.882 28.6963C17.1224 28.6963 17.3598 28.7116 17.6004 28.6951C18.3075 28.6466 19.0327 28.5224 19.7157 28.3337C19.9339 28.2735 20.1557 28.2171 20.3676 28.1367C20.4164 28.1181 20.5503 28.0376 20.5909 28.102C20.6172 28.1439 20.5943 28.237 20.5882 28.2838C20.5694 28.4254 20.5649 28.568 20.5462 28.7096C20.479 29.2202 20.4549 29.7399 20.4053 30.2528C20.3902 30.4077 20.3821 30.564 20.3638 30.7184C20.3522 30.8165 20.3382 30.9148 20.4341 30.9765C20.5273 31.0364 20.703 30.98 20.8066 30.9724C21.1442 30.9477 21.4803 30.9063 21.8177 30.8793C22.0432 30.8611 22.2719 30.8467 22.4962 30.8171C22.5755 30.8068 22.6788 30.8199 22.7487 30.7751C22.8347 30.7202 22.8347 30.6228 22.8444 30.5322C22.8666 30.324 22.8904 30.1155 22.9086 29.9069C22.9817 29.0724 23.0803 28.2394 23.1637 27.4058C23.4085 24.9572 23.6727 22.5107 23.9175 20.0621C23.9827 19.4101 24.0518 18.7585 24.117 18.1065C24.1347 17.9293 24.1571 17.7518 24.1713 17.5743C24.1782 17.4885 24.169 17.3589 24.2145 17.2834C24.2748 17.1837 24.5341 17.1982 24.6381 17.1807C25.0585 17.1101 25.4813 17.0544 25.902 16.9856C27.6315 16.7029 29.3676 16.4298 31.1038 16.1907C31.6105 16.121 32.1145 16.0317 32.6204 15.9568C32.7356 15.9398 32.8508 15.9229 32.9663 15.9076C33.009 15.9019 33.0763 15.8805 33.0903 15.9393C33.1065 16.0085 33.073 16.1078 33.063 16.1774C33.04 16.3369 33.0195 16.4968 32.9965 16.6564C32.9155 17.2191 32.8435 17.783 32.7631 18.3459C32.7379 18.523 32.7103 18.7005 32.689 18.8781C32.6813 18.9413 32.6866 19.0387 32.6306 19.0811C32.5631 19.1323 32.423 19.1237 32.341 19.1426C32.0668 19.2056 31.7862 19.2469 31.5162 19.3267C30.6863 19.572 29.875 19.8671 29.1215 20.2996C27.89 21.0065 26.707 22.0489 26.1057 23.3615C25.8062 24.0151 25.6482 24.6849 25.5804 25.3969C25.5149 26.0857 25.5347 26.7942 25.7513 27.459C25.85 27.7622 25.9845 28.0579 26.1617 28.3238C27.3626 30.1255 29.7123 30.3433 31.6758 30.059C32.068 30.0022 32.4637 29.9399 32.8466 29.8347C33.3131 29.7066 33.7752 29.5759 34.2302 29.4107C34.8059 29.2014 35.376 28.9827 35.933 28.727C36.1154 28.6432 36.4076 28.5676 36.543 28.4164C36.6349 28.3136 36.5463 28.1343 36.5212 28.0178C36.4395 27.6391 36.3401 27.2638 36.2507 26.8869C36.2254 26.78 36.1988 26.4853 36.0395 26.495C35.8781 26.5047 35.6767 26.6791 35.5339 26.7506C35.1232 26.9561 34.7169 27.1686 34.2967 27.3544C33.9613 27.5026 33.6133 27.6592 33.259 27.7565C32.9716 27.8354 32.6884 27.9229 32.3942 27.9745C30.9679 28.2245 29.1243 28.4597 28.1321 27.1264C27.9858 26.9298 27.8768 26.7107 27.8101 26.4745C27.7129 26.1301 27.7086 25.7766 27.7241 25.4235C27.738 25.1049 27.7893 24.7852 27.8805 24.479C28.4262 22.6476 30.311 21.5982 32.0749 21.2328C32.7206 21.0991 33.3758 21.0075 34.0306 20.929C34.1905 20.9097 34.3502 20.8869 34.5095 20.8639C34.5987 20.8512 34.6835 20.8472 34.7404 20.7669C34.8022 20.6798 34.7954 20.5372 34.8122 20.4346C34.8549 20.1737 34.8888 19.9113 34.9275 19.6497C35.0674 18.7053 35.213 17.7614 35.3459 16.816C35.3909 16.4964 35.4391 16.1773 35.4863 15.8581C35.5 15.7655 35.49 15.5809 35.5753 15.5237C35.6719 15.4587 35.8595 15.4655 35.9729 15.4468C36.2961 15.3933 36.6211 15.3518 36.9441 15.2983C37.7972 15.157 38.6549 15.0195 39.5117 14.904C39.9593 14.8437 40.5097 14.8265 40.9219 14.6307C41.5861 14.3152 41.9149 13.7021 42.0164 12.9978C42.0533 12.7417 42.092 12.5387 42.0262 12.2927C41.899 12.2997 41.8657 12.4062 41.8141 12.5056C41.7172 12.692 41.6135 12.8792 41.4921 13.051C41.1681 13.5099 40.6917 13.829 40.1503 13.9722C39.762 14.075 39.3618 14.1163 38.9663 14.1829C38.2229 14.3081 37.4763 14.4179 36.7313 14.5333C34.6025 14.8635 32.4776 15.2207 30.3454 15.5273C29.3235 15.6743 28.3073 15.8608 27.2856 16.0081C27.0147 16.0472 26.744 16.0892 26.4741 16.1342C26.3314 16.158 26.1659 16.2068 26.0217 16.1907C26.0922 16.0975 26.2072 16.1008 26.3144 16.0832C26.5443 16.0456 26.7755 16.0093 27.0062 15.9761C27.9168 15.8451 28.8216 15.6712 29.7335 15.5484C31.886 15.2584 34.0238 14.8514 36.1725 14.5335C36.9629 14.4164 37.751 14.2834 38.5406 14.1608C39.0799 14.0773 39.6367 14.0246 40.1636 13.8792C40.4582 13.798 40.7588 13.6879 41.0018 13.4964C41.4019 13.1812 41.6313 12.7165 41.8439 12.2661C41.9578 12.0247 42.1094 11.7689 42.172 11.5078C42.2223 11.2981 42.2096 11.0699 42.2352 10.8559C42.287 10.4227 42.2789 9.97516 42.2789 9.53883C42.2789 9.445 42.2527 9.11966 42.0794 9.1959C41.9881 9.23601 41.9579 9.34542 41.9346 9.4324C41.8907 9.59555 41.8419 9.7661 41.7836 9.92464C41.5785 10.4832 41.4316 11.0714 41.2573 11.6408C41.2098 11.7958 41.1585 11.9506 41.1139 12.1065C41.0901 12.1898 41.0767 12.2955 41.0151 12.3592C41.0082 12.2458 41.0497 12.1244 41.0709 12.0133C41.1057 11.8319 41.1325 11.6491 41.1687 11.4679C41.2692 10.9647 41.335 10.4544 41.4355 9.95125C41.4749 9.75406 41.6595 9.22368 41.3344 9.17768C41.0199 9.13319 40.9432 9.48449 40.9053 9.71178C40.7914 10.3957 40.6604 11.0768 40.5461 11.7606C40.5129 11.96 40.4805 12.1608 40.4417 12.3592C40.4266 12.4362 40.3841 12.5073 40.2969 12.509C40.2066 12.5108 40.2371 12.4026 40.2452 12.3459C40.2721 12.1593 40.3088 11.9728 40.3422 11.7872C40.4533 11.1717 40.5602 10.555 40.6637 9.93795C40.6941 9.7569 40.8244 9.41346 40.576 9.32794C40.2706 9.22279 40.1523 9.58839 40.1104 9.80491C39.9758 10.5006 39.8514 11.2058 39.7495 11.9069C39.7197 12.1117 39.6997 12.3484 39.6373 12.5454C39.6182 12.6061 39.5269 12.6726 39.4633 12.6268C39.418 12.5941 39.45 12.4973 39.4575 12.4524C39.4837 12.2927 39.5161 12.1336 39.5384 11.9734C39.6267 11.3373 39.7589 10.7044 39.8651 10.071C39.8945 9.89641 40.0278 9.52432 39.7645 9.46425C39.4452 9.3914 39.3589 9.75004 39.3178 9.97786C39.1958 10.6548 39.0894 11.3349 38.9763 12.0133C38.9431 12.2127 38.9103 12.4138 38.8705 12.612C38.8541 12.6935 38.8158 12.7779 38.7143 12.762C38.6352 12.7497 38.6799 12.6364 38.6869 12.5854C38.7117 12.4076 38.746 12.2301 38.7767 12.0532C38.8847 11.4328 38.9816 10.8108 39.0912 10.1907C39.1209 10.0224 39.2333 9.64957 38.9796 9.59749C38.6724 9.53443 38.5645 9.86938 38.5309 10.0976C38.4295 10.7864 38.3059 11.4726 38.1913 12.1597C38.1611 12.3415 38.1331 12.524 38.0989 12.7051C38.082 12.7952 38.0687 12.8861 37.9555 12.892C37.8647 12.8967 37.8939 12.7876 37.9031 12.7317C37.9337 12.5455 37.9693 12.3601 37.9951 12.173C38.0796 11.5593 38.196 10.9482 38.2978 10.3371C38.3268 10.1629 38.4502 9.80752 38.1947 9.74396C37.8878 9.66763 37.7881 10.0265 37.745 10.2439C37.613 10.9088 37.5512 11.5869 37.4231 12.2528C37.3825 12.4638 37.3718 12.682 37.3235 12.8914C37.3094 12.9524 37.2359 13.0482 37.1612 13.0085C37.1091 12.9807 37.1409 12.8828 37.1473 12.8382C37.172 12.6646 37.2077 12.4929 37.2332 12.3193C37.3239 11.7035 37.4112 11.0812 37.5295 10.4701C37.5655 10.2836 37.673 9.93552 37.3964 9.87671C37.0943 9.81245 37.0153 10.1828 36.9807 10.3903C36.8692 11.0592 36.7631 11.729 36.6592 12.3991C36.6275 12.6026 36.6012 12.8096 36.5591 13.0111C36.5451 13.0782 36.4909 13.1493 36.4128 13.1376C36.3359 13.1261 36.3715 13.0208 36.3799 12.9712C36.4096 12.7941 36.435 12.6164 36.4641 12.4391C36.5643 11.8283 36.6389 11.211 36.7552 10.6031C36.7862 10.4411 36.9023 10.0665 36.6514 10.0208C36.3324 9.96269 36.2434 10.2816 36.2046 10.5233C36.0971 11.1927 35.9952 11.8628 35.8877 12.5322C35.8585 12.7137 35.8305 12.8958 35.8036 13.0776C35.7924 13.1538 35.7758 13.2508 35.6803 13.2601C35.5827 13.2696 35.6127 13.1627 35.6213 13.1042C35.6475 12.927 35.6716 12.749 35.6994 12.5721C35.7955 11.9615 35.8728 11.3432 35.9889 10.7362C36.0196 10.5751 36.1343 10.2048 35.8931 10.1554C35.5575 10.0866 35.4936 10.4305 35.4489 10.6697C35.327 11.3216 35.2511 11.9838 35.1448 12.6386C35.1107 12.8492 35.0968 13.0694 35.0486 13.2772C35.0336 13.3421 34.9595 13.4154 34.8864 13.3774C34.8416 13.3541 34.8683 13.2506 34.8746 13.2107C34.9017 13.038 34.9253 12.8637 34.9563 12.6918C35.0651 12.0877 35.1395 11.4759 35.2335 10.8692C35.2608 10.6938 35.3719 10.3424 35.1082 10.2884C34.7932 10.2239 34.7284 10.5847 34.6877 10.8027C34.5657 11.4547 34.4984 12.1171 34.3909 12.7716C34.3589 12.9665 34.3303 13.1619 34.3003 13.357C34.2895 13.4271 34.2534 13.5171 34.1644 13.5084C34.0867 13.5008 34.1169 13.3928 34.1237 13.3437C34.1481 13.1659 34.1805 12.9892 34.2053 12.8116C34.2895 12.2077 34.3861 11.6053 34.4753 11.0022C34.5013 10.8265 34.6217 10.4657 34.3499 10.4199C34.045 10.3684 33.9726 10.7173 33.9411 10.9357C33.8451 11.6011 33.7525 12.268 33.6437 12.9313C33.6162 13.0991 33.5914 13.2683 33.5687 13.4368C33.5584 13.5128 33.5454 13.5967 33.4585 13.6219C33.361 13.6501 33.3846 13.531 33.3947 13.4767C33.4281 13.2971 33.445 13.1123 33.4701 12.9313C33.5558 12.3149 33.6425 11.696 33.7454 11.0821C33.777 10.8933 33.8385 10.517 33.5251 10.5524C33.2394 10.5847 33.2119 10.9148 33.1829 11.1353C33.1012 11.7566 33.0102 12.3791 32.9098 12.9978C32.8782 13.1922 32.8608 13.3889 32.8278 13.5832C32.8152 13.6575 32.7843 13.7549 32.6877 13.7444C32.6104 13.736 32.6471 13.632 32.6547 13.5832C32.682 13.4066 32.7075 13.2285 32.7275 13.051C32.7951 12.4515 32.9008 11.8523 32.9873 11.255C33.0121 11.0837 33.1255 10.7273 32.8599 10.6858C32.5523 10.6378 32.4806 10.9767 32.4492 11.2018C32.3571 11.8627 32.2664 12.5248 32.1626 13.1841C32.1368 13.3477 32.1182 13.5124 32.0938 13.6763C32.084 13.7427 32.0788 13.8228 32.0079 13.8536C31.9024 13.8994 31.9113 13.7814 31.9209 13.7162C31.9478 13.5345 31.9728 13.3526 31.9987 13.1708C32.0868 12.5544 32.1735 11.9381 32.2595 11.3215C32.2883 11.1144 32.3453 10.7457 32.0084 10.823C31.7385 10.885 31.739 11.1947 31.708 11.4147C31.6225 12.0222 31.5333 12.629 31.4534 13.2373C31.4282 13.4282 31.3994 13.6186 31.3736 13.8093C31.3639 13.8816 31.349 13.9867 31.2504 13.9795C31.167 13.9735 31.1944 13.8779 31.2025 13.8226C31.2287 13.6453 31.2537 13.468 31.2784 13.2905C31.3612 12.6965 31.4381 12.1017 31.5218 11.5078C31.5472 11.3276 31.649 10.9783 31.3698 10.9406C31.0788 10.9013 31.0142 11.2501 30.9858 11.4546C30.8962 12.0972 30.8141 12.7411 30.7235 13.3836C30.6975 13.5693 30.6794 13.7575 30.6481 13.9424C30.6372 14.0073 30.616 14.098 30.532 14.098C30.4463 14.098 30.4712 13.9956 30.4785 13.9424C30.5027 13.765 30.5231 13.5873 30.5486 13.4102C30.6341 12.8169 30.714 12.222 30.7941 11.6275C30.8183 11.4472 30.9139 11.1071 30.6381 11.0718C30.3662 11.037 30.2948 11.3662 30.2694 11.561C30.1859 12.2017 30.0635 12.8465 30.0117 13.4901C29.996 13.686 29.9538 13.88 29.933 14.0754C29.9265 14.1364 29.8883 14.2167 29.8141 14.213C29.7399 14.2093 29.7707 14.0947 29.7756 14.0488C29.7941 13.8757 29.8207 13.7022 29.8455 13.53C29.9297 12.9422 30.0125 12.3509 30.0787 11.7606C30.098 11.5883 30.1982 11.246 29.933 11.2047C29.6418 11.1592 29.5778 11.4865 29.549 11.694C29.4605 12.3311 29.3662 12.9704 29.2967 13.6098C29.276 13.8006 29.2507 13.992 29.2222 14.1818C29.2118 14.2513 29.185 14.3367 29.0964 14.331C29.0225 14.3263 29.0564 14.2135 29.0626 14.1685C29.0864 13.996 29.1034 13.8222 29.1272 13.6497C29.2077 13.065 29.2786 12.479 29.3515 11.8936C29.3728 11.7226 29.4874 11.3781 29.2279 11.3261C28.964 11.2733 28.8529 11.5864 28.8311 11.7872C28.7602 12.4391 28.6757 13.0937 28.5816 13.7428C28.5548 13.9284 28.5271 14.1151 28.5085 14.3016C28.5019 14.3669 28.4725 14.4481 28.3923 14.4461C28.3152 14.4442 28.3483 14.3332 28.3553 14.2883C28.3822 14.1165 28.3975 13.942 28.4201 13.7694C28.4965 13.189 28.5779 12.6083 28.6432 12.0266C28.6625 11.8551 28.7703 11.5338 28.5361 11.462C28.2759 11.3822 28.1549 11.6777 28.137 11.8803C28.0794 12.5373 27.9733 13.1952 27.888 13.8493C27.8632 14.0398 27.8411 14.2307 27.8171 14.4213C27.8095 14.4805 27.7776 14.5716 27.6988 14.5553C27.6272 14.5404 27.6546 14.4439 27.6617 14.3947C27.6872 14.2178 27.7051 14.0399 27.7283 13.8626C27.8006 13.3135 27.8531 12.7611 27.9319 12.2129C27.9566 12.0406 28.0501 11.7444 27.884 11.6227C27.6746 11.4693 27.4617 11.7237 27.4358 11.9202C27.3451 12.6077 27.2358 13.3046 27.1803 13.9956C27.1657 14.1773 27.1432 14.3607 27.1162 14.5411C27.1074 14.5995 27.076 14.695 26.9949 14.6654C26.9342 14.6435 26.9534 14.5489 26.9608 14.5011C26.987 14.3331 27.0011 14.164 27.0232 13.9956C27.0984 13.4245 27.1733 12.852 27.2346 12.2794C27.2538 12.0998 27.3538 11.7915 27.1126 11.716C26.8263 11.6264 26.7518 11.9945 26.729 12.1863C26.6525 12.825 26.58 13.4648 26.4969 14.102C26.4745 14.2748 26.4533 14.4478 26.4335 14.6209C26.4264 14.6829 26.4097 14.7772 26.3285 14.7784C26.2504 14.7796 26.2803 14.6661 26.2857 14.6209C26.3064 14.4481 26.3236 14.2748 26.3447 14.102C26.4134 13.5435 26.4782 12.9843 26.5444 12.4258C26.566 12.2438 26.6588 11.9475 26.4474 11.8446C26.2112 11.7296 26.0556 12.046 26.0373 12.2262C25.9705 12.884 25.9166 13.556 25.8099 14.2085C25.7797 14.3927 25.762 14.5815 25.7423 14.7672C25.7364 14.8223 25.6978 14.913 25.6246 14.8908C25.5609 14.8714 25.5879 14.7735 25.5943 14.7273C25.6164 14.5689 25.6387 14.408 25.6495 14.2484C25.6897 13.6603 25.7772 13.0633 25.8544 12.479C25.8771 12.3074 25.9591 11.9504 25.6758 11.9479C25.3922 11.9455 25.3603 12.2745 25.3337 12.479C25.2544 13.09 25.2001 13.704 25.1208 14.3149C25.1012 14.4656 25.0857 14.6166 25.0677 14.7672C25.0605 14.8271 25.0669 14.898 25.0351 14.952C25.006 15.0014 24.9558 15.0055 24.9042 15.0067Z" fill="#FEFDFE"/>
<path d="M41.082 12.0399L41.0959 12.0538L41.082 12.0399Z" fill="#C56AFF"/>
<path d="M45.2998 12.9313L45.3137 12.9451L45.2998 12.9313Z" fill="#C56AFF"/>
<path d="M40.9356 13.5698L40.9489 13.5831L40.9356 13.5698ZM35.1484 14.7273V14.7406C35.6638 14.7391 36.2094 14.587 36.7183 14.5067C37.6227 14.3637 38.5295 14.2346 39.4323 14.0832C39.8203 14.018 40.2152 13.9647 40.5764 13.7981C40.6949 13.7436 40.8534 13.688 40.9356 13.5831C40.8055 13.6144 40.6997 13.713 40.5764 13.7634C40.307 13.8735 40.0231 13.9455 39.7382 14.0029C38.7097 14.2099 37.6499 14.3442 36.6119 14.4971C36.1287 14.5683 35.6234 14.6128 35.1484 14.7273Z" fill="#C56AFF"/>
<path d="M40.8955 13.623L40.9094 13.6369L40.8955 13.623Z" fill="#C56AFF"/>
<path d="M31.7295 15.2594V15.2728L32.0355 15.241L32.5277 15.163L34.2572 14.8925L34.8958 14.7912L35.1486 14.7406L34.8065 14.7788L34.1641 14.8812L31.7295 15.2594Z" fill="#C56AFF"/>
<path d="M1.71606 15.0465L1.72936 15.0598L1.71606 15.0465ZM46.2704 15.0465L46.2837 15.0598L46.2704 15.0465ZM1.68945 15.113L1.70276 15.1263L1.68945 15.113ZM46.297 15.113L46.3103 15.1263L46.297 15.113Z" fill="#C56AFF"/>
<path d="M31.0913 15.3658V15.3791L31.7299 15.286L31.4638 15.3077L31.0913 15.3658ZM30.1468 15.5388L31.078 15.3791L30.8519 15.4002L30.3652 15.4764L30.1468 15.5388ZM29.5215 15.6319L29.9472 15.5654L30.1201 15.5122L29.7 15.5814L29.5215 15.6319ZM29.0558 15.6851V15.6984L29.4816 15.6319C29.3825 15.5932 29.1592 15.6561 29.0558 15.6851ZM28.3374 15.7916V15.8049L28.8563 15.7312L29.0292 15.6851L28.3374 15.7916ZM28.2443 15.8315L28.3108 15.8182L28.2443 15.8315ZM28.0714 15.8448V15.8581L28.2177 15.8315L28.0714 15.8448ZM28.0049 15.8714L28.0581 15.8581L28.0049 15.8714ZM27.8319 15.898L27.9649 15.8714C27.92 15.8538 27.8637 15.8602 27.8319 15.898ZM27.6856 15.9246L27.8053 15.898C27.7603 15.8796 27.7156 15.8852 27.6856 15.9246ZM27.5924 15.9379L27.659 15.898L27.5924 15.9379ZM27.4993 15.9512L27.5658 15.9379L27.4993 15.9512ZM27.1268 16.0044L27.4195 15.9379L27.1268 16.0044ZM27.455 15.9423L27.4638 15.9468L27.455 15.9423ZM26.9805 16.031L27.0869 16.0044L26.9805 16.031ZM26.8873 16.0443L26.9539 16.031L26.8873 16.0443ZM26.8075 16.0443V16.0576L26.8607 16.0443H26.8075ZM26.7499 16.0487L26.7587 16.0532L26.7499 16.0487ZM26.6213 16.0709V16.0842L26.7277 16.0709H26.6213ZM26.568 16.0709V16.0842H26.608L26.568 16.0709ZM26.4749 16.1108L26.5414 16.0975L26.4749 16.1108ZM26.3419 16.1108V16.1241L26.3951 16.0975L26.3419 16.1108ZM26.4306 16.1019L26.4394 16.1065L26.4306 16.1019ZM26.2621 16.1375L26.302 16.1108L26.2621 16.1375ZM26.0625 16.1508V16.1641L26.2221 16.1508H26.0625Z" fill="#C56AFF"/>
<path d="M21.472 17.6598C20.124 17.8286 18.7868 18.0928 17.441 18.2793C17.1041 18.326 16.7644 18.371 16.4299 18.4313C16.3469 18.4463 16.1453 18.4416 16.0976 18.5208C16.0559 18.5898 16.0759 18.6949 16.0668 18.7716C16.0378 19.0182 16.0333 19.2689 16.0163 19.5166C15.958 20.3672 15.9142 21.2221 15.8335 22.0709C15.8087 22.3303 15.79 22.5955 15.7785 22.8558C15.7727 22.9867 15.7844 23.1268 15.6583 23.2052C15.5425 23.277 15.3138 23.2675 15.1793 23.2837C14.8553 23.3225 14.5313 23.3716 14.2082 23.4182C13.1005 23.5778 11.9899 23.717 10.8822 23.8766C10.2739 23.9643 9.59377 24.0001 9.08621 24.3863C8.52841 24.8108 8.42693 25.6957 8.73061 26.3015C8.81564 26.4711 8.95338 26.6204 9.08623 26.7538C9.1906 26.8587 9.29484 26.9623 9.40551 27.0605C9.4486 27.0987 9.50449 27.1639 9.56515 27.1709C9.6444 27.1802 9.74652 27.0951 9.81792 27.0658C10.039 26.9755 10.258 26.8831 10.4831 26.8029C11.1079 26.5806 11.767 26.454 12.4255 26.3836C13.3195 26.2878 14.1756 26.5325 15.0596 26.593C16.3048 26.6783 17.5896 26.5564 18.8113 26.3122C19.3208 26.2102 19.8436 26.0735 20.3279 25.8838C20.4596 25.8321 20.7174 25.799 20.8083 25.6843C20.8875 25.5843 20.8678 25.3088 20.8739 25.184C20.8928 24.7946 20.9449 24.4015 20.982 24.0133C21.1259 22.5078 21.2174 20.9908 21.4018 19.49C21.4593 19.0218 21.4694 18.5471 21.5308 18.0798C21.544 17.9797 21.6315 17.6398 21.472 17.6598Z" fill="#C56AFF"/>
<path d="M21.5842 17.76C20.2185 17.9335 18.8423 18.1507 17.4867 18.3905C17.1604 18.4481 16.8279 18.4759 16.5022 18.5368C16.4237 18.5515 16.2197 18.5435 16.172 18.6157C16.1299 18.679 16.1439 18.8419 16.143 18.9174C16.1402 19.1232 16.1204 19.3377 16.1008 19.5427C16.0198 20.3934 15.955 21.2566 15.9173 22.1103C15.906 22.3675 15.8705 22.6248 15.8637 22.882C15.8595 23.0452 15.8718 23.2146 15.7173 23.313C15.6103 23.381 15.4029 23.3705 15.2782 23.3875C14.9456 23.4331 14.6126 23.4762 14.2804 23.5241C13.2702 23.6697 12.2574 23.7971 11.2472 23.9427C10.6586 24.0274 10.0346 24.0592 9.47779 24.2848C8.68863 24.6047 8.46138 25.5848 8.77647 26.3276C8.89318 26.6029 9.12919 26.8308 9.34475 27.0315C9.40466 27.0873 9.51554 27.217 9.59752 27.2306C9.66248 27.2413 9.75397 27.1698 9.81038 27.1426C9.96497 27.068 10.1287 27.0027 10.2893 26.9421C10.8201 26.7422 11.3658 26.596 11.9257 26.5017C12.4398 26.415 12.9751 26.3734 13.4955 26.423C13.9246 26.4639 14.3375 26.5903 14.7688 26.6173C16.1121 26.7013 17.4817 26.6457 18.8037 26.3714C19.2944 26.2695 19.7624 26.1242 20.2405 25.9787C20.3802 25.9361 20.5171 25.8878 20.653 25.8349C20.704 25.8149 20.7797 25.8021 20.8191 25.7621C20.8617 25.7187 20.8496 25.6509 20.8548 25.5959C20.867 25.4673 20.8811 25.3389 20.8924 25.2101C20.9359 24.7135 20.9797 24.2163 21.0277 23.7201C21.1637 22.3147 21.2879 20.9085 21.4223 19.5028C21.4778 18.9226 21.5112 18.3383 21.5842 17.76Z" fill="#C56AFF"/>
<path d="M0.425781 19.4235L0.439085 19.4368L0.425781 19.4235ZM47.561 19.4235L47.5743 19.4368L47.561 19.4235Z" fill="#C56AFF"/>
<path d="M0.425781 28.5632L0.439639 28.5771L0.425781 28.5632Z" fill="#C56AFF"/>
<path d="M11.907 28.6165V28.6431C11.984 28.6878 12.0698 28.6876 12.1465 28.7283C12.3099 28.8153 12.4762 28.98 12.5926 29.122C13.3266 30.0172 12.9672 31.3659 12.2258 32.1287C12.0423 32.3173 11.793 32.4944 11.5478 32.5916C11.4483 32.631 11.1765 32.6696 11.1221 32.7539C11.5094 32.8109 11.9711 32.6221 12.3194 32.4726C13.2289 32.082 14.0681 31.5792 14.2961 30.5455C14.3927 30.1071 14.3917 29.5874 14.132 29.2018C13.7517 28.6372 12.9479 28.5144 12.3194 28.5743C12.1832 28.5872 12.0396 28.5769 11.907 28.6165Z" fill="#C56AFF"/>
<path d="M47.5605 28.5632L47.5744 28.5771L47.5605 28.5632Z" fill="#C56AFF"/>
<path d="M11.9737 28.6297C12.0153 28.6885 12.1595 28.7046 12.2265 28.7595C12.4681 28.9575 12.6909 29.1675 12.8267 29.4545C13.4141 30.6965 12.5903 32.2871 11.3219 32.7006C11.409 32.7372 11.5246 32.6888 11.6145 32.6757C11.9428 32.628 12.2648 32.4775 12.5591 32.3314C12.9782 32.1234 13.4155 31.947 13.7419 31.5964C14.4094 30.8796 14.6659 29.34 13.65 28.8069C13.1231 28.5304 12.5374 28.625 11.9737 28.6297ZM10.1777 29.0953L10.191 29.1086L10.1777 29.0953Z" fill="#C56AFF"/>
<path d="M11.2547 29.4471C10.5653 29.5546 10.124 30.297 10.124 30.9579C10.124 31.4734 10.4972 31.9844 11.0552 31.9119C11.7221 31.8253 12.2341 31.0291 12.1819 30.3802C12.1423 29.8893 11.8266 29.358 11.2547 29.4471Z" fill="#C56AFF"/>
<path d="M11.2816 29.4735C10.5926 29.5672 10.1553 30.2651 10.1553 30.9312C10.1553 31.4229 10.4553 31.9516 11.0155 31.8852C11.742 31.7993 12.1274 31.0866 12.1517 30.4124C12.1695 29.9201 11.8258 29.3994 11.2816 29.4735Z" fill="#C56AFF"/>
<path d="M7.33044 30.964C6.35294 31.0511 6.06807 32.3404 6.74507 32.9544C6.84764 33.0475 6.9696 33.1288 7.10427 33.1675C7.23852 33.2062 7.39089 33.2188 7.52999 33.2039C8.19733 33.1325 8.53656 32.3315 8.36229 31.7428C8.27306 31.4413 8.08021 31.2297 7.80937 31.0795C7.66867 31.0014 7.4939 30.9495 7.33044 30.964Z" fill="#C56AFF"/>
<path d="M7.35721 30.9913C7.15718 31.0046 6.94356 31.0583 6.78515 31.1885C6.17185 31.6923 6.28653 32.8357 7.05123 33.1265C7.19012 33.1794 7.36981 33.1901 7.51686 33.1784C8.62612 33.0893 8.65312 31.2824 7.62329 31.0319C7.53825 31.0112 7.4457 30.9856 7.35721 30.9913ZM9.49912 31.8892L9.51243 31.9025L9.49912 31.8892Z" fill="#C56AFF"/>
<path d="M9.55176 31.9557L9.56506 31.969L9.55176 31.9557ZM21.871 32.1475C21.556 32.1894 21.2411 32.2552 20.9531 32.3944C20.3371 32.6925 19.8647 33.252 19.5001 33.8182C18.764 34.9617 18.4363 36.4204 18.673 37.7694C18.8263 38.6426 19.2694 39.5709 20.075 40.0136C20.3915 40.1875 20.7463 40.2524 21.0994 40.2861C21.3678 40.3117 21.6372 40.2877 21.8977 40.2189C22.7648 39.9898 23.5032 39.3124 23.9373 38.5411C24.0228 38.3891 24.1161 38.2413 24.2011 38.0887C24.251 37.9993 24.3032 37.9123 24.2587 37.8093C24.1879 37.6461 24.0034 37.4952 23.8799 37.3703C23.726 37.2145 23.524 36.8934 23.2946 36.8559C23.05 36.816 22.9067 37.1661 22.8048 37.3304C22.5448 37.7503 22.2237 38.3814 21.6582 38.3814C21.5808 38.3814 21.4916 38.3939 21.4187 38.3633C21.0601 38.2127 21.0317 37.6482 21.0051 37.3171C20.9334 36.425 21.0909 35.4636 21.4818 34.6564C21.6356 34.3388 21.8568 33.9127 22.2702 33.9385C22.4665 33.9509 22.3965 34.2896 22.3755 34.4169C22.3413 34.6234 22.294 34.8273 22.238 35.0289C22.1685 35.2784 22.0773 35.5329 22.3633 35.6885C22.4894 35.7571 22.6895 35.7207 22.8289 35.7207H23.84C24.0301 35.7207 24.1983 35.734 24.3217 35.561C24.3954 35.4578 24.4127 35.323 24.436 35.2018C24.479 34.9795 24.5132 34.7768 24.5186 34.5499C24.5271 34.2047 24.5216 33.8821 24.398 33.5521C24.0201 32.5444 22.9123 32.0092 21.871 32.1475Z" fill="#C56AFF"/>
<path d="M21.8045 32.1876C20.8163 32.3221 20.125 32.9119 19.5828 33.7251C18.7965 34.9045 18.4645 36.4197 18.7128 37.8227C18.8356 38.5158 19.1469 39.2318 19.6759 39.7096C20.2641 40.2408 21.1869 40.3773 21.9375 40.179C22.7896 39.9539 23.4536 39.3047 23.8985 38.5677C24.0121 38.3794 24.327 38.0145 24.2169 37.7828C24.141 37.6234 23.9809 37.4991 23.8643 37.3704C23.7298 37.2216 23.5468 36.9621 23.3477 36.9021C23.0646 36.8166 22.9256 37.166 22.8103 37.357C22.6054 37.6966 22.3631 38.1219 22.0041 38.3177C21.8378 38.4083 21.618 38.4703 21.432 38.395C21.083 38.2537 21.0278 37.7857 20.9891 37.4635C20.8811 36.5623 21.0265 35.5608 21.4158 34.7362C21.5625 34.4253 21.8203 33.8962 22.2302 33.9026C22.468 33.9063 22.4371 34.2049 22.4147 34.3637C22.3702 34.6811 22.2456 34.9809 22.1962 35.295C22.1731 35.4409 22.2113 35.5821 22.35 35.6552C22.4693 35.7182 22.6702 35.6808 22.8023 35.6808H23.8799C24.0471 35.6808 24.2154 35.7029 24.3119 35.5344C24.4613 35.2733 24.4663 34.8943 24.4791 34.6032C24.4949 34.2416 24.4941 33.8989 24.3709 33.5522C23.9992 32.5065 22.8504 32.0451 21.8045 32.1876Z" fill="#FEFDFE"/>
<path d="M32.5281 34.4035C32.5281 35.1745 32.5015 35.9538 32.5003 36.7184C32.5002 36.7752 32.4648 36.8319 32.4621 36.8913C32.4362 37.4794 32.4084 38.0726 32.4084 38.6607C32.4084 39.0105 32.3823 39.3623 32.3817 39.7117C32.3815 39.8449 32.3505 40.0137 32.4395 40.1242C32.6084 40.3336 32.7835 40.285 33.0203 40.2838C33.4397 40.2818 33.8679 40.3072 34.2842 40.2547C34.4135 40.2384 34.5312 40.1134 34.5645 39.9911C34.5946 39.881 34.5171 39.8574 34.4913 39.765C34.4774 39.7149 34.5229 39.6692 34.5203 39.6186C34.5181 39.5751 34.4815 39.5425 34.4831 39.4989C34.4869 39.3911 34.4743 39.2505 34.4917 39.1453C34.503 39.077 34.5584 39.0072 34.5648 38.9401C34.5692 38.8934 34.5222 38.8556 34.5198 38.8071C34.5163 38.7423 34.5465 38.6811 34.5423 38.6208C34.5367 38.5418 34.4883 38.4459 34.4981 38.3681C34.5034 38.3252 34.5367 38.2925 34.5388 38.2483C34.5421 38.181 34.5016 38.1162 34.5062 38.0488C34.5151 37.9184 34.6457 37.8467 34.6559 37.7295C34.6633 37.6439 34.6181 37.5793 34.6167 37.5033C34.6159 37.4626 34.6506 37.4254 34.6552 37.3836C34.6685 37.2637 34.6668 37.1317 34.6699 37.0111C34.6926 36.0764 34.7498 35.1384 34.7498 34.204C35.1138 34.204 35.4767 34.1646 35.8407 34.1641C35.9903 34.1638 36.2233 34.1846 36.3463 34.0905C36.6411 33.8647 36.5112 33.2812 36.5337 32.9534C36.5437 32.8076 36.5731 32.632 36.5388 32.4878C36.5132 32.3808 36.4043 32.2695 36.3064 32.2242C36.1584 32.1559 35.97 32.2066 35.8141 32.2084C35.4242 32.2129 35.032 32.2072 34.6434 32.2338C34.3006 32.2574 33.9493 32.2334 33.6057 32.235C33.1451 32.2373 32.6825 32.2635 32.2221 32.2748C31.8685 32.2835 31.5105 32.2647 31.1578 32.2894C31.002 32.3003 30.8421 32.387 30.7866 32.541C30.7262 32.7092 30.7474 32.9359 30.7454 33.1131C30.7419 33.4016 30.7221 33.6815 30.7188 33.9645C30.7165 34.1502 30.6463 34.3977 30.7866 34.5497C30.9606 34.7379 31.1518 34.655 31.3707 34.6137C31.6047 34.5698 31.8415 34.5344 32.0758 34.4905C32.2248 34.4626 32.3764 34.4101 32.5281 34.4035Z" fill="#C56AFF"/>
<path d="M35.8402 32.2406C35.4734 32.2888 35.0795 32.2573 34.7094 32.2617C33.8701 32.2716 33.0189 32.2563 32.1817 32.3137C31.9281 32.3311 31.664 32.3282 31.4101 32.3282C31.2794 32.3282 31.1211 32.3038 30.9976 32.3539C30.7857 32.4397 30.8135 32.6215 30.7958 32.8071C30.7666 33.1146 30.7799 33.4212 30.7799 33.7251C30.7799 33.8327 30.7478 33.9475 30.745 34.0577C30.7411 34.217 30.7027 34.4403 30.8259 34.5619C30.9438 34.678 31.0922 34.6401 31.2371 34.6111C31.5289 34.5527 31.8237 34.5097 32.1152 34.4515C32.1964 34.4352 32.4839 34.3293 32.5443 34.3957C32.6174 34.4759 32.5542 34.7034 32.5542 34.8027C32.554 35.1934 32.5554 35.5843 32.5288 35.9734C32.5117 36.2213 32.5411 36.4739 32.5304 36.7184C32.4959 37.5068 32.4344 38.3053 32.4344 39.0998C32.4344 39.3445 32.4211 39.5871 32.4211 39.8315C32.4211 39.9488 32.4042 40.0695 32.4905 40.1629C32.624 40.3075 32.8583 40.2571 33.0331 40.2451C33.4587 40.216 33.9021 40.2942 34.3236 40.2128C34.4637 40.1858 34.5652 40.0228 34.5309 39.8847C34.5189 39.8362 34.4755 39.8005 34.4669 39.7517C34.4595 39.7102 34.4884 39.6729 34.4893 39.6319C34.4905 39.5805 34.4553 39.5383 34.4591 39.4856C34.4677 39.3712 34.4514 39.2536 34.4649 39.1397C34.4733 39.0691 34.5141 38.9962 34.5166 38.9268C34.519 38.8629 34.4819 38.793 34.4775 38.7273C34.4671 38.5712 34.4977 38.4039 34.5062 38.2484C34.5098 38.1806 34.4727 38.1164 34.4791 38.0488C34.4905 37.9263 34.5934 37.8651 34.6132 37.7561C34.6298 37.6647 34.5907 37.5894 34.5885 37.5033C34.5859 37.4117 34.6109 37.2934 34.6175 37.1974C34.6672 36.4711 34.6816 35.7305 34.6828 35.0022C34.6831 34.8055 34.6885 34.5995 34.7071 34.4036C34.7133 34.3386 34.6906 34.2475 34.7417 34.1964C34.8086 34.1295 35.0557 34.1512 35.1484 34.1508C35.4478 34.1493 35.7552 34.1415 36.0531 34.1131C36.2093 34.0982 36.3404 34.1255 36.4318 33.9645C36.5051 33.8354 36.4785 33.6547 36.4788 33.5122C36.4792 33.2464 36.5054 32.9802 36.5054 32.714C36.5054 32.5759 36.5246 32.4393 36.4212 32.3307C36.2903 32.1929 36.0145 32.2179 35.8402 32.2406Z" fill="#FEFDFE"/>
<path d="M25.4369 32.282C25.1321 32.3546 25.1567 32.7132 25.1272 32.9534C25.0432 33.6347 24.998 34.3211 24.9143 35.0022C24.819 35.7765 24.7717 36.5505 24.7717 37.3304C24.7717 37.786 24.7624 38.2555 24.8732 38.7007C25.0296 39.3298 25.3755 39.9144 26.0222 40.1361C26.3095 40.2346 26.6127 40.2766 26.9136 40.2839C27.253 40.2923 27.5893 40.305 27.9247 40.2379C28.2305 40.1767 28.5437 40.089 28.816 39.9342C29.0268 39.8143 29.2256 39.6798 29.4014 39.5117C30.4721 38.4879 30.4391 36.9023 30.4391 35.5344C30.4391 35.2366 30.4586 34.9405 30.4658 34.643C30.4793 34.0985 30.4829 33.5356 30.5345 32.9933C30.5595 32.7302 30.5866 32.4227 30.2927 32.2953C30.1731 32.2435 29.9954 32.2749 29.867 32.2749H29.0289C28.8289 32.2749 28.6544 32.2679 28.5345 32.4612C28.4523 32.5938 28.4719 32.8159 28.4701 32.9667C28.4665 33.2597 28.4307 33.5509 28.4302 33.8448C28.4295 34.2966 28.3706 34.7505 28.3509 35.2018C28.3292 35.6956 28.3326 36.2008 28.2744 36.6918C28.2172 37.1739 28.2759 38.0376 27.6453 38.1491C27.5367 38.1682 27.4095 38.1749 27.2994 38.1673C27.0184 38.148 26.9526 37.9502 26.9084 37.7029C26.8346 37.2882 26.9298 36.8669 26.9401 36.4523C26.9639 35.4756 27.0859 34.5001 27.1542 33.5255C27.1713 33.2819 27.1962 33.0375 27.2068 32.7938C27.2112 32.6922 27.243 32.5808 27.1833 32.4878C27.1306 32.4059 27.0249 32.3022 26.9269 32.2801C26.6528 32.2185 26.3036 32.2749 26.0222 32.2749C25.8394 32.2749 25.6149 32.2397 25.4369 32.282Z" fill="#C56AFF"/>
<path d="M25.4106 32.3223C25.147 32.3914 25.1808 32.7699 25.1557 32.9801C25.0732 33.6704 25.026 34.3654 24.9412 35.0555C24.808 36.1383 24.7443 37.2667 24.8495 38.3548C24.9025 38.9016 25.0962 39.4975 25.5436 39.8492C25.9543 40.1722 26.4242 40.1853 26.9139 40.2495C27.2694 40.2962 27.6829 40.262 28.0314 40.1851C28.3297 40.1191 28.616 40.0231 28.8829 39.8733C29.0684 39.769 29.2458 39.643 29.4017 39.4977C30.4753 38.4977 30.3995 36.8332 30.3995 35.4945C30.3995 35.2289 30.415 34.9615 30.4266 34.6963C30.4522 34.1121 30.4989 33.5247 30.5059 32.9402C30.5086 32.7173 30.567 32.439 30.3064 32.3312C30.1913 32.2836 30.017 32.3149 29.8939 32.3149H28.9893C28.8435 32.3149 28.6864 32.2895 28.5874 32.4218C28.4948 32.5457 28.5121 32.7524 28.5103 32.9002C28.507 33.1754 28.4704 33.449 28.4704 33.7251C28.4704 34.1891 28.4235 34.6593 28.3918 35.122C28.357 35.6316 28.3494 36.1424 28.312 36.6519C28.2747 37.1602 28.2837 38.0661 27.6323 38.1808C27.5446 38.1961 27.4418 38.2102 27.3529 38.2057C27.0435 38.1897 26.93 37.9822 26.8796 37.7029C26.8077 37.3046 26.8906 36.9171 26.9005 36.5189C26.9244 35.541 27.0226 34.5526 27.1157 33.5787C27.1394 33.3312 27.1454 33.0814 27.1689 32.8337C27.1809 32.7076 27.2084 32.5575 27.1295 32.4479C27.0202 32.2961 26.8672 32.3149 26.701 32.3149H25.8363C25.7038 32.3149 25.5391 32.2885 25.4106 32.3223Z" fill="#FEFDFE"/>
<path d="M1.68945 32.8737L1.70276 32.887L1.68945 32.8737ZM46.297 32.8737L46.3103 32.887L46.297 32.8737ZM1.71606 32.9402L1.72936 32.9535L1.71606 32.9402ZM46.2704 32.9402L46.2837 32.9535L46.2704 32.9402Z" fill="#C56AFF"/>
<path d="M23.3478 34.1774L23.401 34.1241L23.3478 34.1774ZM9.93759 34.5435C9.74606 34.572 9.72296 34.8984 9.93758 34.866C10.1075 34.8402 10.1497 34.512 9.93759 34.5435Z" fill="#C56AFF"/>
<path d="M9.92458 34.5714C9.7654 34.5989 9.76349 34.8858 9.95099 34.8383C10.0888 34.8034 10.1048 34.5403 9.92458 34.5714Z" fill="#C56AFF"/>
<path d="M2.6875 35.0554L2.70136 35.0693L2.6875 35.0554Z" fill="#C56AFF"/>
<path d="M8.91307 35.3924C8.81762 35.4186 8.77177 35.5471 8.74081 35.6275C8.65439 35.8519 8.56559 36.0745 8.49701 36.306C8.20189 37.3023 8.09259 38.3166 8.17717 39.3526C8.20228 39.6599 8.2511 39.9776 8.34641 40.2705C8.37849 40.3691 8.45839 40.5462 8.59378 40.515C8.73797 40.482 8.78538 40.3276 8.80304 40.204C8.85007 39.8749 8.89054 39.5451 8.95564 39.2195C9.09995 38.4978 9.25241 37.7602 9.49759 37.0643C9.59699 36.7821 9.70668 36.5046 9.81315 36.2262C9.84668 36.1385 9.93037 36.046 9.92717 35.9468C9.92445 35.8627 9.81544 35.8114 9.75121 35.7806C9.57307 35.6952 9.3273 35.7057 9.16586 35.5904C9.1032 35.5457 9.00214 35.3681 8.91307 35.3924Z" fill="#C56AFF"/>
<path d="M8.91389 35.4393C8.816 35.467 8.78464 35.586 8.75048 35.6675C8.65851 35.8867 8.57804 36.1171 8.51292 36.3459C8.22997 37.3399 8.13896 38.3251 8.20912 39.3526C8.22927 39.6475 8.26778 39.9781 8.36777 40.2573C8.405 40.3612 8.46531 40.5147 8.6079 40.4776C8.75296 40.4399 8.76422 40.2719 8.78085 40.1508C8.82542 39.8263 8.87423 39.5017 8.93284 39.1796C9.06351 38.4615 9.237 37.7263 9.48186 37.0377C9.57404 36.7784 9.67431 36.523 9.77241 36.2661C9.80888 36.1706 9.89539 36.0667 9.89133 35.9601C9.88798 35.8719 9.78598 35.8155 9.71212 35.793C9.54269 35.7414 9.30859 35.7163 9.16666 35.6072C9.10185 35.5573 9.01022 35.412 8.91389 35.4393Z" fill="#FEFDFE"/>
<path d="M32.781 38.6342C32.7693 38.6781 32.7682 38.7017 32.8076 38.7273V38.6342H32.781ZM32.7544 39.1929C32.7355 39.2489 32.7107 39.3156 32.7677 39.3526L32.781 39.1929H32.7544Z" fill="#C56AFF"/>
<path d="M15.0469 46.2705L15.0602 46.2838L15.0469 46.2705ZM32.9404 46.2705L32.9537 46.2838L32.9404 46.2705ZM15.1134 46.2971L15.1267 46.3104L15.1134 46.2971ZM32.8739 46.2971L32.8872 46.3104L32.8739 46.2971ZM19.4238 47.561L19.4371 47.5743L19.4238 47.561ZM28.5635 47.561L28.5768 47.5743L28.5635 47.561Z" fill="#C56AFF"/>
</g>
<defs>
<clipPath id="clip0_1216_6344">
<rect width="48" height="48" fill="white"/>
</clipPath>
</defs>
</svg>
