<svg width="258" height="345" viewBox="0 0 258 345" fill="none" xmlns="http://www.w3.org/2000/svg">
<path d="M246.762 11.5176C246.519 8.48112 244.039 6.10851 240.995 5.99986L78.544 0.201938C75.3674 0.0885656 72.6536 2.47219 72.3563 5.63684L68.6165 45.4387C68.2858 48.9586 71.0548 52 74.5902 52H243.501C247.003 52 249.761 49.0127 249.482 45.5216L246.762 11.5176Z" fill="url(#paint0_linear_1425_607)"/>
<path d="M104.56 19.432H93.168V24.808H102.16V28.36H93.168V37H88.752V15.88H104.56V19.432ZM117.247 15.56C119.338 15.56 121.14 15.9973 122.655 16.872C124.17 17.7467 125.332 18.9947 126.143 20.616C126.975 22.2373 127.391 24.1787 127.391 26.44C127.391 28.7013 126.975 30.6427 126.143 32.264C125.332 33.8853 124.17 35.1333 122.655 36.008C121.14 36.8827 119.338 37.32 117.247 37.32C115.156 37.32 113.343 36.8827 111.807 36.008C110.292 35.1333 109.119 33.8853 108.287 32.264C107.476 30.6427 107.071 28.7013 107.071 26.44C107.071 24.1787 107.476 22.2373 108.287 20.616C109.119 18.9947 110.292 17.7467 111.807 16.872C113.343 15.9973 115.156 15.56 117.247 15.56ZM117.247 19.176C116.052 19.176 115.039 19.4533 114.207 20.008C113.375 20.5627 112.735 21.384 112.287 22.472C111.86 23.5387 111.647 24.8613 111.647 26.44C111.647 27.9973 111.86 29.32 112.287 30.408C112.735 31.496 113.375 32.3173 114.207 32.872C115.039 33.4267 116.052 33.704 117.247 33.704C118.42 33.704 119.423 33.4267 120.255 32.872C121.087 32.3173 121.716 31.496 122.143 30.408C122.591 29.32 122.815 27.9973 122.815 26.44C122.815 24.8613 122.591 23.5387 122.143 22.472C121.716 21.384 121.087 20.5627 120.255 20.008C119.423 19.4533 118.42 19.176 117.247 19.176ZM141.158 15.88C143.547 15.88 145.424 16.456 146.79 17.608C148.155 18.76 148.838 20.3067 148.838 22.248C148.838 24.3173 148.155 25.9067 146.79 27.016C145.424 28.104 143.558 28.648 141.19 28.648L140.742 28.904H136.198V37H131.846V15.88H141.158ZM140.646 25.544C141.883 25.544 142.8 25.2987 143.398 24.808C144.016 24.296 144.326 23.5173 144.326 22.472C144.326 21.4267 144.016 20.6587 143.398 20.168C142.8 19.656 141.883 19.4 140.646 19.4H136.198V25.544H140.646ZM143.238 26.472L150.086 37H145.126L139.462 27.752L143.238 26.472ZM186.353 15.88V37H182.353V25.992L182.577 19.816H182.513L176.657 37H173.041L167.217 19.816H167.153L167.377 25.992V37H163.377V15.88H169.777L173.585 27.4L174.929 32.168H174.993L176.369 27.432L180.145 15.88H186.353ZM191.846 37V15.88H207.686V19.432H196.262V24.68H205.254V28.072H196.262V33.448H208.134V37H191.846ZM230.24 15.88V37H225.184L217.792 24.584L215.968 21.128H215.936L216.064 24.776V37H212.096V15.88H217.12L224.512 28.264L226.336 31.752H226.4L226.272 28.104V15.88H230.24Z" fill="white"/>
<path d="M78.657 74.52V93H74.793V74.52H78.657ZM66.645 74.52V93H62.781V74.52H66.645ZM76.809 82.108V85.216H64.713V82.108H76.809ZM90.9589 84.068C90.9589 83.2653 90.7256 82.64 90.2589 82.192C89.8109 81.744 89.2136 81.52 88.4669 81.52C87.7762 81.52 87.1696 81.6973 86.6469 82.052C86.1242 82.4067 85.7416 82.9947 85.4989 83.816L82.2229 82.808C82.5402 81.576 83.2309 80.5867 84.2949 79.84C85.3776 79.0933 86.8242 78.72 88.6349 78.72C89.8669 78.72 90.9402 78.916 91.8549 79.308C92.7696 79.6813 93.4789 80.2507 93.9829 81.016C94.5056 81.7813 94.7669 82.7427 94.7669 83.9V89.584C94.7669 90.2933 95.1029 90.648 95.7749 90.648C96.0922 90.648 96.3909 90.6013 96.6709 90.508L96.4469 92.888C95.9616 93.1307 95.3549 93.252 94.6269 93.252C93.9736 93.252 93.3856 93.14 92.8629 92.916C92.3402 92.692 91.9296 92.356 91.6309 91.908C91.3322 91.4413 91.1829 90.8627 91.1829 90.172V90.06L91.8549 89.948C91.7429 90.6573 91.4349 91.264 90.9309 91.768C90.4269 92.2533 89.8109 92.6267 89.0829 92.888C88.3736 93.1493 87.6362 93.28 86.8709 93.28C85.9189 93.28 85.0976 93.14 84.4069 92.86C83.7162 92.5613 83.1842 92.132 82.8109 91.572C82.4376 91.012 82.2509 90.3213 82.2509 89.5C82.2509 88.4547 82.5869 87.6053 83.2589 86.952C83.9309 86.28 84.8922 85.8227 86.1429 85.58L91.4069 84.516L91.3789 86.896L88.0189 87.568C87.3842 87.6987 86.8989 87.876 86.5629 88.1C86.2456 88.3053 86.0869 88.6507 86.0869 89.136C86.0869 89.6027 86.2549 89.9573 86.5909 90.2C86.9456 90.4427 87.3656 90.564 87.8509 90.564C88.2429 90.564 88.6256 90.5173 88.9989 90.424C89.3722 90.3307 89.7082 90.1813 90.0069 89.976C90.3056 89.7707 90.5389 89.4907 90.7069 89.136C90.8749 88.7813 90.9589 88.352 90.9589 87.848V84.068ZM100.989 76.984C100.186 76.984 99.589 76.816 99.197 76.48C98.805 76.1253 98.609 75.612 98.609 74.94C98.609 74.2493 98.805 73.736 99.197 73.4C99.589 73.0453 100.186 72.868 100.989 72.868C101.792 72.868 102.389 73.0453 102.781 73.4C103.173 73.736 103.369 74.2493 103.369 74.94C103.369 75.612 103.173 76.1253 102.781 76.48C102.389 76.816 101.792 76.984 100.989 76.984ZM102.893 79V93H99.057V79H102.893ZM106.959 93V79H110.291L110.543 81.744C110.917 80.7733 111.458 80.0267 112.167 79.504C112.895 78.9813 113.801 78.72 114.883 78.72C115.201 78.72 115.49 78.748 115.751 78.804C116.013 78.86 116.227 78.9347 116.395 79.028L115.947 82.248C115.761 82.1733 115.527 82.1173 115.247 82.08C114.986 82.0427 114.641 82.024 114.211 82.024C113.651 82.024 113.11 82.164 112.587 82.444C112.065 82.7053 111.635 83.116 111.299 83.676C110.963 84.2173 110.795 84.908 110.795 85.748V93H106.959ZM124.854 78.72C126.105 78.72 127.16 78.9067 128.018 79.28C128.896 79.6347 129.596 80.1293 130.118 80.764C130.66 81.38 131.042 82.0707 131.266 82.836L127.682 84.124C127.496 83.284 127.178 82.6493 126.73 82.22C126.282 81.7907 125.676 81.576 124.91 81.576C124.201 81.576 123.594 81.744 123.09 82.08C122.586 82.3973 122.204 82.892 121.942 83.564C121.681 84.2173 121.55 85.0387 121.55 86.028C121.55 87.0173 121.681 87.8387 121.942 88.492C122.222 89.1453 122.614 89.6307 123.118 89.948C123.641 90.2653 124.248 90.424 124.938 90.424C125.498 90.424 125.974 90.3307 126.366 90.144C126.758 89.9387 127.076 89.6493 127.318 89.276C127.58 88.9027 127.757 88.4547 127.85 87.932L131.322 89.052C131.117 89.892 130.734 90.6293 130.174 91.264C129.614 91.8987 128.896 92.3933 128.018 92.748C127.141 93.1027 126.124 93.28 124.966 93.28C123.529 93.28 122.26 92.9907 121.158 92.412C120.057 91.8333 119.208 91.0027 118.61 89.92C118.013 88.8373 117.714 87.5307 117.714 86C117.714 84.4693 118.013 83.1627 118.61 82.08C119.208 80.9973 120.048 80.1667 121.13 79.588C122.213 79.0093 123.454 78.72 124.854 78.72ZM139.175 93.28C138.242 93.28 137.402 93.112 136.655 92.776C135.908 92.44 135.311 91.908 134.863 91.18C134.434 90.4333 134.219 89.472 134.219 88.296V79H138.055V87.372C138.055 88.4547 138.279 89.2107 138.727 89.64C139.175 90.0507 139.819 90.256 140.659 90.256C141.051 90.256 141.434 90.1907 141.807 90.06C142.18 89.9107 142.507 89.6867 142.787 89.388C143.086 89.0893 143.319 88.7067 143.487 88.24C143.655 87.7547 143.739 87.1853 143.739 86.532V79H147.575V93H144.159L144.019 90.564C143.552 91.4973 142.908 92.188 142.087 92.636C141.284 93.0653 140.314 93.28 139.175 93.28ZM156.568 74.716V88.436C156.568 89.108 156.736 89.6027 157.072 89.92C157.426 90.2187 157.902 90.368 158.5 90.368C158.966 90.368 159.377 90.3027 159.732 90.172C160.086 90.0227 160.404 89.8267 160.684 89.584L161.3 92.132C160.852 92.4867 160.292 92.7667 159.62 92.972C158.948 93.1773 158.238 93.28 157.492 93.28C156.558 93.28 155.728 93.14 155 92.86C154.29 92.58 153.73 92.132 153.32 91.516C152.928 90.9 152.732 90.0787 152.732 89.052V75.78L156.568 74.716ZM161.048 79V81.856H150.156V79H161.048Z" fill="#1F0033"/>
<path d="M76.449 126.628H66.481V131.332H74.349V134.44H66.481V142H62.617V123.52H76.449V126.628ZM86.037 133.068C86.037 132.265 85.8037 131.64 85.337 131.192C84.889 130.744 84.2917 130.52 83.545 130.52C82.8543 130.52 82.2477 130.697 81.725 131.052C81.2023 131.407 80.8197 131.995 80.577 132.816L77.301 131.808C77.6183 130.576 78.309 129.587 79.373 128.84C80.4557 128.093 81.9023 127.72 83.713 127.72C84.945 127.72 86.0183 127.916 86.933 128.308C87.8477 128.681 88.557 129.251 89.061 130.016C89.5837 130.781 89.845 131.743 89.845 132.9V138.584C89.845 139.293 90.181 139.648 90.853 139.648C91.1703 139.648 91.469 139.601 91.749 139.508L91.525 141.888C91.0397 142.131 90.433 142.252 89.705 142.252C89.0517 142.252 88.4637 142.14 87.941 141.916C87.4183 141.692 87.0077 141.356 86.709 140.908C86.4103 140.441 86.261 139.863 86.261 139.172V139.06L86.933 138.948C86.821 139.657 86.513 140.264 86.009 140.768C85.505 141.253 84.889 141.627 84.161 141.888C83.4517 142.149 82.7143 142.28 81.949 142.28C80.997 142.28 80.1757 142.14 79.485 141.86C78.7943 141.561 78.2623 141.132 77.889 140.572C77.5157 140.012 77.329 139.321 77.329 138.5C77.329 137.455 77.665 136.605 78.337 135.952C79.009 135.28 79.9703 134.823 81.221 134.58L86.485 133.516L86.457 135.896L83.097 136.568C82.4623 136.699 81.977 136.876 81.641 137.1C81.3237 137.305 81.165 137.651 81.165 138.136C81.165 138.603 81.333 138.957 81.669 139.2C82.0237 139.443 82.4437 139.564 82.929 139.564C83.321 139.564 83.7037 139.517 84.077 139.424C84.4503 139.331 84.7863 139.181 85.085 138.976C85.3837 138.771 85.617 138.491 85.785 138.136C85.953 137.781 86.037 137.352 86.037 136.848V133.068ZM100.436 127.72C101.687 127.72 102.742 127.907 103.6 128.28C104.478 128.635 105.178 129.129 105.7 129.764C106.242 130.38 106.624 131.071 106.848 131.836L103.264 133.124C103.078 132.284 102.76 131.649 102.312 131.22C101.864 130.791 101.258 130.576 100.492 130.576C99.7831 130.576 99.1765 130.744 98.6725 131.08C98.1685 131.397 97.7858 131.892 97.5245 132.564C97.2631 133.217 97.1325 134.039 97.1325 135.028C97.1325 136.017 97.2631 136.839 97.5245 137.492C97.8045 138.145 98.1965 138.631 98.7005 138.948C99.2231 139.265 99.8298 139.424 100.52 139.424C101.08 139.424 101.556 139.331 101.948 139.144C102.34 138.939 102.658 138.649 102.9 138.276C103.162 137.903 103.339 137.455 103.432 136.932L106.904 138.052C106.699 138.892 106.316 139.629 105.756 140.264C105.196 140.899 104.478 141.393 103.6 141.748C102.723 142.103 101.706 142.28 100.548 142.28C99.1111 142.28 97.8418 141.991 96.7405 141.412C95.6391 140.833 94.7898 140.003 94.1925 138.92C93.5951 137.837 93.2965 136.531 93.2965 135C93.2965 133.469 93.5951 132.163 94.1925 131.08C94.7898 129.997 95.6298 129.167 96.7125 128.588C97.7951 128.009 99.0365 127.72 100.436 127.72ZM111.817 125.984C111.014 125.984 110.417 125.816 110.025 125.48C109.633 125.125 109.437 124.612 109.437 123.94C109.437 123.249 109.633 122.736 110.025 122.4C110.417 122.045 111.014 121.868 111.817 121.868C112.62 121.868 113.217 122.045 113.609 122.4C114.001 122.736 114.197 123.249 114.197 123.94C114.197 124.612 114.001 125.125 113.609 125.48C113.217 125.816 112.62 125.984 111.817 125.984ZM113.721 128V142H109.885V128H113.721ZM125.767 133.068C125.767 132.265 125.534 131.64 125.067 131.192C124.619 130.744 124.022 130.52 123.275 130.52C122.585 130.52 121.978 130.697 121.455 131.052C120.933 131.407 120.55 131.995 120.307 132.816L117.031 131.808C117.349 130.576 118.039 129.587 119.103 128.84C120.186 128.093 121.633 127.72 123.443 127.72C124.675 127.72 125.749 127.916 126.663 128.308C127.578 128.681 128.287 129.251 128.791 130.016C129.314 130.781 129.575 131.743 129.575 132.9V138.584C129.575 139.293 129.911 139.648 130.583 139.648C130.901 139.648 131.199 139.601 131.479 139.508L131.255 141.888C130.77 142.131 130.163 142.252 129.435 142.252C128.782 142.252 128.194 142.14 127.671 141.916C127.149 141.692 126.738 141.356 126.439 140.908C126.141 140.441 125.991 139.863 125.991 139.172V139.06L126.663 138.948C126.551 139.657 126.243 140.264 125.739 140.768C125.235 141.253 124.619 141.627 123.891 141.888C123.182 142.149 122.445 142.28 121.679 142.28C120.727 142.28 119.906 142.14 119.215 141.86C118.525 141.561 117.993 141.132 117.619 140.572C117.246 140.012 117.059 139.321 117.059 138.5C117.059 137.455 117.395 136.605 118.067 135.952C118.739 135.28 119.701 134.823 120.951 134.58L126.215 133.516L126.187 135.896L122.827 136.568C122.193 136.699 121.707 136.876 121.371 137.1C121.054 137.305 120.895 137.651 120.895 138.136C120.895 138.603 121.063 138.957 121.399 139.2C121.754 139.443 122.174 139.564 122.659 139.564C123.051 139.564 123.434 139.517 123.807 139.424C124.181 139.331 124.517 139.181 124.815 138.976C125.114 138.771 125.347 138.491 125.515 138.136C125.683 137.781 125.767 137.352 125.767 136.848V133.068ZM137.646 121.868V137.688C137.646 138.341 137.758 138.799 137.982 139.06C138.206 139.321 138.579 139.452 139.102 139.452C139.419 139.452 139.68 139.433 139.886 139.396C140.091 139.34 140.352 139.265 140.67 139.172L140.334 141.692C140.016 141.879 139.615 142.019 139.13 142.112C138.663 142.224 138.196 142.28 137.73 142.28C136.367 142.28 135.368 141.953 134.734 141.3C134.118 140.628 133.81 139.564 133.81 138.108V121.868H137.646Z" fill="#1F0033"/>
<path d="M62.5877 191V172.52H70.6797C72.9197 172.52 74.5717 172.959 75.6357 173.836C76.6997 174.713 77.2317 175.955 77.2317 177.56C77.2317 178.549 76.933 179.427 76.3357 180.192C75.7384 180.957 74.861 181.443 73.7037 181.648V181.676C74.9917 181.863 75.981 182.348 76.6717 183.132C77.3624 183.916 77.7077 184.849 77.7077 185.932C77.7077 187.519 77.129 188.76 75.9717 189.656C74.833 190.552 73.1624 191 70.9597 191H62.5877ZM66.3397 188.088H70.6237C71.669 188.088 72.4437 187.873 72.9477 187.444C73.4517 187.015 73.7037 186.417 73.7037 185.652C73.7037 184.868 73.4517 184.271 72.9477 183.86C72.4437 183.449 71.669 183.244 70.6237 183.244H66.3397V188.088ZM66.3397 180.276H70.1757C72.2104 180.276 73.2277 179.483 73.2277 177.896C73.2277 176.309 72.2104 175.516 70.1757 175.516H66.3397V180.276ZM87.5042 191.28C86.0295 191.28 84.7415 190.991 83.6402 190.412C82.5575 189.833 81.7175 189.003 81.1202 187.92C80.5229 186.837 80.2242 185.531 80.2242 184C80.2242 182.469 80.5229 181.163 81.1202 180.08C81.7175 178.997 82.5482 178.167 83.6122 177.588C84.6949 177.009 85.9269 176.72 87.3082 176.72C88.7269 176.72 89.9309 177.009 90.9202 177.588C91.9095 178.148 92.6655 178.923 93.1882 179.912C93.7109 180.883 93.9722 181.993 93.9722 183.244C93.9722 183.617 93.9629 183.972 93.9442 184.308C93.9255 184.644 93.8975 184.943 93.8602 185.204H82.6882V182.544H92.1802L90.3322 183.216C90.3322 182.04 90.0615 181.135 89.5202 180.5C88.9975 179.865 88.2509 179.548 87.2802 179.548C86.5709 179.548 85.9549 179.716 85.4322 180.052C84.9282 180.388 84.5455 180.892 84.2842 181.564C84.0229 182.217 83.8922 183.048 83.8922 184.056C83.8922 185.045 84.0322 185.867 84.3122 186.52C84.6109 187.155 85.0215 187.631 85.5442 187.948C86.0855 188.265 86.7295 188.424 87.4762 188.424C88.2975 188.424 88.9602 188.265 89.4642 187.948C89.9682 187.631 90.3602 187.192 90.6402 186.632L93.6922 187.808C93.3935 188.536 92.9362 189.161 92.3202 189.684C91.7229 190.207 91.0042 190.608 90.1642 190.888C89.3429 191.149 88.4562 191.28 87.5042 191.28ZM105.203 182.068C105.203 181.265 104.97 180.64 104.503 180.192C104.055 179.744 103.458 179.52 102.711 179.52C102.02 179.52 101.414 179.697 100.891 180.052C100.368 180.407 99.9857 180.995 99.743 181.816L96.467 180.808C96.7844 179.576 97.475 178.587 98.539 177.84C99.6217 177.093 101.068 176.72 102.879 176.72C104.111 176.72 105.184 176.916 106.099 177.308C107.014 177.681 107.723 178.251 108.227 179.016C108.75 179.781 109.011 180.743 109.011 181.9V187.584C109.011 188.293 109.347 188.648 110.019 188.648C110.336 188.648 110.635 188.601 110.915 188.508L110.691 190.888C110.206 191.131 109.599 191.252 108.871 191.252C108.218 191.252 107.63 191.14 107.107 190.916C106.584 190.692 106.174 190.356 105.875 189.908C105.576 189.441 105.427 188.863 105.427 188.172V188.06L106.099 187.948C105.987 188.657 105.679 189.264 105.175 189.768C104.671 190.253 104.055 190.627 103.327 190.888C102.618 191.149 101.88 191.28 101.115 191.28C100.163 191.28 99.3417 191.14 98.651 190.86C97.9604 190.561 97.4284 190.132 97.055 189.572C96.6817 189.012 96.495 188.321 96.495 187.5C96.495 186.455 96.831 185.605 97.503 184.952C98.175 184.28 99.1364 183.823 100.387 183.58L105.651 182.516L105.623 184.896L102.263 185.568C101.628 185.699 101.143 185.876 100.807 186.1C100.49 186.305 100.331 186.651 100.331 187.136C100.331 187.603 100.499 187.957 100.835 188.2C101.19 188.443 101.61 188.564 102.095 188.564C102.487 188.564 102.87 188.517 103.243 188.424C103.616 188.331 103.952 188.181 104.251 187.976C104.55 187.771 104.783 187.491 104.951 187.136C105.119 186.781 105.203 186.352 105.203 185.848V182.068ZM113.301 191V177H116.633L116.885 179.744C117.258 178.773 117.8 178.027 118.509 177.504C119.237 176.981 120.142 176.72 121.225 176.72C121.542 176.72 121.832 176.748 122.093 176.804C122.354 176.86 122.569 176.935 122.737 177.028L122.289 180.248C122.102 180.173 121.869 180.117 121.589 180.08C121.328 180.043 120.982 180.024 120.553 180.024C119.993 180.024 119.452 180.164 118.929 180.444C118.406 180.705 117.977 181.116 117.641 181.676C117.305 182.217 117.137 182.908 117.137 183.748V191H113.301ZM130.132 191.28C128.975 191.28 127.939 190.991 127.024 190.412C126.128 189.833 125.419 189.003 124.896 187.92C124.392 186.837 124.14 185.54 124.14 184.028C124.14 182.479 124.411 181.163 124.952 180.08C125.494 178.979 126.222 178.148 127.136 177.588C128.07 177.009 129.115 176.72 130.272 176.72C131.504 176.72 132.522 177.075 133.324 177.784C134.127 178.493 134.65 179.408 134.892 180.528L134.528 180.976V170.868H138.364V191H134.92L134.668 186.744L135.144 186.968C135.014 187.845 134.715 188.611 134.248 189.264C133.782 189.899 133.194 190.393 132.484 190.748C131.775 191.103 130.991 191.28 130.132 191.28ZM131.252 188.34C131.924 188.34 132.503 188.172 132.988 187.836C133.474 187.481 133.847 186.968 134.108 186.296C134.388 185.624 134.528 184.821 134.528 183.888C134.528 182.992 134.398 182.236 134.136 181.62C133.875 180.985 133.502 180.5 133.016 180.164C132.531 179.828 131.962 179.66 131.308 179.66C130.263 179.66 129.442 180.033 128.844 180.78C128.266 181.508 127.976 182.581 127.976 184C127.976 185.419 128.266 186.501 128.844 187.248C129.423 187.976 130.226 188.34 131.252 188.34ZM158.094 172.24C159.774 172.24 161.248 172.529 162.518 173.108C163.787 173.687 164.87 174.545 165.766 175.684L163.61 178.176C162.844 177.205 162.004 176.496 161.09 176.048C160.194 175.581 159.148 175.348 157.954 175.348C157.17 175.348 156.516 175.451 155.994 175.656C155.49 175.861 155.116 176.132 154.874 176.468C154.65 176.804 154.538 177.177 154.538 177.588C154.538 178.092 154.734 178.521 155.126 178.876C155.518 179.212 156.19 179.492 157.142 179.716L160.586 180.5C162.415 180.911 163.722 181.527 164.506 182.348C165.308 183.151 165.71 184.196 165.71 185.484C165.71 186.697 165.392 187.743 164.757 188.62C164.123 189.479 163.236 190.141 162.098 190.608C160.959 191.056 159.652 191.28 158.178 191.28C156.89 191.28 155.704 191.131 154.622 190.832C153.558 190.515 152.606 190.085 151.766 189.544C150.926 189.003 150.226 188.377 149.666 187.668L151.85 185.064C152.279 185.661 152.811 186.193 153.446 186.66C154.08 187.127 154.799 187.5 155.602 187.78C156.423 188.041 157.282 188.172 158.178 188.172C158.943 188.172 159.587 188.088 160.11 187.92C160.651 187.733 161.052 187.481 161.314 187.164C161.594 186.828 161.734 186.427 161.734 185.96C161.734 185.475 161.566 185.064 161.23 184.728C160.912 184.373 160.315 184.103 159.438 183.916L155.686 183.076C154.603 182.815 153.67 182.479 152.886 182.068C152.12 181.639 151.532 181.097 151.122 180.444C150.73 179.772 150.534 178.979 150.534 178.064C150.534 176.963 150.832 175.973 151.43 175.096C152.027 174.219 152.886 173.528 154.006 173.024C155.144 172.501 156.507 172.24 158.094 172.24ZM173.929 172.716V186.436C173.929 187.108 174.097 187.603 174.433 187.92C174.788 188.219 175.264 188.368 175.861 188.368C176.328 188.368 176.738 188.303 177.093 188.172C177.448 188.023 177.765 187.827 178.045 187.584L178.661 190.132C178.213 190.487 177.653 190.767 176.981 190.972C176.309 191.177 175.6 191.28 174.853 191.28C173.92 191.28 173.089 191.14 172.361 190.86C171.652 190.58 171.092 190.132 170.681 189.516C170.289 188.9 170.093 188.079 170.093 187.052V173.78L173.929 172.716ZM178.409 177V179.856H167.517V177H178.409ZM194.164 177L188.508 191.868C188.06 193.137 187.556 194.145 186.996 194.892C186.455 195.639 185.82 196.18 185.092 196.516C184.383 196.852 183.534 197.02 182.544 197.02C181.816 197.02 181.144 196.927 180.528 196.74C179.931 196.572 179.408 196.348 178.96 196.068L179.772 193.296C180.127 193.576 180.5 193.772 180.892 193.884C181.284 194.015 181.732 194.08 182.236 194.08C182.759 194.08 183.207 193.968 183.58 193.744C183.972 193.52 184.299 193.072 184.56 192.4L185.036 191.196L183.496 187.556L179.212 177H183.468L186.128 185.4L186.856 188.2L187.724 185.232L190.272 177H194.164ZM200.069 170.868V186.688C200.069 187.341 200.181 187.799 200.405 188.06C200.629 188.321 201.003 188.452 201.525 188.452C201.843 188.452 202.104 188.433 202.309 188.396C202.515 188.34 202.776 188.265 203.093 188.172L202.757 190.692C202.44 190.879 202.039 191.019 201.553 191.112C201.087 191.224 200.62 191.28 200.153 191.28C198.791 191.28 197.792 190.953 197.157 190.3C196.541 189.628 196.233 188.564 196.233 187.108V170.868H200.069ZM207.163 174.984C206.36 174.984 205.763 174.816 205.371 174.48C204.979 174.125 204.783 173.612 204.783 172.94C204.783 172.249 204.979 171.736 205.371 171.4C205.763 171.045 206.36 170.868 207.163 170.868C207.966 170.868 208.563 171.045 208.955 171.4C209.347 171.736 209.543 172.249 209.543 172.94C209.543 173.612 209.347 174.125 208.955 174.48C208.563 174.816 207.966 174.984 207.163 174.984ZM209.067 177V191H205.231V177H209.067ZM213.133 191V177H216.577L216.801 181.2L216.325 180.752C216.549 179.837 216.904 179.081 217.389 178.484C217.875 177.887 218.463 177.448 219.153 177.168C219.863 176.869 220.637 176.72 221.477 176.72C222.448 176.72 223.307 176.907 224.053 177.28C224.819 177.653 225.416 178.223 225.845 178.988C226.293 179.735 226.517 180.677 226.517 181.816V191H222.681V182.908C222.681 181.713 222.448 180.892 221.981 180.444C221.515 179.977 220.908 179.744 220.161 179.744C219.639 179.744 219.125 179.875 218.621 180.136C218.136 180.379 217.735 180.78 217.417 181.34C217.119 181.9 216.969 182.647 216.969 183.58V191H213.133ZM243.377 173.668L243.825 176.412C243.75 176.412 243.666 176.412 243.573 176.412C243.498 176.393 243.414 176.384 243.321 176.384C242.462 176.384 241.818 176.58 241.389 176.972C240.96 177.345 240.745 177.868 240.745 178.54L239.177 177.896C239.177 177.149 239.326 176.459 239.625 175.824C239.924 175.171 240.362 174.648 240.941 174.256C241.538 173.864 242.248 173.668 243.069 173.668C243.106 173.668 243.153 173.668 243.209 173.668C243.265 173.668 243.321 173.668 243.377 173.668ZM238.785 188.368C240.297 188.368 241.464 188.695 242.285 189.348C243.106 190.001 243.517 190.916 243.517 192.092C243.517 193.156 243.209 194.052 242.593 194.78C241.977 195.527 241.109 196.087 239.989 196.46C238.888 196.833 237.609 197.02 236.153 197.02C233.745 197.02 231.981 196.684 230.861 196.012C229.76 195.34 229.209 194.463 229.209 193.38C229.209 192.615 229.498 191.971 230.077 191.448C230.674 190.925 231.654 190.636 233.017 190.58L232.877 191.028C231.906 190.86 231.16 190.543 230.637 190.076C230.133 189.591 229.881 188.928 229.881 188.088C229.881 187.229 230.208 186.529 230.861 185.988C231.533 185.428 232.438 185.101 233.577 185.008L235.257 185.792H234.865C234.062 185.848 233.493 186.016 233.157 186.296C232.84 186.557 232.681 186.856 232.681 187.192C232.681 187.584 232.83 187.883 233.129 188.088C233.446 188.275 233.894 188.368 234.473 188.368H238.785ZM236.181 194.388C237.152 194.388 237.945 194.304 238.561 194.136C239.196 193.968 239.662 193.753 239.961 193.492C240.278 193.231 240.437 192.941 240.437 192.624C240.437 192.269 240.297 191.98 240.017 191.756C239.737 191.551 239.233 191.448 238.505 191.448H233.773C233.325 191.448 232.952 191.56 232.653 191.784C232.373 192.008 232.233 192.316 232.233 192.708C232.233 193.231 232.578 193.641 233.269 193.94C233.978 194.239 234.949 194.388 236.181 194.388ZM236.209 176.72C237.516 176.72 238.645 176.916 239.597 177.308C240.568 177.681 241.305 178.223 241.809 178.932C242.332 179.641 242.593 180.491 242.593 181.48C242.593 182.451 242.332 183.291 241.809 184C241.305 184.709 240.568 185.26 239.597 185.652C238.645 186.025 237.516 186.212 236.209 186.212C234.137 186.212 232.55 185.792 231.449 184.952C230.366 184.093 229.825 182.936 229.825 181.48C229.825 180.491 230.077 179.641 230.581 178.932C231.104 178.223 231.841 177.681 232.793 177.308C233.745 176.916 234.884 176.72 236.209 176.72ZM236.209 179.128C235.462 179.128 234.846 179.333 234.361 179.744C233.876 180.155 233.633 180.724 233.633 181.452C233.633 182.18 233.876 182.759 234.361 183.188C234.846 183.599 235.462 183.804 236.209 183.804C236.956 183.804 237.562 183.599 238.029 183.188C238.514 182.759 238.757 182.18 238.757 181.452C238.757 180.724 238.514 180.155 238.029 179.744C237.562 179.333 236.956 179.128 236.209 179.128Z" fill="#1F0033"/>
<path d="M78.6278 221.52V240H74.7638V221.52H78.6278ZM66.6158 221.52V240H62.7518V221.52H66.6158ZM76.7798 229.108V232.216H64.6838V229.108H76.7798ZM89.4183 240.28C87.9436 240.28 86.6556 239.991 85.5543 239.412C84.4716 238.833 83.6316 238.003 83.0343 236.92C82.4369 235.837 82.1383 234.531 82.1383 233C82.1383 231.469 82.4369 230.163 83.0343 229.08C83.6316 227.997 84.4623 227.167 85.5263 226.588C86.6089 226.009 87.8409 225.72 89.2223 225.72C90.6409 225.72 91.8449 226.009 92.8343 226.588C93.8236 227.148 94.5796 227.923 95.1023 228.912C95.6249 229.883 95.8863 230.993 95.8863 232.244C95.8863 232.617 95.8769 232.972 95.8583 233.308C95.8396 233.644 95.8116 233.943 95.7743 234.204H84.6022V231.544H94.0943L92.2463 232.216C92.2463 231.04 91.9756 230.135 91.4343 229.5C90.9116 228.865 90.1649 228.548 89.1943 228.548C88.4849 228.548 87.8689 228.716 87.3463 229.052C86.8423 229.388 86.4596 229.892 86.1983 230.564C85.9369 231.217 85.8063 232.048 85.8063 233.056C85.8063 234.045 85.9463 234.867 86.2263 235.52C86.5249 236.155 86.9356 236.631 87.4583 236.948C87.9996 237.265 88.6436 237.424 89.3903 237.424C90.2116 237.424 90.8743 237.265 91.3783 236.948C91.8823 236.631 92.2743 236.192 92.5543 235.632L95.6063 236.808C95.3076 237.536 94.8503 238.161 94.2343 238.684C93.6369 239.207 92.9183 239.608 92.0783 239.888C91.2569 240.149 90.3703 240.28 89.4183 240.28ZM107.117 231.068C107.117 230.265 106.884 229.64 106.417 229.192C105.969 228.744 105.372 228.52 104.625 228.52C103.934 228.52 103.328 228.697 102.805 229.052C102.282 229.407 101.9 229.995 101.657 230.816L98.3811 229.808C98.6984 228.576 99.3891 227.587 100.453 226.84C101.536 226.093 102.982 225.72 104.793 225.72C106.025 225.72 107.098 225.916 108.013 226.308C108.928 226.681 109.637 227.251 110.141 228.016C110.664 228.781 110.925 229.743 110.925 230.9V236.584C110.925 237.293 111.261 237.648 111.933 237.648C112.25 237.648 112.549 237.601 112.829 237.508L112.605 239.888C112.12 240.131 111.513 240.252 110.785 240.252C110.132 240.252 109.544 240.14 109.021 239.916C108.498 239.692 108.088 239.356 107.789 238.908C107.49 238.441 107.341 237.863 107.341 237.172V237.06L108.013 236.948C107.901 237.657 107.593 238.264 107.089 238.768C106.585 239.253 105.969 239.627 105.241 239.888C104.532 240.149 103.794 240.28 103.029 240.28C102.077 240.28 101.256 240.14 100.565 239.86C99.8744 239.561 99.3424 239.132 98.9691 238.572C98.5958 238.012 98.4091 237.321 98.4091 236.5C98.4091 235.455 98.7451 234.605 99.4171 233.952C100.089 233.28 101.05 232.823 102.301 232.58L107.565 231.516L107.537 233.896L104.177 234.568C103.542 234.699 103.057 234.876 102.721 235.1C102.404 235.305 102.245 235.651 102.245 236.136C102.245 236.603 102.413 236.957 102.749 237.2C103.104 237.443 103.524 237.564 104.009 237.564C104.401 237.564 104.784 237.517 105.157 237.424C105.53 237.331 105.866 237.181 106.165 236.976C106.464 236.771 106.697 236.491 106.865 236.136C107.033 235.781 107.117 235.352 107.117 234.848V231.068ZM120.453 240.28C119.295 240.28 118.259 239.991 117.345 239.412C116.449 238.833 115.739 238.003 115.217 236.92C114.713 235.837 114.461 234.54 114.461 233.028C114.461 231.479 114.731 230.163 115.273 229.08C115.814 227.979 116.542 227.148 117.457 226.588C118.39 226.009 119.435 225.72 120.593 225.72C121.825 225.72 122.842 226.075 123.645 226.784C124.447 227.493 124.97 228.408 125.213 229.528L124.849 229.976V219.868H128.685V240H125.241L124.989 235.744L125.465 235.968C125.334 236.845 125.035 237.611 124.569 238.264C124.102 238.899 123.514 239.393 122.805 239.748C122.095 240.103 121.311 240.28 120.453 240.28ZM121.573 237.34C122.245 237.34 122.823 237.172 123.309 236.836C123.794 236.481 124.167 235.968 124.429 235.296C124.709 234.624 124.849 233.821 124.849 232.888C124.849 231.992 124.718 231.236 124.457 230.62C124.195 229.985 123.822 229.5 123.337 229.164C122.851 228.828 122.282 228.66 121.629 228.66C120.583 228.66 119.762 229.033 119.165 229.78C118.586 230.508 118.297 231.581 118.297 233C118.297 234.419 118.586 235.501 119.165 236.248C119.743 236.976 120.546 237.34 121.573 237.34ZM161.77 221.52V240H158.27V230.368L158.466 224.964H158.41L153.286 240H150.122L145.026 224.964H144.97L145.166 230.368V240H141.666V221.52H147.266L150.598 231.6L151.774 235.772H151.83L153.034 231.628L156.338 221.52H161.77ZM174.055 231.068C174.055 230.265 173.821 229.64 173.355 229.192C172.907 228.744 172.309 228.52 171.563 228.52C170.872 228.52 170.265 228.697 169.743 229.052C169.22 229.407 168.837 229.995 168.595 230.816L165.319 229.808C165.636 228.576 166.327 227.587 167.391 226.84C168.473 226.093 169.92 225.72 171.731 225.72C172.963 225.72 174.036 225.916 174.951 226.308C175.865 226.681 176.575 227.251 177.079 228.016C177.601 228.781 177.863 229.743 177.863 230.9V236.584C177.863 237.293 178.199 237.648 178.871 237.648C179.188 237.648 179.487 237.601 179.767 237.508L179.543 239.888C179.057 240.131 178.451 240.252 177.723 240.252C177.069 240.252 176.481 240.14 175.959 239.916C175.436 239.692 175.025 239.356 174.727 238.908C174.428 238.441 174.279 237.863 174.279 237.172V237.06L174.951 236.948C174.839 237.657 174.531 238.264 174.027 238.768C173.523 239.253 172.907 239.627 172.179 239.888C171.469 240.149 170.732 240.28 169.967 240.28C169.015 240.28 168.193 240.14 167.503 239.86C166.812 239.561 166.28 239.132 165.907 238.572C165.533 238.012 165.347 237.321 165.347 236.5C165.347 235.455 165.683 234.605 166.355 233.952C167.027 233.28 167.988 232.823 169.239 232.58L174.503 231.516L174.475 233.896L171.115 234.568C170.48 234.699 169.995 234.876 169.659 235.1C169.341 235.305 169.183 235.651 169.183 236.136C169.183 236.603 169.351 236.957 169.687 237.2C170.041 237.443 170.461 237.564 170.947 237.564C171.339 237.564 171.721 237.517 172.095 237.424C172.468 237.331 172.804 237.181 173.103 236.976C173.401 236.771 173.635 236.491 173.803 236.136C173.971 235.781 174.055 235.352 174.055 234.848V231.068ZM187.753 240.28C186.334 240.28 185.037 240.028 183.861 239.524C182.703 239.02 181.761 238.311 181.033 237.396L183.245 235.156C183.693 235.828 184.29 236.379 185.037 236.808C185.783 237.237 186.67 237.452 187.697 237.452C188.425 237.452 189.003 237.349 189.433 237.144C189.881 236.92 190.105 236.575 190.105 236.108C190.105 235.809 190.002 235.557 189.797 235.352C189.591 235.128 189.181 234.951 188.565 234.82L186.101 234.316C184.477 233.98 183.319 233.476 182.629 232.804C181.957 232.113 181.621 231.227 181.621 230.144C181.621 229.379 181.845 228.66 182.293 227.988C182.759 227.316 183.45 226.775 184.365 226.364C185.279 225.935 186.418 225.72 187.781 225.72C189.181 225.72 190.394 225.944 191.421 226.392C192.466 226.821 193.287 227.465 193.885 228.324L191.589 230.564C191.178 229.911 190.637 229.416 189.965 229.08C189.311 228.725 188.621 228.548 187.893 228.548C187.37 228.548 186.922 228.604 186.549 228.716C186.175 228.828 185.895 228.987 185.709 229.192C185.522 229.379 185.429 229.621 185.429 229.92C185.429 230.219 185.559 230.48 185.821 230.704C186.082 230.909 186.558 231.087 187.249 231.236L190.105 231.824C191.486 232.104 192.475 232.58 193.073 233.252C193.67 233.905 193.969 234.699 193.969 235.632C193.969 236.528 193.726 237.331 193.241 238.04C192.774 238.731 192.074 239.281 191.141 239.692C190.226 240.084 189.097 240.28 187.753 240.28ZM202.628 240.28C201.209 240.28 199.912 240.028 198.736 239.524C197.578 239.02 196.636 238.311 195.908 237.396L198.12 235.156C198.568 235.828 199.165 236.379 199.912 236.808C200.658 237.237 201.545 237.452 202.572 237.452C203.3 237.452 203.878 237.349 204.308 237.144C204.756 236.92 204.98 236.575 204.98 236.108C204.98 235.809 204.877 235.557 204.672 235.352C204.466 235.128 204.056 234.951 203.44 234.82L200.976 234.316C199.352 233.98 198.194 233.476 197.504 232.804C196.832 232.113 196.496 231.227 196.496 230.144C196.496 229.379 196.72 228.66 197.168 227.988C197.634 227.316 198.325 226.775 199.24 226.364C200.154 225.935 201.293 225.72 202.656 225.72C204.056 225.72 205.269 225.944 206.296 226.392C207.341 226.821 208.162 227.465 208.76 228.324L206.464 230.564C206.053 229.911 205.512 229.416 204.84 229.08C204.186 228.725 203.496 228.548 202.768 228.548C202.245 228.548 201.797 228.604 201.424 228.716C201.05 228.828 200.77 228.987 200.584 229.192C200.397 229.379 200.304 229.621 200.304 229.92C200.304 230.219 200.434 230.48 200.696 230.704C200.957 230.909 201.433 231.087 202.124 231.236L204.98 231.824C206.361 232.104 207.35 232.58 207.948 233.252C208.545 233.905 208.844 234.699 208.844 235.632C208.844 236.528 208.601 237.331 208.116 238.04C207.649 238.731 206.949 239.281 206.016 239.692C205.101 240.084 203.972 240.28 202.628 240.28ZM219.883 231.068C219.883 230.265 219.649 229.64 219.183 229.192C218.735 228.744 218.137 228.52 217.391 228.52C216.7 228.52 216.093 228.697 215.571 229.052C215.048 229.407 214.665 229.995 214.423 230.816L211.147 229.808C211.464 228.576 212.155 227.587 213.219 226.84C214.301 226.093 215.748 225.72 217.559 225.72C218.791 225.72 219.864 225.916 220.779 226.308C221.693 226.681 222.403 227.251 222.907 228.016C223.429 228.781 223.691 229.743 223.691 230.9V236.584C223.691 237.293 224.027 237.648 224.699 237.648C225.016 237.648 225.315 237.601 225.595 237.508L225.371 239.888C224.885 240.131 224.279 240.252 223.551 240.252C222.897 240.252 222.309 240.14 221.787 239.916C221.264 239.692 220.853 239.356 220.555 238.908C220.256 238.441 220.107 237.863 220.107 237.172V237.06L220.779 236.948C220.667 237.657 220.359 238.264 219.855 238.768C219.351 239.253 218.735 239.627 218.007 239.888C217.297 240.149 216.56 240.28 215.795 240.28C214.843 240.28 214.021 240.14 213.331 239.86C212.64 239.561 212.108 239.132 211.735 238.572C211.361 238.012 211.175 237.321 211.175 236.5C211.175 235.455 211.511 234.605 212.183 233.952C212.855 233.28 213.816 232.823 215.067 232.58L220.331 231.516L220.303 233.896L216.943 234.568C216.308 234.699 215.823 234.876 215.487 235.1C215.169 235.305 215.011 235.651 215.011 236.136C215.011 236.603 215.179 236.957 215.515 237.2C215.869 237.443 216.289 237.564 216.775 237.564C217.167 237.564 217.549 237.517 217.923 237.424C218.296 237.331 218.632 237.181 218.931 236.976C219.229 236.771 219.463 236.491 219.631 236.136C219.799 235.781 219.883 235.352 219.883 234.848V231.068ZM240.998 222.668L241.446 225.412C241.372 225.412 241.288 225.412 241.194 225.412C241.12 225.393 241.036 225.384 240.942 225.384C240.084 225.384 239.44 225.58 239.01 225.972C238.581 226.345 238.366 226.868 238.366 227.54L236.798 226.896C236.798 226.149 236.948 225.459 237.246 224.824C237.545 224.171 237.984 223.648 238.562 223.256C239.16 222.864 239.869 222.668 240.69 222.668C240.728 222.668 240.774 222.668 240.83 222.668C240.886 222.668 240.942 222.668 240.998 222.668ZM236.406 237.368C237.918 237.368 239.085 237.695 239.906 238.348C240.728 239.001 241.138 239.916 241.138 241.092C241.138 242.156 240.83 243.052 240.214 243.78C239.598 244.527 238.73 245.087 237.61 245.46C236.509 245.833 235.23 246.02 233.774 246.02C231.366 246.02 229.602 245.684 228.482 245.012C227.381 244.34 226.83 243.463 226.83 242.38C226.83 241.615 227.12 240.971 227.698 240.448C228.296 239.925 229.276 239.636 230.638 239.58L230.498 240.028C229.528 239.86 228.781 239.543 228.258 239.076C227.754 238.591 227.502 237.928 227.502 237.088C227.502 236.229 227.829 235.529 228.482 234.988C229.154 234.428 230.06 234.101 231.198 234.008L232.878 234.792H232.486C231.684 234.848 231.114 235.016 230.778 235.296C230.461 235.557 230.302 235.856 230.302 236.192C230.302 236.584 230.452 236.883 230.75 237.088C231.068 237.275 231.516 237.368 232.094 237.368H236.406ZM233.802 243.388C234.773 243.388 235.566 243.304 236.182 243.136C236.817 242.968 237.284 242.753 237.582 242.492C237.9 242.231 238.058 241.941 238.058 241.624C238.058 241.269 237.918 240.98 237.638 240.756C237.358 240.551 236.854 240.448 236.126 240.448H231.394C230.946 240.448 230.573 240.56 230.274 240.784C229.994 241.008 229.854 241.316 229.854 241.708C229.854 242.231 230.2 242.641 230.89 242.94C231.6 243.239 232.57 243.388 233.802 243.388ZM233.83 225.72C235.137 225.72 236.266 225.916 237.218 226.308C238.189 226.681 238.926 227.223 239.43 227.932C239.953 228.641 240.214 229.491 240.214 230.48C240.214 231.451 239.953 232.291 239.43 233C238.926 233.709 238.189 234.26 237.218 234.652C236.266 235.025 235.137 235.212 233.83 235.212C231.758 235.212 230.172 234.792 229.07 233.952C227.988 233.093 227.446 231.936 227.446 230.48C227.446 229.491 227.698 228.641 228.202 227.932C228.725 227.223 229.462 226.681 230.414 226.308C231.366 225.916 232.505 225.72 233.83 225.72ZM233.83 228.128C233.084 228.128 232.468 228.333 231.982 228.744C231.497 229.155 231.254 229.724 231.254 230.452C231.254 231.18 231.497 231.759 231.982 232.188C232.468 232.599 233.084 232.804 233.83 232.804C234.577 232.804 235.184 232.599 235.65 232.188C236.136 231.759 236.378 231.18 236.378 230.452C236.378 229.724 236.136 229.155 235.65 228.744C235.184 228.333 234.577 228.128 233.83 228.128ZM249.953 240.28C248.479 240.28 247.191 239.991 246.089 239.412C245.007 238.833 244.167 238.003 243.569 236.92C242.972 235.837 242.673 234.531 242.673 233C242.673 231.469 242.972 230.163 243.569 229.08C244.167 227.997 244.997 227.167 246.061 226.588C247.144 226.009 248.376 225.72 249.757 225.72C251.176 225.72 252.38 226.009 253.369 226.588C254.359 227.148 255.115 227.923 255.637 228.912C256.16 229.883 256.421 230.993 256.421 232.244C256.421 232.617 256.412 232.972 256.393 233.308C256.375 233.644 256.347 233.943 256.309 234.204H245.137V231.544H254.629L252.781 232.216C252.781 231.04 252.511 230.135 251.969 229.5C251.447 228.865 250.7 228.548 249.729 228.548C249.02 228.548 248.404 228.716 247.881 229.052C247.377 229.388 246.995 229.892 246.733 230.564C246.472 231.217 246.341 232.048 246.341 233.056C246.341 234.045 246.481 234.867 246.761 235.52C247.06 236.155 247.471 236.631 247.993 236.948C248.535 237.265 249.179 237.424 249.925 237.424C250.747 237.424 251.409 237.265 251.913 236.948C252.417 236.631 252.809 236.192 253.089 235.632L256.141 236.808C255.843 237.536 255.385 238.161 254.769 238.684C254.172 239.207 253.453 239.608 252.613 239.888C251.792 240.149 250.905 240.28 249.953 240.28Z" fill="#1F0033"/>
<path d="M78.575 270.52V289H74.711V270.52H78.575ZM66.563 270.52V289H62.699V270.52H66.563ZM76.727 278.108V281.216H64.631V278.108H76.727ZM90.8769 280.068C90.8769 279.265 90.6435 278.64 90.1769 278.192C89.7289 277.744 89.1315 277.52 88.3849 277.52C87.6942 277.52 87.0875 277.697 86.5649 278.052C86.0422 278.407 85.6595 278.995 85.4169 279.816L82.1409 278.808C82.4582 277.576 83.1489 276.587 84.2129 275.84C85.2955 275.093 86.7422 274.72 88.5529 274.72C89.7849 274.72 90.8582 274.916 91.7729 275.308C92.6875 275.681 93.3969 276.251 93.9009 277.016C94.4235 277.781 94.6849 278.743 94.6849 279.9V285.584C94.6849 286.293 95.0209 286.648 95.6929 286.648C96.0102 286.648 96.3089 286.601 96.5889 286.508L96.3649 288.888C95.8795 289.131 95.2729 289.252 94.5449 289.252C93.8915 289.252 93.3035 289.14 92.7809 288.916C92.2582 288.692 91.8475 288.356 91.5489 287.908C91.2502 287.441 91.1009 286.863 91.1009 286.172V286.06L91.7729 285.948C91.6609 286.657 91.3529 287.264 90.8489 287.768C90.3449 288.253 89.7289 288.627 89.0009 288.888C88.2915 289.149 87.5542 289.28 86.7889 289.28C85.8369 289.28 85.0155 289.14 84.3249 288.86C83.6342 288.561 83.1022 288.132 82.7289 287.572C82.3555 287.012 82.1689 286.321 82.1689 285.5C82.1689 284.455 82.5049 283.605 83.1769 282.952C83.8489 282.28 84.8102 281.823 86.0609 281.58L91.3249 280.516L91.2969 282.896L87.9369 283.568C87.3022 283.699 86.8169 283.876 86.4809 284.1C86.1635 284.305 86.0049 284.651 86.0049 285.136C86.0049 285.603 86.1729 285.957 86.5089 286.2C86.8635 286.443 87.2835 286.564 87.7689 286.564C88.1609 286.564 88.5435 286.517 88.9169 286.424C89.2902 286.331 89.6262 286.181 89.9249 285.976C90.2235 285.771 90.4569 285.491 90.6249 285.136C90.7929 284.781 90.8769 284.352 90.8769 283.848V280.068ZM100.907 272.984C100.104 272.984 99.507 272.816 99.115 272.48C98.723 272.125 98.527 271.612 98.527 270.94C98.527 270.249 98.723 269.736 99.115 269.4C99.507 269.045 100.104 268.868 100.907 268.868C101.71 268.868 102.307 269.045 102.699 269.4C103.091 269.736 103.287 270.249 103.287 270.94C103.287 271.612 103.091 272.125 102.699 272.48C102.307 272.816 101.71 272.984 100.907 272.984ZM102.811 275V289H98.975V275H102.811ZM106.877 289V275H110.209L110.461 277.744C110.835 276.773 111.376 276.027 112.085 275.504C112.813 274.981 113.719 274.72 114.801 274.72C115.119 274.72 115.408 274.748 115.669 274.804C115.931 274.86 116.145 274.935 116.313 275.028L115.865 278.248C115.679 278.173 115.445 278.117 115.165 278.08C114.904 278.043 114.559 278.024 114.129 278.024C113.569 278.024 113.028 278.164 112.505 278.444C111.983 278.705 111.553 279.116 111.217 279.676C110.881 280.217 110.713 280.908 110.713 281.748V289H106.877ZM142.941 283.904C142.586 285.099 142.026 286.097 141.261 286.9C140.496 287.703 139.59 288.3 138.545 288.692C137.5 289.084 136.352 289.28 135.101 289.28C133.272 289.28 131.685 288.897 130.341 288.132C129.016 287.367 127.989 286.275 127.261 284.856C126.552 283.437 126.197 281.739 126.197 279.76C126.197 277.781 126.552 276.083 127.261 274.664C127.989 273.245 129.016 272.153 130.341 271.388C131.685 270.623 133.253 270.24 135.045 270.24C136.314 270.24 137.462 270.417 138.489 270.772C139.516 271.108 140.384 271.631 141.093 272.34C141.821 273.049 142.353 273.945 142.689 275.028L139.189 276.512C138.872 275.392 138.386 274.599 137.733 274.132C137.08 273.647 136.24 273.404 135.213 273.404C134.205 273.404 133.318 273.647 132.553 274.132C131.806 274.617 131.228 275.336 130.817 276.288C130.406 277.221 130.201 278.379 130.201 279.76C130.201 281.123 130.388 282.28 130.761 283.232C131.153 284.184 131.722 284.903 132.469 285.388C133.216 285.873 134.13 286.116 135.213 286.116C136.221 286.116 137.089 285.845 137.817 285.304C138.564 284.763 139.086 283.941 139.385 282.84L142.941 283.904ZM152.226 274.72C153.645 274.72 154.886 275.009 155.95 275.588C157.033 276.167 157.873 276.997 158.47 278.08C159.086 279.163 159.394 280.469 159.394 282C159.394 283.512 159.086 284.819 158.47 285.92C157.873 287.003 157.033 287.833 155.95 288.412C154.886 288.991 153.645 289.28 152.226 289.28C150.826 289.28 149.585 288.991 148.502 288.412C147.42 287.833 146.57 287.003 145.954 285.92C145.357 284.819 145.058 283.512 145.058 282C145.058 280.469 145.357 279.163 145.954 278.08C146.57 276.997 147.42 276.167 148.502 275.588C149.585 275.009 150.826 274.72 152.226 274.72ZM152.226 277.576C151.517 277.576 150.91 277.744 150.406 278.08C149.921 278.397 149.548 278.883 149.286 279.536C149.025 280.189 148.894 281.011 148.894 282C148.894 282.989 149.025 283.811 149.286 284.464C149.548 285.117 149.921 285.612 150.406 285.948C150.91 286.265 151.517 286.424 152.226 286.424C152.917 286.424 153.505 286.265 153.99 285.948C154.494 285.612 154.877 285.117 155.138 284.464C155.4 283.811 155.53 282.989 155.53 282C155.53 281.011 155.4 280.189 155.138 279.536C154.877 278.883 154.494 278.397 153.99 278.08C153.505 277.744 152.917 277.576 152.226 277.576ZM166.384 268.868V284.688C166.384 285.341 166.496 285.799 166.72 286.06C166.944 286.321 167.317 286.452 167.84 286.452C168.157 286.452 168.419 286.433 168.624 286.396C168.829 286.34 169.091 286.265 169.408 286.172L169.072 288.692C168.755 288.879 168.353 289.019 167.868 289.112C167.401 289.224 166.935 289.28 166.468 289.28C165.105 289.28 164.107 288.953 163.472 288.3C162.856 287.628 162.548 286.564 162.548 285.108V268.868H166.384ZM177.929 274.72C179.348 274.72 180.589 275.009 181.653 275.588C182.736 276.167 183.576 276.997 184.173 278.08C184.789 279.163 185.097 280.469 185.097 282C185.097 283.512 184.789 284.819 184.173 285.92C183.576 287.003 182.736 287.833 181.653 288.412C180.589 288.991 179.348 289.28 177.929 289.28C176.529 289.28 175.288 288.991 174.205 288.412C173.123 287.833 172.273 287.003 171.657 285.92C171.06 284.819 170.761 283.512 170.761 282C170.761 280.469 171.06 279.163 171.657 278.08C172.273 276.997 173.123 276.167 174.205 275.588C175.288 275.009 176.529 274.72 177.929 274.72ZM177.929 277.576C177.22 277.576 176.613 277.744 176.109 278.08C175.624 278.397 175.251 278.883 174.989 279.536C174.728 280.189 174.597 281.011 174.597 282C174.597 282.989 174.728 283.811 174.989 284.464C175.251 285.117 175.624 285.612 176.109 285.948C176.613 286.265 177.22 286.424 177.929 286.424C178.62 286.424 179.208 286.265 179.693 285.948C180.197 285.612 180.58 285.117 180.841 284.464C181.103 283.811 181.233 282.989 181.233 282C181.233 281.011 181.103 280.189 180.841 279.536C180.58 278.883 180.197 278.397 179.693 278.08C179.208 277.744 178.62 277.576 177.929 277.576ZM188.307 289V275H191.639L191.891 277.744C192.264 276.773 192.806 276.027 193.515 275.504C194.243 274.981 195.148 274.72 196.231 274.72C196.548 274.72 196.838 274.748 197.099 274.804C197.36 274.86 197.575 274.935 197.743 275.028L197.295 278.248C197.108 278.173 196.875 278.117 196.595 278.08C196.334 278.043 195.988 278.024 195.559 278.024C194.999 278.024 194.458 278.164 193.935 278.444C193.412 278.705 192.983 279.116 192.647 279.676C192.311 280.217 192.143 280.908 192.143 281.748V289H188.307ZM202.052 272.984C201.249 272.984 200.652 272.816 200.26 272.48C199.868 272.125 199.672 271.612 199.672 270.94C199.672 270.249 199.868 269.736 200.26 269.4C200.652 269.045 201.249 268.868 202.052 268.868C202.854 268.868 203.452 269.045 203.844 269.4C204.236 269.736 204.432 270.249 204.432 270.94C204.432 271.612 204.236 272.125 203.844 272.48C203.452 272.816 202.854 272.984 202.052 272.984ZM203.956 275V289H200.12V275H203.956ZM208.022 289V275H211.466L211.69 279.2L211.214 278.752C211.438 277.837 211.793 277.081 212.278 276.484C212.763 275.887 213.351 275.448 214.042 275.168C214.751 274.869 215.526 274.72 216.366 274.72C217.337 274.72 218.195 274.907 218.942 275.28C219.707 275.653 220.305 276.223 220.734 276.988C221.182 277.735 221.406 278.677 221.406 279.816V289H217.57V280.908C217.57 279.713 217.337 278.892 216.87 278.444C216.403 277.977 215.797 277.744 215.05 277.744C214.527 277.744 214.014 277.875 213.51 278.136C213.025 278.379 212.623 278.78 212.306 279.34C212.007 279.9 211.858 280.647 211.858 281.58V289H208.022ZM238.266 271.668L238.714 274.412C238.639 274.412 238.555 274.412 238.462 274.412C238.387 274.393 238.303 274.384 238.21 274.384C237.351 274.384 236.707 274.58 236.278 274.972C235.848 275.345 235.634 275.868 235.634 276.54L234.066 275.896C234.066 275.149 234.215 274.459 234.514 273.824C234.812 273.171 235.251 272.648 235.83 272.256C236.427 271.864 237.136 271.668 237.958 271.668C237.995 271.668 238.042 271.668 238.098 271.668C238.154 271.668 238.21 271.668 238.266 271.668ZM233.674 286.368C235.186 286.368 236.352 286.695 237.174 287.348C237.995 288.001 238.406 288.916 238.406 290.092C238.406 291.156 238.098 292.052 237.482 292.78C236.866 293.527 235.998 294.087 234.878 294.46C233.776 294.833 232.498 295.02 231.042 295.02C228.634 295.02 226.87 294.684 225.75 294.012C224.648 293.34 224.098 292.463 224.098 291.38C224.098 290.615 224.387 289.971 224.966 289.448C225.563 288.925 226.543 288.636 227.906 288.58L227.766 289.028C226.795 288.86 226.048 288.543 225.526 288.076C225.022 287.591 224.77 286.928 224.77 286.088C224.77 285.229 225.096 284.529 225.75 283.988C226.422 283.428 227.327 283.101 228.466 283.008L230.146 283.792H229.754C228.951 283.848 228.382 284.016 228.046 284.296C227.728 284.557 227.57 284.856 227.57 285.192C227.57 285.584 227.719 285.883 228.018 286.088C228.335 286.275 228.783 286.368 229.362 286.368H233.674ZM231.07 292.388C232.04 292.388 232.834 292.304 233.45 292.136C234.084 291.968 234.551 291.753 234.85 291.492C235.167 291.231 235.326 290.941 235.326 290.624C235.326 290.269 235.186 289.98 234.906 289.756C234.626 289.551 234.122 289.448 233.394 289.448H228.662C228.214 289.448 227.84 289.56 227.542 289.784C227.262 290.008 227.122 290.316 227.122 290.708C227.122 291.231 227.467 291.641 228.158 291.94C228.867 292.239 229.838 292.388 231.07 292.388ZM231.098 274.72C232.404 274.72 233.534 274.916 234.486 275.308C235.456 275.681 236.194 276.223 236.698 276.932C237.22 277.641 237.482 278.491 237.482 279.48C237.482 280.451 237.22 281.291 236.698 282C236.194 282.709 235.456 283.26 234.486 283.652C233.534 284.025 232.404 284.212 231.098 284.212C229.026 284.212 227.439 283.792 226.338 282.952C225.255 282.093 224.714 280.936 224.714 279.48C224.714 278.491 224.966 277.641 225.47 276.932C225.992 276.223 226.73 275.681 227.682 275.308C228.634 274.916 229.772 274.72 231.098 274.72ZM231.098 277.128C230.351 277.128 229.735 277.333 229.25 277.744C228.764 278.155 228.522 278.724 228.522 279.452C228.522 280.18 228.764 280.759 229.25 281.188C229.735 281.599 230.351 281.804 231.098 281.804C231.844 281.804 232.451 281.599 232.918 281.188C233.403 280.759 233.646 280.18 233.646 279.452C233.646 278.724 233.403 278.155 232.918 277.744C232.451 277.333 231.844 277.128 231.098 277.128Z" fill="#1F0033"/>
<path d="M78.3289 319.52V338H74.4649V319.52H78.3289ZM66.3169 319.52V338H62.4529V319.52H66.3169ZM76.4809 327.108V330.216H64.3849V327.108H76.4809ZM90.6308 329.068C90.6308 328.265 90.3974 327.64 89.9308 327.192C89.4828 326.744 88.8854 326.52 88.1388 326.52C87.4481 326.52 86.8414 326.697 86.3188 327.052C85.7961 327.407 85.4134 327.995 85.1708 328.816L81.8948 327.808C82.2121 326.576 82.9028 325.587 83.9668 324.84C85.0494 324.093 86.4961 323.72 88.3068 323.72C89.5388 323.72 90.6121 323.916 91.5268 324.308C92.4414 324.681 93.1508 325.251 93.6548 326.016C94.1774 326.781 94.4388 327.743 94.4388 328.9V334.584C94.4388 335.293 94.7748 335.648 95.4468 335.648C95.7641 335.648 96.0628 335.601 96.3428 335.508L96.1188 337.888C95.6334 338.131 95.0268 338.252 94.2988 338.252C93.6454 338.252 93.0574 338.14 92.5348 337.916C92.0121 337.692 91.6014 337.356 91.3028 336.908C91.0041 336.441 90.8548 335.863 90.8548 335.172V335.06L91.5268 334.948C91.4148 335.657 91.1068 336.264 90.6028 336.768C90.0988 337.253 89.4828 337.627 88.7548 337.888C88.0454 338.149 87.3081 338.28 86.5428 338.28C85.5908 338.28 84.7694 338.14 84.0788 337.86C83.3881 337.561 82.8561 337.132 82.4828 336.572C82.1094 336.012 81.9228 335.321 81.9228 334.5C81.9228 333.455 82.2588 332.605 82.9308 331.952C83.6028 331.28 84.5641 330.823 85.8148 330.58L91.0788 329.516L91.0508 331.896L87.6908 332.568C87.0561 332.699 86.5708 332.876 86.2348 333.1C85.9174 333.305 85.7588 333.651 85.7588 334.136C85.7588 334.603 85.9268 334.957 86.2628 335.2C86.6174 335.443 87.0374 335.564 87.5228 335.564C87.9148 335.564 88.2974 335.517 88.6708 335.424C89.0441 335.331 89.3801 335.181 89.6788 334.976C89.9774 334.771 90.2108 334.491 90.3788 334.136C90.5468 333.781 90.6308 333.352 90.6308 332.848V329.068ZM100.661 321.984C99.8582 321.984 99.2609 321.816 98.8689 321.48C98.4769 321.125 98.2809 320.612 98.2809 319.94C98.2809 319.249 98.4769 318.736 98.8689 318.4C99.2609 318.045 99.8582 317.868 100.661 317.868C101.464 317.868 102.061 318.045 102.453 318.4C102.845 318.736 103.041 319.249 103.041 319.94C103.041 320.612 102.845 321.125 102.453 321.48C102.061 321.816 101.464 321.984 100.661 321.984ZM102.565 324V338H98.7289V324H102.565ZM106.631 338V324H109.963L110.215 326.744C110.589 325.773 111.13 325.027 111.839 324.504C112.567 323.981 113.473 323.72 114.555 323.72C114.873 323.72 115.162 323.748 115.423 323.804C115.685 323.86 115.899 323.935 116.067 324.028L115.619 327.248C115.433 327.173 115.199 327.117 114.919 327.08C114.658 327.043 114.313 327.024 113.883 327.024C113.323 327.024 112.782 327.164 112.259 327.444C111.737 327.705 111.307 328.116 110.971 328.676C110.635 329.217 110.467 329.908 110.467 330.748V338H106.631ZM133.623 319.24C135.303 319.24 136.777 319.529 138.047 320.108C139.316 320.687 140.399 321.545 141.295 322.684L139.139 325.176C138.373 324.205 137.533 323.496 136.619 323.048C135.723 322.581 134.677 322.348 133.483 322.348C132.699 322.348 132.045 322.451 131.523 322.656C131.019 322.861 130.645 323.132 130.403 323.468C130.179 323.804 130.067 324.177 130.067 324.588C130.067 325.092 130.263 325.521 130.655 325.876C131.047 326.212 131.719 326.492 132.671 326.716L136.115 327.5C137.944 327.911 139.251 328.527 140.035 329.348C140.837 330.151 141.239 331.196 141.239 332.484C141.239 333.697 140.921 334.743 140.287 335.62C139.652 336.479 138.765 337.141 137.627 337.608C136.488 338.056 135.181 338.28 133.707 338.28C132.419 338.28 131.233 338.131 130.151 337.832C129.087 337.515 128.135 337.085 127.295 336.544C126.455 336.003 125.755 335.377 125.195 334.668L127.379 332.064C127.808 332.661 128.34 333.193 128.975 333.66C129.609 334.127 130.328 334.5 131.131 334.78C131.952 335.041 132.811 335.172 133.707 335.172C134.472 335.172 135.116 335.088 135.639 334.92C136.18 334.733 136.581 334.481 136.843 334.164C137.123 333.828 137.263 333.427 137.263 332.96C137.263 332.475 137.095 332.064 136.759 331.728C136.441 331.373 135.844 331.103 134.967 330.916L131.215 330.076C130.132 329.815 129.199 329.479 128.415 329.068C127.649 328.639 127.061 328.097 126.651 327.444C126.259 326.772 126.063 325.979 126.063 325.064C126.063 323.963 126.361 322.973 126.959 322.096C127.556 321.219 128.415 320.528 129.535 320.024C130.673 319.501 132.036 319.24 133.623 319.24ZM144.42 343.88V324H147.864L148.116 328.452L147.64 327.948C147.808 327.127 148.116 326.399 148.564 325.764C149.031 325.129 149.619 324.635 150.328 324.28C151.038 323.907 151.831 323.72 152.708 323.72C153.847 323.72 154.864 324.009 155.76 324.588C156.656 325.167 157.356 325.997 157.86 327.08C158.383 328.144 158.644 329.441 158.644 330.972C158.644 332.503 158.383 333.819 157.86 334.92C157.338 336.003 156.619 336.833 155.704 337.412C154.808 337.991 153.782 338.28 152.624 338.28C151.392 338.28 150.366 337.935 149.544 337.244C148.742 336.553 148.191 335.685 147.892 334.64L148.256 334.052V343.88H144.42ZM151.504 335.34C152.531 335.34 153.334 334.976 153.912 334.248C154.51 333.501 154.808 332.419 154.808 331C154.808 329.581 154.519 328.508 153.94 327.78C153.38 327.033 152.587 326.66 151.56 326.66C150.907 326.66 150.328 326.837 149.824 327.192C149.339 327.528 148.956 328.023 148.676 328.676C148.396 329.311 148.256 330.085 148.256 331C148.256 331.896 148.387 332.671 148.648 333.324C148.91 333.977 149.283 334.481 149.768 334.836C150.272 335.172 150.851 335.34 151.504 335.34ZM169.873 329.068C169.873 328.265 169.64 327.64 169.173 327.192C168.725 326.744 168.128 326.52 167.381 326.52C166.69 326.52 166.084 326.697 165.561 327.052C165.038 327.407 164.656 327.995 164.413 328.816L161.137 327.808C161.454 326.576 162.145 325.587 163.209 324.84C164.292 324.093 165.738 323.72 167.549 323.72C168.781 323.72 169.854 323.916 170.769 324.308C171.684 324.681 172.393 325.251 172.897 326.016C173.42 326.781 173.681 327.743 173.681 328.9V334.584C173.681 335.293 174.017 335.648 174.689 335.648C175.006 335.648 175.305 335.601 175.585 335.508L175.361 337.888C174.876 338.131 174.269 338.252 173.541 338.252C172.888 338.252 172.3 338.14 171.777 337.916C171.254 337.692 170.844 337.356 170.545 336.908C170.246 336.441 170.097 335.863 170.097 335.172V335.06L170.769 334.948C170.657 335.657 170.349 336.264 169.845 336.768C169.341 337.253 168.725 337.627 167.997 337.888C167.288 338.149 166.55 338.28 165.785 338.28C164.833 338.28 164.012 338.14 163.321 337.86C162.63 337.561 162.098 337.132 161.725 336.572C161.352 336.012 161.165 335.321 161.165 334.5C161.165 333.455 161.501 332.605 162.173 331.952C162.845 331.28 163.806 330.823 165.057 330.58L170.321 329.516L170.293 331.896L166.933 332.568C166.298 332.699 165.813 332.876 165.477 333.1C165.16 333.305 165.001 333.651 165.001 334.136C165.001 334.603 165.169 334.957 165.505 335.2C165.86 335.443 166.28 335.564 166.765 335.564C167.157 335.564 167.54 335.517 167.913 335.424C168.286 335.331 168.622 335.181 168.921 334.976C169.22 334.771 169.453 334.491 169.621 334.136C169.789 333.781 169.873 333.352 169.873 332.848V329.068Z" fill="#1F0033"/>
<path d="M15.0249 72.2883C15.2609 71.2506 16.7391 71.2506 16.9751 72.2883L18.8246 80.422C18.9099 80.7971 19.2029 81.0901 19.578 81.1754L27.7117 83.0249C28.7494 83.2609 28.7494 84.7391 27.7117 84.9751L19.578 86.8246C19.2029 86.9099 18.9099 87.2029 18.8246 87.578L16.9751 95.7117C16.7391 96.7494 15.2609 96.7494 15.0249 95.7117L13.1754 87.578C13.0901 87.2029 12.7971 86.9099 12.422 86.8246L4.2883 84.9751C3.2506 84.7391 3.2506 83.2609 4.28829 83.0249L12.422 81.1754C12.7971 81.0901 13.0901 80.7971 13.1754 80.422L15.0249 72.2883Z" fill="#A81FFF"/>
<path d="M15.0249 120.288C15.2609 119.251 16.7391 119.251 16.9751 120.288L18.8246 128.422C18.9099 128.797 19.2029 129.09 19.578 129.175L27.7117 131.025C28.7494 131.261 28.7494 132.739 27.7117 132.975L19.578 134.825C19.2029 134.91 18.9099 135.203 18.8246 135.578L16.9751 143.712C16.7391 144.749 15.2609 144.749 15.0249 143.712L13.1754 135.578C13.0901 135.203 12.7971 134.91 12.422 134.825L4.2883 132.975C3.2506 132.739 3.2506 131.261 4.28829 131.025L12.422 129.175C12.7971 129.09 13.0901 128.797 13.1754 128.422L15.0249 120.288Z" fill="#A81FFF"/>
<path d="M15.0249 168.288C15.2609 167.251 16.7391 167.251 16.9751 168.288L18.8246 176.422C18.9099 176.797 19.2029 177.09 19.578 177.175L27.7117 179.025C28.7494 179.261 28.7494 180.739 27.7117 180.975L19.578 182.825C19.2029 182.91 18.9099 183.203 18.8246 183.578L16.9751 191.712C16.7391 192.749 15.2609 192.749 15.0249 191.712L13.1754 183.578C13.0901 183.203 12.7971 182.91 12.422 182.825L4.2883 180.975C3.2506 180.739 3.2506 179.261 4.28829 179.025L12.422 177.175C12.7971 177.09 13.0901 176.797 13.1754 176.422L15.0249 168.288Z" fill="#A81FFF"/>
<path d="M15.0249 216.288C15.2609 215.251 16.7391 215.251 16.9751 216.288L18.8246 224.422C18.9099 224.797 19.2029 225.09 19.578 225.175L27.7117 227.025C28.7494 227.261 28.7494 228.739 27.7117 228.975L19.578 230.825C19.2029 230.91 18.9099 231.203 18.8246 231.578L16.9751 239.712C16.7391 240.749 15.2609 240.749 15.0249 239.712L13.1754 231.578C13.0901 231.203 12.7971 230.91 12.422 230.825L4.2883 228.975C3.2506 228.739 3.2506 227.261 4.28829 227.025L12.422 225.175C12.7971 225.09 13.0901 224.797 13.1754 224.422L15.0249 216.288Z" fill="#A81FFF"/>
<path d="M15.0249 264.288C15.2609 263.251 16.7391 263.251 16.9751 264.288L18.8246 272.422C18.9099 272.797 19.2029 273.09 19.578 273.175L27.7117 275.025C28.7494 275.261 28.7494 276.739 27.7117 276.975L19.578 278.825C19.2029 278.91 18.9099 279.203 18.8246 279.578L16.9751 287.712C16.7391 288.749 15.2609 288.749 15.0249 287.712L13.1754 279.578C13.0901 279.203 12.7971 278.91 12.422 278.825L4.2883 276.975C3.2506 276.739 3.2506 275.261 4.28829 275.025L12.422 273.175C12.7971 273.09 13.0901 272.797 13.1754 272.422L15.0249 264.288Z" fill="#A81FFF"/>
<path d="M15.0249 312.288C15.2609 311.251 16.7391 311.251 16.9751 312.288L18.8246 320.422C18.9099 320.797 19.2029 321.09 19.578 321.175L27.7117 323.025C28.7494 323.261 28.7494 324.739 27.7117 324.975L19.578 326.825C19.2029 326.91 18.9099 327.203 18.8246 327.578L16.9751 335.712C16.7391 336.749 15.2609 336.749 15.0249 335.712L13.1754 327.578C13.0901 327.203 12.7971 326.91 12.422 326.825L4.2883 324.975C3.2506 324.739 3.2506 323.261 4.28829 323.025L12.422 321.175C12.7971 321.09 13.0901 320.797 13.1754 320.422L15.0249 312.288Z" fill="#A81FFF"/>
<defs>
<linearGradient id="paint0_linear_1425_607" x1="231.8" y1="10.4" x2="92.5285" y2="84.8716" gradientUnits="userSpaceOnUse">
<stop stop-color="#C56AFF"/>
<stop offset="1" stop-color="#832FB8"/>
</linearGradient>
</defs>
</svg>
