<svg width="320" height="400" viewBox="0 0 320 400" fill="none" xmlns="http://www.w3.org/2000/svg">
<path d="M78.657 80.52V99H74.793V80.52H78.657ZM66.645 80.52V99H62.781V80.52H66.645ZM76.809 88.108V91.216H64.713V88.108H76.809ZM90.9589 90.068C90.9589 89.2653 90.7256 88.64 90.2589 88.192C89.8109 87.744 89.2136 87.52 88.4669 87.52C87.7762 87.52 87.1696 87.6973 86.6469 88.052C86.1242 88.4067 85.7416 88.9947 85.4989 89.816L82.2229 88.808C82.5402 87.576 83.2309 86.5867 84.2949 85.84C85.3776 85.0933 86.8242 84.72 88.6349 84.72C89.8669 84.72 90.9402 84.916 91.8549 85.308C92.7696 85.6813 93.4789 86.2507 93.9829 87.016C94.5056 87.7813 94.7669 88.7427 94.7669 89.9V95.584C94.7669 96.2933 95.1029 96.648 95.7749 96.648C96.0922 96.648 96.3909 96.6013 96.6709 96.508L96.4469 98.888C95.9616 99.1307 95.3549 99.252 94.6269 99.252C93.9736 99.252 93.3856 99.14 92.8629 98.916C92.3402 98.692 91.9296 98.356 91.6309 97.908C91.3322 97.4413 91.1829 96.8627 91.1829 96.172V96.06L91.8549 95.948C91.7429 96.6573 91.4349 97.264 90.9309 97.768C90.4269 98.2533 89.8109 98.6267 89.0829 98.888C88.3736 99.1493 87.6362 99.28 86.8709 99.28C85.9189 99.28 85.0976 99.14 84.4069 98.86C83.7162 98.5613 83.1842 98.132 82.8109 97.572C82.4376 97.012 82.2509 96.3213 82.2509 95.5C82.2509 94.4547 82.5869 93.6053 83.2589 92.952C83.9309 92.28 84.8922 91.8227 86.1429 91.58L91.4069 90.516L91.3789 92.896L88.0189 93.568C87.3842 93.6987 86.8989 93.876 86.5629 94.1C86.2456 94.3053 86.0869 94.6507 86.0869 95.136C86.0869 95.6027 86.2549 95.9573 86.5909 96.2C86.9456 96.4427 87.3656 96.564 87.8509 96.564C88.2429 96.564 88.6256 96.5173 88.9989 96.424C89.3722 96.3307 89.7082 96.1813 90.0069 95.976C90.3056 95.7707 90.5389 95.4907 90.7069 95.136C90.8749 94.7813 90.9589 94.352 90.9589 93.848V90.068ZM100.989 82.984C100.186 82.984 99.589 82.816 99.197 82.48C98.805 82.1253 98.609 81.612 98.609 80.94C98.609 80.2493 98.805 79.736 99.197 79.4C99.589 79.0453 100.186 78.868 100.989 78.868C101.792 78.868 102.389 79.0453 102.781 79.4C103.173 79.736 103.369 80.2493 103.369 80.94C103.369 81.612 103.173 82.1253 102.781 82.48C102.389 82.816 101.792 82.984 100.989 82.984ZM102.893 85V99H99.057V85H102.893ZM106.959 99V85H110.291L110.543 87.744C110.917 86.7733 111.458 86.0267 112.167 85.504C112.895 84.9813 113.801 84.72 114.883 84.72C115.201 84.72 115.49 84.748 115.751 84.804C116.013 84.86 116.227 84.9347 116.395 85.028L115.947 88.248C115.761 88.1733 115.527 88.1173 115.247 88.08C114.986 88.0427 114.641 88.024 114.211 88.024C113.651 88.024 113.11 88.164 112.587 88.444C112.065 88.7053 111.635 89.116 111.299 89.676C110.963 90.2173 110.795 90.908 110.795 91.748V99H106.959ZM124.854 84.72C126.105 84.72 127.16 84.9067 128.018 85.28C128.896 85.6347 129.596 86.1293 130.118 86.764C130.66 87.38 131.042 88.0707 131.266 88.836L127.682 90.124C127.496 89.284 127.178 88.6493 126.73 88.22C126.282 87.7907 125.676 87.576 124.91 87.576C124.201 87.576 123.594 87.744 123.09 88.08C122.586 88.3973 122.204 88.892 121.942 89.564C121.681 90.2173 121.55 91.0387 121.55 92.028C121.55 93.0173 121.681 93.8387 121.942 94.492C122.222 95.1453 122.614 95.6307 123.118 95.948C123.641 96.2653 124.248 96.424 124.938 96.424C125.498 96.424 125.974 96.3307 126.366 96.144C126.758 95.9387 127.076 95.6493 127.318 95.276C127.58 94.9027 127.757 94.4547 127.85 93.932L131.322 95.052C131.117 95.892 130.734 96.6293 130.174 97.264C129.614 97.8987 128.896 98.3933 128.018 98.748C127.141 99.1027 126.124 99.28 124.966 99.28C123.529 99.28 122.26 98.9907 121.158 98.412C120.057 97.8333 119.208 97.0027 118.61 95.92C118.013 94.8373 117.714 93.5307 117.714 92C117.714 90.4693 118.013 89.1627 118.61 88.08C119.208 86.9973 120.048 86.1667 121.13 85.588C122.213 85.0093 123.454 84.72 124.854 84.72ZM139.175 99.28C138.242 99.28 137.402 99.112 136.655 98.776C135.908 98.44 135.311 97.908 134.863 97.18C134.434 96.4333 134.219 95.472 134.219 94.296V85H138.055V93.372C138.055 94.4547 138.279 95.2107 138.727 95.64C139.175 96.0507 139.819 96.256 140.659 96.256C141.051 96.256 141.434 96.1907 141.807 96.06C142.18 95.9107 142.507 95.6867 142.787 95.388C143.086 95.0893 143.319 94.7067 143.487 94.24C143.655 93.7547 143.739 93.1853 143.739 92.532V85H147.575V99H144.159L144.019 96.564C143.552 97.4973 142.908 98.188 142.087 98.636C141.284 99.0653 140.314 99.28 139.175 99.28ZM156.568 80.716V94.436C156.568 95.108 156.736 95.6027 157.072 95.92C157.426 96.2187 157.902 96.368 158.5 96.368C158.966 96.368 159.377 96.3027 159.732 96.172C160.086 96.0227 160.404 95.8267 160.684 95.584L161.3 98.132C160.852 98.4867 160.292 98.7667 159.62 98.972C158.948 99.1773 158.238 99.28 157.492 99.28C156.558 99.28 155.728 99.14 155 98.86C154.29 98.58 153.73 98.132 153.32 97.516C152.928 96.9 152.732 96.0787 152.732 95.052V81.78L156.568 80.716ZM161.048 85V87.856H150.156V85H161.048Z" fill="white"/>
<path d="M78.3289 129.52V148H74.4649V129.52H78.3289ZM66.3169 129.52V148H62.4529V129.52H66.3169ZM76.4809 137.108V140.216H64.3849V137.108H76.4809ZM90.6308 139.068C90.6308 138.265 90.3974 137.64 89.9308 137.192C89.4828 136.744 88.8854 136.52 88.1388 136.52C87.4481 136.52 86.8414 136.697 86.3188 137.052C85.7961 137.407 85.4134 137.995 85.1708 138.816L81.8948 137.808C82.2121 136.576 82.9028 135.587 83.9668 134.84C85.0494 134.093 86.4961 133.72 88.3068 133.72C89.5388 133.72 90.6121 133.916 91.5268 134.308C92.4414 134.681 93.1508 135.251 93.6548 136.016C94.1774 136.781 94.4388 137.743 94.4388 138.9V144.584C94.4388 145.293 94.7748 145.648 95.4468 145.648C95.7641 145.648 96.0628 145.601 96.3428 145.508L96.1188 147.888C95.6334 148.131 95.0268 148.252 94.2988 148.252C93.6454 148.252 93.0574 148.14 92.5348 147.916C92.0121 147.692 91.6014 147.356 91.3028 146.908C91.0041 146.441 90.8548 145.863 90.8548 145.172V145.06L91.5268 144.948C91.4148 145.657 91.1068 146.264 90.6028 146.768C90.0988 147.253 89.4828 147.627 88.7548 147.888C88.0454 148.149 87.3081 148.28 86.5428 148.28C85.5908 148.28 84.7694 148.14 84.0788 147.86C83.3881 147.561 82.8561 147.132 82.4828 146.572C82.1094 146.012 81.9228 145.321 81.9228 144.5C81.9228 143.455 82.2588 142.605 82.9308 141.952C83.6028 141.28 84.5641 140.823 85.8148 140.58L91.0788 139.516L91.0508 141.896L87.6908 142.568C87.0561 142.699 86.5708 142.876 86.2348 143.1C85.9174 143.305 85.7588 143.651 85.7588 144.136C85.7588 144.603 85.9268 144.957 86.2628 145.2C86.6174 145.443 87.0374 145.564 87.5228 145.564C87.9148 145.564 88.2974 145.517 88.6708 145.424C89.0441 145.331 89.3801 145.181 89.6788 144.976C89.9774 144.771 90.2108 144.491 90.3788 144.136C90.5468 143.781 90.6308 143.352 90.6308 142.848V139.068ZM100.661 131.984C99.8582 131.984 99.2609 131.816 98.8689 131.48C98.4769 131.125 98.2809 130.612 98.2809 129.94C98.2809 129.249 98.4769 128.736 98.8689 128.4C99.2609 128.045 99.8582 127.868 100.661 127.868C101.464 127.868 102.061 128.045 102.453 128.4C102.845 128.736 103.041 129.249 103.041 129.94C103.041 130.612 102.845 131.125 102.453 131.48C102.061 131.816 101.464 131.984 100.661 131.984ZM102.565 134V148H98.7289V134H102.565ZM106.631 148V134H109.963L110.215 136.744C110.589 135.773 111.13 135.027 111.839 134.504C112.567 133.981 113.473 133.72 114.555 133.72C114.873 133.72 115.162 133.748 115.423 133.804C115.685 133.86 115.899 133.935 116.067 134.028L115.619 137.248C115.433 137.173 115.199 137.117 114.919 137.08C114.658 137.043 114.313 137.024 113.883 137.024C113.323 137.024 112.782 137.164 112.259 137.444C111.737 137.705 111.307 138.116 110.971 138.676C110.635 139.217 110.467 139.908 110.467 140.748V148H106.631ZM133.623 129.24C135.303 129.24 136.777 129.529 138.047 130.108C139.316 130.687 140.399 131.545 141.295 132.684L139.139 135.176C138.373 134.205 137.533 133.496 136.619 133.048C135.723 132.581 134.677 132.348 133.483 132.348C132.699 132.348 132.045 132.451 131.523 132.656C131.019 132.861 130.645 133.132 130.403 133.468C130.179 133.804 130.067 134.177 130.067 134.588C130.067 135.092 130.263 135.521 130.655 135.876C131.047 136.212 131.719 136.492 132.671 136.716L136.115 137.5C137.944 137.911 139.251 138.527 140.035 139.348C140.837 140.151 141.239 141.196 141.239 142.484C141.239 143.697 140.921 144.743 140.287 145.62C139.652 146.479 138.765 147.141 137.627 147.608C136.488 148.056 135.181 148.28 133.707 148.28C132.419 148.28 131.233 148.131 130.151 147.832C129.087 147.515 128.135 147.085 127.295 146.544C126.455 146.003 125.755 145.377 125.195 144.668L127.379 142.064C127.808 142.661 128.34 143.193 128.975 143.66C129.609 144.127 130.328 144.5 131.131 144.78C131.952 145.041 132.811 145.172 133.707 145.172C134.472 145.172 135.116 145.088 135.639 144.92C136.18 144.733 136.581 144.481 136.843 144.164C137.123 143.828 137.263 143.427 137.263 142.96C137.263 142.475 137.095 142.064 136.759 141.728C136.441 141.373 135.844 141.103 134.967 140.916L131.215 140.076C130.132 139.815 129.199 139.479 128.415 139.068C127.649 138.639 127.061 138.097 126.651 137.444C126.259 136.772 126.063 135.979 126.063 135.064C126.063 133.963 126.361 132.973 126.959 132.096C127.556 131.219 128.415 130.528 129.535 130.024C130.673 129.501 132.036 129.24 133.623 129.24ZM144.42 153.88V134H147.864L148.116 138.452L147.64 137.948C147.808 137.127 148.116 136.399 148.564 135.764C149.031 135.129 149.619 134.635 150.328 134.28C151.038 133.907 151.831 133.72 152.708 133.72C153.847 133.72 154.864 134.009 155.76 134.588C156.656 135.167 157.356 135.997 157.86 137.08C158.383 138.144 158.644 139.441 158.644 140.972C158.644 142.503 158.383 143.819 157.86 144.92C157.338 146.003 156.619 146.833 155.704 147.412C154.808 147.991 153.782 148.28 152.624 148.28C151.392 148.28 150.366 147.935 149.544 147.244C148.742 146.553 148.191 145.685 147.892 144.64L148.256 144.052V153.88H144.42ZM151.504 145.34C152.531 145.34 153.334 144.976 153.912 144.248C154.51 143.501 154.808 142.419 154.808 141C154.808 139.581 154.519 138.508 153.94 137.78C153.38 137.033 152.587 136.66 151.56 136.66C150.907 136.66 150.328 136.837 149.824 137.192C149.339 137.528 148.956 138.023 148.676 138.676C148.396 139.311 148.256 140.085 148.256 141C148.256 141.896 148.387 142.671 148.648 143.324C148.91 143.977 149.283 144.481 149.768 144.836C150.272 145.172 150.851 145.34 151.504 145.34ZM169.873 139.068C169.873 138.265 169.64 137.64 169.173 137.192C168.725 136.744 168.128 136.52 167.381 136.52C166.69 136.52 166.084 136.697 165.561 137.052C165.038 137.407 164.656 137.995 164.413 138.816L161.137 137.808C161.454 136.576 162.145 135.587 163.209 134.84C164.292 134.093 165.738 133.72 167.549 133.72C168.781 133.72 169.854 133.916 170.769 134.308C171.684 134.681 172.393 135.251 172.897 136.016C173.42 136.781 173.681 137.743 173.681 138.9V144.584C173.681 145.293 174.017 145.648 174.689 145.648C175.006 145.648 175.305 145.601 175.585 145.508L175.361 147.888C174.876 148.131 174.269 148.252 173.541 148.252C172.888 148.252 172.3 148.14 171.777 147.916C171.254 147.692 170.844 147.356 170.545 146.908C170.246 146.441 170.097 145.863 170.097 145.172V145.06L170.769 144.948C170.657 145.657 170.349 146.264 169.845 146.768C169.341 147.253 168.725 147.627 167.997 147.888C167.288 148.149 166.55 148.28 165.785 148.28C164.833 148.28 164.012 148.14 163.321 147.86C162.63 147.561 162.098 147.132 161.725 146.572C161.352 146.012 161.165 145.321 161.165 144.5C161.165 143.455 161.501 142.605 162.173 141.952C162.845 141.28 163.806 140.823 165.057 140.58L170.321 139.516L170.293 141.896L166.933 142.568C166.298 142.699 165.813 142.876 165.477 143.1C165.16 143.305 165.001 143.651 165.001 144.136C165.001 144.603 165.169 144.957 165.505 145.2C165.86 145.443 166.28 145.564 166.765 145.564C167.157 145.564 167.54 145.517 167.913 145.424C168.286 145.331 168.622 145.181 168.921 144.976C169.22 144.771 169.453 144.491 169.621 144.136C169.789 143.781 169.873 143.352 169.873 142.848V139.068Z" fill="white"/>
<path d="M70.3085 178.52C71.7272 178.52 72.9405 178.763 73.9485 179.248C74.9565 179.715 75.7312 180.396 76.2725 181.292C76.8325 182.169 77.1125 183.233 77.1125 184.484C77.1125 185.735 76.8325 186.808 76.2725 187.704C75.7312 188.581 74.9565 189.263 73.9485 189.748C72.9405 190.215 71.7272 190.448 70.3085 190.448H66.4165V197H62.5525V178.52H70.3085ZM69.7205 187.396C70.8779 187.396 71.7459 187.153 72.3245 186.668C72.9032 186.164 73.1925 185.436 73.1925 184.484C73.1925 183.513 72.9032 182.785 72.3245 182.3C71.7459 181.815 70.8779 181.572 69.7205 181.572H66.4165V187.396H69.7205ZM86.4026 197.28C84.928 197.28 83.64 196.991 82.5386 196.412C81.456 195.833 80.616 195.003 80.0186 193.92C79.4213 192.837 79.1226 191.531 79.1226 190C79.1226 188.469 79.4213 187.163 80.0186 186.08C80.616 184.997 81.4466 184.167 82.5106 183.588C83.5933 183.009 84.8253 182.72 86.2066 182.72C87.6253 182.72 88.8293 183.009 89.8186 183.588C90.808 184.148 91.564 184.923 92.0866 185.912C92.6093 186.883 92.8706 187.993 92.8706 189.244C92.8706 189.617 92.8613 189.972 92.8426 190.308C92.824 190.644 92.796 190.943 92.7586 191.204H81.5866V188.544H91.0786L89.2306 189.216C89.2306 188.04 88.96 187.135 88.4186 186.5C87.896 185.865 87.1493 185.548 86.1786 185.548C85.4693 185.548 84.8533 185.716 84.3306 186.052C83.8266 186.388 83.444 186.892 83.1826 187.564C82.9213 188.217 82.7906 189.048 82.7906 190.056C82.7906 191.045 82.9306 191.867 83.2106 192.52C83.5093 193.155 83.92 193.631 84.4426 193.948C84.984 194.265 85.628 194.424 86.3746 194.424C87.196 194.424 87.8586 194.265 88.3626 193.948C88.8666 193.631 89.2586 193.192 89.5386 192.632L92.5906 193.808C92.292 194.536 91.8346 195.161 91.2186 195.684C90.6213 196.207 89.9026 196.608 89.0626 196.888C88.2413 197.149 87.3546 197.28 86.4026 197.28ZM101.413 197.28C100.256 197.28 99.2201 196.991 98.3055 196.412C97.4095 195.833 96.7001 195.003 96.1775 193.92C95.6735 192.837 95.4215 191.54 95.4215 190.028C95.4215 188.479 95.6921 187.163 96.2335 186.08C96.7748 184.979 97.5028 184.148 98.4175 183.588C99.3508 183.009 100.396 182.72 101.553 182.72C102.785 182.72 103.803 183.075 104.605 183.784C105.408 184.493 105.931 185.408 106.173 186.528L105.809 186.976V176.868H109.645V197H106.201L105.949 192.744L106.425 192.968C106.295 193.845 105.996 194.611 105.529 195.264C105.063 195.899 104.475 196.393 103.765 196.748C103.056 197.103 102.272 197.28 101.413 197.28ZM102.533 194.34C103.205 194.34 103.784 194.172 104.269 193.836C104.755 193.481 105.128 192.968 105.389 192.296C105.669 191.624 105.809 190.821 105.809 189.888C105.809 188.992 105.679 188.236 105.417 187.62C105.156 186.985 104.783 186.5 104.297 186.164C103.812 185.828 103.243 185.66 102.589 185.66C101.544 185.66 100.723 186.033 100.125 186.78C99.5468 187.508 99.2575 188.581 99.2575 190C99.2575 191.419 99.5468 192.501 100.125 193.248C100.704 193.976 101.507 194.34 102.533 194.34ZM115.608 180.984C114.805 180.984 114.208 180.816 113.816 180.48C113.424 180.125 113.228 179.612 113.228 178.94C113.228 178.249 113.424 177.736 113.816 177.4C114.208 177.045 114.805 176.868 115.608 176.868C116.411 176.868 117.008 177.045 117.4 177.4C117.792 177.736 117.988 178.249 117.988 178.94C117.988 179.612 117.792 180.125 117.4 180.48C117.008 180.816 116.411 180.984 115.608 180.984ZM117.512 183V197H113.676V183H117.512ZM127.935 182.72C129.185 182.72 130.24 182.907 131.099 183.28C131.976 183.635 132.676 184.129 133.199 184.764C133.74 185.38 134.123 186.071 134.346 186.836L130.763 188.124C130.576 187.284 130.259 186.649 129.811 186.22C129.363 185.791 128.756 185.576 127.991 185.576C127.281 185.576 126.675 185.744 126.171 186.08C125.667 186.397 125.284 186.892 125.023 187.564C124.761 188.217 124.631 189.039 124.631 190.028C124.631 191.017 124.761 191.839 125.023 192.492C125.303 193.145 125.695 193.631 126.199 193.948C126.721 194.265 127.328 194.424 128.019 194.424C128.579 194.424 129.055 194.331 129.447 194.144C129.839 193.939 130.156 193.649 130.399 193.276C130.66 192.903 130.837 192.455 130.931 191.932L134.403 193.052C134.197 193.892 133.815 194.629 133.255 195.264C132.695 195.899 131.976 196.393 131.099 196.748C130.221 197.103 129.204 197.28 128.047 197.28C126.609 197.28 125.34 196.991 124.239 196.412C123.137 195.833 122.288 195.003 121.691 193.92C121.093 192.837 120.795 191.531 120.795 190C120.795 188.469 121.093 187.163 121.691 186.08C122.288 184.997 123.128 184.167 124.211 183.588C125.293 183.009 126.535 182.72 127.935 182.72ZM142.255 197.28C141.322 197.28 140.482 197.112 139.735 196.776C138.989 196.44 138.391 195.908 137.943 195.18C137.514 194.433 137.299 193.472 137.299 192.296V183H141.135V191.372C141.135 192.455 141.359 193.211 141.807 193.64C142.255 194.051 142.899 194.256 143.739 194.256C144.131 194.256 144.514 194.191 144.887 194.06C145.261 193.911 145.587 193.687 145.867 193.388C146.166 193.089 146.399 192.707 146.567 192.24C146.735 191.755 146.819 191.185 146.819 190.532V183H150.655V197H147.239L147.099 194.564C146.633 195.497 145.989 196.188 145.167 196.636C144.365 197.065 143.394 197.28 142.255 197.28ZM154.692 197V183H158.024L158.276 185.744C158.649 184.773 159.19 184.027 159.9 183.504C160.628 182.981 161.533 182.72 162.616 182.72C162.933 182.72 163.222 182.748 163.484 182.804C163.745 182.86 163.96 182.935 164.128 183.028L163.68 186.248C163.493 186.173 163.26 186.117 162.98 186.08C162.718 186.043 162.373 186.024 161.944 186.024C161.384 186.024 160.842 186.164 160.32 186.444C159.797 186.705 159.368 187.116 159.032 187.676C158.696 188.217 158.528 188.908 158.528 189.748V197H154.692ZM172.727 197.28C171.252 197.28 169.964 196.991 168.863 196.412C167.78 195.833 166.94 195.003 166.343 193.92C165.746 192.837 165.447 191.531 165.447 190C165.447 188.469 165.746 187.163 166.343 186.08C166.94 184.997 167.771 184.167 168.835 183.588C169.918 183.009 171.15 182.72 172.531 182.72C173.95 182.72 175.154 183.009 176.143 183.588C177.132 184.148 177.888 184.923 178.411 185.912C178.934 186.883 179.195 187.993 179.195 189.244C179.195 189.617 179.186 189.972 179.167 190.308C179.148 190.644 179.12 190.943 179.083 191.204H167.911V188.544H177.403L175.555 189.216C175.555 188.04 175.284 187.135 174.743 186.5C174.22 185.865 173.474 185.548 172.503 185.548C171.794 185.548 171.178 185.716 170.655 186.052C170.151 186.388 169.768 186.892 169.507 187.564C169.246 188.217 169.115 189.048 169.115 190.056C169.115 191.045 169.255 191.867 169.535 192.52C169.834 193.155 170.244 193.631 170.767 193.948C171.308 194.265 171.952 194.424 172.699 194.424C173.52 194.424 174.183 194.265 174.687 193.948C175.191 193.631 175.583 193.192 175.863 192.632L178.915 193.808C178.616 194.536 178.159 195.161 177.543 195.684C176.946 196.207 176.227 196.608 175.387 196.888C174.566 197.149 173.679 197.28 172.727 197.28ZM192.228 176.868L184.108 198.96H180.552L188.644 176.868H192.228ZM215.274 178.52V197H211.774V187.368L211.97 181.964H211.914L206.79 197H203.626L198.53 181.964H198.474L198.67 187.368V197H195.17V178.52H200.77L204.102 188.6L205.278 192.772H205.334L206.538 188.628L209.842 178.52H215.274ZM226.047 197.28C224.572 197.28 223.284 196.991 222.183 196.412C221.1 195.833 220.26 195.003 219.663 193.92C219.066 192.837 218.767 191.531 218.767 190C218.767 188.469 219.066 187.163 219.663 186.08C220.26 184.997 221.091 184.167 222.155 183.588C223.238 183.009 224.47 182.72 225.851 182.72C227.27 182.72 228.474 183.009 229.463 183.588C230.452 184.148 231.208 184.923 231.731 185.912C232.254 186.883 232.515 187.993 232.515 189.244C232.515 189.617 232.506 189.972 232.487 190.308C232.468 190.644 232.44 190.943 232.403 191.204H221.231V188.544H230.723L228.875 189.216C228.875 188.04 228.604 187.135 228.063 186.5C227.54 185.865 226.794 185.548 225.823 185.548C225.114 185.548 224.498 185.716 223.975 186.052C223.471 186.388 223.088 186.892 222.827 187.564C222.566 188.217 222.435 189.048 222.435 190.056C222.435 191.045 222.575 191.867 222.855 192.52C223.154 193.155 223.564 193.631 224.087 193.948C224.628 194.265 225.272 194.424 226.019 194.424C226.84 194.424 227.503 194.265 228.007 193.948C228.511 193.631 228.903 193.192 229.183 192.632L232.235 193.808C231.936 194.536 231.479 195.161 230.863 195.684C230.266 196.207 229.547 196.608 228.707 196.888C227.886 197.149 226.999 197.28 226.047 197.28ZM235.766 197V183H239.21L239.434 187.2L238.958 186.752C239.182 185.837 239.537 185.081 240.022 184.484C240.507 183.887 241.095 183.448 241.786 183.168C242.495 182.869 243.27 182.72 244.11 182.72C245.081 182.72 245.939 182.907 246.686 183.28C247.451 183.653 248.049 184.223 248.478 184.988C248.926 185.735 249.15 186.677 249.15 187.816V197H245.314V188.908C245.314 187.713 245.081 186.892 244.614 186.444C244.147 185.977 243.541 185.744 242.794 185.744C242.271 185.744 241.758 185.875 241.254 186.136C240.769 186.379 240.367 186.78 240.05 187.34C239.751 187.9 239.602 188.647 239.602 189.58V197H235.766ZM255.034 180.984C254.231 180.984 253.634 180.816 253.242 180.48C252.85 180.125 252.654 179.612 252.654 178.94C252.654 178.249 252.85 177.736 253.242 177.4C253.634 177.045 254.231 176.868 255.034 176.868C255.837 176.868 256.434 177.045 256.826 177.4C257.218 177.736 257.414 178.249 257.414 178.94C257.414 179.612 257.218 180.125 256.826 180.48C256.434 180.816 255.837 180.984 255.034 180.984ZM256.938 183V197H253.102V183H256.938ZM267.36 182.72C268.611 182.72 269.666 182.907 270.524 183.28C271.402 183.635 272.102 184.129 272.624 184.764C273.166 185.38 273.548 186.071 273.772 186.836L270.188 188.124C270.002 187.284 269.684 186.649 269.236 186.22C268.788 185.791 268.182 185.576 267.416 185.576C266.707 185.576 266.1 185.744 265.596 186.08C265.092 186.397 264.71 186.892 264.448 187.564C264.187 188.217 264.056 189.039 264.056 190.028C264.056 191.017 264.187 191.839 264.448 192.492C264.728 193.145 265.12 193.631 265.624 193.948C266.147 194.265 266.754 194.424 267.444 194.424C268.004 194.424 268.48 194.331 268.872 194.144C269.264 193.939 269.582 193.649 269.824 193.276C270.086 192.903 270.263 192.455 270.356 191.932L273.828 193.052C273.623 193.892 273.24 194.629 272.68 195.264C272.12 195.899 271.402 196.393 270.524 196.748C269.647 197.103 268.63 197.28 267.472 197.28C266.035 197.28 264.766 196.991 263.664 196.412C262.563 195.833 261.714 195.003 261.116 193.92C260.519 192.837 260.22 191.531 260.22 190C260.22 188.469 260.519 187.163 261.116 186.08C261.714 184.997 262.554 184.167 263.636 183.588C264.719 183.009 265.96 182.72 267.36 182.72ZM281.681 197.28C280.748 197.28 279.908 197.112 279.161 196.776C278.414 196.44 277.817 195.908 277.369 195.18C276.94 194.433 276.725 193.472 276.725 192.296V183H280.561V191.372C280.561 192.455 280.785 193.211 281.233 193.64C281.681 194.051 282.325 194.256 283.165 194.256C283.557 194.256 283.94 194.191 284.313 194.06C284.686 193.911 285.013 193.687 285.293 193.388C285.592 193.089 285.825 192.707 285.993 192.24C286.161 191.755 286.245 191.185 286.245 190.532V183H290.081V197H286.665L286.525 194.564C286.058 195.497 285.414 196.188 284.593 196.636C283.79 197.065 282.82 197.28 281.681 197.28ZM294.118 197V183H297.45L297.702 185.744C298.075 184.773 298.616 184.027 299.326 183.504C300.054 182.981 300.959 182.72 302.042 182.72C302.359 182.72 302.648 182.748 302.91 182.804C303.171 182.86 303.386 182.935 303.554 183.028L303.106 186.248C302.919 186.173 302.686 186.117 302.406 186.08C302.144 186.043 301.799 186.024 301.37 186.024C300.81 186.024 300.268 186.164 299.746 186.444C299.223 186.705 298.794 187.116 298.458 187.676C298.122 188.217 297.954 188.908 297.954 189.748V197H294.118ZM312.153 197.28C310.678 197.28 309.39 196.991 308.289 196.412C307.206 195.833 306.366 195.003 305.769 193.92C305.171 192.837 304.873 191.531 304.873 190C304.873 188.469 305.171 187.163 305.769 186.08C306.366 184.997 307.197 184.167 308.261 183.588C309.343 183.009 310.575 182.72 311.957 182.72C313.375 182.72 314.579 183.009 315.569 183.588C316.558 184.148 317.314 184.923 317.837 185.912C318.359 186.883 318.621 187.993 318.621 189.244C318.621 189.617 318.611 189.972 318.593 190.308C318.574 190.644 318.546 190.943 318.509 191.204H307.337V188.544H316.829L314.981 189.216C314.981 188.04 314.71 187.135 314.169 186.5C313.646 185.865 312.899 185.548 311.929 185.548C311.219 185.548 310.603 185.716 310.081 186.052C309.577 186.388 309.194 186.892 308.933 187.564C308.671 188.217 308.541 189.048 308.541 190.056C308.541 191.045 308.681 191.867 308.961 192.52C309.259 193.155 309.67 193.631 310.193 193.948C310.734 194.265 311.378 194.424 312.125 194.424C312.946 194.424 313.609 194.265 314.113 193.948C314.617 193.631 315.009 193.192 315.289 192.632L318.341 193.808C318.042 194.536 317.585 195.161 316.969 195.684C316.371 196.207 315.653 196.608 314.813 196.888C313.991 197.149 313.105 197.28 312.153 197.28Z" fill="white"/>
<path d="M78.7606 227.52V246H74.8966V227.52H78.7606ZM66.7486 227.52V246H62.8846V227.52H66.7486ZM76.9126 235.108V238.216H64.8166V235.108H76.9126ZM91.0624 237.068C91.0624 236.265 90.8291 235.64 90.3624 235.192C89.9144 234.744 89.3171 234.52 88.5704 234.52C87.8797 234.52 87.2731 234.697 86.7504 235.052C86.2277 235.407 85.8451 235.995 85.6024 236.816L82.3264 235.808C82.6437 234.576 83.3344 233.587 84.3984 232.84C85.4811 232.093 86.9277 231.72 88.7384 231.72C89.9704 231.72 91.0437 231.916 91.9584 232.308C92.8731 232.681 93.5824 233.251 94.0864 234.016C94.6091 234.781 94.8704 235.743 94.8704 236.9V242.584C94.8704 243.293 95.2064 243.648 95.8784 243.648C96.1957 243.648 96.4944 243.601 96.7744 243.508L96.5504 245.888C96.0651 246.131 95.4584 246.252 94.7304 246.252C94.0771 246.252 93.4891 246.14 92.9664 245.916C92.4437 245.692 92.0331 245.356 91.7344 244.908C91.4357 244.441 91.2864 243.863 91.2864 243.172V243.06L91.9584 242.948C91.8464 243.657 91.5384 244.264 91.0344 244.768C90.5304 245.253 89.9144 245.627 89.1864 245.888C88.4771 246.149 87.7397 246.28 86.9744 246.28C86.0224 246.28 85.2011 246.14 84.5104 245.86C83.8197 245.561 83.2877 245.132 82.9144 244.572C82.5411 244.012 82.3544 243.321 82.3544 242.5C82.3544 241.455 82.6904 240.605 83.3624 239.952C84.0344 239.28 84.9957 238.823 86.2464 238.58L91.5104 237.516L91.4824 239.896L88.1224 240.568C87.4877 240.699 87.0024 240.876 86.6664 241.1C86.3491 241.305 86.1904 241.651 86.1904 242.136C86.1904 242.603 86.3584 242.957 86.6944 243.2C87.0491 243.443 87.4691 243.564 87.9544 243.564C88.3464 243.564 88.7291 243.517 89.1024 243.424C89.4757 243.331 89.8117 243.181 90.1104 242.976C90.4091 242.771 90.6424 242.491 90.8104 242.136C90.9784 241.781 91.0624 241.352 91.0624 240.848V237.068ZM101.093 229.984C100.29 229.984 99.6925 229.816 99.3005 229.48C98.9085 229.125 98.7125 228.612 98.7125 227.94C98.7125 227.249 98.9085 226.736 99.3005 226.4C99.6925 226.045 100.29 225.868 101.093 225.868C101.895 225.868 102.493 226.045 102.885 226.4C103.277 226.736 103.473 227.249 103.473 227.94C103.473 228.612 103.277 229.125 102.885 229.48C102.493 229.816 101.895 229.984 101.093 229.984ZM102.997 232V246H99.1605V232H102.997ZM107.063 246V232H110.395L110.647 234.744C111.02 233.773 111.562 233.027 112.271 232.504C112.999 231.981 113.904 231.72 114.987 231.72C115.304 231.72 115.594 231.748 115.855 231.804C116.116 231.86 116.331 231.935 116.499 232.028L116.051 235.248C115.864 235.173 115.631 235.117 115.351 235.08C115.09 235.043 114.744 235.024 114.315 235.024C113.755 235.024 113.214 235.164 112.691 235.444C112.168 235.705 111.739 236.116 111.403 236.676C111.067 237.217 110.899 237.908 110.899 238.748V246H107.063ZM141.348 227.52V230.628H135.16V246H131.296V230.628H125.08V227.52H141.348ZM142.282 246V232H145.614L145.866 234.744C146.239 233.773 146.78 233.027 147.49 232.504C148.218 231.981 149.123 231.72 150.206 231.72C150.523 231.72 150.812 231.748 151.074 231.804C151.335 231.86 151.55 231.935 151.718 232.028L151.27 235.248C151.083 235.173 150.85 235.117 150.57 235.08C150.308 235.043 149.963 235.024 149.534 235.024C148.974 235.024 148.432 235.164 147.91 235.444C147.387 235.705 146.958 236.116 146.622 236.676C146.286 237.217 146.118 237.908 146.118 238.748V246H142.282ZM160.317 246.28C158.842 246.28 157.554 245.991 156.453 245.412C155.37 244.833 154.53 244.003 153.933 242.92C153.335 241.837 153.037 240.531 153.037 239C153.037 237.469 153.335 236.163 153.933 235.08C154.53 233.997 155.361 233.167 156.425 232.588C157.507 232.009 158.739 231.72 160.121 231.72C161.539 231.72 162.743 232.009 163.733 232.588C164.722 233.148 165.478 233.923 166.001 234.912C166.523 235.883 166.785 236.993 166.785 238.244C166.785 238.617 166.775 238.972 166.757 239.308C166.738 239.644 166.71 239.943 166.673 240.204H155.501V237.544H164.993L163.145 238.216C163.145 237.04 162.874 236.135 162.333 235.5C161.81 234.865 161.063 234.548 160.093 234.548C159.383 234.548 158.767 234.716 158.245 235.052C157.741 235.388 157.358 235.892 157.097 236.564C156.835 237.217 156.705 238.048 156.705 239.056C156.705 240.045 156.845 240.867 157.125 241.52C157.423 242.155 157.834 242.631 158.357 242.948C158.898 243.265 159.542 243.424 160.289 243.424C161.11 243.424 161.773 243.265 162.277 242.948C162.781 242.631 163.173 242.192 163.453 241.632L166.505 242.808C166.206 243.536 165.749 244.161 165.133 244.684C164.535 245.207 163.817 245.608 162.977 245.888C162.155 246.149 161.269 246.28 160.317 246.28ZM178.016 237.068C178.016 236.265 177.782 235.64 177.316 235.192C176.868 234.744 176.27 234.52 175.524 234.52C174.833 234.52 174.226 234.697 173.704 235.052C173.181 235.407 172.798 235.995 172.556 236.816L169.28 235.808C169.597 234.576 170.288 233.587 171.352 232.84C172.434 232.093 173.881 231.72 175.692 231.72C176.924 231.72 177.997 231.916 178.912 232.308C179.826 232.681 180.536 233.251 181.04 234.016C181.562 234.781 181.824 235.743 181.824 236.9V242.584C181.824 243.293 182.16 243.648 182.832 243.648C183.149 243.648 183.448 243.601 183.728 243.508L183.504 245.888C183.018 246.131 182.412 246.252 181.684 246.252C181.03 246.252 180.442 246.14 179.92 245.916C179.397 245.692 178.986 245.356 178.688 244.908C178.389 244.441 178.24 243.863 178.24 243.172V243.06L178.912 242.948C178.8 243.657 178.492 244.264 177.988 244.768C177.484 245.253 176.868 245.627 176.14 245.888C175.43 246.149 174.693 246.28 173.928 246.28C172.976 246.28 172.154 246.14 171.464 245.86C170.773 245.561 170.241 245.132 169.868 244.572C169.494 244.012 169.308 243.321 169.308 242.5C169.308 241.455 169.644 240.605 170.316 239.952C170.988 239.28 171.949 238.823 173.2 238.58L178.464 237.516L178.436 239.896L175.076 240.568C174.441 240.699 173.956 240.876 173.62 241.1C173.302 241.305 173.144 241.651 173.144 242.136C173.144 242.603 173.312 242.957 173.648 243.2C174.002 243.443 174.422 243.564 174.908 243.564C175.3 243.564 175.682 243.517 176.056 243.424C176.429 243.331 176.765 243.181 177.064 242.976C177.362 242.771 177.596 242.491 177.764 242.136C177.932 241.781 178.016 241.352 178.016 240.848V237.068ZM190.523 227.716V241.436C190.523 242.108 190.691 242.603 191.027 242.92C191.381 243.219 191.857 243.368 192.455 243.368C192.921 243.368 193.332 243.303 193.687 243.172C194.041 243.023 194.359 242.827 194.639 242.584L195.255 245.132C194.807 245.487 194.247 245.767 193.575 245.972C192.903 246.177 192.193 246.28 191.447 246.28C190.513 246.28 189.683 246.14 188.955 245.86C188.245 245.58 187.685 245.132 187.275 244.516C186.883 243.9 186.687 243.079 186.687 242.052V228.78L190.523 227.716ZM195.003 232V234.856H184.111V232H195.003ZM197.598 246V232H201.042L201.182 234.52C201.649 233.587 202.283 232.887 203.086 232.42C203.907 231.953 204.813 231.72 205.802 231.72C206.81 231.72 207.715 231.953 208.518 232.42C209.339 232.887 209.955 233.577 210.366 234.492C210.665 233.876 211.066 233.363 211.57 232.952C212.074 232.541 212.634 232.233 213.25 232.028C213.866 231.823 214.491 231.72 215.126 231.72C216.041 231.72 216.871 231.907 217.618 232.28C218.383 232.653 218.99 233.213 219.438 233.96C219.886 234.707 220.11 235.659 220.11 236.816V246H216.274V237.572C216.274 236.545 216.05 235.817 215.602 235.388C215.154 234.959 214.575 234.744 213.866 234.744C213.306 234.744 212.783 234.884 212.298 235.164C211.831 235.444 211.458 235.864 211.178 236.424C210.917 236.965 210.786 237.647 210.786 238.468V246H206.95V237.572C206.95 236.545 206.717 235.817 206.25 235.388C205.802 234.959 205.223 234.744 204.514 234.744C204.029 234.744 203.543 234.875 203.058 235.136C202.591 235.397 202.199 235.808 201.882 236.368C201.583 236.928 201.434 237.665 201.434 238.58V246H197.598ZM230.563 246.28C229.088 246.28 227.8 245.991 226.699 245.412C225.616 244.833 224.776 244.003 224.179 242.92C223.581 241.837 223.283 240.531 223.283 239C223.283 237.469 223.581 236.163 224.179 235.08C224.776 233.997 225.607 233.167 226.671 232.588C227.753 232.009 228.985 231.72 230.367 231.72C231.785 231.72 232.989 232.009 233.979 232.588C234.968 233.148 235.724 233.923 236.247 234.912C236.769 235.883 237.031 236.993 237.031 238.244C237.031 238.617 237.021 238.972 237.003 239.308C236.984 239.644 236.956 239.943 236.919 240.204H225.747V237.544H235.239L233.391 238.216C233.391 237.04 233.12 236.135 232.579 235.5C232.056 234.865 231.309 234.548 230.339 234.548C229.629 234.548 229.013 234.716 228.491 235.052C227.987 235.388 227.604 235.892 227.343 236.564C227.081 237.217 226.951 238.048 226.951 239.056C226.951 240.045 227.091 240.867 227.371 241.52C227.669 242.155 228.08 242.631 228.603 242.948C229.144 243.265 229.788 243.424 230.535 243.424C231.356 243.424 232.019 243.265 232.523 242.948C233.027 242.631 233.419 242.192 233.699 241.632L236.751 242.808C236.452 243.536 235.995 244.161 235.379 244.684C234.781 245.207 234.063 245.608 233.223 245.888C232.401 246.149 231.515 246.28 230.563 246.28ZM240.282 246V232H243.726L243.95 236.2L243.474 235.752C243.698 234.837 244.052 234.081 244.538 233.484C245.023 232.887 245.611 232.448 246.302 232.168C247.011 231.869 247.786 231.72 248.626 231.72C249.596 231.72 250.455 231.907 251.202 232.28C251.967 232.653 252.564 233.223 252.994 233.988C253.442 234.735 253.666 235.677 253.666 236.816V246H249.83V237.908C249.83 236.713 249.596 235.892 249.13 235.444C248.663 234.977 248.056 234.744 247.31 234.744C246.787 234.744 246.274 234.875 245.77 235.136C245.284 235.379 244.883 235.78 244.566 236.34C244.267 236.9 244.118 237.647 244.118 238.58V246H240.282ZM262.464 227.716V241.436C262.464 242.108 262.632 242.603 262.968 242.92C263.323 243.219 263.799 243.368 264.396 243.368C264.863 243.368 265.274 243.303 265.628 243.172C265.983 243.023 266.3 242.827 266.58 242.584L267.196 245.132C266.748 245.487 266.188 245.767 265.516 245.972C264.844 246.177 264.135 246.28 263.388 246.28C262.455 246.28 261.624 246.14 260.896 245.86C260.187 245.58 259.627 245.132 259.216 244.516C258.824 243.9 258.628 243.079 258.628 242.052V228.78L262.464 227.716ZM266.944 232V234.856H256.052V232H266.944Z" fill="white"/>
<path d="M78.575 276.52V295H74.711V276.52H78.575ZM66.563 276.52V295H62.699V276.52H66.563ZM76.727 284.108V287.216H64.631V284.108H76.727ZM90.8769 286.068C90.8769 285.265 90.6435 284.64 90.1769 284.192C89.7289 283.744 89.1315 283.52 88.3849 283.52C87.6942 283.52 87.0875 283.697 86.5649 284.052C86.0422 284.407 85.6595 284.995 85.4169 285.816L82.1409 284.808C82.4582 283.576 83.1489 282.587 84.2129 281.84C85.2955 281.093 86.7422 280.72 88.5529 280.72C89.7849 280.72 90.8582 280.916 91.7729 281.308C92.6875 281.681 93.3969 282.251 93.9009 283.016C94.4235 283.781 94.6849 284.743 94.6849 285.9V291.584C94.6849 292.293 95.0209 292.648 95.6929 292.648C96.0102 292.648 96.3089 292.601 96.5889 292.508L96.3649 294.888C95.8795 295.131 95.2729 295.252 94.5449 295.252C93.8915 295.252 93.3035 295.14 92.7809 294.916C92.2582 294.692 91.8475 294.356 91.5489 293.908C91.2502 293.441 91.1009 292.863 91.1009 292.172V292.06L91.7729 291.948C91.6609 292.657 91.3529 293.264 90.8489 293.768C90.3449 294.253 89.7289 294.627 89.0009 294.888C88.2915 295.149 87.5542 295.28 86.7889 295.28C85.8369 295.28 85.0155 295.14 84.3249 294.86C83.6342 294.561 83.1022 294.132 82.7289 293.572C82.3555 293.012 82.1689 292.321 82.1689 291.5C82.1689 290.455 82.5049 289.605 83.1769 288.952C83.8489 288.28 84.8102 287.823 86.0609 287.58L91.3249 286.516L91.2969 288.896L87.9369 289.568C87.3022 289.699 86.8169 289.876 86.4809 290.1C86.1635 290.305 86.0049 290.651 86.0049 291.136C86.0049 291.603 86.1729 291.957 86.5089 292.2C86.8635 292.443 87.2835 292.564 87.7689 292.564C88.1609 292.564 88.5435 292.517 88.9169 292.424C89.2902 292.331 89.6262 292.181 89.9249 291.976C90.2235 291.771 90.4569 291.491 90.6249 291.136C90.7929 290.781 90.8769 290.352 90.8769 289.848V286.068ZM100.907 278.984C100.104 278.984 99.507 278.816 99.115 278.48C98.723 278.125 98.527 277.612 98.527 276.94C98.527 276.249 98.723 275.736 99.115 275.4C99.507 275.045 100.104 274.868 100.907 274.868C101.71 274.868 102.307 275.045 102.699 275.4C103.091 275.736 103.287 276.249 103.287 276.94C103.287 277.612 103.091 278.125 102.699 278.48C102.307 278.816 101.71 278.984 100.907 278.984ZM102.811 281V295H98.975V281H102.811ZM106.877 295V281H110.209L110.461 283.744C110.835 282.773 111.376 282.027 112.085 281.504C112.813 280.981 113.719 280.72 114.801 280.72C115.119 280.72 115.408 280.748 115.669 280.804C115.931 280.86 116.145 280.935 116.313 281.028L115.865 284.248C115.679 284.173 115.445 284.117 115.165 284.08C114.904 284.043 114.559 284.024 114.129 284.024C113.569 284.024 113.028 284.164 112.505 284.444C111.983 284.705 111.553 285.116 111.217 285.676C110.881 286.217 110.713 286.908 110.713 287.748V295H106.877ZM142.941 289.904C142.586 291.099 142.026 292.097 141.261 292.9C140.496 293.703 139.59 294.3 138.545 294.692C137.5 295.084 136.352 295.28 135.101 295.28C133.272 295.28 131.685 294.897 130.341 294.132C129.016 293.367 127.989 292.275 127.261 290.856C126.552 289.437 126.197 287.739 126.197 285.76C126.197 283.781 126.552 282.083 127.261 280.664C127.989 279.245 129.016 278.153 130.341 277.388C131.685 276.623 133.253 276.24 135.045 276.24C136.314 276.24 137.462 276.417 138.489 276.772C139.516 277.108 140.384 277.631 141.093 278.34C141.821 279.049 142.353 279.945 142.689 281.028L139.189 282.512C138.872 281.392 138.386 280.599 137.733 280.132C137.08 279.647 136.24 279.404 135.213 279.404C134.205 279.404 133.318 279.647 132.553 280.132C131.806 280.617 131.228 281.336 130.817 282.288C130.406 283.221 130.201 284.379 130.201 285.76C130.201 287.123 130.388 288.28 130.761 289.232C131.153 290.184 131.722 290.903 132.469 291.388C133.216 291.873 134.13 292.116 135.213 292.116C136.221 292.116 137.089 291.845 137.817 291.304C138.564 290.763 139.086 289.941 139.385 288.84L142.941 289.904ZM152.226 280.72C153.645 280.72 154.886 281.009 155.95 281.588C157.033 282.167 157.873 282.997 158.47 284.08C159.086 285.163 159.394 286.469 159.394 288C159.394 289.512 159.086 290.819 158.47 291.92C157.873 293.003 157.033 293.833 155.95 294.412C154.886 294.991 153.645 295.28 152.226 295.28C150.826 295.28 149.585 294.991 148.502 294.412C147.42 293.833 146.57 293.003 145.954 291.92C145.357 290.819 145.058 289.512 145.058 288C145.058 286.469 145.357 285.163 145.954 284.08C146.57 282.997 147.42 282.167 148.502 281.588C149.585 281.009 150.826 280.72 152.226 280.72ZM152.226 283.576C151.517 283.576 150.91 283.744 150.406 284.08C149.921 284.397 149.548 284.883 149.286 285.536C149.025 286.189 148.894 287.011 148.894 288C148.894 288.989 149.025 289.811 149.286 290.464C149.548 291.117 149.921 291.612 150.406 291.948C150.91 292.265 151.517 292.424 152.226 292.424C152.917 292.424 153.505 292.265 153.99 291.948C154.494 291.612 154.877 291.117 155.138 290.464C155.4 289.811 155.53 288.989 155.53 288C155.53 287.011 155.4 286.189 155.138 285.536C154.877 284.883 154.494 284.397 153.99 284.08C153.505 283.744 152.917 283.576 152.226 283.576ZM166.384 274.868V290.688C166.384 291.341 166.496 291.799 166.72 292.06C166.944 292.321 167.317 292.452 167.84 292.452C168.157 292.452 168.419 292.433 168.624 292.396C168.829 292.34 169.091 292.265 169.408 292.172L169.072 294.692C168.755 294.879 168.353 295.019 167.868 295.112C167.401 295.224 166.935 295.28 166.468 295.28C165.105 295.28 164.107 294.953 163.472 294.3C162.856 293.628 162.548 292.564 162.548 291.108V274.868H166.384ZM177.929 280.72C179.348 280.72 180.589 281.009 181.653 281.588C182.736 282.167 183.576 282.997 184.173 284.08C184.789 285.163 185.097 286.469 185.097 288C185.097 289.512 184.789 290.819 184.173 291.92C183.576 293.003 182.736 293.833 181.653 294.412C180.589 294.991 179.348 295.28 177.929 295.28C176.529 295.28 175.288 294.991 174.205 294.412C173.123 293.833 172.273 293.003 171.657 291.92C171.06 290.819 170.761 289.512 170.761 288C170.761 286.469 171.06 285.163 171.657 284.08C172.273 282.997 173.123 282.167 174.205 281.588C175.288 281.009 176.529 280.72 177.929 280.72ZM177.929 283.576C177.22 283.576 176.613 283.744 176.109 284.08C175.624 284.397 175.251 284.883 174.989 285.536C174.728 286.189 174.597 287.011 174.597 288C174.597 288.989 174.728 289.811 174.989 290.464C175.251 291.117 175.624 291.612 176.109 291.948C176.613 292.265 177.22 292.424 177.929 292.424C178.62 292.424 179.208 292.265 179.693 291.948C180.197 291.612 180.58 291.117 180.841 290.464C181.103 289.811 181.233 288.989 181.233 288C181.233 287.011 181.103 286.189 180.841 285.536C180.58 284.883 180.197 284.397 179.693 284.08C179.208 283.744 178.62 283.576 177.929 283.576ZM188.307 295V281H191.639L191.891 283.744C192.264 282.773 192.806 282.027 193.515 281.504C194.243 280.981 195.148 280.72 196.231 280.72C196.548 280.72 196.838 280.748 197.099 280.804C197.36 280.86 197.575 280.935 197.743 281.028L197.295 284.248C197.108 284.173 196.875 284.117 196.595 284.08C196.334 284.043 195.988 284.024 195.559 284.024C194.999 284.024 194.458 284.164 193.935 284.444C193.412 284.705 192.983 285.116 192.647 285.676C192.311 286.217 192.143 286.908 192.143 287.748V295H188.307ZM202.052 278.984C201.249 278.984 200.652 278.816 200.26 278.48C199.868 278.125 199.672 277.612 199.672 276.94C199.672 276.249 199.868 275.736 200.26 275.4C200.652 275.045 201.249 274.868 202.052 274.868C202.854 274.868 203.452 275.045 203.844 275.4C204.236 275.736 204.432 276.249 204.432 276.94C204.432 277.612 204.236 278.125 203.844 278.48C203.452 278.816 202.854 278.984 202.052 278.984ZM203.956 281V295H200.12V281H203.956ZM208.022 295V281H211.466L211.69 285.2L211.214 284.752C211.438 283.837 211.793 283.081 212.278 282.484C212.763 281.887 213.351 281.448 214.042 281.168C214.751 280.869 215.526 280.72 216.366 280.72C217.337 280.72 218.195 280.907 218.942 281.28C219.707 281.653 220.305 282.223 220.734 282.988C221.182 283.735 221.406 284.677 221.406 285.816V295H217.57V286.908C217.57 285.713 217.337 284.892 216.87 284.444C216.403 283.977 215.797 283.744 215.05 283.744C214.527 283.744 214.014 283.875 213.51 284.136C213.025 284.379 212.623 284.78 212.306 285.34C212.007 285.9 211.858 286.647 211.858 287.58V295H208.022ZM238.266 277.668L238.714 280.412C238.639 280.412 238.555 280.412 238.462 280.412C238.387 280.393 238.303 280.384 238.21 280.384C237.351 280.384 236.707 280.58 236.278 280.972C235.848 281.345 235.634 281.868 235.634 282.54L234.066 281.896C234.066 281.149 234.215 280.459 234.514 279.824C234.812 279.171 235.251 278.648 235.83 278.256C236.427 277.864 237.136 277.668 237.958 277.668C237.995 277.668 238.042 277.668 238.098 277.668C238.154 277.668 238.21 277.668 238.266 277.668ZM233.674 292.368C235.186 292.368 236.352 292.695 237.174 293.348C237.995 294.001 238.406 294.916 238.406 296.092C238.406 297.156 238.098 298.052 237.482 298.78C236.866 299.527 235.998 300.087 234.878 300.46C233.776 300.833 232.498 301.02 231.042 301.02C228.634 301.02 226.87 300.684 225.75 300.012C224.648 299.34 224.098 298.463 224.098 297.38C224.098 296.615 224.387 295.971 224.966 295.448C225.563 294.925 226.543 294.636 227.906 294.58L227.766 295.028C226.795 294.86 226.048 294.543 225.526 294.076C225.022 293.591 224.77 292.928 224.77 292.088C224.77 291.229 225.096 290.529 225.75 289.988C226.422 289.428 227.327 289.101 228.466 289.008L230.146 289.792H229.754C228.951 289.848 228.382 290.016 228.046 290.296C227.728 290.557 227.57 290.856 227.57 291.192C227.57 291.584 227.719 291.883 228.018 292.088C228.335 292.275 228.783 292.368 229.362 292.368H233.674ZM231.07 298.388C232.04 298.388 232.834 298.304 233.45 298.136C234.084 297.968 234.551 297.753 234.85 297.492C235.167 297.231 235.326 296.941 235.326 296.624C235.326 296.269 235.186 295.98 234.906 295.756C234.626 295.551 234.122 295.448 233.394 295.448H228.662C228.214 295.448 227.84 295.56 227.542 295.784C227.262 296.008 227.122 296.316 227.122 296.708C227.122 297.231 227.467 297.641 228.158 297.94C228.867 298.239 229.838 298.388 231.07 298.388ZM231.098 280.72C232.404 280.72 233.534 280.916 234.486 281.308C235.456 281.681 236.194 282.223 236.698 282.932C237.22 283.641 237.482 284.491 237.482 285.48C237.482 286.451 237.22 287.291 236.698 288C236.194 288.709 235.456 289.26 234.486 289.652C233.534 290.025 232.404 290.212 231.098 290.212C229.026 290.212 227.439 289.792 226.338 288.952C225.255 288.093 224.714 286.936 224.714 285.48C224.714 284.491 224.966 283.641 225.47 282.932C225.992 282.223 226.73 281.681 227.682 281.308C228.634 280.916 229.772 280.72 231.098 280.72ZM231.098 283.128C230.351 283.128 229.735 283.333 229.25 283.744C228.764 284.155 228.522 284.724 228.522 285.452C228.522 286.18 228.764 286.759 229.25 287.188C229.735 287.599 230.351 287.804 231.098 287.804C231.844 287.804 232.451 287.599 232.918 287.188C233.403 286.759 233.646 286.18 233.646 285.452C233.646 284.724 233.403 284.155 232.918 283.744C232.451 283.333 231.844 283.128 231.098 283.128Z" fill="white"/>
<path d="M78.491 325.52V344H74.067L67.599 333.136L66.003 330.112H65.975L66.087 333.304V344H62.615V325.52H67.011L73.479 336.356L75.075 339.408H75.131L75.019 336.216V325.52H78.491ZM90.7929 335.068C90.7929 334.265 90.5595 333.64 90.0929 333.192C89.6449 332.744 89.0475 332.52 88.3009 332.52C87.6102 332.52 87.0035 332.697 86.4809 333.052C85.9582 333.407 85.5755 333.995 85.3329 334.816L82.0569 333.808C82.3742 332.576 83.0649 331.587 84.1289 330.84C85.2115 330.093 86.6582 329.72 88.4689 329.72C89.7009 329.72 90.7742 329.916 91.6889 330.308C92.6035 330.681 93.3129 331.251 93.8169 332.016C94.3395 332.781 94.6009 333.743 94.6009 334.9V340.584C94.6009 341.293 94.9369 341.648 95.6089 341.648C95.9262 341.648 96.2249 341.601 96.5049 341.508L96.2809 343.888C95.7955 344.131 95.1889 344.252 94.4609 344.252C93.8075 344.252 93.2195 344.14 92.6969 343.916C92.1742 343.692 91.7635 343.356 91.4649 342.908C91.1662 342.441 91.0169 341.863 91.0169 341.172V341.06L91.6889 340.948C91.5769 341.657 91.2689 342.264 90.7649 342.768C90.2609 343.253 89.6449 343.627 88.9169 343.888C88.2075 344.149 87.4702 344.28 86.7049 344.28C85.7529 344.28 84.9315 344.14 84.2409 343.86C83.5502 343.561 83.0182 343.132 82.6449 342.572C82.2715 342.012 82.0849 341.321 82.0849 340.5C82.0849 339.455 82.4209 338.605 83.0929 337.952C83.7649 337.28 84.7262 336.823 85.9769 336.58L91.2409 335.516L91.2129 337.896L87.8529 338.568C87.2182 338.699 86.7329 338.876 86.3969 339.1C86.0795 339.305 85.9209 339.651 85.9209 340.136C85.9209 340.603 86.0889 340.957 86.4249 341.2C86.7795 341.443 87.1995 341.564 87.6849 341.564C88.0769 341.564 88.4595 341.517 88.8329 341.424C89.2062 341.331 89.5422 341.181 89.8409 340.976C90.1395 340.771 90.3729 340.491 90.5409 340.136C90.7089 339.781 90.7929 339.352 90.7929 338.848V335.068ZM100.823 327.984C100.02 327.984 99.423 327.816 99.031 327.48C98.639 327.125 98.443 326.612 98.443 325.94C98.443 325.249 98.639 324.736 99.031 324.4C99.423 324.045 100.02 323.868 100.823 323.868C101.626 323.868 102.223 324.045 102.615 324.4C103.007 324.736 103.203 325.249 103.203 325.94C103.203 326.612 103.007 327.125 102.615 327.48C102.223 327.816 101.626 327.984 100.823 327.984ZM102.727 330V344H98.891V330H102.727ZM110.573 323.868V339.688C110.573 340.341 110.685 340.799 110.909 341.06C111.133 341.321 111.507 341.452 112.029 341.452C112.347 341.452 112.608 341.433 112.813 341.396C113.019 341.34 113.28 341.265 113.597 341.172L113.261 343.692C112.944 343.879 112.543 344.019 112.057 344.112C111.591 344.224 111.124 344.28 110.657 344.28C109.295 344.28 108.296 343.953 107.661 343.3C107.045 342.628 106.737 341.564 106.737 340.108V323.868H110.573ZM124.084 344V325.52H137.944V328.628H127.948V333.22H135.816V336.188H127.948V340.892H138.336V344H124.084ZM144.519 330L148.215 336.132L149.251 336.104L154.851 344H150.399L146.563 337.728L145.443 337.616L140.039 330H144.519ZM154.767 330L149.363 337.532L148.215 337.448L144.127 344H139.787L145.583 336.048L146.675 336.188L150.427 330H154.767ZM162.308 325.716V339.436C162.308 340.108 162.476 340.603 162.812 340.92C163.167 341.219 163.643 341.368 164.24 341.368C164.707 341.368 165.117 341.303 165.472 341.172C165.827 341.023 166.144 340.827 166.424 340.584L167.04 343.132C166.592 343.487 166.032 343.767 165.36 343.972C164.688 344.177 163.979 344.28 163.232 344.28C162.299 344.28 161.468 344.14 160.74 343.86C160.031 343.58 159.471 343.132 159.06 342.516C158.668 341.9 158.472 341.079 158.472 340.052V326.78L162.308 325.716ZM166.788 330V332.856H155.896V330H166.788ZM175.879 344.28C174.405 344.28 173.117 343.991 172.015 343.412C170.933 342.833 170.093 342.003 169.495 340.92C168.898 339.837 168.599 338.531 168.599 337C168.599 335.469 168.898 334.163 169.495 333.08C170.093 331.997 170.923 331.167 171.987 330.588C173.07 330.009 174.302 329.72 175.683 329.72C177.102 329.72 178.306 330.009 179.295 330.588C180.285 331.148 181.041 331.923 181.563 332.912C182.086 333.883 182.347 334.993 182.347 336.244C182.347 336.617 182.338 336.972 182.319 337.308C182.301 337.644 182.273 337.943 182.235 338.204H171.063V335.544H180.555L178.707 336.216C178.707 335.04 178.437 334.135 177.895 333.5C177.373 332.865 176.626 332.548 175.655 332.548C174.946 332.548 174.33 332.716 173.807 333.052C173.303 333.388 172.921 333.892 172.659 334.564C172.398 335.217 172.267 336.048 172.267 337.056C172.267 338.045 172.407 338.867 172.687 339.52C172.986 340.155 173.397 340.631 173.919 340.948C174.461 341.265 175.105 341.424 175.851 341.424C176.673 341.424 177.335 341.265 177.839 340.948C178.343 340.631 178.735 340.192 179.015 339.632L182.067 340.808C181.769 341.536 181.311 342.161 180.695 342.684C180.098 343.207 179.379 343.608 178.539 343.888C177.718 344.149 176.831 344.28 175.879 344.28ZM185.598 344V330H189.042L189.266 334.2L188.79 333.752C189.014 332.837 189.369 332.081 189.854 331.484C190.339 330.887 190.927 330.448 191.618 330.168C192.327 329.869 193.102 329.72 193.942 329.72C194.913 329.72 195.771 329.907 196.518 330.28C197.283 330.653 197.881 331.223 198.31 331.988C198.758 332.735 198.982 333.677 198.982 334.816V344H195.146V335.908C195.146 334.713 194.913 333.892 194.446 333.444C193.979 332.977 193.373 332.744 192.626 332.744C192.103 332.744 191.59 332.875 191.086 333.136C190.601 333.379 190.199 333.78 189.882 334.34C189.583 334.9 189.434 335.647 189.434 336.58V344H185.598ZM208.534 344.28C207.115 344.28 205.818 344.028 204.642 343.524C203.485 343.02 202.542 342.311 201.814 341.396L204.026 339.156C204.474 339.828 205.071 340.379 205.818 340.808C206.565 341.237 207.451 341.452 208.478 341.452C209.206 341.452 209.785 341.349 210.214 341.144C210.662 340.92 210.886 340.575 210.886 340.108C210.886 339.809 210.783 339.557 210.578 339.352C210.373 339.128 209.962 338.951 209.346 338.82L206.882 338.316C205.258 337.98 204.101 337.476 203.41 336.804C202.738 336.113 202.402 335.227 202.402 334.144C202.402 333.379 202.626 332.66 203.074 331.988C203.541 331.316 204.231 330.775 205.146 330.364C206.061 329.935 207.199 329.72 208.562 329.72C209.962 329.72 211.175 329.944 212.202 330.392C213.247 330.821 214.069 331.465 214.666 332.324L212.37 334.564C211.959 333.911 211.418 333.416 210.746 333.08C210.093 332.725 209.402 332.548 208.674 332.548C208.151 332.548 207.703 332.604 207.33 332.716C206.957 332.828 206.677 332.987 206.49 333.192C206.303 333.379 206.21 333.621 206.21 333.92C206.21 334.219 206.341 334.48 206.602 334.704C206.863 334.909 207.339 335.087 208.03 335.236L210.886 335.824C212.267 336.104 213.257 336.58 213.854 337.252C214.451 337.905 214.75 338.699 214.75 339.632C214.75 340.528 214.507 341.331 214.022 342.04C213.555 342.731 212.855 343.281 211.922 343.692C211.007 344.084 209.878 344.28 208.534 344.28ZM219.741 327.984C218.938 327.984 218.341 327.816 217.949 327.48C217.557 327.125 217.361 326.612 217.361 325.94C217.361 325.249 217.557 324.736 217.949 324.4C218.341 324.045 218.938 323.868 219.741 323.868C220.544 323.868 221.141 324.045 221.533 324.4C221.925 324.736 222.121 325.249 222.121 325.94C222.121 326.612 221.925 327.125 221.533 327.48C221.141 327.816 220.544 327.984 219.741 327.984ZM221.645 330V344H217.809V330H221.645ZM232.095 329.72C233.514 329.72 234.755 330.009 235.819 330.588C236.902 331.167 237.742 331.997 238.339 333.08C238.955 334.163 239.263 335.469 239.263 337C239.263 338.512 238.955 339.819 238.339 340.92C237.742 342.003 236.902 342.833 235.819 343.412C234.755 343.991 233.514 344.28 232.095 344.28C230.695 344.28 229.454 343.991 228.371 343.412C227.289 342.833 226.439 342.003 225.823 340.92C225.226 339.819 224.927 338.512 224.927 337C224.927 335.469 225.226 334.163 225.823 333.08C226.439 331.997 227.289 331.167 228.371 330.588C229.454 330.009 230.695 329.72 232.095 329.72ZM232.095 332.576C231.386 332.576 230.779 332.744 230.275 333.08C229.79 333.397 229.417 333.883 229.155 334.536C228.894 335.189 228.763 336.011 228.763 337C228.763 337.989 228.894 338.811 229.155 339.464C229.417 340.117 229.79 340.612 230.275 340.948C230.779 341.265 231.386 341.424 232.095 341.424C232.786 341.424 233.374 341.265 233.859 340.948C234.363 340.612 234.746 340.117 235.007 339.464C235.269 338.811 235.399 337.989 235.399 337C235.399 336.011 235.269 335.189 235.007 334.536C234.746 333.883 234.363 333.397 233.859 333.08C233.374 332.744 232.786 332.576 232.095 332.576ZM242.473 344V330H245.917L246.141 334.2L245.665 333.752C245.889 332.837 246.244 332.081 246.729 331.484C247.214 330.887 247.802 330.448 248.493 330.168C249.202 329.869 249.977 329.72 250.817 329.72C251.788 329.72 252.646 329.907 253.393 330.28C254.158 330.653 254.756 331.223 255.185 331.988C255.633 332.735 255.857 333.677 255.857 334.816V344H252.021V335.908C252.021 334.713 251.788 333.892 251.321 333.444C250.854 332.977 250.248 332.744 249.501 332.744C248.978 332.744 248.465 332.875 247.961 333.136C247.476 333.379 247.074 333.78 246.757 334.34C246.458 334.9 246.309 335.647 246.309 336.58V344H242.473Z" fill="white"/>
<path d="M66.3748 393L60.9988 374.52H65.1148L68.7548 389.78L72.4508 374.52H76.1468L79.8988 389.78L83.5108 374.52H87.4588L82.0828 393H77.7428L75.1668 382.92L74.2988 378.552H74.2428L73.3748 382.92L70.8268 393H66.3748ZM96.9042 384.068C96.9042 383.265 96.6709 382.64 96.2042 382.192C95.7562 381.744 95.1589 381.52 94.4122 381.52C93.7215 381.52 93.1149 381.697 92.5922 382.052C92.0695 382.407 91.6869 382.995 91.4442 383.816L88.1682 382.808C88.4855 381.576 89.1762 380.587 90.2402 379.84C91.3229 379.093 92.7695 378.72 94.5802 378.72C95.8122 378.72 96.8855 378.916 97.8002 379.308C98.7149 379.681 99.4242 380.251 99.9282 381.016C100.451 381.781 100.712 382.743 100.712 383.9V389.584C100.712 390.293 101.048 390.648 101.72 390.648C102.038 390.648 102.336 390.601 102.616 390.508L102.392 392.888C101.907 393.131 101.3 393.252 100.572 393.252C99.9189 393.252 99.3309 393.14 98.8082 392.916C98.2855 392.692 97.8749 392.356 97.5762 391.908C97.2775 391.441 97.1282 390.863 97.1282 390.172V390.06L97.8002 389.948C97.6882 390.657 97.3802 391.264 96.8762 391.768C96.3722 392.253 95.7562 392.627 95.0282 392.888C94.3189 393.149 93.5815 393.28 92.8162 393.28C91.8642 393.28 91.0429 393.14 90.3522 392.86C89.6615 392.561 89.1295 392.132 88.7562 391.572C88.3829 391.012 88.1962 390.321 88.1962 389.5C88.1962 388.455 88.5322 387.605 89.2042 386.952C89.8762 386.28 90.8375 385.823 92.0882 385.58L97.3522 384.516L97.3242 386.896L93.9642 387.568C93.3295 387.699 92.8442 387.876 92.5082 388.1C92.1909 388.305 92.0322 388.651 92.0322 389.136C92.0322 389.603 92.2002 389.957 92.5362 390.2C92.8909 390.443 93.3109 390.564 93.7962 390.564C94.1882 390.564 94.5709 390.517 94.9442 390.424C95.3175 390.331 95.6535 390.181 95.9522 389.976C96.2509 389.771 96.4842 389.491 96.6522 389.136C96.8202 388.781 96.9042 388.352 96.9042 387.848V384.068ZM108.11 379L111.806 385.132L112.842 385.104L118.442 393H113.99L110.154 386.728L109.034 386.616L103.63 379H108.11ZM118.358 379L112.954 386.532L111.806 386.448L107.718 393H103.378L109.174 385.048L110.266 385.188L114.018 379H118.358ZM122.876 376.984C122.073 376.984 121.476 376.816 121.084 376.48C120.692 376.125 120.496 375.612 120.496 374.94C120.496 374.249 120.692 373.736 121.084 373.4C121.476 373.045 122.073 372.868 122.876 372.868C123.678 372.868 124.276 373.045 124.668 373.4C125.06 373.736 125.256 374.249 125.256 374.94C125.256 375.612 125.06 376.125 124.668 376.48C124.276 376.816 123.678 376.984 122.876 376.984ZM124.78 379V393H120.944V379H124.78ZM128.846 393V379H132.29L132.514 383.2L132.038 382.752C132.262 381.837 132.617 381.081 133.102 380.484C133.587 379.887 134.175 379.448 134.866 379.168C135.575 378.869 136.35 378.72 137.19 378.72C138.161 378.72 139.019 378.907 139.766 379.28C140.531 379.653 141.129 380.223 141.558 380.988C142.006 381.735 142.23 382.677 142.23 383.816V393H138.394V384.908C138.394 383.713 138.161 382.892 137.694 382.444C137.227 381.977 136.621 381.744 135.874 381.744C135.351 381.744 134.838 381.875 134.334 382.136C133.849 382.379 133.447 382.78 133.13 383.34C132.831 383.9 132.682 384.647 132.682 385.58V393H128.846ZM159.09 375.668L159.538 378.412C159.463 378.412 159.379 378.412 159.286 378.412C159.211 378.393 159.127 378.384 159.034 378.384C158.175 378.384 157.531 378.58 157.102 378.972C156.673 379.345 156.458 379.868 156.458 380.54L154.89 379.896C154.89 379.149 155.039 378.459 155.338 377.824C155.637 377.171 156.075 376.648 156.654 376.256C157.251 375.864 157.961 375.668 158.782 375.668C158.819 375.668 158.866 375.668 158.922 375.668C158.978 375.668 159.034 375.668 159.09 375.668ZM154.498 390.368C156.01 390.368 157.177 390.695 157.998 391.348C158.819 392.001 159.23 392.916 159.23 394.092C159.23 395.156 158.922 396.052 158.306 396.78C157.69 397.527 156.822 398.087 155.702 398.46C154.601 398.833 153.322 399.02 151.866 399.02C149.458 399.02 147.694 398.684 146.574 398.012C145.473 397.34 144.922 396.463 144.922 395.38C144.922 394.615 145.211 393.971 145.79 393.448C146.387 392.925 147.367 392.636 148.73 392.58L148.59 393.028C147.619 392.86 146.873 392.543 146.35 392.076C145.846 391.591 145.594 390.928 145.594 390.088C145.594 389.229 145.921 388.529 146.574 387.988C147.246 387.428 148.151 387.101 149.29 387.008L150.97 387.792H150.578C149.775 387.848 149.206 388.016 148.87 388.296C148.553 388.557 148.394 388.856 148.394 389.192C148.394 389.584 148.543 389.883 148.842 390.088C149.159 390.275 149.607 390.368 150.186 390.368H154.498ZM151.894 396.388C152.865 396.388 153.658 396.304 154.274 396.136C154.909 395.968 155.375 395.753 155.674 395.492C155.991 395.231 156.15 394.941 156.15 394.624C156.15 394.269 156.01 393.98 155.73 393.756C155.45 393.551 154.946 393.448 154.218 393.448H149.486C149.038 393.448 148.665 393.56 148.366 393.784C148.086 394.008 147.946 394.316 147.946 394.708C147.946 395.231 148.291 395.641 148.982 395.94C149.691 396.239 150.662 396.388 151.894 396.388ZM151.922 378.72C153.229 378.72 154.358 378.916 155.31 379.308C156.281 379.681 157.018 380.223 157.522 380.932C158.045 381.641 158.306 382.491 158.306 383.48C158.306 384.451 158.045 385.291 157.522 386C157.018 386.709 156.281 387.26 155.31 387.652C154.358 388.025 153.229 388.212 151.922 388.212C149.85 388.212 148.263 387.792 147.162 386.952C146.079 386.093 145.538 384.936 145.538 383.48C145.538 382.491 145.79 381.641 146.294 380.932C146.817 380.223 147.554 379.681 148.506 379.308C149.458 378.916 150.597 378.72 151.922 378.72ZM151.922 381.128C151.175 381.128 150.559 381.333 150.074 381.744C149.589 382.155 149.346 382.724 149.346 383.452C149.346 384.18 149.589 384.759 150.074 385.188C150.559 385.599 151.175 385.804 151.922 385.804C152.669 385.804 153.275 385.599 153.742 385.188C154.227 384.759 154.47 384.18 154.47 383.452C154.47 382.724 154.227 382.155 153.742 381.744C153.275 381.333 152.669 381.128 151.922 381.128Z" fill="white"/>
<path d="M15.0249 78.2883C15.2609 77.2506 16.7391 77.2506 16.9751 78.2883L18.8246 86.422C18.9099 86.7971 19.2029 87.0901 19.578 87.1754L27.7117 89.0249C28.7494 89.2609 28.7494 90.7391 27.7117 90.9751L19.578 92.8246C19.2029 92.9099 18.9099 93.2029 18.8246 93.578L16.9751 101.712C16.7391 102.749 15.2609 102.749 15.0249 101.712L13.1754 93.578C13.0901 93.2029 12.7971 92.9099 12.422 92.8246L4.2883 90.9751C3.2506 90.7391 3.2506 89.2609 4.28829 89.0249L12.422 87.1754C12.7971 87.0901 13.0901 86.7971 13.1754 86.422L15.0249 78.2883Z" fill="#C56AFF"/>
<path d="M15.0249 126.288C15.2609 125.251 16.7391 125.251 16.9751 126.288L18.8246 134.422C18.9099 134.797 19.2029 135.09 19.578 135.175L27.7117 137.025C28.7494 137.261 28.7494 138.739 27.7117 138.975L19.578 140.825C19.2029 140.91 18.9099 141.203 18.8246 141.578L16.9751 149.712C16.7391 150.749 15.2609 150.749 15.0249 149.712L13.1754 141.578C13.0901 141.203 12.7971 140.91 12.422 140.825L4.2883 138.975C3.2506 138.739 3.2506 137.261 4.28829 137.025L12.422 135.175C12.7971 135.09 13.0901 134.797 13.1754 134.422L15.0249 126.288Z" fill="#C56AFF"/>
<path d="M15.0249 174.288C15.2609 173.251 16.7391 173.251 16.9751 174.288L18.8246 182.422C18.9099 182.797 19.2029 183.09 19.578 183.175L27.7117 185.025C28.7494 185.261 28.7494 186.739 27.7117 186.975L19.578 188.825C19.2029 188.91 18.9099 189.203 18.8246 189.578L16.9751 197.712C16.7391 198.749 15.2609 198.749 15.0249 197.712L13.1754 189.578C13.0901 189.203 12.7971 188.91 12.422 188.825L4.2883 186.975C3.2506 186.739 3.2506 185.261 4.28829 185.025L12.422 183.175C12.7971 183.09 13.0901 182.797 13.1754 182.422L15.0249 174.288Z" fill="#C56AFF"/>
<path d="M15.0249 222.288C15.2609 221.251 16.7391 221.251 16.9751 222.288L18.8246 230.422C18.9099 230.797 19.2029 231.09 19.578 231.175L27.7117 233.025C28.7494 233.261 28.7494 234.739 27.7117 234.975L19.578 236.825C19.2029 236.91 18.9099 237.203 18.8246 237.578L16.9751 245.712C16.7391 246.749 15.2609 246.749 15.0249 245.712L13.1754 237.578C13.0901 237.203 12.7971 236.91 12.422 236.825L4.2883 234.975C3.2506 234.739 3.2506 233.261 4.28829 233.025L12.422 231.175C12.7971 231.09 13.0901 230.797 13.1754 230.422L15.0249 222.288Z" fill="#C56AFF"/>
<path d="M15.0249 270.288C15.2609 269.251 16.7391 269.251 16.9751 270.288L18.8246 278.422C18.9099 278.797 19.2029 279.09 19.578 279.175L27.7117 281.025C28.7494 281.261 28.7494 282.739 27.7117 282.975L19.578 284.825C19.2029 284.91 18.9099 285.203 18.8246 285.578L16.9751 293.712C16.7391 294.749 15.2609 294.749 15.0249 293.712L13.1754 285.578C13.0901 285.203 12.7971 284.91 12.422 284.825L4.2883 282.975C3.2506 282.739 3.2506 281.261 4.28829 281.025L12.422 279.175C12.7971 279.09 13.0901 278.797 13.1754 278.422L15.0249 270.288Z" fill="#C56AFF"/>
<path d="M15.0249 318.288C15.2609 317.251 16.7391 317.251 16.9751 318.288L18.8246 326.422C18.9099 326.797 19.2029 327.09 19.578 327.175L27.7117 329.025C28.7494 329.261 28.7494 330.739 27.7117 330.975L19.578 332.825C19.2029 332.91 18.9099 333.203 18.8246 333.578L16.9751 341.712C16.7391 342.749 15.2609 342.749 15.0249 341.712L13.1754 333.578C13.0901 333.203 12.7971 332.91 12.422 332.825L4.2883 330.975C3.2506 330.739 3.2506 329.261 4.28829 329.025L12.422 327.175C12.7971 327.09 13.0901 326.797 13.1754 326.422L15.0249 318.288Z" fill="#C56AFF"/>
<path d="M15.0249 367.288C15.2609 366.251 16.7391 366.251 16.9751 367.288L18.8246 375.422C18.9099 375.797 19.2029 376.09 19.578 376.175L27.7117 378.025C28.7494 378.261 28.7494 379.739 27.7117 379.975L19.578 381.825C19.2029 381.91 18.9099 382.203 18.8246 382.578L16.9751 390.712C16.7391 391.749 15.2609 391.749 15.0249 390.712L13.1754 382.578C13.0901 382.203 12.7971 381.91 12.422 381.825L4.2883 379.975C3.2506 379.739 3.2506 378.261 4.28829 378.025L12.422 376.175C12.7971 376.09 13.0901 375.797 13.1754 375.422L15.0249 367.288Z" fill="#C56AFF"/>
<path d="M266.863 12.5699C266.604 9.5419 264.122 7.18547 261.085 7.08396L54.7308 0.18749C51.5739 0.0819829 48.8758 2.44217 48.5604 5.5851L43.6622 54.401C43.3077 57.9338 46.0816 61 49.6322 61H264.466C267.981 61 270.743 57.9917 270.444 54.4893L266.863 12.5699Z" fill="url(#paint0_linear_1406_587)"/>
<path d="M76.9819 25.432H65.5899V30.808H74.5819V34.36H65.5899V43H61.1739V21.88H76.9819V25.432ZM89.6689 21.56C91.7595 21.56 93.5622 21.9973 95.0769 22.872C96.5915 23.7467 97.7542 24.9947 98.5649 26.616C99.3969 28.2373 99.8129 30.1787 99.8129 32.44C99.8129 34.7013 99.3969 36.6427 98.5649 38.264C97.7542 39.8853 96.5915 41.1333 95.0769 42.008C93.5622 42.8827 91.7595 43.32 89.6689 43.32C87.5782 43.32 85.7649 42.8827 84.2289 42.008C82.7142 41.1333 81.5409 39.8853 80.7089 38.264C79.8982 36.6427 79.4929 34.7013 79.4929 32.44C79.4929 30.1787 79.8982 28.2373 80.7089 26.616C81.5409 24.9947 82.7142 23.7467 84.2289 22.872C85.7649 21.9973 87.5782 21.56 89.6689 21.56ZM89.6689 25.176C88.4742 25.176 87.4609 25.4533 86.6289 26.008C85.7969 26.5627 85.1569 27.384 84.7089 28.472C84.2822 29.5387 84.0689 30.8613 84.0689 32.44C84.0689 33.9973 84.2822 35.32 84.7089 36.408C85.1569 37.496 85.7969 38.3173 86.6289 38.872C87.4609 39.4267 88.4742 39.704 89.6689 39.704C90.8422 39.704 91.8449 39.4267 92.6769 38.872C93.5089 38.3173 94.1382 37.496 94.5649 36.408C95.0129 35.32 95.2369 33.9973 95.2369 32.44C95.2369 30.8613 95.0129 29.5387 94.5649 28.472C94.1382 27.384 93.5089 26.5627 92.6769 26.008C91.8449 25.4533 90.8422 25.176 89.6689 25.176ZM113.58 21.88C115.969 21.88 117.846 22.456 119.212 23.608C120.577 24.76 121.26 26.3067 121.26 28.248C121.26 30.3173 120.577 31.9067 119.212 33.016C117.846 34.104 115.98 34.648 113.612 34.648L113.164 34.904H108.62V43H104.268V21.88H113.58ZM113.068 31.544C114.305 31.544 115.222 31.2987 115.82 30.808C116.438 30.296 116.748 29.5173 116.748 28.472C116.748 27.4267 116.438 26.6587 115.82 26.168C115.222 25.656 114.305 25.4 113.068 25.4H108.62V31.544H113.068ZM115.66 32.472L122.508 43H117.548L111.884 33.752L115.66 32.472ZM139.143 43L132.999 21.88H137.703L141.863 39.32L146.087 21.88H150.311L154.599 39.32L158.727 21.88H163.239L157.095 43H152.135L149.191 31.48L148.199 26.488H148.135L147.143 31.48L144.231 43H139.143ZM175.356 21.56C177.447 21.56 179.25 21.9973 180.764 22.872C182.279 23.7467 183.442 24.9947 184.252 26.616C185.084 28.2373 185.5 30.1787 185.5 32.44C185.5 34.7013 185.084 36.6427 184.252 38.264C183.442 39.8853 182.279 41.1333 180.764 42.008C179.25 42.8827 177.447 43.32 175.356 43.32C173.266 43.32 171.452 42.8827 169.916 42.008C168.402 41.1333 167.228 39.8853 166.396 38.264C165.586 36.6427 165.18 34.7013 165.18 32.44C165.18 30.1787 165.586 28.2373 166.396 26.616C167.228 24.9947 168.402 23.7467 169.916 22.872C171.452 21.9973 173.266 21.56 175.356 21.56ZM175.356 25.176C174.162 25.176 173.148 25.4533 172.316 26.008C171.484 26.5627 170.844 27.384 170.396 28.472C169.97 29.5387 169.756 30.8613 169.756 32.44C169.756 33.9973 169.97 35.32 170.396 36.408C170.844 37.496 171.484 38.3173 172.316 38.872C173.148 39.4267 174.162 39.704 175.356 39.704C176.53 39.704 177.532 39.4267 178.364 38.872C179.196 38.3173 179.826 37.496 180.252 36.408C180.7 35.32 180.924 33.9973 180.924 32.44C180.924 30.8613 180.7 29.5387 180.252 28.472C179.826 27.384 179.196 26.5627 178.364 26.008C177.532 25.4533 176.53 25.176 175.356 25.176ZM212.931 21.88V43H208.931V31.992L209.155 25.816H209.091L203.235 43H199.619L193.795 25.816H193.731L193.955 31.992V43H189.955V21.88H196.355L200.163 33.4L201.507 38.168H201.571L202.947 33.432L206.723 21.88H212.931ZM218.424 43V21.88H234.264V25.432H222.84V30.68H231.832V34.072H222.84V39.448H234.712V43H218.424ZM256.818 21.88V43H251.762L244.37 30.584L242.546 27.128H242.514L242.642 30.776V43H238.674V21.88H243.698L251.09 34.264L252.914 37.752H252.978L252.85 34.104V21.88H256.818Z" fill="white"/>
<defs>
<linearGradient id="paint0_linear_1406_587" x1="248.2" y1="12.2" x2="79.0114" y2="108.813" gradientUnits="userSpaceOnUse">
<stop stop-color="#C56AFF"/>
<stop offset="1" stop-color="#832FB8"/>
</linearGradient>
</defs>
</svg>
