<svg width="375" height="161" viewBox="0 0 375 161" fill="none" xmlns="http://www.w3.org/2000/svg">
<path d="M8.5848 51.9454C9.34469 42.2923 16.9106 34.5701 26.5462 33.6129L344.29 2.05056C355.566 0.930399 365.52 9.39422 366.228 20.7045L373.671 139.752C374.391 151.266 365.247 161 353.71 161H21.6363C9.9719 161 0.782568 151.059 1.69796 139.43L8.5848 51.9454Z" fill="url(#paint0_linear_1380_586)"/>
<path d="M135.456 116.36C133.344 116.36 131.46 115.892 129.804 114.956C128.172 114.02 126.9 112.64 125.988 110.816C125.076 108.992 124.62 106.772 124.62 104.156C124.62 101.588 125.1 99.392 126.06 97.568C127.02 95.744 128.388 94.34 130.164 93.356C131.964 92.372 134.076 91.88 136.5 91.88C139.188 91.88 141.36 92.372 143.016 93.356C144.672 94.316 145.956 95.852 146.868 97.964L141.144 100.232C140.832 99.008 140.28 98.12 139.488 97.568C138.696 97.016 137.712 96.74 136.536 96.74C135.36 96.74 134.352 97.028 133.512 97.604C132.672 98.156 132.036 98.984 131.604 100.088C131.172 101.168 130.956 102.512 130.956 104.12C130.956 105.8 131.172 107.204 131.604 108.332C132.06 109.46 132.72 110.3 133.584 110.852C134.472 111.38 135.564 111.644 136.86 111.644C137.556 111.644 138.192 111.56 138.768 111.392C139.344 111.224 139.848 110.984 140.28 110.672C140.712 110.336 141.048 109.928 141.288 109.448C141.528 108.944 141.648 108.356 141.648 107.684V107.324H136.212V103.184H146.904V116H142.692L142.224 110.42L143.232 111.284C142.728 112.916 141.816 114.176 140.496 115.064C139.2 115.928 137.52 116.36 135.456 116.36ZM159.78 97.64C161.676 97.64 163.332 98.012 164.748 98.756C166.188 99.476 167.304 100.544 168.096 101.96C168.912 103.352 169.32 105.032 169.32 107C169.32 108.968 168.912 110.66 168.096 112.076C167.304 113.468 166.188 114.536 164.748 115.28C163.332 116 161.676 116.36 159.78 116.36C157.932 116.36 156.288 116 154.848 115.28C153.408 114.536 152.28 113.468 151.464 112.076C150.672 110.66 150.276 108.968 150.276 107C150.276 105.032 150.672 103.352 151.464 101.96C152.28 100.544 153.408 99.476 154.848 98.756C156.288 98.012 157.932 97.64 159.78 97.64ZM159.78 101.996C159.084 101.996 158.484 102.164 157.98 102.5C157.476 102.836 157.092 103.376 156.828 104.12C156.564 104.864 156.432 105.824 156.432 107C156.432 108.176 156.564 109.136 156.828 109.88C157.092 110.6 157.476 111.14 157.98 111.5C158.484 111.836 159.084 112.004 159.78 112.004C160.5 112.004 161.112 111.836 161.616 111.5C162.12 111.14 162.504 110.6 162.768 109.88C163.032 109.136 163.164 108.176 163.164 107C163.164 105.824 163.032 104.864 162.768 104.12C162.504 103.376 162.12 102.836 161.616 102.5C161.112 102.164 160.5 101.996 159.78 101.996ZM181.33 97.64C183.226 97.64 184.882 98.012 186.298 98.756C187.738 99.476 188.854 100.544 189.646 101.96C190.462 103.352 190.87 105.032 190.87 107C190.87 108.968 190.462 110.66 189.646 112.076C188.854 113.468 187.738 114.536 186.298 115.28C184.882 116 183.226 116.36 181.33 116.36C179.482 116.36 177.838 116 176.398 115.28C174.958 114.536 173.83 113.468 173.014 112.076C172.222 110.66 171.826 108.968 171.826 107C171.826 105.032 172.222 103.352 173.014 101.96C173.83 100.544 174.958 99.476 176.398 98.756C177.838 98.012 179.482 97.64 181.33 97.64ZM181.33 101.996C180.634 101.996 180.034 102.164 179.53 102.5C179.026 102.836 178.642 103.376 178.378 104.12C178.114 104.864 177.982 105.824 177.982 107C177.982 108.176 178.114 109.136 178.378 109.88C178.642 110.6 179.026 111.14 179.53 111.5C180.034 111.836 180.634 112.004 181.33 112.004C182.05 112.004 182.662 111.836 183.166 111.5C183.67 111.14 184.054 110.6 184.318 109.88C184.582 109.136 184.714 108.176 184.714 107C184.714 105.824 184.582 104.864 184.318 104.12C184.054 103.376 183.67 102.836 183.166 102.5C182.662 102.164 182.05 101.996 181.33 101.996ZM211.491 93.176L211.995 97.28C211.851 97.232 211.707 97.208 211.563 97.208C211.419 97.184 211.275 97.172 211.131 97.172C210.075 97.172 209.283 97.436 208.755 97.964C208.251 98.468 207.999 99.104 207.999 99.872L205.839 99.08C205.839 98.096 206.019 97.148 206.379 96.236C206.739 95.324 207.291 94.58 208.035 94.004C208.803 93.428 209.763 93.14 210.915 93.14C210.987 93.14 211.071 93.14 211.167 93.14C211.287 93.14 211.395 93.152 211.491 93.176ZM205.299 112.004C207.387 112.004 208.983 112.448 210.087 113.336C211.215 114.2 211.779 115.448 211.779 117.08C211.779 118.568 211.371 119.804 210.555 120.788C209.739 121.772 208.587 122.504 207.099 122.984C205.635 123.488 203.895 123.74 201.879 123.74C198.615 123.74 196.263 123.332 194.823 122.516C193.383 121.7 192.663 120.596 192.663 119.204C192.663 118.196 193.071 117.38 193.887 116.756C194.703 116.132 196.059 115.796 197.955 115.748L197.811 116.324C196.347 116.132 195.255 115.7 194.535 115.028C193.815 114.356 193.455 113.444 193.455 112.292C193.455 111.14 193.911 110.204 194.823 109.484C195.735 108.764 196.947 108.368 198.459 108.296L200.691 109.34H200.115C199.179 109.388 198.519 109.544 198.135 109.808C197.751 110.072 197.559 110.396 197.559 110.78C197.559 111.188 197.727 111.5 198.063 111.716C198.399 111.908 198.903 112.004 199.575 112.004H205.299ZM201.915 119.78C203.067 119.78 204.015 119.696 204.759 119.528C205.527 119.384 206.103 119.168 206.487 118.88C206.871 118.616 207.063 118.304 207.063 117.944C207.063 117.584 206.931 117.296 206.667 117.08C206.403 116.888 205.923 116.792 205.227 116.792H198.783C198.327 116.792 197.955 116.912 197.667 117.152C197.403 117.392 197.271 117.692 197.271 118.052C197.271 118.604 197.679 119.024 198.495 119.312C199.311 119.624 200.451 119.78 201.915 119.78ZM202.131 97.64C203.955 97.64 205.515 97.88 206.811 98.36C208.107 98.84 209.091 99.536 209.763 100.448C210.459 101.336 210.807 102.44 210.807 103.76C210.807 105.056 210.459 106.16 209.763 107.072C209.091 107.984 208.107 108.68 206.811 109.16C205.515 109.616 203.955 109.844 202.131 109.844C199.275 109.844 197.103 109.316 195.615 108.26C194.151 107.204 193.419 105.704 193.419 103.76C193.419 102.44 193.755 101.336 194.427 100.448C195.123 99.536 196.119 98.84 197.415 98.36C198.711 97.88 200.283 97.64 202.131 97.64ZM202.131 101.132C201.339 101.132 200.691 101.36 200.187 101.816C199.707 102.272 199.467 102.92 199.467 103.76C199.467 104.576 199.707 105.212 200.187 105.668C200.691 106.124 201.339 106.352 202.131 106.352C202.899 106.352 203.535 106.124 204.039 105.668C204.543 105.212 204.795 104.576 204.795 103.76C204.795 102.92 204.543 102.272 204.039 101.816C203.535 101.36 202.899 101.132 202.131 101.132ZM220.26 90.368V109.88C220.26 110.672 220.392 111.236 220.656 111.572C220.92 111.908 221.364 112.076 221.988 112.076C222.348 112.076 222.648 112.052 222.888 112.004C223.128 111.956 223.416 111.884 223.752 111.788L223.356 115.46C222.924 115.724 222.36 115.94 221.664 116.108C220.968 116.276 220.284 116.36 219.612 116.36C217.692 116.36 216.3 115.916 215.436 115.028C214.572 114.14 214.14 112.688 214.14 110.672V90.368H220.26ZM234.773 116.36C232.781 116.36 231.053 115.988 229.589 115.244C228.149 114.5 227.033 113.432 226.241 112.04C225.449 110.648 225.053 108.968 225.053 107C225.053 105.032 225.449 103.352 226.241 101.96C227.033 100.568 228.137 99.5 229.553 98.756C230.993 98.012 232.637 97.64 234.485 97.64C236.381 97.64 237.989 98.012 239.309 98.756C240.653 99.476 241.673 100.484 242.369 101.78C243.065 103.052 243.413 104.516 243.413 106.172C243.413 106.604 243.401 107.036 243.377 107.468C243.353 107.9 243.317 108.26 243.269 108.548H229.013V105.272H240.569L237.653 106.388C237.653 104.948 237.389 103.844 236.861 103.076C236.357 102.308 235.565 101.924 234.485 101.924C233.717 101.924 233.057 102.104 232.505 102.464C231.977 102.824 231.569 103.388 231.281 104.156C231.017 104.924 230.885 105.908 230.885 107.108C230.885 108.284 231.041 109.244 231.353 109.988C231.665 110.708 232.109 111.236 232.685 111.572C233.261 111.884 233.957 112.04 234.773 112.04C235.685 112.04 236.405 111.86 236.933 111.5C237.485 111.14 237.893 110.636 238.157 109.988L243.053 111.608C242.717 112.64 242.129 113.516 241.289 114.236C240.473 114.932 239.489 115.46 238.337 115.82C237.209 116.18 236.021 116.36 234.773 116.36ZM268.477 92.24C270.421 92.24 272.077 92.552 273.445 93.176C274.813 93.8 275.857 94.7 276.577 95.876C277.297 97.052 277.657 98.48 277.657 100.16C277.657 101.84 277.297 103.268 276.577 104.444C275.857 105.62 274.813 106.52 273.445 107.144C272.077 107.768 270.421 108.08 268.477 108.08H263.761V116H257.569V92.24H268.477ZM267.505 103.436C268.801 103.436 269.773 103.172 270.421 102.644C271.093 102.092 271.429 101.264 271.429 100.16C271.429 99.056 271.093 98.24 270.421 97.712C269.773 97.16 268.801 96.884 267.505 96.884H263.761V103.436H267.505ZM287.232 90.368V109.88C287.232 110.672 287.364 111.236 287.628 111.572C287.892 111.908 288.336 112.076 288.96 112.076C289.32 112.076 289.62 112.052 289.86 112.004C290.1 111.956 290.388 111.884 290.724 111.788L290.328 115.46C289.896 115.724 289.332 115.94 288.636 116.108C287.94 116.276 287.256 116.36 286.584 116.36C284.664 116.36 283.272 115.916 282.408 115.028C281.544 114.14 281.112 112.688 281.112 110.672V90.368H287.232ZM303.287 104.588C303.287 103.748 303.047 103.088 302.567 102.608C302.111 102.104 301.487 101.852 300.695 101.852C299.903 101.852 299.219 102.056 298.643 102.464C298.091 102.848 297.707 103.544 297.491 104.552L292.307 103.328C292.643 101.6 293.531 100.22 294.971 99.188C296.411 98.156 298.439 97.64 301.055 97.64C302.807 97.64 304.295 97.904 305.519 98.432C306.767 98.936 307.715 99.704 308.363 100.736C309.035 101.744 309.371 102.992 309.371 104.48V111.068C309.371 112.004 309.791 112.472 310.631 112.472C311.063 112.472 311.411 112.424 311.675 112.328L311.315 115.82C310.595 116.156 309.719 116.324 308.687 116.324C307.751 116.324 306.923 116.18 306.203 115.892C305.483 115.58 304.919 115.124 304.511 114.524C304.103 113.9 303.899 113.12 303.899 112.184V111.968L304.583 111.716C304.583 112.748 304.271 113.612 303.647 114.308C303.047 115.004 302.255 115.52 301.271 115.856C300.311 116.192 299.303 116.36 298.247 116.36C297.023 116.36 295.955 116.168 295.043 115.784C294.131 115.4 293.423 114.848 292.919 114.128C292.439 113.384 292.199 112.472 292.199 111.392C292.199 110.096 292.583 109.028 293.351 108.188C294.143 107.324 295.379 106.724 297.059 106.388L303.863 104.984L303.827 108.224L300.371 108.944C299.651 109.088 299.111 109.304 298.751 109.592C298.415 109.856 298.247 110.264 298.247 110.816C298.247 111.344 298.439 111.74 298.823 112.004C299.207 112.268 299.663 112.4 300.191 112.4C300.599 112.4 300.983 112.34 301.343 112.22C301.727 112.1 302.063 111.92 302.351 111.68C302.639 111.416 302.867 111.092 303.035 110.708C303.203 110.324 303.287 109.868 303.287 109.34V104.588ZM331.038 98L324.486 116C323.814 117.896 323.082 119.408 322.29 120.536C321.498 121.664 320.562 122.48 319.482 122.984C318.402 123.488 317.106 123.74 315.594 123.74C314.586 123.74 313.662 123.632 312.822 123.416C311.982 123.2 311.25 122.9 310.626 122.516L311.85 118.376C312.282 118.688 312.738 118.904 313.218 119.024C313.698 119.168 314.31 119.24 315.054 119.24C315.75 119.24 316.314 119.12 316.746 118.88C317.202 118.64 317.562 118.184 317.826 117.512L318.294 116.396L316.206 111.5L310.806 98H317.538L320.31 108.26L321.174 112.076L322.182 108.116L324.954 98H331.038Z" fill="white"/>
<path d="M133.248 74.28C131.512 74.28 130.009 73.8973 128.74 73.132C127.471 72.3667 126.481 71.284 125.772 69.884C125.063 68.4653 124.708 66.7573 124.708 64.76C124.708 62.8 125.072 61.1107 125.8 59.692C126.547 58.2733 127.592 57.1813 128.936 56.416C130.299 55.632 131.857 55.24 133.612 55.24C135.535 55.24 137.084 55.5947 138.26 56.304C139.455 57.0133 140.407 58.1147 141.116 59.608L138.344 60.924C137.989 59.8973 137.401 59.132 136.58 58.628C135.777 58.1053 134.797 57.844 133.64 57.844C132.483 57.844 131.465 58.1147 130.588 58.656C129.729 59.1973 129.057 59.9907 128.572 61.036C128.087 62.0627 127.844 63.304 127.844 64.76C127.844 66.2347 128.059 67.4947 128.488 68.54C128.917 69.5667 129.561 70.3507 130.42 70.892C131.297 71.4333 132.371 71.704 133.64 71.704C134.331 71.704 134.975 71.62 135.572 71.452C136.169 71.2653 136.692 71.004 137.14 70.668C137.588 70.3133 137.933 69.8747 138.176 69.352C138.437 68.8107 138.568 68.176 138.568 67.448V66.916H133.192V64.48H141.228V74H138.988L138.82 70.276L139.38 70.556C138.932 71.732 138.185 72.6467 137.14 73.3C136.113 73.9533 134.816 74.28 133.248 74.28ZM151.746 74.28C150.346 74.28 149.114 73.9907 148.05 73.412C146.986 72.8333 146.155 72.0027 145.558 70.92C144.979 69.8187 144.69 68.512 144.69 67C144.69 65.488 144.979 64.1907 145.558 63.108C146.155 62.0067 146.976 61.1667 148.022 60.588C149.067 60.0093 150.252 59.72 151.578 59.72C152.94 59.72 154.098 60 155.05 60.56C156.002 61.12 156.73 61.8853 157.234 62.856C157.738 63.8267 157.99 64.928 157.99 66.16C157.99 66.496 157.98 66.8133 157.962 67.112C157.943 67.4107 157.915 67.672 157.878 67.896H146.622V65.6H156.562L155.078 66.048C155.078 64.7787 154.76 63.808 154.126 63.136C153.491 62.4453 152.623 62.1 151.522 62.1C150.719 62.1 150.019 62.2867 149.422 62.66C148.824 63.0333 148.367 63.5933 148.05 64.34C147.732 65.068 147.574 65.964 147.574 67.028C147.574 68.0733 147.742 68.96 148.078 69.688C148.414 70.416 148.89 70.9667 149.506 71.34C150.122 71.7133 150.85 71.9 151.69 71.9C152.623 71.9 153.379 71.7227 153.958 71.368C154.536 71.0133 154.994 70.5187 155.33 69.884L157.71 71.004C157.374 71.676 156.916 72.264 156.338 72.768C155.778 73.2533 155.106 73.6267 154.322 73.888C153.538 74.1493 152.679 74.28 151.746 74.28ZM165.533 55.884V69.8C165.533 70.4907 165.71 70.9947 166.065 71.312C166.438 71.6293 166.933 71.788 167.549 71.788C168.053 71.788 168.492 71.7133 168.865 71.564C169.238 71.396 169.584 71.172 169.901 70.892L170.573 73.076C170.144 73.4493 169.612 73.748 168.977 73.972C168.361 74.1773 167.67 74.28 166.905 74.28C166.102 74.28 165.365 74.1493 164.693 73.888C164.021 73.6267 163.498 73.2067 163.125 72.628C162.752 72.0307 162.556 71.256 162.537 70.304V56.724L165.533 55.884ZM170.349 60V62.352H159.849V60H170.349ZM183.93 57.648C183.276 57.648 182.772 57.4893 182.418 57.172C182.082 56.836 181.914 56.3693 181.914 55.772C181.914 55.1747 182.082 54.7173 182.418 54.4C182.772 54.0827 183.276 53.924 183.93 53.924C184.564 53.924 185.05 54.0827 185.386 54.4C185.74 54.7173 185.918 55.1747 185.918 55.772C185.918 56.3693 185.74 56.836 185.386 57.172C185.05 57.4893 184.564 57.648 183.93 57.648ZM185.414 60V74H182.418V60H185.414ZM194.189 55.884V69.8C194.189 70.4907 194.367 70.9947 194.721 71.312C195.095 71.6293 195.589 71.788 196.205 71.788C196.709 71.788 197.148 71.7133 197.521 71.564C197.895 71.396 198.24 71.172 198.557 70.892L199.229 73.076C198.8 73.4493 198.268 73.748 197.633 73.972C197.017 74.1773 196.327 74.28 195.561 74.28C194.759 74.28 194.021 74.1493 193.349 73.888C192.677 73.6267 192.155 73.2067 191.781 72.628C191.408 72.0307 191.212 71.256 191.193 70.304V56.724L194.189 55.884ZM199.005 60V62.352H188.505V60H199.005ZM217.15 59.72C218.513 59.72 219.717 60.0093 220.762 60.588C221.807 61.1667 222.619 62.0067 223.198 63.108C223.795 64.1907 224.094 65.488 224.094 67C224.094 68.512 223.795 69.8187 223.198 70.92C222.619 72.0027 221.807 72.8333 220.762 73.412C219.717 73.9907 218.513 74.28 217.15 74.28C215.787 74.28 214.583 73.9907 213.538 73.412C212.493 72.8333 211.671 72.0027 211.074 70.92C210.477 69.8187 210.178 68.512 210.178 67C210.178 65.488 210.477 64.1907 211.074 63.108C211.671 62.0067 212.493 61.1667 213.538 60.588C214.583 60.0093 215.787 59.72 217.15 59.72ZM217.15 62.072C216.31 62.072 215.591 62.268 214.994 62.66C214.415 63.0333 213.967 63.584 213.65 64.312C213.333 65.04 213.174 65.936 213.174 67C213.174 68.0453 213.333 68.9413 213.65 69.688C213.967 70.416 214.415 70.976 214.994 71.368C215.591 71.7413 216.31 71.928 217.15 71.928C217.99 71.928 218.699 71.7413 219.278 71.368C219.857 70.976 220.305 70.416 220.622 69.688C220.939 68.9413 221.098 68.0453 221.098 67C221.098 65.936 220.939 65.04 220.622 64.312C220.305 63.584 219.857 63.0333 219.278 62.66C218.699 62.268 217.99 62.072 217.15 62.072ZM227.863 74V60H230.523L230.719 63.64L230.327 63.248C230.588 62.4453 230.962 61.7827 231.447 61.26C231.951 60.7187 232.539 60.3267 233.211 60.084C233.902 59.8413 234.63 59.72 235.395 59.72C236.384 59.72 237.271 59.916 238.055 60.308C238.858 60.6813 239.492 61.2507 239.959 62.016C240.426 62.7813 240.659 63.752 240.659 64.928V74H237.663V65.852C237.663 64.4707 237.374 63.5187 236.795 62.996C236.235 62.4547 235.526 62.184 234.667 62.184C234.051 62.184 233.454 62.3333 232.875 62.632C232.296 62.912 231.811 63.3693 231.419 64.004C231.046 64.6387 230.859 65.488 230.859 66.552V74H227.863Z" fill="white"/>
<g clip-path="url(#clip0_1380_586)">
<path d="M79.316 104.226C88.8258 99.0225 96.0349 95.0572 96.6563 94.7489C98.644 93.6954 100.697 90.9071 96.6563 88.7413C95.3517 88.0601 88.3277 84.2184 79.316 79.2639L66.8232 91.8376L79.316 104.226V104.226Z" fill="#FFD900"/>
<path d="M66.8233 91.8376L27.0449 131.792C27.9786 131.915 29.0327 131.668 30.2755 130.987C32.8847 129.564 60.5444 114.51 79.3161 104.229L66.8233 91.8376Z" fill="#F43249"/>
<path d="M66.8236 91.8376L79.3164 79.3258C79.3164 79.3258 33.0736 54.1751 30.2758 52.6905C29.2217 52.0683 28.0404 51.8835 26.9834 52.0683L66.8236 91.8376V91.8376Z" fill="#00EE76"/>
<path d="M66.8235 91.8377L26.9833 52.0684C25.3664 52.4409 24 53.8646 24 56.7761V127.084C24 129.749 25.0573 131.668 27.0451 131.853L66.8235 91.8377Z" fill="#00D3FF"/>
</g>
<defs>
<linearGradient id="paint0_linear_1380_586" x1="37.5" y1="32.2" x2="365.035" y2="148.753" gradientUnits="userSpaceOnUse">
<stop stop-color="#C56AFF"/>
<stop offset="1" stop-color="#832FB8"/>
</linearGradient>
<clipPath id="clip0_1380_586">
<rect width="75" height="80" fill="white" transform="translate(24 52)"/>
</clipPath>
</defs>
</svg>
